<?xml version="1.0" encoding="utf-8"?>
<!-- Generator: Adobe Illustrator 19.0.0, SVG Export Plug-In . SVG Version: 6.00 Build 0)  -->
<svg version="1.1" id="Layer_1" xmlns="http://www.w3.org/2000/svg" xmlns:xlink="http://www.w3.org/1999/xlink" x="0px" y="0px"
	 viewBox="-79 -120 800 800" style="enable-background:new -79 -120 800 800;" xml:space="preserve">
<style type="text/css">
	.st0{fill:#000000;}
	.st1{clip-path:url(#SVGID_2_);}
	.st2{fill:#FFFFFF;}
</style>
<g id="XMLID_1_">
	<g id="XMLID_2_">
		<rect id="XMLID_293_" x="-79" y="-120" class="st0" width="800" height="800"/>
		<g id="XMLID_3_">
			<g>
				<defs>
					<polyline id="SVGID_1_" points="-79,-120 721,-120 721,680 -79,680 					"/>
				</defs>
				<clipPath id="SVGID_2_">
					<use xlink:href="#SVGID_1_"  style="overflow:visible;"/>
				</clipPath>
				<g id="XMLID_4_" class="st1">
					<circle id="XMLID_174_" class="st2" cx="251.2" cy="-76.3" r="2.8"/>
					<circle id="XMLID_173_" class="st2" cx="580" cy="32.4" r="2.8"/>
					<circle id="XMLID_172_" class="st2" cx="314.7" cy="341.4" r="2.8"/>
					<circle id="XMLID_171_" class="st2" cx="69.2" cy="97.3" r="2.8"/>
					<circle id="XMLID_170_" class="st2" cx="80.5" cy="-21.2" r="2.8"/>
					<circle id="XMLID_169_" class="st2" cx="190.5" cy="91.7" r="2.8"/>
					<circle id="XMLID_168_" class="st2" cx="294.9" cy="-24" r="2.8"/>
					<circle id="XMLID_167_" class="st2" cx="536.2" cy="179.2" r="2.8"/>
					<circle id="XMLID_166_" class="st2" cx="118.6" cy="461.4" r="2.8"/>
					<circle id="XMLID_165_" class="st2" cx="175" cy="668.8" r="2.8"/>
					<circle id="XMLID_164_" class="st2" cx="52.2" cy="568.6" r="2.8"/>
					<circle id="XMLID_163_" class="st2" cx="400.8" cy="660.3" r="2.8"/>
					<circle id="XMLID_162_" class="st2" cx="587" cy="373.9" r="2.8"/>
					<circle id="XMLID_161_" class="st2" cx="492.5" cy="299.1" r="2.8"/>
					<circle id="XMLID_160_" class="st2" cx="294.9" cy="256.8" r="2.8"/>
					<circle id="XMLID_159_" class="st2" cx="357" cy="126.9" r="2.8"/>
					<circle id="XMLID_158_" class="st2" cx="687.2" cy="251.1" r="2.8"/>
					<circle id="XMLID_157_" class="st2" cx="499.6" cy="79" r="2.8"/>
					<circle id="XMLID_156_" class="st2" cx="437.5" cy="70.5" r="2.8"/>
					<circle id="XMLID_155_" class="st2" cx="321.8" cy="-97.4" r="2.8"/>
					<circle id="XMLID_154_" class="st2" cx="200.4" cy="84.6" r="2.8"/>
					<circle id="XMLID_153_" class="st2" cx="213.1" cy="335.8" r="2.8"/>
					<circle id="XMLID_152_" class="st2" cx="594.1" cy="441.6" r="2.8"/>
					<circle id="XMLID_151_" class="st2" cx="8.5" cy="242.7" r="2.8"/>
					<circle id="XMLID_150_" class="st2" cx="93.2" cy="12.6" r="2.8"/>
					<circle id="XMLID_149_" class="st2" cx="326" cy="-56.5" r="2.8"/>
					<circle id="XMLID_148_" class="st2" cx="-29.6" cy="313.2" r="2.8"/>
					<circle id="XMLID_147_" class="st2" cx="134.1" cy="536.2" r="2.8"/>
					<circle id="XMLID_146_" class="st2" cx="440.3" cy="596.8" r="2.8"/>
					<circle id="XMLID_145_" class="st2" cx="604" cy="328.7" r="2.8"/>
					<circle id="XMLID_144_" class="st2" cx="410.7" cy="183.4" r="2.8"/>
					<circle id="XMLID_143_" class="st2" cx="327.4" cy="25.3" r="2.8"/>
					<circle id="XMLID_142_" class="st2" cx="-39.5" cy="-105.9" r="2.8"/>
					<circle id="XMLID_141_" class="st2" cx="666.1" cy="-84.7" r="2.8"/>
					<circle id="XMLID_140_" class="st2" cx="697.1" cy="348.5" r="2.8"/>
					<circle id="XMLID_139_" class="st2" cx="657.6" cy="615.2" r="2.8"/>
					<circle id="XMLID_138_" class="st2" cx="488.3" cy="663.2" r="2.8"/>
					<circle id="XMLID_137_" class="st2" cx="48" cy="663.2" r="2.8"/>
					<circle id="XMLID_136_" class="st2" cx="-62.1" cy="571.4" r="2.8"/>
					<circle id="XMLID_135_" class="st2" cx="139.7" cy="245.5" r="2.8"/>
					<circle id="XMLID_134_" class="st2" cx="457.2" cy="225.7" r="2.8"/>
					<circle id="XMLID_133_" class="st2" cx="690.1" cy="18.3" r="2.8"/>
					<circle id="XMLID_132_" class="st2" cx="714" cy="213" r="2.8"/>
					<circle id="XMLID_131_" class="st2" cx="59.3" cy="420.5" r="2.8"/>
					<circle id="XMLID_130_" class="st2" cx="-16.9" cy="166.5" r="2.8"/>
					<circle id="XMLID_129_" class="st2" cx="48" cy="-72" r="5.8"/>
					<circle id="XMLID_128_" class="st2" cx="436.1" cy="177.7" r="5.8"/>
					<circle id="XMLID_127_" class="st2" cx="255.4" cy="505.3" r="5.8"/>
					<circle id="XMLID_126_" class="st2" cx="-56.4" cy="496.7" r="5.8"/>
					<circle id="XMLID_125_" class="st2" cx="652" cy="261" r="5.8"/>
					<circle id="XMLID_124_" class="st2" cx="666.1" cy="-53.7" r="5.8"/>
					<circle id="XMLID_123_" class="st2" cx="630.8" cy="618" r="5.8"/>
					<circle id="XMLID_122_" class="st2" cx="145.4" cy="313.2" r="5.8"/>
					<circle id="XMLID_121_" class="st2" cx="283.7" cy="103" r="5.8"/>
					<circle id="XMLID_120_" class="st2" cx="194.8" cy="-89" r="5.8"/>
					<circle id="XMLID_119_" class="st2" cx="467.1" cy="664.8" r="5.8"/>
					<circle id="XMLID_118_" class="st2" cx="39.5" cy="436" r="5.8"/>
					<circle id="XMLID_117_" class="st2" cx="-14.1" cy="104.4" r="5.8"/>
					<circle id="XMLID_116_" class="st2" cx="643.5" cy="396.6" r="5.8"/>
					<circle id="XMLID_115_" class="st2" cx="359.9" cy="441.6" r="5.8"/>
					<circle id="XMLID_114_" class="st2" cx="616.7" cy="73.3" r="5.8"/>
					<circle id="XMLID_113_" class="st2" cx="460" cy="-19.8" r="2.8"/>
					<circle id="XMLID_112_" class="st2" cx="413.5" cy="428.9" r="2.8"/>
					<circle id="XMLID_111_" class="st2" cx="285.1" cy="564.4" r="2.8"/>
					<circle id="XMLID_110_" class="st2" cx="340.1" cy="626.5" r="2.8"/>
					<circle id="XMLID_109_" class="st2" cx="-57.8" cy="447.3" r="2.8"/>
					<circle id="XMLID_108_" class="st2" cx="-60.7" cy="38" r="2.8"/>
					<circle id="XMLID_107_" class="st2" cx="197.6" cy="-104.5" r="2.8"/>
					<circle id="XMLID_106_" class="st2" cx="705.6" cy="105.8" r="2.8"/>
					<circle id="XMLID_105_" class="st2" cx="701.3" cy="476.9" r="2.8"/>
					<circle id="XMLID_104_" class="st2" cx="520.7" cy="558.7" r="2.8"/>
					<circle id="XMLID_103_" class="st2" cx="239.9" cy="417.6" r="2.8"/>
					<circle id="XMLID_102_" class="st2" cx="237.1" cy="633.5" r="2.8"/>
					<circle id="XMLID_101_" class="st2" cx="539.1" cy="-111.5" r="2.8"/>
				</g>
			</g>
		</g>
	</g>
</g>
</svg>
