<?xml version="1.0" encoding="utf-8"?>
<!-- Generator: Adobe Illustrator 19.0.0, SVG Export Plug-In . SVG Version: 6.00 Build 0)  -->
<svg version="1.1" id="Layer_1" xmlns="http://www.w3.org/2000/svg" xmlns:xlink="http://www.w3.org/1999/xlink" x="0px" y="0px"
	 viewBox="0 0 134.7 29.8" style="enable-background:new 0 0 134.7 29.8;" xml:space="preserve">
<style type="text/css">
	.st0{fill:#EE2724;}
	.st1{fill:#FFFFFF;}
</style>
<g id="Text">
	<path id="XMLID_17_" class="st0" d="M23.5,8c0-3.4-4.3-4.3-7.4-4.3c-5.8,0-9,1.1-11.6,2.8C4.2,6.6,3.9,6.9,3.9,7.2
		c0,0.2,0.2,0.4,0.6,0.4c0.7,0,3-1.7,7.8-1.7c2,0,4.5,0.3,4.5,2.7c0,2.4-2.1,3.7-5.6,4.1c0.6-1.7,1.2-3.1,1.6-3.8
		c0.4-0.7,0.5-0.9,0.5-1.2c0-0.5-0.6-0.6-1.3-0.6c-1.2,0-3.1,0.2-4.1,0.7c-2.6,1.3-3.5,6-4.8,8.6c-0.7,1.4-1.1,1.7-2.4,1.7
		c-0.3,0-0.7,0.2-0.7,0.5c0,0.9,2.6,1.9,5.4,1.9c2.3,0,3.4-0.2,4.1-2.5c0.4-1.2,0.9-2.8,1.4-4.4c0.2,0,0.4,0,0.5,0
		c1.8,0,2.4,0.9,2.4,1.6c0,0.8-0.7,2-0.7,3.1c0,1.5,1.2,2.4,3.8,2.4c3.2,0,6-0.8,6-1.8c0-1.1-2.2-0.1-2.2-1.6c0-0.7,0.2-1.4,0.2-1.9
		c0-1.8-1.8-2.8-4.6-2.8C20.5,12.1,23.5,10.9,23.5,8z"/>
	<path id="XMLID_20_" class="st0" d="M107.9,17.4c-0.2,0-0.4,0.1-0.6,0.1c-1.5,0.6-3.5,1-5.4,1c-0.5,0-0.9-0.2-0.9-0.8
		c0-1,1.5-4,2.6-6.8c1.4-0.1,2.8-0.3,3.3-0.4c0.5-0.1,0.8-0.4,0.8-0.8c0-0.5-0.4-0.6-0.8-0.6c-0.2,0-1.4,0.2-2.8,0.4
		c0.3-1,0.5-1.9,0.5-2.5c0-0.2-0.1-0.5-0.6-0.5c-1.2,0-4.1,0.9-5.4,1c-0.7,0.1-1.2,0.3-1.2,0.6c0,0.1,0,0.3,0,0.4
		c0,0.5-0.1,1-0.1,1.5c-0.5,0.1-0.9,0.1-1.2,0.1c-0.4,0.1-0.6,0.3-0.6,0.7c0,0.4,0.3,0.5,0.6,0.5c0.1,0,0.5,0,0.9,0
		c-0.6,2.3-1.9,4.5-2.5,6.1c-2.3,0.7-4.9,1.4-7,1.4c-1.5,0-3.4-0.4-3.6-2.1c5.1-0.4,9-1.5,9-4.6c0-1.9-1.5-3.1-5.2-3.1
		c-5.6,0-10.1,2.9-10.1,7.3c0,0.5,0.1,0.9,0.2,1.3c-0.8,0.4-2.1,1-2.8,1c-0.5,0-0.7-0.3-0.7-0.7c0-0.6,0.3-1.1,0.3-1.6
		c0-1.1-0.9-1.7-2.7-1.7c-0.9,0-2,0.1-2.6,0.2c3.2-0.7,7.7-2.4,7.7-5.1c0-0.2-0.1-0.5-0.6-0.5c-0.6,0-3.4,0.1-4.2,0.1
		c-0.7,0-1,0.2-1,0.5c0,0.1,0,0.3,0,0.4c0,1.5-1.5,3.1-4.1,3.8c0.8-2.2,2.7-7.7,2.7-9.1c0-0.2-0.2-0.5-0.6-0.5c-1.2,0-3.9,0-4.9,0
		c-0.7,0-1,0.2-1,0.5c0,0.1,0,0.2,0,0.3c0,2.5-2.3,8.5-3.5,12.1c-1.9,0.6-5.1,1.3-7.2,1.3c-1.9,0-3.2-0.5-3.2-2.7
		c0-2,0.9-5.2,3.4-5.2c1.6,0,2.3,1.3,3.1,2.7c0.1,0.2,0.4,0.4,0.7,0.4c1,0,2.2-2.8,2.2-3.7c0-0.2-0.1-0.3-0.2-0.4
		c-0.8-0.5-2.6-0.9-5.3-0.9c-3.8,0-7.4,1.5-9.1,4.1c-0.4,0.1-0.7,0.1-1.2,0.1c-0.5,0-1-0.1-1.6-0.2c-0.4-3.2-3.6-3.9-6.7-3.9
		c-5,0-9.7,2.5-9.7,6.9c0,3.3,2.9,4.8,7.1,4.8c5.5,0,8.8-2.8,9.3-6.3c0.4,0.1,0.8,0.1,1.2,0.1c0.3,0,0.6,0,0.9,0
		c-0.2,0.6-0.3,1.1-0.3,1.8c0,2.7,2.1,4.5,7.1,4.5c3.6,0,6.9-0.8,8.9-1.8c-0.2,0.6-0.3,1-0.3,1.2c0,0.2,0.3,0.4,0.4,0.4
		c1.2,0,2.8-0.1,5.5-0.1c0.2,0,0.5-0.1,0.6-0.4c0.1-0.8,0.3-2.1,1.4-4.9c1.2,0.1,1.7,0.7,1.7,1.6c0,0.9-0.4,1.7-0.4,2.6
		c0,1.1,0.7,1.5,2.7,1.5c2.4,0,5.4-0.8,7.5-2.1c1,1.4,3.1,2.1,6.5,2.1c4.4,0,7.7-1.3,9.2-2c0,0.1,0,0.2,0,0.2c0,1.1,1.1,1.8,3.1,1.8
		c3.4,0,8.4-1,10.5-2.4c0.4-0.3,0.5-0.5,0.5-0.7C108.2,17.5,108.1,17.4,107.9,17.4z M87,10.7c0.5,0,0.9,0.3,0.9,0.9
		c0,2.1-1.6,3.4-4,4.1C84.2,13.3,85.3,10.7,87,10.7z M32.4,18.9c-1.2,0-1.4-1-1.4-2c0-3,1.8-6.1,3.7-6.1c0.9,0,1.1,0.9,1.1,1.6
		C35.8,15.4,34.3,18.9,32.4,18.9z"/>
</g>
<g id="Ship">
	<path id="XMLID_11_" class="st1" d="M131.5,8.4c-0.8-3.3-3.2-4.4-4.9-4.7c-3.5,2.2-8,5.8-12.7,11.5l3.6,3.3l3.6,3.3
		C126.3,16.8,129.6,12.1,131.5,8.4z"/>
	<polygon id="XMLID_10_" class="st1" points="120.6,22.2 117.1,19 113.6,15.7 111.4,16.6 115.6,20.6 119.8,24.5 	"/>
	<polygon id="XMLID_6_" class="st0" points="118,11.2 114.2,11.9 106.2,18.4 113.3,18.4 	"/>
	<polygon id="XMLID_5_" class="st0" points="124.8,17.5 124.3,21.3 118.5,29.8 117.9,22.8 	"/>
	<circle id="XMLID_4_" class="st0" cx="125.2" cy="10.3" r="2.6"/>
	<path id="XMLID_3_" class="st1" d="M131.9,7.7c2.5-4.7,2.8-7.7,2.8-7.7s-3,0.5-7.4,3.3C128.9,3.6,131.2,4.6,131.9,7.7z"/>
	<polygon id="XMLID_2_" class="st0" points="121.8,13.9 118.9,15.9 114.1,22.2 120,17 	"/>
</g>
</svg>
