<?xml version="1.0" encoding="utf-8"?>
<!-- Generator: Adobe Illustrator 19.0.0, SVG Export Plug-In . SVG Version: 6.00 Build 0)  -->
<svg version="1.1" id="Layer_1" xmlns="http://www.w3.org/2000/svg" xmlns:xlink="http://www.w3.org/1999/xlink" x="0px" y="0px"
	 viewBox="683.9 240 1335.7 258.8" style="enable-background:new 683.9 240 1335.7 258.8;" xml:space="preserve">
<style type="text/css">
	.st0{fill:#E2D6B1;}
	.st1{fill:#D6C377;}
	.st2{fill:#E6BEB8;}
	.st3{fill:#EF9654;}
	.st4{fill:#F6CD87;}
	.st5{fill:#AEDEF4;}
	.st6{fill:#ABDCF0;}
	.st7{fill:#F09951;}
	.st8{fill:url(#XMLID_2_);}
	.st9{opacity:0.5;fill:#FFFFFF;enable-background:new    ;}
	.st10{opacity:0.2;}
	.st11{fill:#FFFFFF;}
	.st12{fill:#BA935C;}
	.st13{fill:#AB6A2A;}
	.st14{fill:url(#XMLID_3_);}
	.st15{fill:#E27F7F;}
	.st16{fill:#D84443;}
	.st17{fill:url(#XMLID_5_);}
	.st18{fill:#91C2AD;}
	.st19{fill:#0CBCB7;}
	.st20{fill:url(#XMLID_6_);}
	.st21{fill:#6C8EC1;}
	.st22{fill:#2C4974;}
	.st23{fill:url(#XMLID_7_);}
	.st24{fill:#959596;}
	.st25{fill:#696C70;}
	.st26{fill:url(#XMLID_8_);}
	.st27{fill:#CE6F3E;}
	.st28{fill:#F8E2B2;}
	.st29{fill:#792F10;}
	.st30{fill:#BD7E48;}
	.st31{fill:#ED5D21;}
	.st32{fill:url(#XMLID_25_);}
	.st33{fill:#CBBA97;}
	.st34{fill:#B89876;}
	.st35{fill:#DBC59E;}
	.st36{fill:#C4966E;}
	.st37{fill:url(#XMLID_26_);}
	.st38{fill:#73D1D9;}
	.st39{fill:#3EA92A;}
	.st40{fill:url(#XMLID_27_);}
	.st41{opacity:0;}
	.st42{fill:#E25E5C;}
</style>
<g id="planets">
	<g id="XMLID_4_">
		<g id="saturn">
			<g id="XMLID_268_">
				<g id="XMLID_294_">
					<circle id="XMLID_295_" class="st0" cx="1516.9" cy="390" r="61.6"/>
				</g>
				<g id="XMLID_269_">
					<g id="XMLID_292_">
						<path id="XMLID_293_" class="st1" d="M1578.3,394.5c0.1-1.5,0.2-3,0.2-4.5c0-2.3-0.1-4.6-0.4-6.8c-25.2,6.5-47.3,8.6-65.5,8.6
							c-11.8,0-22-0.9-30.3-2.1c-11.2-1.6-20.2-3.9-26.6-6c-0.2,2.1-0.3,4.2-0.3,6.3c0,1.7,0.1,3.3,0.2,4.9
							C1474.9,401.1,1518.2,410,1578.3,394.5z"/>
					</g>
					<g id="XMLID_290_">
						<path id="XMLID_291_" class="st2" d="M1575.5,409c1.4-4.3,2.3-8.8,2.7-13.5c-25.3,6.5-47.4,8.6-65.6,8.6
							c-11.8,0-22-0.9-30.3-2.1c-11.2-1.6-20.2-3.9-26.7-6c0.5,4.7,1.5,9.3,2.9,13.6C1478.8,415.6,1519.8,422.8,1575.5,409z"/>
					</g>
					<g id="XMLID_288_">
						<path id="XMLID_289_" class="st3" d="M1577.1,377c-0.6-2.9-1.4-5.7-2.4-8.4c-23.8,5.8-44.7,7.7-62.1,7.7
							c-11.8,0-22-0.9-30.3-2.1c-9.4-1.4-17.3-3.2-23.4-5c-1,2.7-1.7,5.4-2.3,8.2C1476.3,383.5,1518.7,391.8,1577.1,377z"/>
					</g>
					<g id="XMLID_286_">
						<path id="XMLID_287_" class="st4" d="M1567.3,354.7c-1-1.5-2.1-2.9-3.3-4.3c-19.6,4.8-37,6.5-51.7,6.5
							c-11.7,0-21.8-1.1-30-2.5c-5-0.8-9.5-1.9-13.5-2.9c-1.1,1.4-2.1,2.8-3.1,4.2c4.9,1.4,10.5,2.8,16.9,3.8
							C1501.7,362.9,1530.9,364.3,1567.3,354.7z"/>
					</g>
					<g id="XMLID_284_">
						<path id="XMLID_285_" class="st3" d="M1481.6,440.2c-0.2,0-0.4-0.1-0.6-0.1c10.1,7.3,22.5,11.5,35.9,11.5
							c14.7,0,28.3-5.2,38.9-13.8c-16.6,3.6-31.5,5-44.3,5C1499.8,442.7,1489.8,441.6,1481.6,440.2z"/>
					</g>
					<g id="XMLID_282_">
						<path id="XMLID_283_" class="st5" d="M1558.4,344.6c-2-1.8-4.1-3.5-6.4-5.1c-14.7,2.8-28.1,3.9-39.8,3.9
							c-11.7,0-21.8-1.1-30-2.5c-0.7-0.1-1.4-0.2-2.1-0.4c-2.1,1.6-4.2,3.3-6.1,5.2c2.6,0.6,5.4,1.2,8.4,1.7
							C1500.1,350.3,1526.1,351.7,1558.4,344.6z"/>
					</g>
					<g id="XMLID_280_">
						<path id="XMLID_281_" class="st1" d="M1551,338.8c-9.8-6.5-21.5-10.3-34.1-10.3c-13.3,0-25.5,4.2-35.6,11.3
							c0.4,0.1,0.8,0.1,1.2,0.2C1498.7,342.7,1522.1,344.1,1551,338.8z"/>
					</g>
					<g id="XMLID_278_">
						<path id="XMLID_279_" class="st6" d="M1577.7,380.5c-59.3,15.2-102.2,6.6-121.7,0.5l-0.1,1c6.4,2,15.3,4.3,26.4,5.9
							c8.3,1.2,18.5,2.1,30.3,2.1c18.1,0,40.2-2.1,65.3-8.5L1577.7,380.5z"/>
					</g>
					<path id="XMLID_277_" class="st7" d="M1512.6,417.9c17.5,0,38.6-2,62.6-7.9c0.1-0.3,0.2-0.7,0.3-1c-55.7,13.8-96.7,6.6-117,0.7
						c0.1,0.4,0.2,0.8,0.4,1.1c6.1,1.8,13.9,3.6,23.4,5C1490.6,417,1500.7,417.9,1512.6,417.9z"/>
					<g id="XMLID_275_">
						<path id="XMLID_276_" class="st5" d="M1481.9,426.4c-6.7-1.2-12.6-2.7-17.5-4.3c0.3,0.4,0.5,0.8,0.8,1.2
							c1.1,1.7,2.3,3.4,3.6,5.1c0.3,0.4,0.7,0.8,1,1.2c3.6,1,7.6,1.9,11.9,2.7c8.1,1.5,18.1,2.6,29.8,2.6c15.3,0,33.6-1.9,54.3-7.4
							c0.3-0.4,0.6-0.8,0.9-1.2c1.2-1.6,2.2-3.2,3.2-4.9c0.2-0.4,0.4-0.8,0.7-1.1C1531.8,431.3,1501.4,429.9,1481.9,426.4z"/>
					</g>
					<g id="XMLID_273_">
						<path id="XMLID_274_" class="st1" d="M1481.9,439.3c-0.9-0.2-1.7-0.3-2.6-0.5c0.6,0.4,1.1,0.9,1.7,1.3c0.2,0,0.4,0.1,0.6,0.1
							c8.1,1.5,18.1,2.6,29.8,2.6c12.8,0,27.7-1.3,44.3-5c0.5-0.4,1-0.9,1.5-1.3C1524.8,443.8,1499.1,442.4,1481.9,439.3z"/>
					</g>
					<g id="XMLID_271_">
						<path id="XMLID_272_" class="st2" d="M1572.6,363.8c-0.1-0.3-0.3-0.6-0.4-0.9c-0.3-0.7-0.7-1.4-1-2c-0.1-0.3-0.3-0.6-0.5-0.8
							c-38,10.5-68.4,9.2-88.2,5.8c-7.8-1.3-14.5-3.1-20-4.8c-0.1,0.3-0.3,0.6-0.4,0.8c-0.3,0.7-0.7,1.3-1,2
							c-0.1,0.3-0.3,0.6-0.4,0.9c-0.5,1.2-1,2.3-1.5,3.5c20.4,5.8,60.6,12.6,115.1-0.6C1573.8,366.4,1573.2,365.1,1572.6,363.8z"/>
					</g>
					<path id="XMLID_270_" class="st7" d="M1563.4,349.7c-0.4-0.4-0.8-0.9-1.2-1.3c-0.2-0.3-0.5-0.5-0.7-0.8
						c-33.7,7.9-60.8,6.5-78.9,3.5c-4.1-0.7-7.8-1.5-11.3-2.3c-0.2,0.3-0.5,0.5-0.7,0.8c-0.4,0.4-0.8,0.9-1.1,1.3
						c-0.2,0.3-0.4,0.5-0.6,0.8c4.1,1.1,8.6,2.1,13.5,2.9c8.2,1.4,18.3,2.5,30,2.5c14.8,0,32.2-1.7,51.7-6.5
						C1563.8,350.2,1563.6,349.9,1563.4,349.7z"/>
				</g>
			</g>
			<g id="XMLID_266_">
				
					<linearGradient id="XMLID_2_" gradientUnits="userSpaceOnUse" x1="1455.2" y1="-355.9561" x2="1516.8" y2="-355.9561" gradientTransform="matrix(1 0 0 -1 0 34)">
					<stop  offset="0" style="stop-color:#1A171B;stop-opacity:0.5"/>
					<stop  offset="2.616996e-002" style="stop-color:#1A171B;stop-opacity:0.4869"/>
					<stop  offset="1" style="stop-color:#1A171B;stop-opacity:0"/>
				</linearGradient>
				<path id="XMLID_267_" class="st8" d="M1487,390c0,43,29.8,61.6,29.8,61.6c-34,0-61.6-27.6-61.6-61.6s27.6-61.6,61.6-61.6
					C1516.8,328.4,1487,348.6,1487,390z"/>
			</g>
			<g id="XMLID_262_">
				<path id="XMLID_265_" class="st9" d="M1577.6,379.8c0.2,1.1,0.3,2.2,0.5,3.3c23.4,16.7,36.4,33.4,31.8,43.7
					c-4.4,9.7-23.4,11.5-49,6.3c-16.7-3.4-36.3-9.7-56.5-18.8c-18.9-8.5-35.6-18.1-48.9-27.8c-22.6-16.4-35.1-32.7-30.5-42.8
					c4.8-10.7,27.4-11.8,57.1-4.5c0.9-0.6,1.8-1.2,2.7-1.8c-38.2-10.2-68.5-8.8-75,5.6c-6.7,15,13.3,41.8,48.4,65.2
					c11.6,7.7,24.8,15.1,39.2,21.6c15.7,7,31.2,12.3,45.7,15.8c39.2,9.6,70.9,6.5,77.4-8.1C1626.7,423.7,1608.9,401.1,1577.6,379.8z
					"/>
				<g id="XMLID_263_" class="st10">
					<path id="XMLID_264_" class="st11" d="M1578.4,387.8c0,0.7,0.1,1.5,0.1,2.2c0,0.8,0,1.6-0.1,2.3c6.5,5.8,9.7,10.8,8.3,13.9
						c-1.2,2.6-5.3,3.7-11.5,3.4c-13.2-0.5-36-7.1-60.7-18.2c-22.8-10.2-41.7-21.9-51.7-31.1c-5.9-5.4-8.6-10-7.3-13
						c1.6-3.6,8.8-4.3,19.4-2.5c1-1,2.1-1.9,3.2-2.8c-22.2-4.8-38.4-3.9-41.9,3.8c-3.2,7.1,4.8,19.3,20.1,32.2
						c12.5,10.5,30,21.5,50.4,30.7c21.8,9.8,42.9,15.7,59.7,17.7c18.1,2.2,31.1-0.1,34.1-6.8C1604,412.3,1595,400.4,1578.4,387.8z"
						/>
				</g>
			</g>
		</g>
		<g id="mercury">
			<g id="XMLID_233_">
				<g id="XMLID_248_">
					<circle id="XMLID_249_" class="st12" cx="758" cy="390" r="31.8"/>
				</g>
				<g id="XMLID_234_">
					<g id="XMLID_235_">
						<ellipse id="XMLID_247_" class="st13" cx="742.5" cy="370.4" rx="2.8" ry="3.5"/>
						<ellipse id="XMLID_246_" class="st13" cx="762.6" cy="368.2" rx="3.9" ry="2.9"/>
						<ellipse id="XMLID_245_" class="st13" cx="775.3" cy="373.5" rx="2.8" ry="2.1"/>
						
							<ellipse id="XMLID_244_" transform="matrix(0.3246 -0.9459 0.9459 0.3246 150.9875 972.5826)" class="st13" cx="756.5" cy="380.6" rx="2" ry="2.3"/>
						<ellipse id="XMLID_243_" class="st13" cx="762.6" cy="399.3" rx="4.1" ry="3.1"/>
						<ellipse id="XMLID_242_" class="st13" cx="775.2" cy="387" rx="2.4" ry="2.1"/>
						<ellipse id="XMLID_241_" class="st13" cx="778.5" cy="402.9" rx="2.3" ry="2"/>
						<ellipse id="XMLID_240_" class="st13" cx="766.8" cy="414.7" rx="3" ry="1.8"/>
						<ellipse id="XMLID_239_" class="st13" cx="751.1" cy="411.4" rx="1.9" ry="2"/>
						<ellipse id="XMLID_238_" class="st13" cx="743.1" cy="399" rx="4.4" ry="2.9"/>
						<ellipse id="XMLID_237_" class="st13" cx="735" cy="385.5" rx="2.3" ry="2.1"/>
						
							<ellipse id="XMLID_236_" transform="matrix(0.2031 -0.9792 0.9792 0.2031 189.545 1049.4399)" class="st13" cx="739.5" cy="408.3" rx="1.4" ry="2"/>
					</g>
				</g>
			</g>
			<g id="XMLID_231_">
				
					<linearGradient id="XMLID_3_" gradientUnits="userSpaceOnUse" x1="726.1586" y1="-355.9561" x2="757.9586" y2="-355.9561" gradientTransform="matrix(1 0 0 -1 0 34)">
					<stop  offset="0" style="stop-color:#1A171B;stop-opacity:0.5"/>
					<stop  offset="2.616996e-002" style="stop-color:#1A171B;stop-opacity:0.4869"/>
					<stop  offset="1" style="stop-color:#1A171B;stop-opacity:0"/>
				</linearGradient>
				<path id="XMLID_232_" class="st14" d="M742.6,390c0,22.2,15.4,31.8,15.4,31.8c-17.6,0-31.8-14.2-31.8-31.8
					c0-17.6,14.2-31.8,31.8-31.8C758,358.2,742.6,368.6,742.6,390z"/>
			</g>
		</g>
		<g id="mars">
			<g id="XMLID_198_">
				<g id="XMLID_216_">
					<circle id="XMLID_217_" class="st15" cx="1138.2" cy="390" r="41"/>
				</g>
				<g id="XMLID_199_">
					<g id="XMLID_201_">
						<g id="XMLID_214_">
							<path id="XMLID_215_" class="st16" d="M1135.7,380c0-7-12.5-12.6-27.9-12.6c-1.3,0-2.6,0-3.9,0.1c-4.2,6.5-6.7,14.2-6.7,22.5
								c0,0.5,0,1.1,0,1.6c3.3,0.6,6.8,0.9,10.6,0.9C1123.2,392.6,1135.7,386.9,1135.7,380z"/>
						</g>
						<g id="XMLID_212_">
							<path id="XMLID_213_" class="st16" d="M1134.5,356.2c0,7.1,12.8,12.8,28.5,12.8c3.5,0,6.9-0.3,10-0.8
								c-7.1-11.2-19.4-18.8-33.5-19.2C1136.3,351,1134.5,353.5,1134.5,356.2z"/>
						</g>
						<g id="XMLID_210_">
							<path id="XMLID_211_" class="st16" d="M1163.4,414.2c0-2.9-19.3-5.2-43.2-5.2c-6.5,0-12.6,0.2-18.1,0.5
								c2,3.6,4.4,6.9,7.3,9.7c3.4,0.1,7,0.2,10.7,0.2C1144.1,419.4,1163.4,417.1,1163.4,414.2z"/>
						</g>
						<g id="XMLID_208_">
							<path id="XMLID_209_" class="st16" d="M1141.9,380.6c0,2.1,12.2,3.7,27.3,3.7c3.4,0,6.6-0.1,9.6-0.2c-0.3-2.4-0.9-4.8-1.7-7
								c-2.5-0.1-5.2-0.2-8-0.2C1154.1,376.9,1141.9,378.5,1141.9,380.6z"/>
						</g>
						<g id="XMLID_206_">
							<path id="XMLID_207_" class="st16" d="M1164.4,395c-17.7,0-32,2.3-32,5.2c0,2.9,14.3,5.2,32,5.2c4.2,0,8.3-0.1,12-0.4
								c1.2-3,2-6.1,2.5-9.4C1174.5,395.2,1169.6,395,1164.4,395z"/>
						</g>
						<g id="XMLID_204_">
							<path id="XMLID_205_" class="st16" d="M1126.6,354.5c0-1.2-0.8-2.3-2.2-3.2c-5.2,1.9-10,4.8-14,8.4c1.3,0.2,2.7,0.4,4.2,0.4
								C1121.3,360.1,1126.6,357.6,1126.6,354.5z"/>
						</g>
						<g id="XMLID_202_">
							<path id="XMLID_203_" class="st16" d="M1134.5,428.1c0-2.1-4-3.7-8.9-3.7c-3,0-5.6,0.6-7.2,1.5c4.2,2.3,8.9,3.9,13.8,4.7
								C1133.6,429.9,1134.5,429,1134.5,428.1z"/>
						</g>
					</g>
					<ellipse id="XMLID_200_" class="st16" cx="1118.8" cy="400.7" rx="4.8" ry="1.7"/>
				</g>
			</g>
			<g id="XMLID_196_">
				
					<linearGradient id="XMLID_5_" gradientUnits="userSpaceOnUse" x1="1097.2" y1="-355.9561" x2="1138.2" y2="-355.9561" gradientTransform="matrix(1 0 0 -1 0 34)">
					<stop  offset="0" style="stop-color:#1A171B;stop-opacity:0.5"/>
					<stop  offset="2.616996e-002" style="stop-color:#1A171B;stop-opacity:0.4869"/>
					<stop  offset="1" style="stop-color:#1A171B;stop-opacity:0"/>
				</linearGradient>
				<path id="XMLID_197_" class="st17" d="M1118.4,390c0,28.6,19.8,41,19.8,41c-22.7,0-41-18.4-41-41c0-22.7,18.4-41,41-41
					C1138.2,349,1118.4,362.4,1118.4,390z"/>
			</g>
		</g>
		<g id="uranus">
			<g id="XMLID_169_">
				<g id="XMLID_182_">
					<circle id="XMLID_183_" class="st18" cx="1713.5" cy="390" r="48.3"/>
				</g>
				<g id="XMLID_175_">
					<g id="XMLID_180_">
						<path id="XMLID_181_" class="st19" d="M1679.4,424.1c1.9,1.9,3.9,3.6,6.1,5.1c12.8-2.4,32.5-4.1,55.2,0.6
							c3.5-2.4,6.6-5.2,9.4-8.4C1720.9,415.5,1693.4,420.5,1679.4,424.1z"/>
					</g>
					<g id="XMLID_178_">
						<path id="XMLID_179_" class="st19" d="M1745.7,353.9c-20.1,3.5-48.3-0.8-60.5-3c-3,2.2-5.8,4.8-8.2,7.6
							c18.3,8,51.4,20.4,83.9,21.7C1758.7,369.9,1753.3,360.7,1745.7,353.9z"/>
					</g>
					<g id="XMLID_176_">
						<path id="XMLID_177_" class="st19" d="M1665.5,385.1c-0.2,1.6-0.2,3.2-0.2,4.9c0,1.7,0.1,3.4,0.3,5.1
							c29-0.5,53.6,11.2,3.3,13.1c1.1,2.7,2.5,5.4,4.1,7.8l85.9-9.3c1.7-4.5,2.7-9.4,2.9-14.5
							C1736.2,395.5,1692.4,389.6,1665.5,385.1z"/>
					</g>
				</g>
				<g id="XMLID_173_">
					<ellipse id="XMLID_174_" class="st19" cx="1690.9" cy="378.4" rx="9.2" ry="2.8"/>
				</g>
				<ellipse id="XMLID_172_" class="st19" cx="1726.3" cy="349.4" rx="2.8" ry="2.1"/>
				<ellipse id="XMLID_171_" class="st19" cx="1702.7" cy="431" rx="2.8" ry="1.2"/>
				<ellipse id="XMLID_170_" class="st19" cx="1748.1" cy="413.7" rx="1.6" ry="2.7"/>
			</g>
			<g id="XMLID_167_">
				
					<linearGradient id="XMLID_6_" gradientUnits="userSpaceOnUse" x1="1665.2632" y1="-355.9561" x2="1713.5632" y2="-355.9561" gradientTransform="matrix(1 0 0 -1 0 34)">
					<stop  offset="0" style="stop-color:#1A171B;stop-opacity:0.5"/>
					<stop  offset="2.616996e-002" style="stop-color:#1A171B;stop-opacity:0.4869"/>
					<stop  offset="1" style="stop-color:#1A171B;stop-opacity:0"/>
				</linearGradient>
				<path id="XMLID_168_" class="st20" d="M1690.2,390c0,33.7,23.3,48.3,23.3,48.3c-26.7,0-48.3-21.6-48.3-48.3s21.6-48.3,48.3-48.3
					C1713.5,341.7,1690.2,357.6,1690.2,390z"/>
			</g>
		</g>
		<g id="neptune">
			<g id="XMLID_135_">
				<g id="XMLID_152_">
					<circle id="XMLID_153_" class="st21" cx="1852.4" cy="390" r="48.3"/>
				</g>
				<g id="XMLID_150_">
					<ellipse id="XMLID_151_" class="st22" cx="1863.8" cy="358.3" rx="13.1" ry="8.5"/>
				</g>
				<g id="XMLID_148_">
					<ellipse id="XMLID_149_" class="st22" cx="1855.5" cy="388.7" rx="8.8" ry="3.6"/>
				</g>
				<g id="XMLID_146_">
					<ellipse id="XMLID_147_" class="st22" cx="1820.3" cy="382.6" rx="5.1" ry="8"/>
				</g>
				<g id="XMLID_144_">
					<ellipse id="XMLID_145_" class="st22" cx="1833.1" cy="404.5" rx="7.3" ry="5.8"/>
				</g>
				<g id="XMLID_142_">
					<circle id="XMLID_143_" class="st22" cx="1872" cy="416.9" r="5.8"/>
				</g>
				<g id="XMLID_140_">
					<ellipse id="XMLID_141_" class="st22" cx="1882.5" cy="385" rx="5.6" ry="4.1"/>
				</g>
				<g id="XMLID_138_">
					<ellipse id="XMLID_139_" class="st22" cx="1828.8" cy="360.5" rx="4.1" ry="2.2"/>
				</g>
				<g id="XMLID_136_">
					<ellipse id="XMLID_137_" class="st22" cx="1846" cy="427.1" rx="2.2" ry="2.9"/>
				</g>
			</g>
			<g id="XMLID_133_">
				
					<linearGradient id="XMLID_7_" gradientUnits="userSpaceOnUse" x1="1804.0963" y1="-355.9561" x2="1852.3967" y2="-355.9561" gradientTransform="matrix(1 0 0 -1 0 34)">
					<stop  offset="0" style="stop-color:#1A171B;stop-opacity:0.5"/>
					<stop  offset="2.616996e-002" style="stop-color:#1A171B;stop-opacity:0.4869"/>
					<stop  offset="1" style="stop-color:#1A171B;stop-opacity:0"/>
				</linearGradient>
				<path id="XMLID_134_" class="st23" d="M1829,390c0,33.7,23.3,48.3,23.3,48.3c-26.7,0-48.3-21.6-48.3-48.3s21.6-48.3,48.3-48.3
					C1852.4,341.7,1829,357.6,1829,390z"/>
			</g>
		</g>
		<g id="pluto">
			<g id="XMLID_109_">
				<g id="XMLID_118_">
					<circle id="XMLID_119_" class="st24" cx="1972.7" cy="390" r="27.2"/>
				</g>
				<g id="XMLID_110_">
					<g id="XMLID_111_">
						<g id="XMLID_116_">
							<path id="XMLID_117_" class="st25" d="M1982.6,370.6c-1.1,1.3-3.6,5.1-4.9,6.1c-2,1.4-8.4,1.6-11.7,2.5
								c-2.7,0.7-7.1,4-4.6,5.2c5.1,2.7,30.8-4.6,32.3,0.9c1,3.5-13,2.9-13.1,6.6c-0.1,2.1,6.1,2.5,8.2,2.5
								c2.9-0.1,8.3-2.5,11.2-5.1c-0.3-9.4-5.3-17.6-12.8-22.3C1985.3,368,1983.6,369.4,1982.6,370.6z"/>
						</g>
						<g id="XMLID_114_">
							<path id="XMLID_115_" class="st25" d="M1972.1,404.6c0.8-1.3-1.5-4.5-2.7-5.2c-3-1.7-11.2,3.2-13.7,0.8c-0.6-0.6-0.6-3,0-3.6
								c0.8-0.8,3.3,0.5,4.4,0.3c1.5-0.3,5.4-1,5.5-2.5c0-1.6-4.2-2.5-5.8-3c-2.9-0.9-10.5-1.7-14.2-2c0,0.2,0,0.4,0,0.6
								c0,5.3,1.5,10.3,4.2,14.5c3.1,1.2,8.2,1.3,10.8,1.4C1963.4,406.1,1970.6,407.1,1972.1,404.6z"/>
						</g>
						<path id="XMLID_113_" class="st25" d="M1996.1,403.9c-1.8-0.2-3.8-0.4-6-0.4c-7.1,0-12.9,1.5-12.9,3.3s5.8,3.3,12.9,3.3
							c0.3,0,0.7,0,1,0C1993.1,408.3,1994.8,406.2,1996.1,403.9z"/>
						<path id="XMLID_112_" class="st25" d="M1969.9,370.1c0-1.2-5.8-2.2-12.9-2.2c-1.7,1.2-3.3,2.7-4.7,4.3
							c1.4,0.1,2.8,0.1,4.3,0.1C1963.9,372.3,1969.9,371.3,1969.9,370.1z"/>
					</g>
				</g>
			</g>
			<g id="XMLID_107_">
				
					<linearGradient id="XMLID_8_" gradientUnits="userSpaceOnUse" x1="1945.5596" y1="-355.9562" x2="1972.7595" y2="-355.9562" gradientTransform="matrix(1 0 0 -1 0 34)">
					<stop  offset="0" style="stop-color:#1A171B;stop-opacity:0.5"/>
					<stop  offset="2.616996e-002" style="stop-color:#1A171B;stop-opacity:0.4869"/>
					<stop  offset="1" style="stop-color:#1A171B;stop-opacity:0"/>
				</linearGradient>
				<path id="XMLID_108_" class="st26" d="M1959.6,390c0,19,13.2,27.2,13.2,27.2c-15,0-27.2-12.2-27.2-27.2s12.2-27.2,27.2-27.2
					C1972.8,362.8,1959.6,371.7,1959.6,390z"/>
			</g>
		</g>
		<g id="jupiter">
			<g id="XMLID_73_">
				<g id="XMLID_92_">
					<circle id="XMLID_93_" class="st27" cx="1293.7" cy="389.9" r="71.9"/>
				</g>
				<g id="XMLID_74_">
					<g id="XMLID_75_">
						<g id="XMLID_90_">
							<path id="XMLID_91_" class="st28" d="M1255.6,451c4.9,3.1,10.1,5.5,15.6,7.3c0.5-14.8,48.3-21.7,91.9-48.7
								c0.8-2.9,1.5-5.8,1.9-8.7c-8.2,3-42.4,25-62.2,27.8C1283.3,431.6,1269.1,439.5,1255.6,451z"/>
						</g>
						<g id="XMLID_88_">
							<path id="XMLID_89_" class="st29" d="M1268.6,379.6c13.6-15.6,13.8-2.6,20.4-7.3c3.3-2.3,24.2-2.5,33.4-7.9
								c15.1-9,2.7-20.8,20.2-27.2c-1.6-1.5-3.3-2.9-5.1-4.3c-13.8,5.4-77.3,30.7-84.6,46.7c0,0-11.1,17.7-29.9,23.1
								c0.4,2.3,0.9,4.6,1.6,6.8C1233.8,404.9,1257.7,392,1268.6,379.6z"/>
						</g>
						<g id="XMLID_86_">
							<path id="XMLID_87_" class="st30" d="M1333,329.7c-5.7-3.7-11.8-6.5-18.3-8.5c-6.6,8.3-26.6,24.5-87.6,42.2
								c-1.7,4.2-3,8.5-3.8,13C1237.2,368.6,1283.1,343.9,1333,329.7z"/>
						</g>
						<g id="XMLID_84_">
							<path id="XMLID_85_" class="st29" d="M1271.2,458.4c7.4,2.5,15.2,3.7,23.1,3.7c4.3-11.1,21-11.8,34.9-19.6
								c12.6-7.1,22.2-21.6,31.2-24.9c1.1-2.6,2-5.2,2.7-7.9c-9.4,3.4-28,23.2-35.6,26.2C1277.3,455.9,1274.2,451.9,1271.2,458.4z"
								/>
						</g>
						<g id="XMLID_82_">
							<path id="XMLID_83_" class="st31" d="M1235.8,432.6c5.5,7.5,12.2,13.7,19.8,18.4c11.4-23.4,26.6-22,42.8-30.5
								c6.9-3.6,21.7-10.4,27.5-11.2c19.7-2.8,30.9-5.3,39.1-8.3c0.3-1.9,0.5-3.8,0.6-5.7c-8.2,1.2-13,4.8-20,5.3
								C1298,404.5,1278.7,409.1,1235.8,432.6z"/>
						</g>
						<path id="XMLID_81_" class="st28" d="M1321.9,362.7c-9.2,5.5-25.9,3.5-29.9,3.5c-6.5,0-9.8-2.1-23.4,13.4
							c-5,5.7-12.8,11.6-20.6,16.6c-9.2,5.9-18.4,10.9-23.3,13.4c0.8,2.8,1.7,5.6,2.9,8.3l0,0c7.5-7.6,14.5-8,19.9-8.9
							c11.4-2,13-6.2,42.1-19.4c16-7.3,19.6-9,35.1-16.1c24.2-11,22.5-17.8,30.7-20.7c-3.6-5.9-7.9-11.1-12.8-15.6
							C1325.1,343.6,1337,353.7,1321.9,362.7z"/>
						<g id="XMLID_79_">
							<path id="XMLID_80_" class="st31" d="M1262.2,377.4c12.9-12,61.5-39.1,75.3-44.5c-1.5-1.1-3-2.2-4.5-3.2
								c-13,3.7-25.7,8.1-37.7,12.7c-13.8,5.3-26.5,11-37.5,16.2c-16.1,7.6-28.4,14.3-34.5,17.8c-1.7,8.6-1.8,17.5-0.2,26.3
								c11-3.1,21.4-8.6,26.4-14.2C1253,384.6,1258.3,381,1262.2,377.4z"/>
						</g>
						<path id="XMLID_78_" class="st28" d="M1314.7,321.3c-3.5-1-7-1.8-10.6-2.3c-12.2,7.7-23,4-33.3,8
							c-14.1,5.5-26.7,17.6-33.5,18.8c-4.2,5.4-7.6,11.4-10.2,17.7c27.5-8,28.1-16.6,41.5-23.4
							C1284.8,331.8,1311.1,325.8,1314.7,321.3z"/>
						<g id="XMLID_76_">
							<path id="XMLID_77_" class="st30" d="M1230.8,424.8c0.6,1,1.1,2,1.7,3c13.3-19.1,33.8-14.6,72.9-26
								c16.5-4.8,43.4-17.7,60.1-18.4c-0.6-6.3-2.1-12.7-4.4-18.9C1303,403.4,1278.5,390.6,1230.8,424.8z"/>
						</g>
					</g>
				</g>
			</g>
			<g id="XMLID_71_">
				
					<linearGradient id="XMLID_25_" gradientUnits="userSpaceOnUse" x1="1221.8" y1="-355.956" x2="1293.7" y2="-355.956" gradientTransform="matrix(1 0 0 -1 0 34)">
					<stop  offset="0" style="stop-color:#1A171B;stop-opacity:0.5"/>
					<stop  offset="2.616996e-002" style="stop-color:#1A171B;stop-opacity:0.4869"/>
					<stop  offset="1" style="stop-color:#1A171B;stop-opacity:0"/>
				</linearGradient>
				<path id="XMLID_72_" class="st32" d="M1258.9,390c0,50.2,34.8,71.9,34.8,71.9c-39.7,0-71.9-32.2-71.9-71.9s32.2-71.9,71.9-71.9
					C1293.7,318,1258.9,341.6,1258.9,390z"/>
			</g>
		</g>
		<g id="venus">
			<g id="XMLID_40_">
				<g id="XMLID_56_">
					<circle id="XMLID_57_" class="st33" cx="873.2" cy="390" r="41.7"/>
				</g>
				<g id="XMLID_41_">
					<g id="XMLID_54_">
						<path id="XMLID_55_" class="st34" d="M907.2,366c-1.9-2.7-4.2-5.2-6.7-7.4c-3.5,3.2-16.1,7.7-60,5.4c-1.1,1.4-2.1,2.8-3,4.2
							c5,0.2,16.8,1,28,3.9C876.6,375.1,897.5,369.2,907.2,366z"/>
					</g>
					<g id="XMLID_52_">
						<path id="XMLID_53_" class="st34" d="M884.3,401.3c-10.7,5.3-12.7,1-17.3,2c-2.3,0.5-2.8,2.2-8.9,3.1
							c-10.1,1.4-12.1,1.5-22.9,1c0.5,1.2,1.1,2.3,1.8,3.4c8.6,0.2,48.2,0.9,55.6-6.1c0,0,9.9-7,21.1-5.7c0.3-1.3,0.5-2.6,0.7-4
							C908.6,395.6,892.9,397.1,884.3,401.3z"/>
					</g>
					<g id="XMLID_50_">
						<path id="XMLID_51_" class="st35" d="M838.7,413.5c2.2,3.2,4.9,6.1,7.9,8.6c5.4-3,19.7-7.1,56.3-2.9c1.8-1.9,3.5-3.9,5-6.1
							C898.6,414.2,868.6,417.2,838.7,413.5z"/>
					</g>
					<g id="XMLID_48_">
						<path id="XMLID_49_" class="st28" d="M900.5,358.6c-3.4-3-7.3-5.4-11.5-7.1c-9.2,9.5-33.7,9.5-45.3,9
							c-1.1,1.1-2.2,2.3-3.2,3.6C884.4,366.3,897,361.8,900.5,358.6z"/>
					</g>
					<path id="XMLID_47_" class="st28" d="M913.7,380.3c-1.2-5.2-3.5-10-6.5-14.3c-9.8,3.1-30.6,9.1-41.6,6.2
						c-11.2-2.9-23-3.7-28-3.9c-0.6,0.9-1.1,1.9-1.6,2.9c4.6,1.2,12.1,4.3,16,5.6C878.2,385.4,904.7,381.9,913.7,380.3z"/>
					<path id="XMLID_46_" class="st28" d="M858.1,406.4c6.1-0.9,6.6-2.6,8.9-3.1c4.6-1,6.5,3.3,17.3-2c8.6-4.2,24.3-5.8,30.2-6.2
						c0.2-1.7,0.3-3.4,0.3-5.1l0,0c-5.7,2.4-16.9,2.8-16.9,2.8s-13.3-0.7-33.1,2c-15.2,2.1-27.9,1.7-32.9,1.4
						c0.6,3.9,1.7,7.7,3.3,11.2C846.1,407.9,848.1,407.8,858.1,406.4z"/>
					<g id="XMLID_44_">
						<path id="XMLID_45_" class="st36" d="M892.7,404.8c-7.5,7-47.1,6.3-55.6,6.1c0.5,0.9,1.1,1.8,1.7,2.7
							c29.8,3.6,59.9,0.7,69.1-0.4c2.8-4.2,4.9-8.9,6-14C902.6,397.8,892.7,404.8,892.7,404.8z"/>
					</g>
					<path id="XMLID_43_" class="st28" d="M846.6,422.2c1.6,1.3,3.3,2.5,5.1,3.6c19.4-3.2,34.9-0.9,41.8,0.6
						c3.5-1.9,6.6-4.4,9.4-7.2C866.3,415,852,419.2,846.6,422.2z"/>
					<path id="XMLID_42_" class="st36" d="M914.6,385.6c-0.1-0.7-0.2-1.3-0.3-2c-8.6,1.1-50.4,5.4-81-6c-1.1,3.5-1.7,7.2-1.8,11.1
						C841.1,389.7,881.5,393.2,914.6,385.6z"/>
				</g>
			</g>
			<g id="XMLID_38_">
				
					<linearGradient id="XMLID_26_" gradientUnits="userSpaceOnUse" x1="831.4573" y1="-355.9562" x2="873.1573" y2="-355.9562" gradientTransform="matrix(1 0 0 -1 0 34)">
					<stop  offset="0" style="stop-color:#1A171B;stop-opacity:0.5"/>
					<stop  offset="2.616996e-002" style="stop-color:#1A171B;stop-opacity:0.4869"/>
					<stop  offset="1" style="stop-color:#1A171B;stop-opacity:0"/>
				</linearGradient>
				<path id="XMLID_39_" class="st37" d="M853,390c0,29.1,20.2,41.7,20.2,41.7c-23,0-41.7-18.7-41.7-41.7s18.7-41.7,41.7-41.7
					C873.1,348.3,853,362,853,390z"/>
			</g>
		</g>
		<g id="earth">
			<g id="XMLID_11_">
				<g id="XMLID_23_">
					<circle id="XMLID_24_" class="st38" cx="1006.6" cy="390" r="48.3"/>
				</g>
				<g id="XMLID_12_">
					<g id="XMLID_21_">
						<path id="XMLID_22_" class="st39" d="M965.6,373c0.7,0.7-0.2,3.1,0.1,4.1c0.2,0.8,1.1,2.5,1.8,3c0.4,0.2,1.4,0.5,1.7,0.3
							c0.3-0.2,0.3-1,0.2-1.3c-0.2-0.8-1.9-1.6-2.2-2.3c-0.3-0.7-0.5-2.4,0-3c0.2-0.2,0.9-0.3,1.1-0.1c0.5,0.5-0.1,2.2,0.2,2.9
							c0.5,1.1,3.2,2.4,3.3,3.6c0,0.4-0.9,1.1-1,1.5c0,0.9,1.1,2.7,1.8,3.3c0.8,0.5,2.9,1.2,3.7,0.7c0.2-0.1,0-0.7,0.2-0.9
							c0.4-0.2,1.4,0.1,1.6,0.4c0.2,0.2-0.1,1,0.1,1.2c0.5,0.5,2.4-0.1,3.1,0.3c1,0.5,1.9,3,3,3.5c0.8,0.4,3.1-0.3,3.8,0.4
							c0.5,0.4,0.4,2,0.1,2.6c-0.3,0.7-2.1,1.2-2.5,1.9c-0.5,0.9-0.6,3.1-0.3,4.1c0.4,1.5,3.2,3.5,3.7,5c0.2,0.4-0.1,1.4,0.2,1.7
							c0.3,0.3,1.2-0.2,1.6-0.1c0.8,0.3,2.4,1.4,2.8,2.2c0.9,2-1.6,7-0.2,8.7c0.2,0.2,0.9-0.2,1.1,0c0.6,0.7-0.8,2.7-0.6,3.5
							c0.1,0.6,1.2,1.3,1.4,1.8c0.4,1.1-0.1,3.4,0,4.5c0.2,2,0.3,3.9,5.2,6c0.7,0.3,3.3,0.5,2.9-0.5c-0.3-0.6-1.7-1.2-1.9-1.8
							c-0.2-0.8,1.2-2.4,0.8-3.1c-0.2-0.3-1.1,0-1.4-0.2s-0.8-0.7-0.8-1c0-0.4,1-0.7,1.1-1.1c0.1-0.1,0.1-0.5,0-0.6
							c-0.2-0.3-1-0.3-1.2-0.6c-0.1-0.2-0.2-0.7,0-0.9c1.2-1,3.4,0.3,5.4-3c0.7-1.2,3-3.1,3.3-4.4c0.2-0.9-1-2.7-0.8-3.6
							c0.1-0.3,0.4-0.8,0.7-0.9c0.7-0.3,2.2,0.6,3,0.5c0.6-0.1,1.8-0.9,2.1-1.4c0.8-1.4,0-4.9,0.7-6.4c0.4-0.8,2.1-1.8,2.4-2.7
							c0.1-0.4,0.3-1.4,0-1.6c-0.8-0.5-0.4-0.4-3-2.3c-1.1-0.8-4-0.3-5.4-0.5c-0.7-0.1-2.3-0.4-2.7-1.1c-0.3-0.5,0.4-1.9,0.2-2.5
							c-0.2-0.6-0.8-1.6-1.3-1.9c-0.7-0.4-2.5,0.2-3.2-0.2c-0.8-0.5-1.3-2.6-2.1-3.1c-0.2-0.1-0.8-0.2-1.1,0
							c-0.1,0.1-0.1,0.6-0.2,0.7c-0.6,0.4-2.2,0.4-2.9,0.1c-1.4-0.8-0.8-2.3-6.2,0.6c-0.9,0.5-3.3,0.2-4-0.6
							c-0.7-0.8,0.6-3.4-0.1-4.2c-0.5-0.6-2.5,0-2.9-0.7c-0.3-0.6,1.3-2,1-2.7c-0.1-0.3-0.9-0.5-1.2-0.5c-1,0.1-2.4,2.1-3.4,2.4
							c-1.8,0.5-8.3-3.5,1.6-7.5c1.5-0.6,5.4-1.5,6.6-0.3c0.3,0.3-0.3,1.4-0.1,1.7c0.2,0.4,1.3,1,1.7,0.8c0.6-0.4,0-2.2,0.3-2.9
							c0.6-1.2,3.5-2.3,4.2-3.5c0.1-0.3,0-0.9,0.2-1.1c0.9-1.5,4.5-3.1,5.7-4.4c0.6-0.6,1.2-2.7,2-2.9c0.4-0.1,1,0.8,1.4,0.8
							c0.3,0,0.8-0.5,0.8-0.8c-0.1-0.4-1.2-0.4-1.3-0.8c-0.2-0.4,0.1-1.8,1.8-0.3c1.7,1.5,2.1-0.2,2.8-0.4c0.2,0,0.7,0.3,0.7,0.5
							c0,0.2-0.5,0.3-0.6,0.5c-0.1,0.3-0.2,1,0,1.2c0.5,0.6,2.3,1.3,3,1c0.4-0.2,0.7-1.2,0.5-1.6s-1.5-0.3-1.7-0.7
							c-0.1-0.1-0.1-0.5,0-0.7c0.2-0.3,1.1-0.3,1.2-0.6c0.2-0.3,0.2-1.2,0-1.5c-0.2-0.5-1.5-0.9-1.7-1.3c-0.3-0.6,0.3-2.4-0.3-2.8
							c-0.5-0.3-1.6,0.9-2.2,1c-0.2,0-0.8,0.1-1-0.1c-0.3-0.3,0.2-1.3,0-1.6c-0.5-0.7-2.5-1.4-3.3-1.2c-0.5,0.1-1.4,0.7-1.6,1.1
							c-0.4,0.8,0.6,2.9,0,3.6c-0.4,0.5-2,0-2.5,0.4s-0.7,1.9-1.2,2.3c-0.2,0.1-0.8,0.3-1,0.2c-0.5-0.4,0.5-2.3,0-2.8
							c-0.8-0.8-8.4-0.6-0.9-4.5c0.8-0.4,2.4-1.8,3.2-1.4c0.3,0.2,0.1,1.2,0.4,1.4c0.3,0.2,1-0.1,1.2-0.3c0.2-0.2,0-1,0.2-1.1
							c0.2-0.2,0.9,0.2,1.1,0.1c0.6-0.3,1.1-1.8,1.7-2.2c0.8-0.5,3.6-0.6,3.6-0.6s0.7,0.7,0.7,1c-0.1,0.9-3,1.3-2.8,2.2
							c0.2,1.1,3.2,1.5,4.2,1.1c0.3-0.1,0.3-1,0.6-1.2c0.5-0.3,1.9,0.2,2.3-0.2c0.3-0.3,0.6-1.2,0.4-1.5c-0.1-0.3-1-0.1-1.1-0.4
							c-0.2-0.3-0.1-1.6-0.1-1.6s-6.7-5.6-9.3-0.8c-0.2,0.4,0.2,1.6-0.2,1.9c-0.4,0.3-1.6,0.3-1.9,0c-0.3-0.3-0.3-1.2-0.1-1.5
							c0.2-0.5,1.8-0.8,1.6-1.2c-0.3-0.8-2.8-0.6-3.5-0.2c-0.4,0.2-1,1.1-0.9,1.4c0.1,0.2,0.7-0.1,0.9,0.1c0.2,0.2,0.4,1.1,0.2,1.3
							c-0.4,0.4-1.8-0.5-2.2-0.1c-0.1,0.1,0,0.6-0.2,0.8c-0.6,0.5-2.7,0.7-3.3,0.1c-0.2-0.3-0.2-1.2,0.1-1.4c0.5-0.3,1.8,0.3,2.3,0
							c0.4-0.2,1.2-1.1,1.1-1.5c0-0.3-0.6-0.7-0.9-0.7c-0.3,0-0.6,0.6-0.9,0.8c-0.5,0.4,0,0.4-2.1-1.2c-0.7-0.6-3.5,0-3.5,0
							l-1.8,1.8h1.5l-0.5,1.3c0,0,2.1-0.3,2.5,0.2c0.1,0.1,0,0.5-0.1,0.7c-0.5,0.5-2.9,0.6-2.9,0.6l-0.9-1.4l-2.1-0.6l-1.5-0.2
							c-7.4,4.7-13.5,11.3-17.4,19.2l0.2,0.4C963.6,368.8,963.8,371.3,965.6,373z"/>
					</g>
					<g id="XMLID_19_">
						<ellipse id="XMLID_20_" class="st39" cx="999.5" cy="366.5" rx="0.9" ry="0.7"/>
					</g>
					<g id="XMLID_17_">
						<path id="XMLID_18_" class="st39" d="M1002.4,365.4c-0.3,0.2-1.1-0.3-1.3,0c-0.2,0.2,0.2,0.9,0.4,1.1c0.2,0.2,0.8,0.3,1.1,0.2
							c0.2-0.1,0.1-0.9,0.4-1c0.2-0.1,0.7,0.5,1,0.4c0.3-0.2,0.3-1.3,0-1.6c-0.2-0.2-0.8-0.1-1.1,0
							C1002.6,364.7,1002.6,365.3,1002.4,365.4z"/>
					</g>
					<g id="XMLID_15_">
						<path id="XMLID_16_" class="st39" d="M1034.6,356.8c0.3,0.3,0.3,1.4,0.7,1.6c0.4,0.3,1.6-0.7,2-0.4c0.4,0.3,0.5,1.7,0.1,2.1
							c-0.7,0.7-2.9-0.2-3.7,0.3c-0.7,0.4-1.2,2.3-1.9,2.7c-0.5,0.3-1.9-0.5-2.4-0.1c-0.4,0.4-0.6,1.7-0.3,2.2
							c0.1,0.2,0.6,0,0.8,0.2c0.2,0.3,0.3,1.2,0,1.4c-0.6,0.6-2.7-0.2-3.5-0.2c-0.5,0-1.6,0.2-1.5,1.5c0,0.7-0.1,2.2,0.4,2.8
							c0.3,0.4,1.4,0.6,1.9,0.6c0.8-0.1,2.4-0.9,3.1-1.4c0.7-0.6,1.4-2.7,2.3-3.1c0.5-0.2,1.8,0.6,2.3,0.4s0.8-1.6,1.2-1.5
							c0.4,0,0.2,1.1,0.4,1.4c0.6,0.8,2.9,1.1,3.2,2c0.2,0.5-0.7,1.5-0.5,1.9c0.1,0.1,0.3,0.1,0.4,0.1c0.6-0.2,1.4-1.9,1.4-1.9
							s-2.1-1.6-2.6-2.3c-0.2-0.3-0.6-1.1-0.4-1.4c0.3-0.4,1.5-0.3,2-0.1c0.6,0.2,1.7,1.2,2,1.8c0.2,0.5,0,1.6,0.3,2.1
							c0.3,0.6,1.3,1.9,1.9,1.6c0.8-0.4,0.2-2.1,1.8-3.1c0,0-0.1,1.6,0.1,2.1s0.8,1.3,1.2,1.5c0.9,0.4,3.8-0.2,3.8-0.2
							c-3.1-7.4-7.9-13.9-14.1-18.9l-0.5,1C1036.6,353.6,1032.3,354,1034.6,356.8z"/>
					</g>
					<g id="XMLID_13_">
						<path id="XMLID_14_" class="st39" d="M1052.6,375.4c0,0-4.2,0.6-5.5,0.2c-0.6-0.2-1.3-1.3-1.8-1.5c-0.6-0.2-2.1-0.4-2.6,0
							c-0.2,0.2-0.1,1-0.3,1.2c-1.1,1-3.8,0.6-5.9-1.4c-0.5-0.4,0.5-2.1,0-2.6c-1-1-4.3-0.1-5.6,0.4c-0.4,0.1-0.9,0.7-1.2,0.9
							c-0.9,0.3-2.9-0.2-3.8,0.1c-0.6,0.2-1.8,0.9-2,1.4c-0.2,0.5,0.3,1.9,0,2.4c-0.7,1.4-4.7,2.3-5.3,3.8c-0.1,0.3,0,1.2,0.3,1.4
							c0.2,0.2,0.9,0,1.1,0.2c0.3,0.4,0,1.5-0.3,1.8c-0.2,0.1-0.7-0.1-0.9,0.1c-0.7,0.8-0.4,3.2-0.1,4.2c0.6,1.7,3,4.7,4.7,5.4
							c0.5,0.2,1.8,0.3,2.2-0.1c0.1-0.1,0-0.5,0.1-0.6c0.7-0.6,2.8,0.4,3.6,0c0.3-0.1,0.4-0.9,0.7-1.1c0.5-0.3,1.9-0.4,2.4-0.1
							c0.4,0.2,0.6,1.3,1.1,1.5c0.6,0.3,2.1-0.4,2.6,0c0.8,0.8,0,3.5,0.3,4.6c0.4,1.5,2.9,3.8,3,5.4c0,1-1.4,2.7-1.6,3.6
							c-0.1,0.4-0.2,1.3,0,1.7c0.2,0.5,1.4,0.9,1.6,1.3c0.4,0.8-0.4,2.8-0.1,3.7c0.2,0.6,1.4,1.4,1.6,2c0.3,0.9,0,3.9,0,3.9h4.1
							c6.3-8.1,10-18.3,10-29.4C1054.8,384.9,1054,380,1052.6,375.4z"/>
					</g>
				</g>
			</g>
			<g id="XMLID_9_">
				
					<linearGradient id="XMLID_27_" gradientUnits="userSpaceOnUse" x1="958.2899" y1="-355.9561" x2="1006.5902" y2="-355.9561" gradientTransform="matrix(1 0 0 -1 0 34)">
					<stop  offset="0" style="stop-color:#1A171B;stop-opacity:0.5"/>
					<stop  offset="2.616996e-002" style="stop-color:#1A171B;stop-opacity:0.4869"/>
					<stop  offset="1" style="stop-color:#1A171B;stop-opacity:0"/>
				</linearGradient>
				<path id="XMLID_10_" class="st40" d="M983.2,390c0,33.7,23.3,48.3,23.3,48.3c-26.7,0-48.3-21.6-48.3-48.3s21.6-48.3,48.3-48.3
					C1006.6,341.7,983.2,357.6,983.2,390z"/>
			</g>
		</g>
	</g>
</g>
<g>
	<g id="mercury-tag" class="st41">
		<path class="st42" d="M707.8,335.8c-0.7-0.6-1.8-1.7-3.1-3.2l-0.6-0.6l-0.3,0.2c1.1,1.8,2,3.2,2.6,4.3l7.2,13l-3.2,3.6l-13.8-5.8
			c-1.1-0.4-2.4-1-3.8-1.8l-0.8-0.4l-0.2,0.3c1.7,1.3,3.1,2.4,4.2,3.4l7,6.4c0.8-0.4,1.6-0.6,2.3-0.6l1.8,2.1l-4.8,5.2l-2.3-1.6
			c-0.1-0.7,0-1.5,0.3-2.4l-12.3-11.2c-0.9,0.5-1.7,0.7-2.4,0.6l-1.8-2.1l5.5-6.1l14.3,5.9c1.6,0.6,3,1.2,4.1,2l0.5,0.3l0.3-0.4
			c-1-1.1-2-2.5-2.8-4.3l-7.4-13.5l5.4-6l2.3,1.6c0.1,0.6,0,1.4-0.4,2.4l12.2,11.1c0.9-0.5,1.7-0.7,2.3-0.6l2,2.3l-5.5,6.1l-2.4-1.7
			c-0.1-0.6,0-1.4,0.4-2.3L707.8,335.8z"/>
		<path class="st42" d="M731.4,337.4c-2.6,1.2-4.9,1.5-6.9,0.7c-2-0.8-3.6-2.5-4.9-5.1c-0.8-1.6-1.2-3.1-1.3-4.5
			c-0.1-1.4,0.1-2.6,0.6-3.6c0.9-1.9,2.4-3.4,4.4-4.4c2-1,3.8-1.2,5.4-0.7c1.6,0.5,3,2.1,4.3,4.8c0.8,1.6,0.4,2.7-1.2,3.5l-7.1,3.4
			c0.7,1.3,1.6,2.1,2.4,2.4c0.9,0.3,2,0.1,3.4-0.6c0.7-0.4,1.4-0.8,2-1.3c0.6-0.5,1-0.9,1.2-1.2l0.3-0.5l2.2,2.1
			c-0.1,0.2-0.2,0.5-0.3,0.8c-0.1,0.3-0.6,1-1.4,1.8C733.7,336,732.7,336.7,731.4,337.4z M728.5,326.1c-0.1-0.3-0.3-0.7-0.5-1.1
			s-0.6-0.8-1.2-1.1c-0.6-0.3-1.3-0.3-2.2,0.1c-0.9,0.4-1.4,1-1.6,1.7c-0.2,0.7-0.1,1.8,0.4,3.1L728.5,326.1z"/>
		<path class="st42" d="M745.9,318.6c-1.8,0.4-3,1-3.5,1.8l1.7,8.1c2,0,3.4,0.2,4.2,0.7l0.2,2.8l-10.1,2.1l-0.9-2.6
			c0.2-0.5,0.8-1.1,1.7-1.6l-2-9.8c-0.9-0.1-1.6-0.4-2.2-0.8l-0.2-2.8c1.2-0.6,2.4-0.9,3.4-1.2s1.9-0.4,2.6-0.5l0.5,2.2
			c0.4-0.7,1-1.4,1.8-2c0.8-0.6,1.5-1,2.2-1.1c0.7-0.1,1.2-0.2,1.5-0.1l0.9,4.6C746.9,318.4,746.4,318.5,745.9,318.6z"/>
		<path class="st42" d="M759.3,317.1c-2.2-0.1-3.4,1.8-3.5,5.6c-0.1,1.9,0.2,3.3,0.8,4c0.6,0.8,1.5,1.2,2.6,1.2
			c1.8,0.1,3.4-0.1,4.8-0.4l1,2.8c-0.8,0.5-1.8,0.9-3.1,1.2c-1.3,0.3-2.6,0.4-3.8,0.4c-5.2-0.2-7.7-3.2-7.5-9.2
			c0.1-3.5,1.1-6,2.9-7.5c1.6-1.3,3.6-1.9,5.9-1.8s4.2,0.6,5.7,1.5c0,0.2,0,0.5,0,0.7c0,1.4-0.4,2.7-1.1,3.9l-3.2-0.1
			c-0.3-0.6-0.5-1.3-0.6-2.2C760.2,317.1,759.8,317.1,759.3,317.1z"/>
		<path class="st42" d="M778.2,334.3c-2,0.6-4,0.6-6.1-0.1c-2.1-0.7-3.5-1.6-4-2.8c-0.6-1.2-0.5-2.8,0.2-4.8l2.6-7.9
			c-0.7-0.5-1.2-1.1-1.5-1.8l1.2-2.5c1.4,0.1,2.6,0.4,3.7,0.7c1.1,0.4,2,0.7,2.7,1l-3.6,10.9c-0.4,1.2-0.5,2.1-0.2,2.6
			c0.2,0.5,0.9,1,2.1,1.3c1.1,0.4,2.3,0.3,3.5-0.1l2.9-8.7c-0.7-0.5-1.2-1.1-1.5-1.8l1.2-2.5c1.4,0.1,2.6,0.4,3.7,0.7
			c1.1,0.4,2,0.7,2.7,1l-4.4,13.4c0.7,0.4,1.3,0.8,1.7,1.2l-0.9,2.7c-1.6,0.3-3.5,0.1-5.5-0.6C778.2,335.7,778,335.1,778.2,334.3z"
			/>
		<path class="st42" d="M800.1,332.9c-1.5-1-2.8-1.4-3.7-1.2l-4.6,6.9c1.4,1.4,2.3,2.5,2.5,3.5l-1.8,2.1l-8.6-5.7l1.2-2.5
			c0.5-0.2,1.3-0.2,2.3,0.1l5.6-8.3c-0.5-0.7-0.9-1.4-1-2.1l1.8-2.1c1.3,0.5,2.3,1,3.2,1.6c0.9,0.6,1.6,1.1,2.2,1.5l-1.3,1.9
			c0.8-0.2,1.7-0.3,2.7-0.2c1,0.1,1.7,0.4,2.3,0.8c0.6,0.4,1,0.7,1.1,1l-2.7,3.8C801,333.5,800.6,333.2,800.1,332.9z"/>
		<path class="st42" d="M794.2,351.3c0.3,0.3,0.9,0.4,1.8,0.3c0.9-0.2,1.9-0.5,2.8-1.1l6.7-13.7c-0.5-1.1-0.7-2-0.5-2.7l2.3-1.6
			l5.4,6.3l-1.9,2.1c-0.5,0-1.1-0.2-1.8-0.5l-2.8,5.1c-0.6,1.1-1.2,2-1.9,2.9l-0.3,0.4l0.3,0.4c1-0.6,2.2-1.2,3.5-1.7l5.3-2.1
			c-0.3-0.9-0.4-1.6-0.3-2.2l2.3-1.6l5.2,6l-1.9,2.1c-0.7,0-1.6-0.3-2.6-0.9l-14.5,4.7c-2.8,0.9-4.6,1.4-5.6,1.4
			c-1.8,0.1-3.3-0.5-4.5-1.9c-1.2-1.4-1.8-2.8-1.7-4.2c0.2-0.2,0.3-0.3,0.5-0.5c1-0.9,2.1-1.5,3.4-1.8l2,2.3
			c-0.3,0.7-0.8,1.4-1.6,2.2L794.2,351.3z"/>
	</g>
	<g id="venus-tag" class="st41">
		<path class="st42" d="M828.8,333.4l-20.9-16.1c-1.3,0.3-2.2,0.4-2.8,0.1l-1.7-3.2l8.4-5.7l2.4,2.7c0,0.7-0.4,1.5-1.1,2.4l10.2,8.5
			c1.6,1.3,3,2.6,4,3.9l0.4,0.6l0.5-0.3c-1-1.5-1.8-3.4-2.6-5.7l-4-12.8c-1.1,0.3-2,0.3-2.7,0.1l-1.7-3.2l8.2-5.5l2.4,2.7
			c-0.1,0.8-0.6,1.8-1.5,3l7.2,25.2L828.8,333.4z"/>
		<path class="st42" d="M851.9,322.3c-3.3,1-6.1,0.8-8.3-0.4s-3.8-3.6-4.8-7c-0.6-2-0.8-3.9-0.7-5.6c0.1-1.7,0.6-3,1.4-4.1
			c1.5-2.1,3.5-3.6,6.1-4.3c2.6-0.8,4.7-0.7,6.5,0.2c1.8,0.9,3.1,3.1,4.1,6.5c0.6,2-0.1,3.3-2.1,3.9l-9,2.7c0.6,1.7,1.4,2.8,2.4,3.3
			c1,0.5,2.4,0.5,4.1,0c0.9-0.3,1.8-0.7,2.6-1.1c0.8-0.5,1.4-0.9,1.7-1.2l0.5-0.5l2.2,3c-0.1,0.2-0.3,0.6-0.5,0.9
			c-0.2,0.4-0.9,1-2.1,1.9C854.9,321.2,853.6,321.8,851.9,322.3z M850.7,308.5c-0.1-0.4-0.2-0.9-0.3-1.4c-0.2-0.6-0.6-1.1-1.2-1.6
			c-0.6-0.5-1.5-0.6-2.6-0.3c-1.1,0.3-1.8,0.9-2.2,1.7c-0.4,0.8-0.4,2.1-0.2,3.7L850.7,308.5z"/>
		<path class="st42" d="M860.6,297.6c1.6-0.3,3-0.5,4.3-0.5c1.3,0,2.3,0.1,3.2,0.1l0,2.2c0.7-0.6,1.7-1.1,2.9-1.5
			c1.2-0.4,2.4-0.6,3.5-0.5c2.8,0,4.8,0.7,5.9,2.1c1.1,1.3,1.7,3.6,1.6,6.9l-0.1,8.3c1.1,0.4,1.9,0.9,2.4,1.5l-0.5,3.3l-10-0.1
			l-0.4-3.3c0.4-0.5,1.2-1,2.4-1.4l0.1-8.6c0-1.6-0.2-2.6-0.7-3.1c-0.5-0.5-1.4-0.8-2.7-0.8c-1.3,0-2.6,0.4-3.9,1.3l-0.1,11.1
			c1.1,0.4,1.9,0.9,2.4,1.5l-0.5,3.3l-10-0.1l-0.4-3.3c0.4-0.5,1.2-1,2.4-1.4l0.1-12c-1-0.4-1.8-0.9-2.4-1.5L860.6,297.6z"/>
		<path class="st42" d="M899.1,323.2c-2.4,0.7-4.8,0.6-7.4-0.3c-2.5-0.9-4.1-2.1-4.8-3.5c-0.6-1.4-0.5-3.3,0.3-5.7l3.3-9.4
			c-0.8-0.7-1.4-1.4-1.8-2.2l1.5-3c1.6,0.2,3.1,0.5,4.4,1c1.3,0.5,2.4,0.9,3.3,1.3l-4.6,13c-0.5,1.5-0.6,2.5-0.4,3.2
			c0.3,0.6,1.1,1.2,2.4,1.7c1.3,0.5,2.7,0.5,4.2,0l3.7-10.4c-0.8-0.7-1.4-1.4-1.8-2.2l1.5-3c1.6,0.2,3.1,0.5,4.4,1
			c1.3,0.5,2.4,0.9,3.3,1.3l-5.6,15.9c0.9,0.5,1.6,1,2,1.5l-1.1,3.2c-1.9,0.3-4.2,0-6.6-0.9C899,324.9,898.9,324.1,899.1,323.2z"/>
		<path class="st42" d="M923,318.2c-1.5-1.1-2.6-1.2-3.3-0.3c-0.6,0.9-0.3,2.1,1,3.7l2.2,2.7c2.3,2.8,2.5,5.5,0.7,8
			c-1.3,1.8-2.9,2.7-5,3c-2,0.2-4.4-0.6-7.1-2.6c-2.7-1.9-4.5-3.8-5.4-5.7c0.2-0.3,0.3-0.5,0.5-0.8c0.9-1.3,2-2.3,3.3-2.9l2.9,2.1
			c-0.1,0.8-0.3,1.5-0.7,2.2c0.4,0.5,1,1,1.8,1.7c2.1,1.5,3.5,1.7,4.4,0.5c0.3-0.4,0.4-0.8,0.3-1.2c-0.1-0.4-0.5-1.1-1.1-1.9
			l-2.2-2.8c-1.1-1.4-1.8-2.8-2-4.2s0.2-2.8,1.3-4.3c1.1-1.5,2.6-2.3,4.6-2.4c2-0.1,4.1,0.7,6.4,2.4c2.3,1.7,4,3.4,5.1,5.3
			c-0.1,0.3-0.3,0.5-0.5,0.7c-0.9,1.2-2,2.2-3.2,2.8l-2.9-2.1c0.1-0.8,0.3-1.5,0.6-2.1C924.2,319.3,923.7,318.7,923,318.2z"/>
	</g>
	<g id="earth-tag" class="st41">
		<path class="st42" d="M973,316.7l-19.8,12.1l-2.6-3.3c0.1-0.7,0.6-1.7,1.5-2.8l-11.9-19.5c-1.4,0.3-2.5,0.3-3.2,0l-1.7-3.8
			l19.5-11.9l4.5,7.4l-2.9,2.3c-1-0.2-2.2-0.9-3.5-2.2l-6.7,4.1l4.5,7.3l5.9-3.6c-0.2-1.1-0.2-1.9,0-2.4l2.9-1.3l4.6,7.6l-2.5,2
			c-0.5-0.1-1.3-0.4-2.2-1.1l-5.9,3.6l5,8.2l7-4.3c-0.5-1.7-0.6-3.1-0.3-4.1l3.4-1.5L973,316.7z"/>
		<path class="st42" d="M969.4,295.6c-0.1-0.5-0.2-1-0.3-1.6c2.6-2.4,5.6-4,9.1-4.9c3.5-0.9,6.1-0.9,7.9,0.1
			c1.8,0.9,3.1,2.9,3.9,5.9l2.6,10.3c1.2-0.1,2.1,0,2.9,0.1l1.1,4.2c-1.4,1.2-3.7,2.2-6.8,3c-0.5-0.8-1.1-1.7-1.6-2.8
			c-0.9,2.4-3.1,4-6.8,5c-2.2,0.6-4.2,0.4-6-0.5c-1.9-0.9-3.1-2.4-3.6-4.6c-0.6-2.2-0.3-4.1,0.9-5.7c1.1-1.6,3.1-2.8,5.9-3.5
			l5.3-1.3l-0.6-2.3c-0.6-2.5-2.3-3.4-5-2.8c-1,0.3-1.8,0.6-2.4,0.9c0.3,1.4,0.4,2.5,0.2,3.3l-4.7,1.2
			C970.5,298.8,969.8,297.4,969.4,295.6z M982.2,309.5c1.6-0.4,2.8-1.2,3.6-2.5l-1-4l-3.4,0.9c-2.3,0.6-3.3,1.8-2.8,3.6
			c0.2,0.8,0.6,1.4,1.3,1.8C980.4,309.7,981.2,309.7,982.2,309.5z"/>
		<path class="st42" d="M1011.6,292.4c-2.5,0-4.3,0.5-5.3,1.4l-0.1,11.4c2.7,0.5,4.5,1.2,5.5,2.1l-0.5,3.8l-14.3-0.1l-0.5-3.9
			c0.5-0.6,1.4-1.2,2.8-1.7l0.1-13.9c-1.2-0.4-2.1-1-2.7-1.7l0.5-3.8c1.8-0.4,3.5-0.6,5-0.6c1.5,0,2.7,0,3.7,0.1l0,3.2
			c0.8-0.9,1.8-1.6,3-2.2c1.2-0.6,2.3-0.9,3.3-0.9c1,0,1.7,0.1,2,0.3l-0.2,6.5C1013.2,292.5,1012.4,292.4,1011.6,292.4z"/>
		<path class="st42" d="M1029.9,282.8l-1.4,6.1l7,1.6l-0.9,4.1l-7-1.6l-2.8,12.3c-0.2,1-0.3,1.8-0.1,2.4c0.2,0.5,0.8,0.9,1.9,1.2
			c1.1,0.2,2.3,0.3,3.7,0.1l0.6,4.1c-2.8,0.7-5.5,0.8-8.1,0.2c-2.6-0.6-4.3-1.5-4.9-2.9c-0.7-1.3-0.8-3.1-0.3-5.2l3.1-13.7l-2.2-0.5
			l0.1-3.1c0.7-0.5,1.9-0.9,3.6-1.1c1-2.6,2.3-4.2,4-4.8L1029.9,282.8z"/>
		<path class="st42" d="M1047.2,283.1c1.8,0.5,3.5,1.1,4.9,1.9c1.4,0.8,2.6,1.4,3.5,2.1l-5.9,11c1-0.1,2.1,0,3.5,0.3
			c1.3,0.3,2.5,0.7,3.4,1.2c2.9,1.6,4.5,3.4,4.9,5.4c0.4,2-0.2,4.5-1.8,7.3l-4.8,8.9c0.9,1.1,1.4,2,1.6,2.8l-2.3,3.2l-10.1-5.5
			l1.4-3.6c0.7-0.3,1.8-0.4,3.2-0.2l4.7-8.7c0.9-1.6,1.2-2.8,0.9-3.6c-0.2-0.8-1-1.6-2.4-2.3c-1.4-0.7-2.9-1-4.7-0.7l-6.1,11.3
			c0.9,1.1,1.4,2,1.6,2.8l-2.3,3.2l-10.1-5.5l1.4-3.6c0.7-0.3,1.8-0.4,3.2-0.2l11.6-21.5c-0.8-0.9-1.4-1.8-1.6-2.8L1047.2,283.1z"/>
	</g>
	<g id="mars-tag" class="st41">
		<path class="st42" d="M1110.9,309.6c-0.5-1-1.1-2.6-1.9-4.9l-0.3-1l-0.4,0.1c0.4,2.4,0.7,4.4,0.8,5.9l1.7,17.3l-5.1,2.3
			l-12.2-12.5c-1-0.9-2.1-2.2-3.2-3.7l-0.6-0.8l-0.4,0.2c1.3,2.2,2.2,4,2.9,5.5l4.6,10.1c1.1-0.1,2,0.1,2.8,0.5l1,3.1l-7.5,3.4
			l-1.7-2.8c0.2-0.8,0.7-1.6,1.5-2.4l-8-17.7c-1.2,0.1-2.2,0-2.8-0.4l-1-3.1l8.7-4l12.6,12.9c1.5,1.4,2.6,2.7,3.5,4l0.4,0.6l0.5-0.2
			c-0.6-1.6-0.9-3.6-1-5.9l-1.7-17.9l8.6-3.9l1.7,2.8c-0.2,0.7-0.7,1.6-1.5,2.4l8,17.5c1.2-0.1,2.1,0.1,2.7,0.4l1.1,3.4l-8.7,4
			l-1.8-3c0.2-0.7,0.7-1.5,1.5-2.3L1110.9,309.6z"/>
		<path class="st42" d="M1125.4,304.2c0-0.4,0-0.9,0-1.3c2.6-1.5,5.3-2.3,8.3-2.4c3-0.1,5.2,0.4,6.5,1.5c1.3,1.1,2.1,3,2.1,5.6
			l0.3,9c1,0.2,1.8,0.4,2.3,0.6l0.1,3.7c-1.4,0.7-3.4,1.1-6.1,1.2c-0.3-0.7-0.6-1.6-0.8-2.6c-1.1,1.8-3.3,2.8-6.5,2.9
			c-1.9,0.1-3.5-0.4-4.9-1.5c-1.4-1-2.1-2.5-2.1-4.4s0.5-3.4,1.7-4.5c1.2-1.1,3-1.7,5.5-1.8l4.6-0.2l-0.1-2
			c-0.1-2.2-1.3-3.2-3.6-3.2c-0.9,0-1.6,0.1-2.1,0.3c0,1.2-0.2,2.1-0.4,2.7l-4.1,0.1C1125.7,307,1125.5,305.8,1125.4,304.2z
			 M1133.4,317.9c1.4,0,2.6-0.5,3.4-1.4l-0.1-3.4l-2.9,0.1c-2,0.1-3,0.9-2.9,2.4c0,0.7,0.3,1.3,0.7,1.7
			C1132,317.8,1132.6,318,1133.4,317.9z"/>
		<path class="st42" d="M1160.7,309.1c-2.1-0.5-3.6-0.4-4.6,0.2l-2.1,9.4c2.1,0.9,3.5,1.8,4.2,2.7l-1.1,3.1l-11.7-2.6l0.3-3.3
			c0.5-0.4,1.4-0.7,2.6-0.9l2.5-11.4c-0.9-0.5-1.5-1.2-2-1.9l1.1-3.1c1.6,0,3,0.1,4.2,0.4c1.2,0.3,2.2,0.5,3,0.7l-0.6,2.6
			c0.8-0.6,1.7-1,2.8-1.3c1.1-0.3,2-0.3,2.8-0.1c0.8,0.2,1.3,0.4,1.6,0.6l-1.3,5.3C1161.9,309.4,1161.3,309.3,1160.7,309.1z"/>
		<path class="st42" d="M1174.6,312.8c-1.7-0.8-2.7-0.7-3.2,0.3c-0.5,0.9,0.1,2,1.6,3.3l2.6,2.2c2.7,2.3,3.4,4.8,2,7.6
			c-0.9,1.9-2.3,3.1-4.2,3.7c-1.9,0.6-4.3,0.1-7.2-1.3c-2.9-1.4-4.9-2.9-6.2-4.5c0.1-0.3,0.2-0.6,0.4-0.9c0.7-1.4,1.6-2.5,2.6-3.3
			l3.1,1.5c0,0.8-0.1,1.5-0.3,2.2c0.4,0.4,1.1,0.8,2,1.3c2.2,1.1,3.6,1,4.2-0.3c0.2-0.4,0.2-0.8,0-1.2c-0.2-0.4-0.6-1-1.4-1.6
			l-2.6-2.3c-1.3-1.2-2.2-2.4-2.7-3.7c-0.4-1.3-0.3-2.7,0.5-4.4c0.8-1.7,2.1-2.7,4-3.1c1.9-0.4,4,0,6.5,1.2c2.5,1.2,4.4,2.6,5.8,4.1
			c-0.1,0.3-0.2,0.5-0.3,0.8c-0.6,1.3-1.5,2.4-2.6,3.2l-3.1-1.5c0-0.7,0-1.4,0.2-2.1C1176,313.6,1175.3,313.1,1174.6,312.8z"/>
	</g>
	<g id="jupiter-tag" class="st41">
		<path class="st42" d="M1233.1,302.4c1-0.6,1.6-1.2,1.7-2c0.1-0.8-0.2-1.9-1.1-3.4l-13.6-24.4c-1.4,0.2-2.4,0.2-3.1-0.1l-1.5-3.7
			l9.8-5.5l2.4,3.2c-0.1,0.8-0.7,1.7-1.5,2.7l13.4,24c1.8,3.2,2.4,5.8,1.9,7.8c-0.5,2-2.2,3.8-4.9,5.3c-2.8,1.6-5.6,2.2-8.4,1.8
			c-0.1-0.2-0.3-0.5-0.5-0.9c-0.2-0.4-0.6-1.2-0.9-2.3c-0.4-1.1-0.6-2.1-0.6-2.9l3.8-2.1c0.7,0.4,1.6,1.3,2.6,2.7
			C1232.6,302.7,1232.8,302.6,1233.1,302.4z"/>
		<path class="st42" d="M1258.1,283.6c-1.6,2.2-3.8,3.8-6.6,4.8c-2.8,1-5,1.1-6.5,0.3c-1.5-0.8-2.7-2.5-3.7-5.2l-3.6-10.5
			c-1.2,0-2.2-0.2-3-0.7l-0.7-3.7c1.6-1,3.1-1.7,4.5-2.2c1.5-0.5,2.7-0.9,3.7-1.1l5,14.5c0.6,1.6,1.2,2.6,1.9,3
			c0.7,0.4,1.8,0.3,3.2-0.2c1.5-0.5,2.7-1.5,3.6-2.9l-4-11.6c-1.2,0-2.2-0.2-3-0.7l-0.7-3.7c1.6-1,3.1-1.7,4.5-2.2
			c1.5-0.5,2.7-0.9,3.7-1.1l6.1,17.7c1.1-0.2,2.1-0.2,2.8-0.1l1.2,3.6c-1.5,1.6-3.6,2.9-6.4,3.8
			C1259.2,285.2,1258.5,284.6,1258.1,283.6z"/>
		<path class="st42" d="M1264.7,259c1.7-0.6,3.3-0.9,4.7-1c1.4-0.1,2.6-0.2,3.5-0.2l0.2,2.3c2-1.7,4.2-2.7,6.6-2.9
			c3.2-0.3,5.6,0.4,7.2,2.1c1.6,1.7,2.6,4.6,3,8.9c0.2,2.3,0.1,4.3-0.4,6.1c-0.5,1.8-1.3,3.2-2.3,4.3c-2,2.1-4.5,3.3-7.6,3.6
			c-1.3,0.1-2.6,0.1-3.8,0l0.4,4.1c1.9,0.3,3.2,0.8,3.8,1.4l-0.1,3.7l-12,1.2l-0.8-3.6c0.4-0.6,1.2-1.2,2.5-1.9l-2.2-22.8
			c-1.2-0.3-2.1-0.7-2.8-1.4L1264.7,259z M1278.7,277.2c1.6-0.2,2.8-1,3.6-2.5c0.8-1.5,1.1-3.5,0.8-6c-0.2-2.5-0.7-4.2-1.3-5.1
			c-0.6-0.9-1.6-1.2-2.9-1.1c-2,0.2-3.6,0.8-4.7,1.9l1.2,12.7C1276.4,277.3,1277.5,277.3,1278.7,277.2z"/>
		<path class="st42" d="M1294.7,257.2c1.8-0.3,3.5-0.4,5-0.2c1.5,0.1,2.8,0.3,3.9,0.4l-1.5,19.1c1.2,0.6,2,1.2,2.5,1.8l-0.8,3.6
			l-11-0.8l-0.2-3.7c0.5-0.6,1.4-1,2.8-1.4l1-13.3c-1.1-0.5-1.9-1.1-2.5-1.8L1294.7,257.2z M1300.4,254.3c-2.7-0.2-3.9-1.5-3.7-3.9
			c0.2-2.4,1.6-3.5,4.3-3.3c2.7,0.2,3.9,1.5,3.7,3.9C1304.5,253.4,1303,254.5,1300.4,254.3z"/>
		<path class="st42" d="M1320,254.5l-1.3,5.9l6.7,1.4l-0.8,3.9l-6.7-1.4l-2.6,11.9c-0.2,1-0.2,1.8,0,2.3c0.2,0.5,0.8,0.9,1.9,1.1
			c1.1,0.2,2.3,0.2,3.6,0l0.6,4c-2.7,0.7-5.3,0.8-7.8,0.2c-2.5-0.5-4.1-1.5-4.8-2.7c-0.7-1.3-0.8-2.9-0.3-5l2.8-13.2l-2.1-0.5l0.1-3
			c0.6-0.5,1.8-0.9,3.5-1.1c0.9-2.5,2.2-4,3.8-4.6L1320,254.5z"/>
		<path class="st42" d="M1331.8,290.1c-3.6-1.5-5.8-3.5-6.9-6.1c-1-2.6-0.8-5.7,0.7-9.4c0.9-2.2,2-4,3.3-5.3c1.3-1.3,2.6-2.2,4-2.6
			c2.8-0.8,5.5-0.7,8.3,0.5c2.8,1.1,4.6,2.7,5.5,4.7s0.6,4.8-0.9,8.5c-0.9,2.1-2.4,2.8-4.5,1.9l-9.6-3.9c-0.6,1.9-0.7,3.4-0.2,4.5
			c0.5,1.1,1.7,2,3.5,2.8c1,0.4,2,0.7,3,0.8c1,0.1,1.8,0.2,2.3,0.1l0.8-0.1l-0.1,4.1c-0.3,0.1-0.6,0.3-1.1,0.5
			c-0.5,0.2-1.5,0.2-3.1,0.2C1335.2,291.2,1333.6,290.8,1331.8,290.1z M1340.4,277.3c0.2-0.4,0.5-0.9,0.7-1.5
			c0.2-0.6,0.3-1.3,0.1-2.2c-0.2-0.9-0.9-1.5-2.1-2c-1.2-0.5-2.2-0.5-3.1,0c-0.9,0.5-1.8,1.5-2.7,3.1L1340.4,277.3z"/>
		<path class="st42" d="M1363.2,286.4c-2.1-1.3-3.7-1.8-5-1.5l-5.9,9.3c1.9,1.8,3.1,3.3,3.4,4.6l-2.4,2.9l-11.6-7.4l1.6-3.4
			c0.7-0.3,1.7-0.3,3.1,0l7.2-11.2c-0.7-0.9-1.2-1.9-1.3-2.8l2.4-2.9c1.7,0.6,3.1,1.3,4.3,2.1c1.2,0.8,2.2,1.4,2.9,2l-1.6,2.5
			c1.1-0.3,2.3-0.4,3.5-0.3c1.3,0.1,2.3,0.5,3.1,1c0.8,0.5,1.3,0.9,1.5,1.2l-3.5,5.2C1364.4,287.2,1363.8,286.8,1363.2,286.4z"/>
	</g>
	<g id="saturn-tag" class="st41">
		<path class="st42" d="M1454.6,294.4c-1.1,0.4-2.1,0.9-3,1.6c-1,0.7-1.6,1.5-1.8,2.4s-0.1,1.8,0.6,2.7c0.6,0.9,1.3,1.4,2.1,1.6
			c0.8,0.2,2,0,3.5-0.6l4.2-1.4c2.3-0.8,4.4-1,6.3-0.6s3.7,1.7,5.3,4c1.9,2.7,2.4,5.5,1.6,8.4c-0.8,2.9-2.7,5.3-5.5,7.4
			c-1.6,1.1-3.3,2-5.3,2.8c-1.9,0.8-3.7,1.2-5.3,1.2c-0.1-0.2-0.3-0.5-0.6-0.9s-0.8-1.3-1.3-2.5c-0.6-1.2-0.9-2.3-1.1-3.2l3.7-2.6
			c1,0.5,2,1.4,3,2.7c1.2-0.3,2.4-0.8,3.6-1.7s2-1.8,2.4-3s0.2-2.2-0.6-3.3c-0.3-0.5-0.7-0.9-1-1.2s-0.8-0.5-1.5-0.5
			c-0.7-0.1-1.5,0-2.4,0.3l-4.9,1.7c-4.9,1.7-8.8,0.5-11.7-3.5c-1.7-2.4-2.1-4.9-1.4-7.5s2.5-4.9,5.3-6.9c2.8-2,6-3.2,9.5-3.9
			c0.1,0.2,0.3,0.5,0.6,0.9c0.3,0.4,0.8,1.3,1.3,2.5s0.9,2.3,1.1,3.2l-3.7,2.6C1456.7,296.7,1455.7,295.8,1454.6,294.4z"/>
		<path class="st42" d="M1471.8,292.8c-0.2-0.5-0.3-0.9-0.5-1.5c2.2-2.5,5-4.4,8.2-5.5c3.2-1.2,5.7-1.4,7.6-0.7s3.3,2.5,4.3,5.3
			l3.5,9.6c1.1-0.2,2-0.2,2.8-0.1l1.4,3.9c-1.3,1.3-3.3,2.4-6.2,3.5c-0.6-0.7-1.2-1.5-1.8-2.6c-0.6,2.4-2.6,4.2-6,5.4
			c-2,0.7-4,0.8-5.8,0.1c-1.9-0.7-3.2-2-3.9-4c-0.7-2-0.6-3.8,0.3-5.5c0.9-1.6,2.7-3,5.3-3.9l4.9-1.8l-0.8-2.2
			c-0.9-2.3-2.5-3.1-5-2.2c-0.9,0.3-1.7,0.7-2.2,1.1c0.4,1.3,0.6,2.3,0.5,3.1l-4.4,1.6C1473.1,295.7,1472.4,294.5,1471.8,292.8z
			 M1485.4,304.8c1.5-0.6,2.6-1.5,3.2-2.7l-1.3-3.7l-3.2,1.2c-2.2,0.8-2.9,2-2.3,3.7c0.3,0.8,0.7,1.3,1.4,1.6
			C1483.7,305.2,1484.5,305.1,1485.4,304.8z"/>
		<path class="st42" d="M1504.2,274l0.8,6l6.8-0.9l0.5,4l-6.8,0.9l1.6,12c0.1,1,0.4,1.7,0.7,2.2c0.3,0.4,1.1,0.6,2.1,0.4
			c1.1-0.1,2.2-0.5,3.4-1.2l1.9,3.5c-2.3,1.6-4.7,2.5-7.3,2.8c-2.6,0.3-4.4,0-5.4-1c-1-1-1.7-2.5-2-4.6l-1.7-13.4l-2.1,0.3l-0.9-2.8
			c0.4-0.7,1.4-1.4,2.9-2.2c0-2.7,0.7-4.5,2-5.6L1504.2,274z"/>
		<path class="st42" d="M1533.1,302.3c-2.4,1.3-5,1.9-8,1.5c-3-0.3-5-1.2-6-2.5c-1-1.4-1.4-3.5-1.1-6.3l1.2-11
			c-1.1-0.5-1.9-1.1-2.4-1.9l0.9-3.6c1.8-0.2,3.5-0.2,5-0.1c1.5,0.2,2.8,0.4,3.8,0.6l-1.7,15.2c-0.2,1.7-0.1,2.9,0.4,3.5
			c0.5,0.6,1.5,1,3,1.2s3.1-0.2,4.5-1l1.3-12.2c-1.1-0.5-1.9-1.1-2.4-1.9l0.9-3.6c1.8-0.2,3.5-0.2,5-0.1c1.5,0.2,2.8,0.4,3.8,0.6
			l-2.1,18.6c1.1,0.3,1.9,0.7,2.5,1.1l-0.4,3.8c-2,0.8-4.5,1.1-7.4,0.7C1533.4,304.1,1533.1,303.3,1533.1,302.3z"/>
		<path class="st42" d="M1561.1,293.9c-2.3-0.8-4-1-5.2-0.4l-3.8,10.3c2.3,1.4,3.7,2.6,4.3,3.7l-1.7,3.3l-12.9-4.8l0.8-3.6
			c0.6-0.4,1.6-0.6,3-0.6l4.6-12.5c-0.9-0.8-1.6-1.6-1.9-2.4l1.7-3.3c1.8,0.3,3.3,0.6,4.7,1.1c1.3,0.5,2.4,0.9,3.3,1.3l-1.1,2.8
			c1-0.6,2.1-0.9,3.4-1s2.4,0,3.2,0.3c0.9,0.3,1.5,0.6,1.7,0.9l-2.3,5.8C1562.5,294.5,1561.8,294.2,1561.1,293.9z"/>
		<path class="st42" d="M1570.7,291.6c1.7,0.7,3.1,1.4,4.3,2.1c1.2,0.8,2.1,1.4,2.9,2l-1.3,2c1-0.1,2.2,0,3.6,0.4
			c1.3,0.4,2.5,0.9,3.5,1.6c2.6,1.7,4,3.6,4.3,5.5c0.2,1.9-0.6,4.4-2.6,7.4l-5.1,7.7c0.8,1.1,1.2,2,1.3,2.8l-2.4,2.8l-9.2-6.1
			l1.6-3.3c0.7-0.3,1.7-0.2,3.1,0.1l5.2-7.9c1-1.4,1.4-2.6,1.2-3.4c-0.1-0.8-0.8-1.6-2-2.4c-1.2-0.8-2.7-1.2-4.4-1.1l-6.8,10.3
			c0.8,1.1,1.2,2,1.3,2.8l-2.4,2.8l-9.2-6.1l1.6-3.3c0.7-0.3,1.7-0.2,3.1,0.1l7.4-11.1c-0.7-0.9-1.2-1.9-1.3-2.8L1570.7,291.6z"/>
	</g>
	<g id="uranus-tag" class="st41">
		<path class="st42" d="M1665.8,320.7c-0.1,2.8-1.8,5.6-5,8.3c-3.2,2.8-6.1,4-8.7,3.6c-2.6-0.4-5.3-2.2-8.1-5.4l-10.1-11.7
			c-1.2,0.5-2.2,0.6-3.1,0.5l-2.2-3.3l8.5-7.3l3,2.7c0,0.8-0.3,1.8-0.9,3l10.3,11.9c1.5,1.7,2.9,2.8,4.2,3.1
			c1.3,0.3,2.7-0.1,4.2-1.4c1.5-1.3,2.1-2.6,2-4c-0.1-1.4-0.9-2.9-2.4-4.6l-10.3-11.9c-1.3,0.5-2.3,0.7-3.1,0.5l-2.2-3.3l8-6.9
			l3,2.7c0,0.8-0.3,1.8-0.9,3l10.1,11.7C1664.6,314.9,1665.9,317.9,1665.8,320.7z"/>
		<path class="st42" d="M1677.4,297.4c-2.2,1-3.5,2.2-4,3.4l4.7,10c2.6-0.7,4.4-0.8,5.7-0.4l1.1,3.5l-12.4,5.8l-2-3.1
			c0.1-0.7,0.7-1.6,1.7-2.6l-5.7-12.1c-1.2,0.1-2.2,0-3.1-0.4l-1.1-3.5c1.4-1.1,2.8-1.9,4.1-2.5c1.3-0.6,2.3-1.1,3.2-1.4l1.3,2.7
			c0.3-1.1,0.9-2.1,1.7-3.1c0.8-1,1.6-1.7,2.5-2.1c0.9-0.4,1.5-0.6,1.9-0.6l2.5,5.7C1678.8,296.8,1678.1,297.1,1677.4,297.4z"/>
		<path class="st42" d="M1684.1,292.3c-0.1-0.5-0.2-1-0.3-1.5c2.6-2.2,5.6-3.6,8.9-4.2c3.4-0.7,5.9-0.5,7.6,0.5
			c1.7,1,2.9,2.9,3.5,5.9l2,10c1.1,0,2.1,0.1,2.8,0.3l0.8,4.1c-1.4,1.1-3.7,1.9-6.6,2.5c-0.5-0.8-0.9-1.7-1.4-2.8
			c-1,2.2-3.2,3.7-6.7,4.4c-2.1,0.4-4,0.2-5.8-0.8c-1.7-0.9-2.8-2.4-3.2-4.5c-0.4-2.1-0.1-3.9,1.1-5.4c1.2-1.5,3.1-2.5,5.9-3.1
			l5.1-1l-0.5-2.3c-0.5-2.4-2-3.4-4.6-2.9c-1,0.2-1.8,0.5-2.3,0.8c0.2,1.3,0.2,2.4,0.1,3.2l-4.6,0.9
			C1685,295.4,1684.4,294,1684.1,292.3z M1695.7,306.2c1.6-0.3,2.8-1,3.5-2.2l-0.8-3.9l-3.3,0.7c-2.3,0.5-3.2,1.5-2.9,3.3
			c0.2,0.8,0.5,1.4,1.1,1.8S1694.7,306.4,1695.7,306.2z"/>
		<path class="st42" d="M1711.9,284c1.8-0.2,3.4-0.2,4.8-0.1c1.4,0.1,2.6,0.3,3.5,0.4l-0.2,2.4c0.9-0.6,2-1,3.3-1.3
			c1.4-0.3,2.7-0.4,3.9-0.3c3.1,0.3,5.2,1.3,6.3,2.8c1.1,1.6,1.5,4.2,1.1,7.8l-0.9,9.2c1.2,0.6,2,1.2,2.5,1.9l-0.8,3.6l-11-1.1
			l-0.1-3.7c0.5-0.6,1.4-1,2.8-1.4l0.9-9.5c0.2-1.7,0-2.9-0.5-3.5c-0.5-0.6-1.5-1-2.9-1.2c-1.4-0.1-2.9,0.2-4.5,1.1l-1.2,12.3
			c1.2,0.6,2,1.2,2.5,1.9l-0.8,3.6l-11-1.1l-0.1-3.7c0.5-0.6,1.4-1,2.8-1.4l1.3-13.3c-1.1-0.5-1.9-1.1-2.5-1.9L1711.9,284z"/>
		<path class="st42" d="M1752.1,315.8c-2.7,0.6-5.4,0.2-8.1-1c-2.7-1.2-4.4-2.6-5-4.2c-0.6-1.6-0.3-3.7,0.8-6.3l4.5-10.1
			c-0.9-0.8-1.5-1.7-1.8-2.6l1.9-3.2c1.8,0.3,3.4,0.8,4.8,1.5s2.6,1.2,3.5,1.7l-6.2,14c-0.7,1.6-0.9,2.7-0.7,3.5
			c0.3,0.7,1.1,1.4,2.5,2c1.4,0.6,3,0.8,4.6,0.4l5-11.2c-0.9-0.8-1.5-1.7-1.8-2.6l1.9-3.2c1.8,0.3,3.4,0.8,4.8,1.5s2.6,1.2,3.5,1.7
			l-7.6,17.1c0.9,0.7,1.6,1.3,2.1,1.8l-1.5,3.5c-2.2,0.2-4.6-0.4-7.2-1.5C1751.8,317.7,1751.7,316.8,1752.1,315.8z"/>
		<path class="st42" d="M1778.9,312.2c-1.6-1.4-2.8-1.5-3.6-0.6c-0.8,0.9-0.5,2.3,0.9,4.1l2.3,3.2c2.3,3.3,2.4,6.3,0.2,8.9
			c-1.5,1.8-3.4,2.8-5.7,2.9c-2.3,0.1-4.8-1-7.6-3.4c-2.8-2.3-4.7-4.6-5.6-6.7c0.2-0.3,0.4-0.6,0.6-0.8c1.1-1.4,2.4-2.3,3.9-3
			l3.1,2.5c-0.2,0.9-0.5,1.6-0.9,2.4c0.4,0.6,1,1.2,1.9,2c2.2,1.8,3.8,2.1,4.8,0.9c0.3-0.4,0.5-0.8,0.4-1.3
			c-0.1-0.5-0.4-1.2-1.1-2.2l-2.2-3.3c-1.2-1.7-1.8-3.3-2-4.8c-0.2-1.5,0.4-3.1,1.8-4.7c1.3-1.6,3.1-2.4,5.3-2.3
			c2.2,0.1,4.5,1.1,6.9,3.1c2.4,2,4.2,4.1,5.3,6.2c-0.2,0.3-0.4,0.5-0.6,0.8c-1.1,1.3-2.3,2.2-3.8,2.9l-3-2.5
			c0.2-0.8,0.4-1.6,0.8-2.3C1780.2,313.4,1779.5,312.8,1778.9,312.2z"/>
	</g>
	<g id="neptune-tag" class="st41">
		<path class="st42" d="M1789.9,313.7l6.4,8.7c1-0.3,2-0.3,2.7-0.1l1.5,2.8l-6.5,4.8l-2.2-2.3c0-0.8,0.3-1.7,0.9-2.6l-11.2-15.3
			c-1.1,0.3-2.1,0.4-2.8,0.2l-1.5-2.8l6.8-5l16,8c1.2,0.6,2.5,1.5,4.1,2.7l0.8,0.6l0.3-0.4c-1.7-1.7-3-3.2-4-4.5l-6.3-8.6
			c-1,0.3-1.9,0.3-2.7,0.1l-1.5-2.8l6.5-4.8l2.2,2.3c0,0.8-0.3,1.7-0.9,2.6l13.9,19.1l-5.2,3.8l-16.1-8.1c-1.2-0.6-2.6-1.5-4.2-2.7
			l-0.8-0.6l-0.3,0.4C1787.6,310.9,1789,312.4,1789.9,313.7z"/>
		<path class="st42" d="M1824.1,312.1c-3.1,1.2-5.7,1.3-7.9,0.2c-2.2-1-3.9-3.1-5.1-6.2c-0.7-1.9-1.1-3.6-1.1-5.2c0-1.6,0.3-2.9,1-4
			c1.2-2.1,3-3.6,5.4-4.6c2.4-0.9,4.4-1,6.2-0.3c1.7,0.7,3.2,2.7,4.4,5.8c0.7,1.8,0.2,3.1-1.7,3.8l-8.3,3.2c0.7,1.6,1.6,2.5,2.6,2.9
			s2.3,0.3,3.9-0.3c0.9-0.3,1.7-0.8,2.4-1.3c0.7-0.5,1.2-0.9,1.5-1.3l0.4-0.5l2.3,2.6c-0.1,0.2-0.2,0.5-0.4,0.9
			c-0.2,0.4-0.8,1-1.8,1.9C1826.9,310.8,1825.6,311.6,1824.1,312.1z M1821.9,299.1c-0.1-0.4-0.2-0.8-0.4-1.3c-0.2-0.5-0.6-1-1.2-1.4
			c-0.6-0.4-1.5-0.4-2.5,0c-1,0.4-1.7,1-2,1.8c-0.3,0.8-0.3,2,0.1,3.5L1821.9,299.1z"/>
		<path class="st42" d="M1829.1,288.4c1.4-0.5,2.8-0.9,4-1c1.2-0.2,2.2-0.3,3-0.3l0.3,2c1.6-1.5,3.5-2.4,5.6-2.7
			c2.7-0.4,4.8,0.1,6.2,1.5c1.4,1.4,2.4,3.9,2.9,7.5c0.3,1.9,0.2,3.7-0.2,5.2s-1,2.8-1.9,3.7c-1.7,1.9-3.8,3-6.3,3.3
			c-1.1,0.1-2.2,0.2-3.2,0.1l0.5,3.5c1.7,0.2,2.8,0.6,3.3,1.1l0,3.2l-10.2,1.4l-0.8-3.1c0.3-0.5,1-1.1,2.1-1.7l-2.6-19.5
			c-1-0.2-1.8-0.6-2.4-1.1L1829.1,288.4z M1841.6,303.5c1.4-0.2,2.3-0.9,3-2.2c0.6-1.3,0.8-3,0.5-5.2c-0.3-2.1-0.7-3.6-1.2-4.3
			c-0.5-0.7-1.4-1-2.5-0.9c-1.7,0.2-3.1,0.8-4,1.8l1.5,10.8C1839.6,303.7,1840.6,303.6,1841.6,303.5z"/>
		<path class="st42" d="M1862.5,281.3l-0.4,5.2l5.9,0.5l-0.3,3.4l-5.9-0.5l-0.8,10.4c-0.1,0.9,0,1.5,0.2,1.9s0.8,0.7,1.7,0.7
			c0.9,0.1,1.9-0.1,3-0.4l1,3.3c-2.2,0.9-4.4,1.3-6.6,1.1c-2.2-0.2-3.6-0.8-4.4-1.8c-0.7-1-1-2.4-0.8-4.2l0.9-11.5l-1.8-0.1
			l-0.3-2.5c0.5-0.5,1.4-0.9,2.8-1.3c0.5-2.2,1.4-3.7,2.7-4.4L1862.5,281.3z"/>
		<path class="st42" d="M1881.9,309.8c-2.2,0.8-4.5,0.8-7,0c-2.4-0.7-4-1.8-4.7-3.1c-0.7-1.3-0.6-3.1,0.1-5.4l2.8-9.1
			c-0.8-0.6-1.4-1.3-1.8-2l1.3-2.9c1.6,0.1,3,0.4,4.2,0.7c1.3,0.4,2.3,0.7,3.1,1.1l-3.8,12.5c-0.4,1.4-0.5,2.4-0.2,3
			c0.3,0.6,1.1,1.1,2.4,1.5c1.3,0.4,2.6,0.3,4-0.2l3.1-10c-0.8-0.6-1.4-1.3-1.8-2l1.3-2.9c1.6,0.1,3,0.4,4.2,0.7s2.3,0.7,3.1,1.1
			l-4.7,15.3c0.9,0.5,1.5,0.9,2,1.3l-0.9,3.1c-1.8,0.4-3.9,0.2-6.3-0.6C1881.9,311.4,1881.7,310.6,1881.9,309.8z"/>
		<path class="st42" d="M1899.2,296.4c1.5,0.5,2.7,1.1,3.7,1.7c1,0.6,1.9,1.2,2.5,1.6l-1.1,1.8c0.9-0.1,1.9-0.1,3.1,0.2
			c1.2,0.3,2.2,0.7,3.1,1.2c2.3,1.4,3.6,2.9,3.8,4.6c0.3,1.6-0.4,3.8-2,6.4l-4.1,6.7c0.7,0.9,1.1,1.7,1.2,2.4l-2,2.5l-8.1-4.9
			l1.3-2.9c0.6-0.2,1.5-0.3,2.7,0l4.2-6.9c0.8-1.3,1.1-2.2,0.9-2.9c-0.1-0.7-0.7-1.3-1.8-2c-1.1-0.6-2.3-0.9-3.8-0.8l-5.5,9
			c0.7,0.9,1.1,1.7,1.2,2.4l-2,2.5l-8.1-4.9l1.3-2.9c0.6-0.2,1.5-0.3,2.7,0l5.9-9.8c-0.6-0.8-1-1.6-1.2-2.4L1899.2,296.4z"/>
		<path class="st42" d="M1914,333.4c-2.3-2.4-3.3-4.8-3.2-7.2c0.1-2.4,1.4-4.8,3.8-7.1c1.5-1.4,2.9-2.4,4.4-3
			c1.5-0.6,2.8-0.8,4.1-0.6c2.4,0.3,4.5,1.4,6.3,3.3c1.8,1.8,2.6,3.7,2.6,5.6c0,1.9-1.2,4-3.7,6.3c-1.4,1.4-2.8,1.3-4.2-0.1
			l-6.2-6.4c-1.2,1.3-1.7,2.4-1.7,3.5c0,1.1,0.6,2.2,1.8,3.4c0.6,0.7,1.3,1.2,2.1,1.7c0.7,0.5,1.3,0.8,1.8,0.9l0.6,0.2l-1.5,3.2
			c-0.3,0-0.6,0-1,0c-0.4,0-1.3-0.3-2.5-0.9C1916.3,335.4,1915.1,334.6,1914,333.4z M1925.1,326.3c0.3-0.2,0.7-0.5,1.1-0.9
			c0.4-0.4,0.7-0.9,0.8-1.7s-0.2-1.5-0.9-2.3s-1.6-1.2-2.4-1.1c-0.9,0-1.9,0.5-3.2,1.5L1925.1,326.3z"/>
	</g>
	<g id="pluto-tag" class="st41">
		<path class="st42" d="M1945.8,340.1l-1.5,0.7l1.8,3.9c1.8-0.4,2.9-0.4,3.6-0.1l0.9,2.9l-8.8,4l-1.6-2.6c0.1-0.5,0.5-1.1,1.3-1.9
			l-6.8-15c-1,0.1-1.8,0-2.3-0.3l-0.9-2.9l8.7-4c3.1-1.3,5.6-1.8,7.5-1.5c2,0.4,3.6,1.9,4.8,4.6C1954.7,333,1952.5,337,1945.8,340.1
			z M1941.2,328.7l-2,0.9l3.5,7.6l2.2-1c1.5-0.7,2.5-1.5,2.9-2.4c0.5-0.9,0.4-2.1-0.3-3.6c-0.7-1.5-1.5-2.2-2.5-2.4
			C1943.9,327.7,1942.7,328,1941.2,328.7z"/>
		<path class="st42" d="M1956.4,318.9c1.3-0.5,2.5-0.8,3.7-0.9c1.1-0.1,2.1-0.2,2.9-0.3l2.8,21.7c1,0.2,1.7,0.6,2.1,1l0,2.8
			l-8.2,1.1l-0.7-2.7c0.3-0.5,0.9-1,1.8-1.5l-2.2-17.4c-0.9-0.2-1.6-0.5-2.1-1L1956.4,318.9z"/>
		<path class="st42" d="M1981.4,343c-1.8,0.9-3.9,1.2-6.1,0.8c-2.2-0.4-3.7-1.1-4.4-2.2s-0.9-2.6-0.6-4.7l1.4-8.2
			c-0.8-0.4-1.4-0.9-1.8-1.5l0.8-2.7c1.4-0.1,2.6,0,3.8,0.2c1.1,0.2,2.1,0.4,2.9,0.6l-1.9,11.3c-0.2,1.3-0.2,2.2,0.2,2.6
			c0.3,0.5,1.1,0.8,2.2,1s2.3,0,3.4-0.6l1.5-9.1c-0.8-0.4-1.4-0.9-1.8-1.5l0.8-2.7c1.4-0.1,2.6,0,3.8,0.2c1.1,0.2,2.1,0.4,2.9,0.6
			l-2.3,13.8c0.8,0.3,1.4,0.6,1.9,0.9l-0.5,2.8c-1.5,0.5-3.4,0.6-5.6,0.2C1981.5,344.4,1981.3,343.8,1981.4,343z"/>
		<path class="st42" d="M2003.4,329.4l-2.1,4l4.5,2.4l-1.4,2.7l-4.5-2.4l-4.3,8c-0.4,0.7-0.5,1.2-0.5,1.6c0,0.4,0.4,0.8,1.1,1.2
			c0.7,0.4,1.6,0.6,2.6,0.8l-0.4,3c-2.1-0.1-4-0.5-5.7-1.5c-1.7-0.9-2.7-1.9-2.9-3c-0.2-1.1,0.1-2.3,0.8-3.7l4.8-8.9l-1.4-0.8
			l0.7-2.1c0.6-0.2,1.5-0.2,2.7-0.1c1.2-1.6,2.4-2.4,3.7-2.5L2003.4,329.4z"/>
		<path class="st42" d="M2003,357.5c-2-2-2.9-4.1-2.8-6.1c0.1-2,1.3-4.1,3.5-6.2c2.2-2.1,4.4-3.2,6.6-3.2c2.2,0,4.3,1,6.3,3
			c2,2.1,2.9,4.1,2.9,6.1c-0.1,2-1.2,4.1-3.4,6.2c-2.2,2.1-4.4,3.2-6.7,3.3C2007.1,360.5,2005,359.6,2003,357.5z M2007.6,348.7
			c-2.8,2.7-3.3,4.8-1.7,6.5c0.8,0.8,1.7,1.2,2.8,1c1-0.2,2.2-1,3.7-2.4c2.7-2.6,3.2-4.8,1.6-6.4c-0.8-0.8-1.7-1.2-2.7-1
			C2010.2,346.5,2009,347.3,2007.6,348.7z"/>
	</g>
</g>
</svg>
