<?xml version="1.0" encoding="utf-8"?>
<!-- Generator: Adobe Illustrator 19.0.0, SVG Export Plug-In . SVG Version: 6.00 Build 0)  -->
<svg version="1.1" xmlns="http://www.w3.org/2000/svg" xmlns:xlink="http://www.w3.org/1999/xlink" x="0px" y="0px"
	 viewBox="0 0 1366.9 301.7" style="enable-background:new 0 0 1366.9 301.7;" xml:space="preserve">
<style type="text/css">
	.st0{fill:#E2D6B1;}
	.st1{fill:#D6C377;}
	.st2{fill:#E6BEB8;}
	.st3{fill:#EF9654;}
	.st4{fill:#F6CD87;}
	.st5{fill:#AEDEF4;}
	.st6{fill:#ABDCF0;}
	.st7{fill:#F09951;}
	.st8{fill:url(#XMLID_95_);}
	.st9{opacity:0.5;fill:#FFFFFF;}
	.st10{opacity:0.2;}
	.st11{fill:#FFFFFF;}
	.st12{fill:#BA935C;}
	.st13{fill:#AB6A2A;}
	.st14{fill:url(#XMLID_96_);}
	.st15{fill:#E27F7F;}
	.st16{fill:#D84443;}
	.st17{fill:url(#XMLID_97_);}
	.st18{fill:#91C2AD;}
	.st19{fill:#0CBCB7;}
	.st20{fill:url(#XMLID_98_);}
	.st21{fill:#6C8EC1;}
	.st22{fill:#2C4974;}
	.st23{fill:url(#XMLID_99_);}
	.st24{fill:#959596;}
	.st25{fill:#696C70;}
	.st26{fill:url(#XMLID_100_);}
	.st27{fill:#CE6F3E;}
	.st28{fill:#F8E2B2;}
	.st29{fill:#792F10;}
	.st30{fill:#BD7E48;}
	.st31{fill:#ED5D21;}
	.st32{fill:url(#XMLID_102_);}
	.st33{fill:#CBBA97;}
	.st34{fill:#B89876;}
	.st35{fill:#DBC59E;}
	.st36{fill:#C4966E;}
	.st37{fill:url(#XMLID_103_);}
	.st38{fill:#73D1D9;}
	.st39{fill:#3EA92A;}
	.st40{fill:url(#XMLID_104_);}
	.st41{ocpacity:0;}
	.st42{display:inline;}
	.st43{font-family:'PatuaOne-Regular';}
	.st44{font-size:56.547px;}
</style>
<g id="planets">
	<g id="XMLID_4_">
		<g id="saturn">
			<g id="XMLID_268_">
				<g id="XMLID_294_">
					<circle id="XMLID_295_" class="st0" cx="837.9" cy="219.2" r="61.6"/>
				</g>
				<g id="XMLID_269_">
					<g id="XMLID_292_">
						<path id="XMLID_293_" class="st1" d="M899.3,223.7c0.1-1.5,0.2-3,0.2-4.5c0-2.3-0.1-4.6-0.4-6.8c-25.2,6.5-47.3,8.6-65.5,8.6
							c-11.8,0-22-0.9-30.3-2.1c-11.2-1.6-20.2-3.9-26.6-6c-0.2,2.1-0.3,4.2-0.3,6.3c0,1.7,0.1,3.3,0.2,4.9
							C795.9,230.3,839.2,239.2,899.3,223.7z"/>
					</g>
					<g id="XMLID_290_">
						<path id="XMLID_291_" class="st2" d="M896.5,238.2c1.4-4.3,2.3-8.8,2.7-13.5c-25.3,6.5-47.4,8.6-65.6,8.6
							c-11.8,0-22-0.9-30.3-2.1c-11.2-1.6-20.2-3.9-26.7-6c0.5,4.7,1.5,9.3,2.9,13.6C799.8,244.8,840.8,252,896.5,238.2z"/>
					</g>
					<g id="XMLID_288_">
						<path id="XMLID_289_" class="st3" d="M898.1,206.2c-0.6-2.9-1.4-5.7-2.4-8.4c-23.8,5.8-44.7,7.7-62.1,7.7
							c-11.8,0-22-0.9-30.3-2.1c-9.4-1.4-17.3-3.2-23.4-5c-1,2.7-1.7,5.4-2.3,8.2C797.3,212.7,839.7,221,898.1,206.2z"/>
					</g>
					<g id="XMLID_286_">
						<path id="XMLID_287_" class="st4" d="M888.3,183.9c-1-1.5-2.1-2.9-3.3-4.3c-19.6,4.8-37,6.5-51.7,6.5c-11.7,0-21.8-1.1-30-2.5
							c-5-0.8-9.5-1.9-13.5-2.9c-1.1,1.4-2.1,2.8-3.1,4.2c4.9,1.4,10.5,2.8,16.9,3.8C822.7,192.1,851.9,193.5,888.3,183.9z"/>
					</g>
					<g id="XMLID_284_">
						<path id="XMLID_285_" class="st3" d="M802.6,269.4c-0.2,0-0.4-0.1-0.6-0.1c10.1,7.3,22.5,11.5,35.9,11.5
							c14.7,0,28.3-5.2,38.9-13.8c-16.6,3.6-31.5,5-44.3,5C820.8,271.9,810.8,270.8,802.6,269.4z"/>
					</g>
					<g id="XMLID_282_">
						<path id="XMLID_283_" class="st5" d="M879.4,173.8c-2-1.8-4.1-3.5-6.4-5.1c-14.7,2.8-28.1,3.9-39.8,3.9
							c-11.7,0-21.8-1.1-30-2.5c-0.7-0.1-1.4-0.2-2.1-0.4c-2.1,1.6-4.2,3.3-6.1,5.2c2.6,0.6,5.4,1.2,8.4,1.7
							C821.1,179.5,847.1,180.9,879.4,173.8z"/>
					</g>
					<g id="XMLID_280_">
						<path id="XMLID_281_" class="st1" d="M872,168c-9.8-6.5-21.5-10.3-34.1-10.3c-13.3,0-25.5,4.2-35.6,11.3
							c0.4,0.1,0.8,0.1,1.2,0.2C819.7,172,843.1,173.3,872,168z"/>
					</g>
					<g id="XMLID_278_">
						<path id="XMLID_279_" class="st6" d="M898.7,209.7c-59.3,15.2-102.2,6.6-121.7,0.5l-0.1,1c6.4,2,15.3,4.3,26.4,5.9
							c8.3,1.2,18.5,2.1,30.3,2.1c18.1,0,40.2-2.1,65.3-8.5L898.7,209.7z"/>
					</g>
					<path id="XMLID_277_" class="st7" d="M833.6,247.1c17.5,0,38.6-2,62.6-7.9c0.1-0.3,0.2-0.7,0.3-1c-55.7,13.8-96.7,6.6-117,0.7
						c0.1,0.4,0.2,0.8,0.4,1.1c6.1,1.8,13.9,3.6,23.4,5C811.6,246.2,821.7,247.1,833.6,247.1z"/>
					<g id="XMLID_275_">
						<path id="XMLID_276_" class="st5" d="M802.9,255.6c-6.7-1.2-12.6-2.7-17.5-4.3c0.3,0.4,0.5,0.8,0.8,1.2
							c1.1,1.7,2.3,3.4,3.6,5.1c0.3,0.4,0.7,0.8,1,1.2c3.6,1,7.6,1.9,11.9,2.7c8.1,1.5,18.1,2.6,29.8,2.6c15.3,0,33.6-1.9,54.3-7.4
							c0.3-0.4,0.6-0.8,0.9-1.2c1.2-1.6,2.2-3.2,3.2-4.9c0.2-0.4,0.4-0.8,0.7-1.1C852.8,260.5,822.4,259.1,802.9,255.6z"/>
					</g>
					<g id="XMLID_273_">
						<path id="XMLID_274_" class="st1" d="M802.9,268.5c-0.9-0.2-1.7-0.3-2.6-0.5c0.6,0.4,1.1,0.9,1.7,1.3c0.2,0,0.4,0.1,0.6,0.1
							c8.1,1.5,18.1,2.6,29.8,2.6c12.8,0,27.7-1.3,44.3-5c0.5-0.4,1-0.9,1.5-1.3C845.8,273,820.1,271.6,802.9,268.5z"/>
					</g>
					<g id="XMLID_271_">
						<path id="XMLID_272_" class="st2" d="M893.6,193c-0.1-0.3-0.3-0.6-0.4-0.9c-0.3-0.7-0.7-1.4-1-2c-0.1-0.3-0.3-0.6-0.5-0.8
							c-38,10.5-68.4,9.2-88.2,5.8c-7.8-1.3-14.5-3.1-20-4.8c-0.1,0.3-0.3,0.6-0.4,0.8c-0.3,0.7-0.7,1.3-1,2
							c-0.1,0.3-0.3,0.6-0.4,0.9c-0.5,1.2-1,2.3-1.5,3.5c20.4,5.8,60.6,12.6,115.1-0.6C894.8,195.6,894.2,194.3,893.6,193z"/>
					</g>
					<path id="XMLID_270_" class="st7" d="M884.4,178.9c-0.4-0.4-0.8-0.9-1.2-1.3c-0.2-0.3-0.5-0.5-0.7-0.8
						c-33.7,7.9-60.8,6.5-78.9,3.5c-4.1-0.7-7.8-1.5-11.3-2.3c-0.2,0.3-0.5,0.5-0.7,0.8c-0.4,0.4-0.8,0.9-1.1,1.3
						c-0.2,0.3-0.4,0.5-0.6,0.8c4.1,1.1,8.6,2.1,13.5,2.9c8.2,1.4,18.3,2.5,30,2.5c14.8,0,32.2-1.7,51.7-6.5
						C884.8,179.4,884.6,179.1,884.4,178.9z"/>
				</g>
			</g>
			<g id="XMLID_266_">
				<linearGradient id="XMLID_95_" gradientUnits="userSpaceOnUse" x1="776.2368" y1="219.2141" x2="837.8165" y2="219.2141">
					<stop  offset="0" style="stop-color:#1A171B;stop-opacity:0.5"/>
					<stop  offset="2.616996e-002" style="stop-color:#1A171B;stop-opacity:0.4869"/>
					<stop  offset="1" style="stop-color:#1A171B;stop-opacity:0"/>
				</linearGradient>
				<path id="XMLID_267_" class="st8" d="M808,219.2c0,43,29.8,61.6,29.8,61.6c-34,0-61.6-27.6-61.6-61.6c0-34,27.6-61.6,61.6-61.6
					C837.8,157.6,808,177.8,808,219.2z"/>
			</g>
			<g id="XMLID_262_">
				<path id="XMLID_265_" class="st9" d="M898.6,209.1c0.2,1.1,0.3,2.2,0.5,3.3c23.4,16.7,36.4,33.4,31.8,43.7
					c-4.4,9.7-23.4,11.5-49,6.3c-16.7-3.4-36.3-9.7-56.5-18.8c-18.9-8.5-35.6-18.1-48.9-27.8c-22.6-16.4-35.1-32.7-30.5-42.8
					c4.8-10.7,27.4-11.8,57.1-4.5c0.9-0.6,1.8-1.2,2.7-1.8c-38.2-10.2-68.5-8.8-75,5.6c-6.7,15,13.3,41.8,48.4,65.2
					c11.6,7.7,24.8,15.1,39.2,21.6c15.7,7,31.2,12.3,45.7,15.8c39.2,9.6,70.9,6.5,77.4-8.1C947.7,252.9,929.9,230.3,898.6,209.1z"/>
				<g id="XMLID_263_" class="st10">
					<path id="XMLID_264_" class="st11" d="M899.4,217c0,0.7,0.1,1.5,0.1,2.2c0,0.8,0,1.6-0.1,2.3c6.5,5.8,9.7,10.8,8.3,13.9
						c-1.2,2.6-5.3,3.7-11.5,3.4c-13.2-0.5-36-7.1-60.7-18.2c-22.8-10.2-41.7-21.9-51.7-31.1c-5.9-5.4-8.6-10-7.3-13
						c1.6-3.6,8.8-4.3,19.4-2.5c1-1,2.1-1.9,3.2-2.8c-22.2-4.8-38.4-3.9-41.9,3.8c-3.2,7.1,4.8,19.3,20.1,32.2
						c12.5,10.5,30,21.5,50.4,30.7c21.8,9.8,42.9,15.7,59.7,17.7c18.1,2.2,31.1-0.1,34.1-6.8C925,241.5,916,229.6,899.4,217z"/>
				</g>
			</g>
		</g>
		<g id="mercury">
			<g id="XMLID_233_">
				<g id="XMLID_248_">
					<circle id="XMLID_249_" class="st12" cx="79" cy="219.2" r="31.8"/>
				</g>
				<g id="XMLID_234_">
					<g id="XMLID_235_">
						<ellipse id="XMLID_247_" class="st13" cx="63.5" cy="199.6" rx="2.8" ry="3.5"/>
						<ellipse id="XMLID_246_" class="st13" cx="83.6" cy="197.4" rx="3.9" ry="2.9"/>
						<ellipse id="XMLID_245_" class="st13" cx="96.3" cy="202.7" rx="2.8" ry="2.1"/>
						
							<ellipse id="XMLID_244_" transform="matrix(0.9459 0.3246 -0.3246 0.9459 72.2964 -13.7944)" class="st13" cx="77.5" cy="209.8" rx="2.3" ry="2"/>
						<ellipse id="XMLID_243_" class="st13" cx="83.6" cy="228.5" rx="4.1" ry="3.1"/>
						<ellipse id="XMLID_242_" class="st13" cx="96.2" cy="216.2" rx="2.4" ry="2.1"/>
						<ellipse id="XMLID_241_" class="st13" cx="99.5" cy="232.1" rx="2.3" ry="2"/>
						<ellipse id="XMLID_240_" class="st13" cx="87.8" cy="243.9" rx="3" ry="1.8"/>
						<ellipse id="XMLID_239_" class="st13" cx="72.1" cy="240.6" rx="1.9" ry="2"/>
						<ellipse id="XMLID_238_" class="st13" cx="64.1" cy="228.2" rx="4.4" ry="2.9"/>
						<ellipse id="XMLID_237_" class="st13" cx="56" cy="214.7" rx="2.3" ry="2.1"/>
						
							<ellipse id="XMLID_236_" transform="matrix(0.9792 0.2031 -0.2031 0.9792 49.4909 -7.3318)" class="st13" cx="60.5" cy="237.5" rx="2" ry="1.4"/>
					</g>
				</g>
			</g>
			<g id="XMLID_231_">
				<linearGradient id="XMLID_96_" gradientUnits="userSpaceOnUse" x1="47.1586" y1="219.2141" x2="78.963" y2="219.2141">
					<stop  offset="0" style="stop-color:#1A171B;stop-opacity:0.5"/>
					<stop  offset="2.616996e-002" style="stop-color:#1A171B;stop-opacity:0.4869"/>
					<stop  offset="1" style="stop-color:#1A171B;stop-opacity:0"/>
				</linearGradient>
				<path id="XMLID_232_" class="st14" d="M63.6,219.2C63.6,241.4,79,251,79,251c-17.6,0-31.8-14.2-31.8-31.8
					c0-17.6,14.2-31.8,31.8-31.8C79,187.4,63.6,197.8,63.6,219.2z"/>
			</g>
		</g>
		<g id="mars">
			<g id="XMLID_198_">
				<g id="XMLID_216_">
					<circle id="XMLID_217_" class="st15" cx="459.2" cy="219.2" r="41"/>
				</g>
				<g id="XMLID_199_">
					<g id="XMLID_201_">
						<g id="XMLID_214_">
							<path id="XMLID_215_" class="st16" d="M456.7,209.2c0-7-12.5-12.6-27.9-12.6c-1.3,0-2.6,0-3.9,0.1
								c-4.2,6.5-6.7,14.2-6.7,22.5c0,0.5,0,1.1,0,1.6c3.3,0.6,6.8,0.9,10.6,0.9C444.2,221.8,456.7,216.1,456.7,209.2z"/>
						</g>
						<g id="XMLID_212_">
							<path id="XMLID_213_" class="st16" d="M455.5,185.4c0,7.1,12.8,12.8,28.5,12.8c3.5,0,6.9-0.3,10-0.8
								c-7.1-11.2-19.4-18.8-33.5-19.2C457.3,180.2,455.5,182.7,455.5,185.4z"/>
						</g>
						<g id="XMLID_210_">
							<path id="XMLID_211_" class="st16" d="M484.4,243.5c0-2.9-19.3-5.2-43.2-5.2c-6.5,0-12.6,0.2-18.1,0.5c2,3.6,4.4,6.9,7.3,9.7
								c3.4,0.1,7,0.2,10.7,0.2C465.1,248.6,484.4,246.3,484.4,243.5z"/>
						</g>
						<g id="XMLID_208_">
							<path id="XMLID_209_" class="st16" d="M462.9,209.8c0,2.1,12.2,3.7,27.3,3.7c3.4,0,6.6-0.1,9.6-0.2c-0.3-2.4-0.9-4.8-1.7-7
								c-2.5-0.1-5.2-0.2-8-0.2C475.1,206.1,462.9,207.7,462.9,209.8z"/>
						</g>
						<g id="XMLID_206_">
							<path id="XMLID_207_" class="st16" d="M485.4,224.2c-17.7,0-32,2.3-32,5.2c0,2.9,14.3,5.2,32,5.2c4.2,0,8.3-0.1,12-0.4
								c1.2-3,2-6.1,2.5-9.4C495.5,224.4,490.6,224.2,485.4,224.2z"/>
						</g>
						<g id="XMLID_204_">
							<path id="XMLID_205_" class="st16" d="M447.6,183.8c0-1.2-0.8-2.3-2.2-3.2c-5.2,1.9-10,4.8-14,8.4c1.3,0.2,2.7,0.4,4.2,0.4
								C442.3,189.3,447.6,186.8,447.6,183.8z"/>
						</g>
						<g id="XMLID_202_">
							<path id="XMLID_203_" class="st16" d="M455.5,257.3c0-2.1-4-3.7-8.9-3.7c-3,0-5.6,0.6-7.2,1.5c4.2,2.3,8.9,3.9,13.8,4.7
								C454.6,259.1,455.5,258.2,455.5,257.3z"/>
						</g>
					</g>
					<ellipse id="XMLID_200_" class="st16" cx="439.8" cy="229.9" rx="4.8" ry="1.7"/>
				</g>
			</g>
			<g id="XMLID_196_">
				<linearGradient id="XMLID_97_" gradientUnits="userSpaceOnUse" x1="418.1962" y1="219.2011" x2="459.2229" y2="219.2011">
					<stop  offset="0" style="stop-color:#1A171B;stop-opacity:0.5"/>
					<stop  offset="2.616996e-002" style="stop-color:#1A171B;stop-opacity:0.4869"/>
					<stop  offset="1" style="stop-color:#1A171B;stop-opacity:0"/>
				</linearGradient>
				<path id="XMLID_197_" class="st17" d="M439.4,219.2c0,28.6,19.8,41,19.8,41c-22.7,0-41-18.4-41-41c0-22.7,18.4-41,41-41
					C459.2,178.2,439.4,191.6,439.4,219.2z"/>
			</g>
		</g>
		<g id="uranus">
			<g id="XMLID_169_">
				<g id="XMLID_182_">
					<circle id="XMLID_183_" class="st18" cx="1034.5" cy="219.2" r="48.3"/>
				</g>
				<g id="XMLID_175_">
					<g id="XMLID_180_">
						<path id="XMLID_181_" class="st19" d="M1000.4,253.3c1.9,1.9,3.9,3.6,6.1,5.1c12.8-2.4,32.5-4.1,55.2,0.6
							c3.5-2.4,6.6-5.2,9.4-8.4C1041.9,244.7,1014.4,249.7,1000.4,253.3z"/>
					</g>
					<g id="XMLID_178_">
						<path id="XMLID_179_" class="st19" d="M1066.7,183.1c-20.1,3.5-48.3-0.8-60.5-3c-3,2.2-5.8,4.8-8.2,7.6
							c18.3,8,51.4,20.4,83.9,21.7C1079.7,199.1,1074.3,189.9,1066.7,183.1z"/>
					</g>
					<g id="XMLID_176_">
						<path id="XMLID_177_" class="st19" d="M986.5,214.3c-0.2,1.6-0.2,3.2-0.2,4.9c0,1.7,0.1,3.4,0.3,5.1
							c29-0.5,53.6,11.2,3.3,13.1c1.1,2.7,2.5,5.4,4.1,7.8l85.9-9.3c1.7-4.5,2.7-9.4,2.9-14.5
							C1057.2,224.7,1013.4,218.8,986.5,214.3z"/>
					</g>
				</g>
				<g id="XMLID_173_">
					<ellipse id="XMLID_174_" class="st19" cx="1011.9" cy="207.6" rx="9.2" ry="2.8"/>
				</g>
				<ellipse id="XMLID_172_" class="st19" cx="1047.3" cy="178.6" rx="2.8" ry="2.1"/>
				<ellipse id="XMLID_171_" class="st19" cx="1023.7" cy="260.2" rx="2.8" ry="1.2"/>
				<ellipse id="XMLID_170_" class="st19" cx="1069.1" cy="242.9" rx="1.6" ry="2.7"/>
			</g>
			<g id="XMLID_167_">
				<linearGradient id="XMLID_98_" gradientUnits="userSpaceOnUse" x1="986.2632" y1="219.2141" x2="1034.5314" y2="219.2141">
					<stop  offset="0" style="stop-color:#1A171B;stop-opacity:0.5"/>
					<stop  offset="2.616996e-002" style="stop-color:#1A171B;stop-opacity:0.4869"/>
					<stop  offset="1" style="stop-color:#1A171B;stop-opacity:0"/>
				</linearGradient>
				<path id="XMLID_168_" class="st20" d="M1011.2,219.2c0,33.7,23.3,48.3,23.3,48.3c-26.7,0-48.3-21.6-48.3-48.3
					c0-26.7,21.6-48.3,48.3-48.3C1034.5,170.9,1011.2,186.8,1011.2,219.2z"/>
			</g>
		</g>
		<g id="neptune">
			<g id="XMLID_135_">
				<g id="XMLID_152_">
					<circle id="XMLID_153_" class="st21" cx="1173.4" cy="219.2" r="48.3"/>
				</g>
				<g id="XMLID_150_">
					<ellipse id="XMLID_151_" class="st22" cx="1184.8" cy="187.5" rx="13.1" ry="8.5"/>
				</g>
				<g id="XMLID_148_">
					<ellipse id="XMLID_149_" class="st22" cx="1176.5" cy="217.9" rx="8.8" ry="3.6"/>
				</g>
				<g id="XMLID_146_">
					<ellipse id="XMLID_147_" class="st22" cx="1141.3" cy="211.8" rx="5.1" ry="8"/>
				</g>
				<g id="XMLID_144_">
					<ellipse id="XMLID_145_" class="st22" cx="1154.1" cy="233.7" rx="7.3" ry="5.8"/>
				</g>
				<g id="XMLID_142_">
					<circle id="XMLID_143_" class="st22" cx="1193" cy="246.1" r="5.8"/>
				</g>
				<g id="XMLID_140_">
					<ellipse id="XMLID_141_" class="st22" cx="1203.5" cy="214.2" rx="5.6" ry="4.1"/>
				</g>
				<g id="XMLID_138_">
					<ellipse id="XMLID_139_" class="st22" cx="1149.8" cy="189.7" rx="4.1" ry="2.2"/>
				</g>
				<g id="XMLID_136_">
					<ellipse id="XMLID_137_" class="st22" cx="1167" cy="256.3" rx="2.2" ry="2.9"/>
				</g>
			</g>
			<g id="XMLID_133_">
				<linearGradient id="XMLID_99_" gradientUnits="userSpaceOnUse" x1="1125.0963" y1="219.2141" x2="1173.3646" y2="219.2141">
					<stop  offset="0" style="stop-color:#1A171B;stop-opacity:0.5"/>
					<stop  offset="2.616996e-002" style="stop-color:#1A171B;stop-opacity:0.4869"/>
					<stop  offset="1" style="stop-color:#1A171B;stop-opacity:0"/>
				</linearGradient>
				<path id="XMLID_134_" class="st23" d="M1150,219.2c0,33.7,23.3,48.3,23.3,48.3c-26.7,0-48.3-21.6-48.3-48.3
					c0-26.7,21.6-48.3,48.3-48.3C1173.4,170.9,1150,186.8,1150,219.2z"/>
			</g>
		</g>
		<g id="pluto">
			<g id="XMLID_109_">
				<g id="XMLID_118_">
					<circle id="XMLID_119_" class="st24" cx="1293.7" cy="219.2" r="27.2"/>
				</g>
				<g id="XMLID_110_">
					<g id="XMLID_111_">
						<g id="XMLID_116_">
							<path id="XMLID_117_" class="st25" d="M1303.6,199.8c-1.1,1.3-3.6,5.1-4.9,6.1c-2,1.4-8.4,1.6-11.7,2.5
								c-2.7,0.7-7.1,4-4.6,5.2c5.1,2.7,30.8-4.6,32.3,0.9c1,3.5-13,2.9-13.1,6.6c-0.1,2.1,6.1,2.5,8.2,2.5
								c2.9-0.1,8.3-2.5,11.2-5.1c-0.3-9.4-5.3-17.6-12.8-22.3C1306.3,197.2,1304.6,198.6,1303.6,199.8z"/>
						</g>
						<g id="XMLID_114_">
							<path id="XMLID_115_" class="st25" d="M1293.1,233.8c0.8-1.3-1.5-4.5-2.7-5.2c-3-1.7-11.2,3.2-13.7,0.8c-0.6-0.6-0.6-3,0-3.6
								c0.8-0.8,3.3,0.5,4.4,0.3c1.5-0.3,5.4-1,5.5-2.5c0-1.6-4.2-2.5-5.8-3c-2.9-0.9-10.5-1.7-14.2-2c0,0.2,0,0.4,0,0.6
								c0,5.3,1.5,10.3,4.2,14.5c3.1,1.2,8.2,1.3,10.8,1.4C1284.4,235.3,1291.6,236.3,1293.1,233.8z"/>
						</g>
						<path id="XMLID_113_" class="st25" d="M1317.1,233.1c-1.8-0.2-3.8-0.4-6-0.4c-7.1,0-12.9,1.5-12.9,3.3c0,1.8,5.8,3.3,12.9,3.3
							c0.3,0,0.7,0,1,0C1314.1,237.5,1315.8,235.4,1317.1,233.1z"/>
						<path id="XMLID_112_" class="st25" d="M1290.9,199.3c0-1.2-5.8-2.2-12.9-2.2c-1.7,1.2-3.3,2.7-4.7,4.3
							c1.4,0.1,2.8,0.1,4.3,0.1C1284.9,201.5,1290.9,200.5,1290.9,199.3z"/>
					</g>
				</g>
			</g>
			<g id="XMLID_107_">
				<linearGradient id="XMLID_100_" gradientUnits="userSpaceOnUse" x1="1266.5596" y1="219.2141" x2="1293.7537" y2="219.2141">
					<stop  offset="0" style="stop-color:#1A171B;stop-opacity:0.5"/>
					<stop  offset="2.616996e-002" style="stop-color:#1A171B;stop-opacity:0.4869"/>
					<stop  offset="1" style="stop-color:#1A171B;stop-opacity:0"/>
				</linearGradient>
				<path id="XMLID_108_" class="st26" d="M1280.6,219.2c0,19,13.2,27.2,13.2,27.2c-15,0-27.2-12.2-27.2-27.2
					c0-15,12.2-27.2,27.2-27.2C1293.8,192,1280.6,200.9,1280.6,219.2z"/>
			</g>
		</g>
		<g id="jupiter">
			<g id="XMLID_73_">
				<g id="XMLID_92_">
					<circle id="XMLID_93_" class="st27" cx="614.7" cy="219.1" r="71.9"/>
				</g>
				<g id="XMLID_74_">
					<g id="XMLID_75_">
						<g id="XMLID_90_">
							<path id="XMLID_91_" class="st28" d="M576.6,280.2c4.9,3.1,10.1,5.5,15.6,7.3c0.5-14.8,48.3-21.7,91.9-48.7
								c0.8-2.9,1.5-5.8,1.9-8.7c-8.2,3-42.4,25-62.2,27.8C604.3,260.8,590.1,268.7,576.6,280.2z"/>
						</g>
						<g id="XMLID_88_">
							<path id="XMLID_89_" class="st29" d="M589.6,208.8c13.6-15.6,13.8-2.6,20.4-7.3c3.3-2.3,24.2-2.5,33.4-7.9
								c15.1-9,2.7-20.8,20.2-27.2c-1.6-1.5-3.3-2.9-5.1-4.3c-13.8,5.4-77.3,30.7-84.6,46.7c0,0-11.1,17.7-29.9,23.1
								c0.4,2.3,0.9,4.6,1.6,6.8C554.8,234.1,578.7,221.2,589.6,208.8z"/>
						</g>
						<g id="XMLID_86_">
							<path id="XMLID_87_" class="st30" d="M654,158.9c-5.7-3.7-11.8-6.5-18.3-8.5c-6.6,8.3-26.6,24.5-87.6,42.2
								c-1.7,4.2-3,8.5-3.8,13C558.2,197.8,604.1,173.1,654,158.9z"/>
						</g>
						<g id="XMLID_84_">
							<path id="XMLID_85_" class="st29" d="M592.2,287.6c7.4,2.5,15.2,3.7,23.1,3.7c4.3-11.1,21-11.8,34.9-19.6
								c12.6-7.1,22.2-21.6,31.2-24.9c1.1-2.6,2-5.2,2.7-7.9c-9.4,3.4-28,23.2-35.6,26.2C598.3,285.1,595.2,281.1,592.2,287.6z"/>
						</g>
						<g id="XMLID_82_">
							<path id="XMLID_83_" class="st31" d="M556.8,261.8c5.5,7.5,12.2,13.7,19.8,18.4c11.4-23.4,26.6-22,42.8-30.5
								c6.9-3.6,21.7-10.4,27.5-11.2c19.7-2.8,30.9-5.3,39.1-8.3c0.3-1.9,0.5-3.8,0.6-5.7c-8.2,1.2-13,4.8-20,5.3
								C619,233.7,599.7,238.3,556.8,261.8z"/>
						</g>
						<path id="XMLID_81_" class="st28" d="M642.9,191.9c-9.2,5.5-25.9,3.5-29.9,3.5c-6.5,0-9.8-2.1-23.4,13.4
							c-5,5.7-12.8,11.6-20.6,16.6c-9.2,5.9-18.4,10.9-23.3,13.4c0.8,2.8,1.7,5.6,2.9,8.3c0,0,0,0,0,0c7.5-7.6,14.5-8,19.9-8.9
							c11.4-2,13-6.2,42.1-19.4c16-7.3,19.6-9,35.1-16.1c24.2-11,22.5-17.8,30.7-20.7c-3.6-5.9-7.9-11.1-12.8-15.6
							C646.1,172.8,658,182.9,642.9,191.9z"/>
						<g id="XMLID_79_">
							<path id="XMLID_80_" class="st31" d="M583.2,206.6c12.9-12,61.5-39.1,75.3-44.5c-1.5-1.1-3-2.2-4.5-3.2
								c-13,3.7-25.7,8.1-37.7,12.7c-13.8,5.3-26.5,11-37.5,16.2c-16.1,7.6-28.4,14.3-34.5,17.8c-1.7,8.6-1.8,17.5-0.2,26.3
								c11-3.1,21.4-8.6,26.4-14.2C574,213.8,579.3,210.2,583.2,206.6z"/>
						</g>
						<path id="XMLID_78_" class="st28" d="M635.7,150.5c-3.5-1-7-1.8-10.6-2.3c-12.2,7.7-23,4-33.3,8
							c-14.1,5.5-26.7,17.6-33.5,18.8c-4.2,5.4-7.6,11.4-10.2,17.7c27.5-8,28.1-16.6,41.5-23.4C605.8,161,632.1,155,635.7,150.5z"/>
						<g id="XMLID_76_">
							<path id="XMLID_77_" class="st30" d="M551.8,254c0.6,1,1.1,2,1.7,3c13.3-19.1,33.8-14.6,72.9-26
								c16.5-4.8,43.4-17.7,60.1-18.4c-0.6-6.3-2.1-12.7-4.4-18.9C624,232.6,599.5,219.8,551.8,254z"/>
						</g>
					</g>
				</g>
			</g>
			<g id="XMLID_71_">
				<linearGradient id="XMLID_102_" gradientUnits="userSpaceOnUse" x1="542.7887" y1="219.1539" x2="614.7281" y2="219.1539">
					<stop  offset="0" style="stop-color:#1A171B;stop-opacity:0.5"/>
					<stop  offset="2.616996e-002" style="stop-color:#1A171B;stop-opacity:0.4869"/>
					<stop  offset="1" style="stop-color:#1A171B;stop-opacity:0"/>
				</linearGradient>
				<path id="XMLID_72_" class="st32" d="M579.9,219.2c0,50.2,34.8,71.9,34.8,71.9c-39.7,0-71.9-32.2-71.9-71.9
					c0-39.7,32.2-71.9,71.9-71.9C614.7,147.2,579.9,170.8,579.9,219.2z"/>
			</g>
		</g>
		<g id="venus">
			<g id="XMLID_40_">
				<g id="XMLID_56_">
					<circle id="XMLID_57_" class="st33" cx="194.2" cy="219.2" r="41.7"/>
				</g>
				<g id="XMLID_41_">
					<g id="XMLID_54_">
						<path id="XMLID_55_" class="st34" d="M228.2,195.2c-1.9-2.7-4.2-5.2-6.7-7.4c-3.5,3.2-16.1,7.7-60,5.4c-1.1,1.4-2.1,2.8-3,4.2
							c5,0.2,16.8,1,28,3.9C197.6,204.3,218.5,198.4,228.2,195.2z"/>
					</g>
					<g id="XMLID_52_">
						<path id="XMLID_53_" class="st34" d="M205.3,230.5c-10.7,5.3-12.7,1-17.3,2c-2.3,0.5-2.8,2.2-8.9,3.1
							c-10.1,1.4-12.1,1.5-22.9,1c0.5,1.2,1.1,2.3,1.8,3.4c8.6,0.2,48.2,0.9,55.6-6.1c0,0,9.9-7,21.1-5.7c0.3-1.3,0.5-2.6,0.7-4
							C229.6,224.8,213.9,226.3,205.3,230.5z"/>
					</g>
					<g id="XMLID_50_">
						<path id="XMLID_51_" class="st35" d="M159.7,242.7c2.2,3.2,4.9,6.1,7.9,8.6c5.4-3,19.7-7.1,56.3-2.9c1.8-1.9,3.5-3.9,5-6.1
							C219.6,243.4,189.6,246.4,159.7,242.7z"/>
					</g>
					<g id="XMLID_48_">
						<path id="XMLID_49_" class="st28" d="M221.5,187.8c-3.4-3-7.3-5.4-11.5-7.1c-9.2,9.5-33.7,9.5-45.3,9
							c-1.1,1.1-2.2,2.3-3.2,3.6C205.4,195.5,218,191,221.5,187.8z"/>
					</g>
					<path id="XMLID_47_" class="st28" d="M234.7,209.5c-1.2-5.2-3.5-10-6.5-14.3c-9.8,3.1-30.6,9.1-41.6,6.2
						c-11.2-2.9-23-3.7-28-3.9c-0.6,0.9-1.1,1.9-1.6,2.9c4.6,1.2,12.1,4.3,16,5.6C199.2,214.6,225.7,211.1,234.7,209.5z"/>
					<path id="XMLID_46_" class="st28" d="M179.1,235.6c6.1-0.9,6.6-2.6,8.9-3.1c4.6-1,6.5,3.3,17.3-2c8.6-4.2,24.3-5.8,30.2-6.2
						c0.2-1.7,0.3-3.4,0.3-5.1c0,0,0,0,0,0c-5.7,2.4-16.9,2.8-16.9,2.8s-13.3-0.7-33.1,2c-15.2,2.1-27.9,1.7-32.9,1.4
						c0.6,3.9,1.7,7.7,3.3,11.2C167.1,237.1,169.1,237,179.1,235.6z"/>
					<g id="XMLID_44_">
						<path id="XMLID_45_" class="st36" d="M213.7,234c-7.5,7-47.1,6.3-55.6,6.1c0.5,0.9,1.1,1.8,1.7,2.7
							c29.8,3.6,59.9,0.7,69.1-0.4c2.8-4.2,4.9-8.9,6-14C223.6,227,213.7,234,213.7,234z"/>
					</g>
					<path id="XMLID_43_" class="st28" d="M167.6,251.4c1.6,1.3,3.3,2.5,5.1,3.6c19.4-3.2,34.9-0.9,41.8,0.6
						c3.5-1.9,6.6-4.4,9.4-7.2C187.3,244.2,173,248.4,167.6,251.4z"/>
					<path id="XMLID_42_" class="st36" d="M235.6,214.8c-0.1-0.7-0.2-1.3-0.3-2c-8.6,1.1-50.4,5.4-81-6c-1.1,3.5-1.7,7.2-1.8,11.1
						C162.1,218.9,202.5,222.4,235.6,214.8z"/>
				</g>
			</g>
			<g id="XMLID_38_">
				<linearGradient id="XMLID_103_" gradientUnits="userSpaceOnUse" x1="152.4573" y1="219.2107" x2="194.1415" y2="219.2107">
					<stop  offset="0" style="stop-color:#1A171B;stop-opacity:0.5"/>
					<stop  offset="2.616996e-002" style="stop-color:#1A171B;stop-opacity:0.4869"/>
					<stop  offset="1" style="stop-color:#1A171B;stop-opacity:0"/>
				</linearGradient>
				<path id="XMLID_39_" class="st37" d="M174,219.2c0,29.1,20.2,41.7,20.2,41.7c-23,0-41.7-18.7-41.7-41.7
					c0-23,18.7-41.7,41.7-41.7C194.1,177.5,174,191.2,174,219.2z"/>
			</g>
		</g>
		<g id="earth">
			<g id="XMLID_11_">
				<g id="XMLID_23_">
					<circle id="XMLID_24_" class="st38" cx="327.6" cy="219.2" r="48.3"/>
				</g>
				<g id="XMLID_12_">
					<g id="XMLID_21_">
						<path id="XMLID_22_" class="st39" d="M286.6,202.2c0.7,0.7-0.2,3.1,0.1,4.1c0.2,0.8,1.1,2.5,1.8,3c0.4,0.2,1.4,0.5,1.7,0.3
							c0.3-0.2,0.3-1,0.2-1.3c-0.2-0.8-1.9-1.6-2.2-2.3c-0.3-0.7-0.5-2.4,0-3c0.2-0.2,0.9-0.3,1.1-0.1c0.5,0.5-0.1,2.2,0.2,2.9
							c0.5,1.1,3.2,2.4,3.3,3.6c0,0.4-0.9,1.1-1,1.5c0,0.9,1.1,2.7,1.8,3.3c0.8,0.5,2.9,1.2,3.7,0.7c0.2-0.1,0-0.7,0.2-0.9
							c0.4-0.2,1.4,0.1,1.6,0.4c0.2,0.2-0.1,1,0.1,1.2c0.5,0.5,2.4-0.1,3.1,0.3c1,0.5,1.9,3,3,3.5c0.8,0.4,3.1-0.3,3.8,0.4
							c0.5,0.4,0.4,2,0.1,2.6c-0.3,0.7-2.1,1.2-2.5,1.9c-0.5,0.9-0.6,3.1-0.3,4.1c0.4,1.5,3.2,3.5,3.7,5c0.2,0.4-0.1,1.4,0.2,1.7
							c0.3,0.3,1.2-0.2,1.6-0.1c0.8,0.3,2.4,1.4,2.8,2.2c0.9,2-1.6,7-0.2,8.7c0.2,0.2,0.9-0.2,1.1,0c0.6,0.7-0.8,2.7-0.6,3.5
							c0.1,0.6,1.2,1.3,1.4,1.8c0.4,1.1-0.1,3.4,0,4.5c0.2,2,0.3,3.9,5.2,6c0.7,0.3,3.3,0.5,2.9-0.5c-0.3-0.6-1.7-1.2-1.9-1.8
							c-0.2-0.8,1.2-2.4,0.8-3.1c-0.2-0.3-1.1,0-1.4-0.2c-0.3-0.2-0.8-0.7-0.8-1c0-0.4,1-0.7,1.1-1.1c0.1-0.1,0.1-0.5,0-0.6
							c-0.2-0.3-1-0.3-1.2-0.6c-0.1-0.2-0.2-0.7,0-0.9c1.2-1,3.4,0.3,5.4-3c0.7-1.2,3-3.1,3.3-4.4c0.2-0.9-1-2.7-0.8-3.6
							c0.1-0.3,0.4-0.8,0.7-0.9c0.7-0.3,2.2,0.6,3,0.5c0.6-0.1,1.8-0.9,2.1-1.4c0.8-1.4,0-4.9,0.7-6.4c0.4-0.8,2.1-1.8,2.4-2.7
							c0.1-0.4,0.3-1.4,0-1.6c-0.8-0.5-0.4-0.4-3-2.3c-1.1-0.8-4-0.3-5.4-0.5c-0.7-0.1-2.3-0.4-2.7-1.1c-0.3-0.5,0.4-1.9,0.2-2.5
							c-0.2-0.6-0.8-1.6-1.3-1.9c-0.7-0.4-2.5,0.2-3.2-0.2c-0.8-0.5-1.3-2.6-2.1-3.1c-0.2-0.1-0.8-0.2-1.1,0
							c-0.1,0.1-0.1,0.6-0.2,0.7c-0.6,0.4-2.2,0.4-2.9,0.1c-1.4-0.8-0.8-2.3-6.2,0.6c-0.9,0.5-3.3,0.2-4-0.6
							c-0.7-0.8,0.6-3.4-0.1-4.2c-0.5-0.6-2.5,0-2.9-0.7c-0.3-0.6,1.3-2,1-2.7c-0.1-0.3-0.9-0.5-1.2-0.5c-1,0.1-2.4,2.1-3.4,2.4
							c-1.8,0.5-8.3-3.5,1.6-7.5c1.5-0.6,5.4-1.5,6.6-0.3c0.3,0.3-0.3,1.4-0.1,1.7c0.2,0.4,1.3,1,1.7,0.8c0.6-0.4,0-2.2,0.3-2.9
							c0.6-1.2,3.5-2.3,4.2-3.5c0.1-0.3,0-0.9,0.2-1.1c0.9-1.5,4.5-3.1,5.7-4.4c0.6-0.6,1.2-2.7,2-2.9c0.4-0.1,1,0.8,1.4,0.8
							c0.3,0,0.8-0.5,0.8-0.8c-0.1-0.4-1.2-0.4-1.3-0.8c-0.2-0.4,0.1-1.8,1.8-0.3c1.7,1.5,2.1-0.2,2.8-0.4c0.2,0,0.7,0.3,0.7,0.5
							c0,0.2-0.5,0.3-0.6,0.5c-0.1,0.3-0.2,1,0,1.2c0.5,0.6,2.3,1.3,3,1c0.4-0.2,0.7-1.2,0.5-1.6c-0.2-0.4-1.5-0.3-1.7-0.7
							c-0.1-0.1-0.1-0.5,0-0.7c0.2-0.3,1.1-0.3,1.2-0.6c0.2-0.3,0.2-1.2,0-1.5c-0.2-0.5-1.5-0.9-1.7-1.3c-0.3-0.6,0.3-2.4-0.3-2.8
							c-0.5-0.3-1.6,0.9-2.2,1c-0.2,0-0.8,0.1-1-0.1c-0.3-0.3,0.2-1.3,0-1.6c-0.5-0.7-2.5-1.4-3.3-1.2c-0.5,0.1-1.4,0.7-1.6,1.1
							c-0.4,0.8,0.6,2.9,0,3.6c-0.4,0.5-2,0-2.5,0.4c-0.5,0.4-0.7,1.9-1.2,2.3c-0.2,0.1-0.8,0.3-1,0.2c-0.5-0.4,0.5-2.3,0-2.8
							c-0.8-0.8-8.4-0.6-0.9-4.5c0.8-0.4,2.4-1.8,3.2-1.4c0.3,0.2,0.1,1.2,0.4,1.4c0.3,0.2,1-0.1,1.2-0.3c0.2-0.2,0-1,0.2-1.1
							c0.2-0.2,0.9,0.2,1.1,0.1c0.6-0.3,1.1-1.8,1.7-2.2c0.8-0.5,3.6-0.6,3.6-0.6s0.7,0.7,0.7,1c-0.1,0.9-3,1.3-2.8,2.2
							c0.2,1.1,3.2,1.5,4.2,1.1c0.3-0.1,0.3-1,0.6-1.2c0.5-0.3,1.9,0.2,2.3-0.2c0.3-0.3,0.6-1.2,0.4-1.5c-0.1-0.3-1-0.1-1.1-0.4
							c-0.2-0.3-0.1-1.6-0.1-1.6s-6.7-5.6-9.3-0.8c-0.2,0.4,0.2,1.6-0.2,1.9c-0.4,0.3-1.6,0.3-1.9,0c-0.3-0.3-0.3-1.2-0.1-1.5
							c0.2-0.5,1.8-0.8,1.6-1.2c-0.3-0.8-2.8-0.6-3.5-0.2c-0.4,0.2-1,1.1-0.9,1.4c0.1,0.2,0.7-0.1,0.9,0.1c0.2,0.2,0.4,1.1,0.2,1.3
							c-0.4,0.4-1.8-0.5-2.2-0.1c-0.1,0.1,0,0.6-0.2,0.8c-0.6,0.5-2.7,0.7-3.3,0.1c-0.2-0.3-0.2-1.2,0.1-1.4c0.5-0.3,1.8,0.3,2.3,0
							c0.4-0.2,1.2-1.1,1.1-1.5c0-0.3-0.6-0.7-0.9-0.7c-0.3,0-0.6,0.6-0.9,0.8c-0.5,0.4,0,0.4-2.1-1.2c-0.7-0.6-3.5,0-3.5,0
							l-1.8,1.8l1.5,0l-0.5,1.3c0,0,2.1-0.3,2.5,0.2c0.1,0.1,0,0.5-0.1,0.7c-0.5,0.5-2.9,0.6-2.9,0.6l-0.9-1.4l-2.1-0.6l-1.5-0.2
							c-7.4,4.7-13.5,11.3-17.4,19.2l0.2,0.4C284.6,198,284.8,200.5,286.6,202.2z"/>
					</g>
					<g id="XMLID_19_">
						<ellipse id="XMLID_20_" class="st39" cx="320.5" cy="195.7" rx="0.9" ry="0.7"/>
					</g>
					<g id="XMLID_17_">
						<path id="XMLID_18_" class="st39" d="M323.4,194.6c-0.3,0.2-1.1-0.3-1.3,0c-0.2,0.2,0.2,0.9,0.4,1.1c0.2,0.2,0.8,0.3,1.1,0.2
							c0.2-0.1,0.1-0.9,0.4-1c0.2-0.1,0.7,0.5,1,0.4c0.3-0.2,0.3-1.3,0-1.6c-0.2-0.2-0.8-0.1-1.1,0
							C323.6,193.9,323.6,194.5,323.4,194.6z"/>
					</g>
					<g id="XMLID_15_">
						<path id="XMLID_16_" class="st39" d="M355.6,186c0.3,0.3,0.3,1.4,0.7,1.6c0.4,0.3,1.6-0.7,2-0.4c0.4,0.3,0.5,1.7,0.1,2.1
							c-0.7,0.7-2.9-0.2-3.7,0.3c-0.7,0.4-1.2,2.3-1.9,2.7c-0.5,0.3-1.9-0.5-2.4-0.1c-0.4,0.4-0.6,1.7-0.3,2.2
							c0.1,0.2,0.6,0,0.8,0.2c0.2,0.3,0.3,1.2,0,1.4c-0.6,0.6-2.7-0.2-3.5-0.2c-0.5,0-1.6,0.2-1.5,1.5c0,0.7-0.1,2.2,0.4,2.8
							c0.3,0.4,1.4,0.6,1.9,0.6c0.8-0.1,2.4-0.9,3.1-1.4c0.7-0.6,1.4-2.7,2.3-3.1c0.5-0.2,1.8,0.6,2.3,0.4c0.5-0.2,0.8-1.6,1.2-1.5
							c0.4,0,0.2,1.1,0.4,1.4c0.6,0.8,2.9,1.1,3.2,2c0.2,0.5-0.7,1.5-0.5,1.9c0.1,0.1,0.3,0.1,0.4,0.1c0.6-0.2,1.4-1.9,1.4-1.9
							s-2.1-1.6-2.6-2.3c-0.2-0.3-0.6-1.1-0.4-1.4c0.3-0.4,1.5-0.3,2-0.1c0.6,0.2,1.7,1.2,2,1.8c0.2,0.5,0,1.6,0.3,2.1
							c0.3,0.6,1.3,1.9,1.9,1.6c0.8-0.4,0.2-2.1,1.8-3.1c0,0-0.1,1.6,0.1,2.1c0.2,0.5,0.8,1.3,1.2,1.5c0.9,0.4,3.8-0.2,3.8-0.2
							c-3.1-7.4-7.9-13.9-14.1-18.9l-0.5,1C357.6,182.8,353.3,183.2,355.6,186z"/>
					</g>
					<g id="XMLID_13_">
						<path id="XMLID_14_" class="st39" d="M373.6,204.6c0,0-4.2,0.6-5.5,0.2c-0.6-0.2-1.3-1.3-1.8-1.5c-0.6-0.2-2.1-0.4-2.6,0
							c-0.2,0.2-0.1,1-0.3,1.2c-1.1,1-3.8,0.6-5.9-1.4c-0.5-0.4,0.5-2.1,0-2.6c-1-1-4.3-0.1-5.6,0.4c-0.4,0.1-0.9,0.7-1.2,0.9
							c-0.9,0.3-2.9-0.2-3.8,0.1c-0.6,0.2-1.8,0.9-2,1.4c-0.2,0.5,0.3,1.9,0,2.4c-0.7,1.4-4.7,2.3-5.3,3.8c-0.1,0.3,0,1.2,0.3,1.4
							c0.2,0.2,0.9,0,1.1,0.2c0.3,0.4,0,1.5-0.3,1.8c-0.2,0.1-0.7-0.1-0.9,0.1c-0.7,0.8-0.4,3.2-0.1,4.2c0.6,1.7,3,4.7,4.7,5.4
							c0.5,0.2,1.8,0.3,2.2-0.1c0.1-0.1,0-0.5,0.1-0.6c0.7-0.6,2.8,0.4,3.6,0c0.3-0.1,0.4-0.9,0.7-1.1c0.5-0.3,1.9-0.4,2.4-0.1
							c0.4,0.2,0.6,1.3,1.1,1.5c0.6,0.3,2.1-0.4,2.6,0c0.8,0.8,0,3.5,0.3,4.6c0.4,1.5,2.9,3.8,3,5.4c0,1-1.4,2.7-1.6,3.6
							c-0.1,0.4-0.2,1.3,0,1.7c0.2,0.5,1.4,0.9,1.6,1.3c0.4,0.8-0.4,2.8-0.1,3.7c0.2,0.6,1.4,1.4,1.6,2c0.3,0.9,0,3.9,0,3.9h4.1
							c6.3-8.1,10-18.3,10-29.4C375.8,214.1,375,209.2,373.6,204.6z"/>
					</g>
				</g>
			</g>
			<g id="XMLID_9_">
				<linearGradient id="XMLID_104_" gradientUnits="userSpaceOnUse" x1="279.2899" y1="219.2141" x2="327.5583" y2="219.2141">
					<stop  offset="0" style="stop-color:#1A171B;stop-opacity:0.5"/>
					<stop  offset="2.616996e-002" style="stop-color:#1A171B;stop-opacity:0.4869"/>
					<stop  offset="1" style="stop-color:#1A171B;stop-opacity:0"/>
				</linearGradient>
				<path id="XMLID_10_" class="st40" d="M304.2,219.2c0,33.7,23.3,48.3,23.3,48.3c-26.7,0-48.3-21.6-48.3-48.3
					c0-26.7,21.6-48.3,48.3-48.3C327.6,170.9,304.2,186.8,304.2,219.2z"/>
			</g>
		</g>
	</g>
</g>
<g id="tags">
	<g id="earth-tag" class="st42 st41">
		<path id="XMLID_3_" class="st11" d="M808.5,85H553.3c-13,0-23.5-10.5-23.5-23.5V34.9c0-13,10.5-23.5,23.5-23.5h255.2
			c13,0,23.5,10.5,23.5,23.5v26.6C832,74.5,821.5,85,808.5,85z"/>
		<text id="XMLID_5_" transform="matrix(1 0 0 1 613.2562 65.11)" class="st43 st44">Earth</text>
	</g>
	<g id="venus-tag" class="st42 st41">
		<path id="XMLID_7_" class="st11" d="M808.5,85H553.3c-13,0-23.5-10.5-23.5-23.5V34.9c0-13,10.5-23.5,23.5-23.5h255.2
			c13,0,23.5,10.5,23.5,23.5v26.6C832,74.5,821.5,85,808.5,85z"/>
		<g id="venus-tag">
			<text id="XMLID_8_" transform="matrix(1 0 0 1 603.2762 65.1102)" class="st43 st44">Venus</text>
		</g>
	</g>
	<g id="jupiter-tag" class="st42 st41">
		<path id="XMLID_32_" class="st11" d="M808.5,85H553.3c-13,0-23.5-10.5-23.5-23.5V34.9c0-13,10.5-23.5,23.5-23.5h255.2
			c13,0,23.5,10.5,23.5,23.5v26.6C832,74.5,821.5,85,808.5,85z"/>
		<text id="XMLID_6_" transform="matrix(1 0 0 1 600.8438 65.1102)" class="st43 st44">Jupiter</text>
	</g>
	<g id="pluto-tag" class="st42 st41">
		<path id="XMLID_34_" class="st11" d="M808.5,85H553.3c-13,0-23.5-10.5-23.5-23.5V34.9c0-13,10.5-23.5,23.5-23.5h255.2
			c13,0,23.5,10.5,23.5,23.5v26.6C832,74.5,821.5,85,808.5,85z"/>
		<text id="XMLID_33_" transform="matrix(1 0 0 1 613.7928 65.1096)" class="st43 st44">Pluto</text>
	</g>
	<g id="neptune-tag" class="st42 st41">
		<path id="XMLID_36_" class="st11" d="M808.5,85H553.3c-13,0-23.5-10.5-23.5-23.5V34.9c0-13,10.5-23.5,23.5-23.5h255.2
			c13,0,23.5,10.5,23.5,23.5v26.6C832,74.5,821.5,85,808.5,85z"/>
		<text id="XMLID_35_" transform="matrix(1 0 0 1 574.8331 65.1096)" class="st43 st44">Neptune</text>
	</g>
	<g id="uranus-tag" class="st42 st41">
		<path id="XMLID_65_" class="st11" d="M808.5,85H553.3c-13,0-23.5-10.5-23.5-23.5V34.9c0-13,10.5-23.5,23.5-23.5h255.2
			c13,0,23.5,10.5,23.5,23.5v26.6C832,74.5,821.5,85,808.5,85z"/>
		<text id="XMLID_37_" transform="matrix(1 0 0 1 591.3731 65.1096)" class="st43 st44">Uranus</text>
	</g>
	<g id="mars-tag" class="st42 st41">
		<path id="XMLID_67_" class="st11" d="M808.5,85H553.3c-13,0-23.5-10.5-23.5-23.5V34.9c0-13,10.5-23.5,23.5-23.5h255.2
			c13,0,23.5,10.5,23.5,23.5v26.6C832,74.5,821.5,85,808.5,85z"/>
		<text id="XMLID_66_" transform="matrix(1 0 0 1 617.1019 65.1103)" class="st43 st44">Mars</text>
	</g>
	<g id="mercury-tag" class="st42 st41">
		<path id="XMLID_69_" class="st11" d="M808.5,85H553.3c-13,0-23.5-10.5-23.5-23.5V34.9c0-13,10.5-23.5,23.5-23.5h255.2
			c13,0,23.5,10.5,23.5,23.5v26.6C832,74.5,821.5,85,808.5,85z"/>
		<text id="XMLID_68_" transform="matrix(1 0 0 1 574.2394 65.1096)" class="st43 st44">Mercury</text>
	</g>
	<g id="saturn-tag" class="st42 st41">
		<path id="XMLID_101_" class="st11" d="M808.5,85H553.3c-13,0-23.5-10.5-23.5-23.5V34.9c0-13,10.5-23.5,23.5-23.5h255.2
			c13,0,23.5,10.5,23.5,23.5v26.6C832,74.5,821.5,85,808.5,85z"/>
		<text id="XMLID_70_" transform="matrix(1 0 0 1 596.3206 65.11)" class="st43 st44">Saturn</text>
	</g>
</g>
<g id="Layer_4">
	<g id="click">
		<path id="XMLID_25_" class="st11" d="M1100,85H301.9c-13,0-23.5-10.5-23.5-23.5V34.9c0-13,10.5-23.5,23.5-23.5H1100
			c13,0,23.5,10.5,23.5,23.5v26.6C1123.5,74.5,1113,85,1100,85z"/>
		<text id="XMLID_26_" transform="matrix(1 0 0 1 360.8748 65.11)" class="st43 st44">Click a planet to learn more</text>
	</g>
</g>
</svg>
