<?xml version="1.0" encoding="utf-8"?>
<!-- Generator: Adobe Illustrator 19.0.0, SVG Export Plug-In . SVG Version: 6.00 Build 0)  -->
<svg version="1.1" xmlns="http://www.w3.org/2000/svg" xmlns:xlink="http://www.w3.org/1999/xlink" x="0px" y="0px"
	 viewBox="669.6 165.5 1350.8 372.4" style="enable-background:new 669.6 165.5 1350.8 372.4;" xml:space="preserve">
<style type="text/css">
	.st0{fill:#1F140F;stroke:#FFFFFF;stroke-width:2;stroke-miterlimit:10;}
	.st1{fill:#EE2724;}
	.st2{fill:none;stroke:#FFFFFF;stroke-width:1.5;stroke-linecap:round;stroke-linejoin:round;stroke-miterlimit:10;}
	.st3{opacity:0;}
</style>
<g id="signs">
	<g id="a">
		<circle id="XMLID_38_" cx="765.7" cy="231.3" r="59.8"/>
		<circle id="XMLID_37_" class="st0" cx="765.7" cy="231.3" r="64.9"/>
		<g id="XMLID_3_">
			<g id="star">
				<polygon id="XMLID_36_" class="st1" points="747.7,238.3 748.4,234.1 745.4,236.2 742,233.3 743.1,237.7 739,239.9 744,239.9 
					744.9,245.2 746.2,240.8 750.1,241 				"/>
				<polygon id="XMLID_35_" class="st1" points="807.1,226.6 810.5,221.4 804.7,222.6 801.6,216.7 800.4,223.8 794,225.3 
					799.9,227.5 800.3,235.4 805.1,229.8 810.4,231.4 				"/>
				<polygon id="XMLID_34_" class="st1" points="732.6,198.5 734.6,199.4 733.2,197.6 734.2,195.8 732.2,196.4 731.1,195.1 
					731.3,196.6 729.2,197.1 731.5,198.1 731.5,200.1 				"/>
				<polygon id="XMLID_33_" class="st1" points="751.6,254.4 753.7,254.1 751.8,253.2 752.2,250.7 750.5,252.6 748.2,251.4 
					749.6,253.6 748.3,254.9 750.2,254.6 751.3,256.2 				"/>
				<polygon id="XMLID_32_" class="st1" points="790.6,210.8 792.9,211.3 791.5,209.3 792.7,207.2 790.5,208 788.2,205 788.5,208.7 
					785.8,209.7 788.6,210.4 788.9,213.8 				"/>
				<polygon id="XMLID_31_" class="st1" points="729.4,222.2 732.4,222.8 730.4,220.5 731.7,218.2 729.1,219.2 726.7,216.6 
					727.1,219.8 723.6,221.1 727.3,221.8 727.7,225 				"/>
			</g>
			<g id="line">
				<line id="XMLID_30_" class="st2" x1="791.7" y1="242.2" x2="797.4" y2="254.7"/>
				<line id="XMLID_29_" class="st2" x1="787.8" y1="242.3" x2="774.1" y2="251.1"/>
				<line id="XMLID_28_" class="st2" x1="747.2" y1="242.7" x2="750" y2="250.9"/>
				<line id="XMLID_27_" class="st2" x1="753.3" y1="251.4" x2="765.3" y2="242.2"/>
				<line id="XMLID_26_" class="st2" x1="768.5" y1="243.2" x2="771" y2="250.5"/>
				<line id="XMLID_25_" class="st2" x1="727.3" y1="251.8" x2="742.9" y2="241.5"/>
				<line id="XMLID_24_" class="st2" x1="791.5" y1="212.6" x2="798.9" y2="222.1"/>
				<line id="XMLID_23_" class="st2" x1="787.5" y1="211.1" x2="776.3" y2="218.2"/>
				<line id="XMLID_22_" class="st2" x1="768.5" y1="210.7" x2="772" y2="217.2"/>
				<line id="XMLID_21_" class="st2" x1="764.9" y1="209.9" x2="753.8" y2="218.4"/>
				<line id="XMLID_20_" class="st2" x1="745.9" y1="210.2" x2="749.7" y2="217.9"/>
				<line id="XMLID_19_" class="st2" x1="729.6" y1="217.6" x2="741.8" y2="209.2"/>
			</g>
			<g id="circle">
				<circle id="XMLID_18_" class="st1" cx="805.1" cy="266.5" r="3.1"/>
				<path id="XMLID_17_" class="st1" d="M799.9,257.2c0,0.8-0.6,1.3-1.3,1.3s-1.3-0.6-1.3-1.3c0-0.8,0.6-1.3,1.3-1.3
					C799.2,255.9,799.9,256.5,799.9,257.2z"/>
				<circle id="XMLID_16_" class="st1" cx="738.4" cy="193.9" r="0.8"/>
				<circle id="XMLID_15_" class="st1" cx="790.1" cy="239.4" r="2.1"/>
				<circle id="XMLID_14_" class="st1" cx="772.1" cy="252.6" r="1.1"/>
				<circle id="XMLID_13_" class="st1" cx="767.8" cy="240.7" r="1.7"/>
				<circle id="XMLID_12_" class="st1" cx="723.5" cy="254" r="2.8"/>
				<circle id="XMLID_11_" class="st1" cx="773.7" cy="219.8" r="1.7"/>
				<circle id="XMLID_10_" class="st1" cx="767.1" cy="208.1" r="1.5"/>
				<circle id="XMLID_9_" class="st1" cx="751.5" cy="219.8" r="1.1"/>
				<circle id="XMLID_8_" class="st1" cx="744.7" cy="207.3" r="2"/>
				<circle id="XMLID_7_" class="st1" cx="788.5" cy="263.6" r="0.7"/>
				<circle id="XMLID_6_" class="st1" cx="778.9" cy="230.6" r="0.7"/>
				<circle id="XMLID_5_" class="st1" cx="804.7" cy="201.8" r="1.1"/>
				<circle id="XMLID_4_" class="st1" cx="733.6" cy="263.3" r="1.1"/>
			</g>
		</g>
	</g>
	<g id="c">
		<circle id="XMLID_65_" cx="1235.4" cy="231.3" r="59.8"/>
		<circle id="XMLID_64_" class="st0" cx="1235.4" cy="231.3" r="64.9"/>
		<g id="XMLID_40_">
			<g id="line_1_">
				<line id="XMLID_63_" class="st2" x1="1199.1" y1="205.4" x2="1200.2" y2="214.7"/>
				<line id="XMLID_62_" class="st2" x1="1201.4" y1="198.7" x2="1214.6" y2="196.3"/>
				<line id="XMLID_61_" class="st2" x1="1219.5" y1="199.6" x2="1229.3" y2="214"/>
				<line id="XMLID_60_" class="st2" x1="1230.6" y1="221.6" x2="1236.3" y2="244.1"/>
				<line id="XMLID_59_" class="st2" x1="1275.1" y1="204.5" x2="1273.8" y2="214.7"/>
				<line id="XMLID_58_" class="st2" x1="1272.6" y1="198.7" x2="1259.5" y2="196.3"/>
				<line id="XMLID_57_" class="st2" x1="1254.6" y1="199.6" x2="1244.8" y2="214"/>
				<line id="XMLID_56_" class="st2" x1="1243.5" y1="221.6" x2="1237.8" y2="244.1"/>
				<line id="XMLID_55_" class="st2" x1="1237.2" y1="250.5" x2="1237.2" y2="269.4"/>
			</g>
			<g id="circle_1_">
				<circle id="XMLID_54_" class="st1" cx="1198.4" cy="201.7" r="2.4"/>
				<circle id="XMLID_53_" class="st1" cx="1218" cy="197.2" r="1.5"/>
				<circle id="XMLID_52_" class="st1" cx="1237" cy="247.2" r="2"/>
				<circle id="XMLID_51_" class="st1" cx="1244" cy="217.9" r="2.4"/>
				<circle id="XMLID_50_" class="st1" cx="1273.7" cy="219.2" r="2.9"/>
				<circle id="XMLID_49_" class="st1" cx="1214.8" cy="255.1" r="2.4"/>
				<circle id="XMLID_48_" class="st1" cx="1210" cy="262.6" r="1.2"/>
				<circle id="XMLID_47_" class="st1" cx="1207" cy="246.1" r="1.2"/>
			</g>
			<g id="star_1_">
				<polygon id="XMLID_46_" class="st1" points="1203.8,223.8 1207,220.9 1202.7,220 1200.3,215.8 1198.7,220.7 1193.7,221.6 
					1197.8,224.4 1196.2,229.6 1200.5,226.3 1205.8,229.9 				"/>
				<path id="XMLID_45_" class="st1" d="M1233.7,217.6l-2.4-0.4c-0.4-1.6-0.9-2.9-0.9-2.9l-1,2.7l-3.2-0.5c0,0,1.2,1.1,2.6,2.3
					l-0.9,2.3l2.1-1.2c1.4,1.1,2.6,2.2,2.6,2s-0.4-1.5-0.8-3L1233.7,217.6z"/>
				<polygon id="XMLID_44_" class="st1" points="1239.6,275.2 1241.4,271.8 1237.2,272.5 1234.4,269.2 1234.7,273.4 1230.6,274.5 
					1235,276.5 1235.1,280.2 1237.5,277.6 1241.2,278.8 				"/>
				<polygon id="XMLID_43_" class="st1" points="1257.1,198.5 1260.3,199.6 1257.8,196.6 1258.6,194.3 1256.5,195 1254.6,192.6 
					1255,195.6 1252.1,196.6 1255.3,197.8 1255.9,201.9 				"/>
				<polygon id="XMLID_42_" class="st1" points="1275.9,201.5 1277.2,200.2 1275.3,200.4 1274.4,198.3 1274,200.6 1271.7,200.8 
					1273.8,201.7 1273.5,204 1275,202.5 1276.9,203.4 				"/>
				<polygon id="XMLID_41_" class="st1" points="1267.1,242.9 1268.1,240.8 1266.2,241.6 1264.9,239.9 1264.9,241.9 1262.7,242.5 
					1264.9,243.2 1264.9,245 1266.3,243.6 1268,244.1 				"/>
			</g>
		</g>
	</g>
	<g id="f">
		<circle id="XMLID_108_" cx="1948.4" cy="231.3" r="59.8"/>
		<circle id="XMLID_107_" class="st0" cx="1948.4" cy="231.3" r="64.9"/>
		<g id="XMLID_67_">
			<g id="star_2_">
				<polygon id="XMLID_106_" class="st1" points="1916.9,191 1914.1,189.2 1914.9,192.2 1912.1,193.8 1915.1,194.1 1915.6,197.5 
					1917,194.3 1919.6,194.6 1917.8,192.2 1918.8,189.9 				"/>
				<polygon id="XMLID_105_" class="st1" points="1985,211.8 1988.9,207.4 1983.2,209.2 1979.3,203.3 1978.8,210.4 1974.1,211.8 
					1978.6,213.3 1978.1,219.5 1982.5,214.6 1988,216.3 				"/>
				<polygon id="XMLID_104_" class="st1" points="1915.2,217.2 1917.6,217.8 1916.1,216 1917.3,214.6 1915.4,215.1 1913.3,212.6 
					1913.5,215.5 1911.2,216.1 1913.6,216.7 1913.7,219 				"/>
				<polygon id="XMLID_103_" class="st1" points="1963.8,251.2 1966.9,251.9 1964.6,249.5 1966.5,245.5 1962.5,247.2 1959.9,244.4 
					1960.6,247.9 1956.7,249.7 1961.1,250.6 1962,255 				"/>
				<polygon id="XMLID_102_" class="st1" points="1927.8,252.6 1929,250.7 1926.9,251.5 1925,249.1 1925.3,252.1 1922.4,253.3 
					1925.4,253.7 1925.7,256.2 1927.1,253.9 1929,254.1 				"/>
				<polygon id="XMLID_101_" class="st1" points="1954.1,231.8 1955.6,232.1 1954.6,230.9 1955.4,229.4 1953.8,230 1952.2,228.1 
					1952.6,230.5 1950.9,231.3 1952.9,231.6 1953.2,233.5 				"/>
			</g>
			<g id="line_2_">
				<line id="XMLID_100_" class="st2" x1="1929.8" y1="209.2" x2="1935.3" y2="215.3"/>
				<line id="XMLID_99_" class="st2" x1="1976.5" y1="208.8" x2="1950.5" y2="202.5"/>
				<line id="XMLID_98_" class="st2" x1="1930.3" y1="205.9" x2="1943" y2="202.7"/>
				<line id="XMLID_97_" class="st2" x1="1925.3" y1="208.1" x2="1916.1" y2="213.4"/>
				<line id="XMLID_96_" class="st2" x1="1912.5" y1="218" x2="1911.9" y2="224.3"/>
				<line id="XMLID_95_" class="st2" x1="1912.7" y1="229.1" x2="1919.5" y2="234.1"/>
				<line id="XMLID_94_" class="st2" x1="1926" y1="234.7" x2="1933.5" y2="231.1"/>
				<line id="XMLID_93_" class="st2" x1="1936.2" y1="221.4" x2="1936" y2="227.3"/>
				<line id="XMLID_92_" class="st2" x1="1966.4" y1="248.7" x2="1975.5" y2="243"/>
				<line id="XMLID_91_" class="st2" x1="1915.3" y1="246.8" x2="1923.9" y2="251.3"/>
				<line id="XMLID_90_" class="st2" x1="1929.5" y1="252.6" x2="1959.9" y2="251.8"/>
				<line id="XMLID_89_" class="st2" x1="1977.2" y1="230.2" x2="1977.5" y2="237.6"/>
				<line id="XMLID_88_" class="st2" x1="1966.4" y1="222.4" x2="1974.8" y2="226.6"/>
				<line id="XMLID_87_" class="st2" x1="1959.9" y1="223.4" x2="1954.6" y2="228.5"/>
				<line id="XMLID_86_" class="st2" x1="1954.8" y1="233.4" x2="1959" y2="246.8"/>
			</g>
			<g id="circle_2_">
				<circle id="XMLID_85_" class="st1" cx="1977" cy="240.4" r="1.4"/>
				<circle id="XMLID_84_" class="st1" cx="1976.3" cy="228.1" r="1.1"/>
				<circle id="XMLID_83_" class="st1" cx="1962.9" cy="222.3" r="2"/>
				<circle id="XMLID_82_" class="st1" cx="1986.8" cy="259.9" r="2"/>
				<circle id="XMLID_81_" class="st1" cx="1991.4" cy="235.3" r="0.8"/>
				<circle id="XMLID_80_" class="st1" cx="1975.3" cy="254.5" r="0.9"/>
				<circle id="XMLID_79_" class="st1" cx="1946.6" cy="202.5" r="2.1"/>
				<circle id="XMLID_78_" class="st1" cx="1928.1" cy="207.6" r="1.2"/>
				<circle id="XMLID_77_" class="st1" cx="1911.3" cy="226.8" r="1.1"/>
				<circle id="XMLID_76_" class="st1" cx="1922.6" cy="235.2" r="2"/>
				<circle id="XMLID_75_" class="st1" cx="1935.3" cy="229.5" r="1.3"/>
				<circle id="XMLID_74_" class="st1" cx="1936" cy="218.4" r="2"/>
				<circle id="XMLID_73_" class="st1" cx="1912.1" cy="244.2" r="2.7"/>
				<circle id="XMLID_72_" class="st1" cx="1927.8" cy="190.8" r="0.8"/>
				<circle id="XMLID_71_" class="st1" cx="1917.9" cy="261.3" r="1"/>
				<circle id="XMLID_70_" class="st1" cx="1906" cy="209.6" r="0.5"/>
				<circle id="XMLID_69_" class="st1" cx="1939.5" cy="239.4" r="0.5"/>
				<path id="XMLID_68_" class="st1" d="M1958.2,267.9c0,1-0.8,1.7-1.7,1.7c-1,0-1.7-0.8-1.7-1.7c0-1,0.8-1.7,1.7-1.7
					C1957.4,266.2,1958.2,267,1958.2,267.9z"/>
			</g>
		</g>
	</g>
	<g id="l">
		<circle id="XMLID_143_" cx="1003.7" cy="421.2" r="59.8"/>
		<circle id="XMLID_142_" class="st0" cx="1003.7" cy="421.2" r="64.9"/>
		<g id="XMLID_110_">
			<g id="cirlce">
				<circle id="XMLID_141_" class="st1" cx="1037" cy="389.8" r="2.8"/>
				<circle id="XMLID_140_" class="st1" cx="1043.7" cy="403.1" r="0.7"/>
				<circle id="XMLID_139_" class="st1" cx="1003.9" cy="448.6" r="0.7"/>
				<g id="XMLID_136_">
					<circle id="XMLID_138_" class="st1" cx="986.6" cy="388.1" r="1.8"/>
					<circle id="XMLID_137_" class="st1" cx="980.7" cy="384.4" r="0.8"/>
				</g>
				<circle id="XMLID_135_" class="st1" cx="978.3" cy="396.5" r="2.5"/>
				<circle id="XMLID_134_" class="st1" cx="1003.5" cy="417.6" r="2.5"/>
				<circle id="XMLID_133_" class="st1" cx="1020.2" cy="419.5" r="1.3"/>
				<circle id="XMLID_132_" class="st1" cx="1028.6" cy="434.3" r="2.2"/>
				<circle id="XMLID_131_" class="st1" cx="1009.6" cy="456.7" r="2.2"/>
				<circle id="XMLID_130_" class="st1" cx="1010.8" cy="406.8" r="2.3"/>
				<circle id="XMLID_129_" class="st1" cx="1028.5" cy="400.3" r="1.3"/>
				<circle id="XMLID_128_" class="st1" cx="1015.4" cy="397.8" r="1"/>
			</g>
			<g id="line_3_">
				<line id="XMLID_127_" class="st2" x1="971.2" y1="412.6" x2="976.1" y2="400"/>
				<line id="XMLID_126_" class="st2" x1="981.1" y1="399.2" x2="986.4" y2="441"/>
				<line id="XMLID_125_" class="st2" x1="990.4" y1="444.1" x2="1001.6" y2="421.6"/>
				<line id="XMLID_124_" class="st2" x1="1007.8" y1="417.7" x2="1017.5" y2="419.1"/>
				<line id="XMLID_123_" class="st2" x1="1021.7" y1="421.4" x2="1027.5" y2="430.7"/>
				<line id="XMLID_122_" class="st2" x1="1028.8" y1="437.8" x2="1027.3" y2="447.9"/>
				<line id="XMLID_121_" class="st2" x1="1013.4" y1="456" x2="1023.2" y2="452.2"/>
				<line id="XMLID_120_" class="st2" x1="1018.2" y1="416.4" x2="1012.6" y2="409.4"/>
				<line id="XMLID_119_" class="st2" x1="1023.8" y1="418.7" x2="1030.9" y2="413.9"/>
				<line id="XMLID_118_" class="st2" x1="1029.2" y1="402.6" x2="1030.9" y2="409.5"/>
				<line id="XMLID_117_" class="st2" x1="1017.5" y1="397.8" x2="1026.4" y2="399.4"/>
				<line id="XMLID_116_" class="st2" x1="1010.8" y1="403.4" x2="1013.7" y2="399.6"/>
			</g>
			<g id="star_3_">
				<polygon id="XMLID_115_" class="st1" points="972.6,417.7 975.7,413.1 970.5,414.1 967.7,408.8 966.7,415.3 960.9,416.6 
					966.1,418.6 966.5,425.7 970.8,420.5 975.6,422.1 				"/>
				<polygon id="XMLID_114_" class="st1" points="987.9,445.1 989.7,441.3 985.9,443.2 983.1,440.6 984.1,444.1 980.7,445.9 
					984.9,446.7 985.7,449.7 987,447.1 990.6,447.8 				"/>
				<polygon id="XMLID_113_" class="st1" points="1027.4,450.7 1028.8,448.9 1026.5,449.3 1024.8,446.5 1024.8,449.7 1022.5,450.2 
					1024.8,451.1 1024.8,454.2 1026.6,451.9 1028.6,452.7 				"/>
				<polygon id="XMLID_112_" class="st1" points="1034.1,413.6 1036.8,414.8 1034.8,412.3 1036.3,409.8 1033.4,410.5 1032,408.8 
					1032.2,410.8 1029.2,411.6 1032.5,413 1032.5,415.8 				"/>
				<polygon id="XMLID_111_" class="st1" points="1044.6,437.4 1046.4,437.3 1044.9,436.3 1045.2,434.8 1044.1,435.8 1042.8,435 
					1043.3,436.5 1042,437.6 1043.6,437.5 1044.1,439.2 				"/>
			</g>
		</g>
	</g>
	<g id="e">
		<circle id="XMLID_171_" cx="1726.4" cy="231.3" r="59.8"/>
		<circle id="XMLID_170_" class="st0" cx="1726.4" cy="231.3" r="64.9"/>
		<g id="XMLID_145_">
			<g id="circle_4_">
				<path id="XMLID_169_" class="st1" d="M1688.2,223.4c-0.4-1-0.1-2.1,1-2.5c1-0.4,2.1-0.1,2.5,1c0.4,1,0.1,2.1-1,2.5
					C1689.8,224.7,1688.6,224.4,1688.2,223.4z"/>
				<circle id="XMLID_168_" class="st1" cx="1747.1" cy="188.9" r="0.8"/>
				<circle id="XMLID_167_" class="st1" cx="1683.9" cy="211.7" r="0.9"/>
				<circle id="XMLID_166_" class="st1" cx="1739" cy="231.2" r="2.3"/>
				<circle id="XMLID_165_" class="st1" cx="1711.7" cy="205.2" r="1.7"/>
				<circle id="XMLID_164_" class="st1" cx="1741.1" cy="207.8" r="1.3"/>
				<circle id="XMLID_163_" class="st1" cx="1757.5" cy="201.9" r="3"/>
				<circle id="XMLID_162_" class="st1" cx="1768.7" cy="261.4" r="1.1"/>
				<circle id="XMLID_161_" class="st1" cx="1763.6" cy="269.4" r="0.6"/>
				<circle id="XMLID_160_" class="st1" cx="1712.1" cy="255.6" r="2.2"/>
				<circle id="XMLID_159_" class="st1" cx="1696.1" cy="260.8" r="1.5"/>
			</g>
			<g id="line_4_">
				<line id="XMLID_158_" class="st2" x1="1698.3" y1="201.9" x2="1709" y2="204.7"/>
				<line id="XMLID_157_" class="st2" x1="1712" y1="208.3" x2="1712" y2="252.1"/>
				<line id="XMLID_156_" class="st2" x1="1740.4" y1="210.2" x2="1739" y2="227.7"/>
				<line id="XMLID_155_" class="st2" x1="1739" y1="235" x2="1739.7" y2="249.7"/>
				<line id="XMLID_154_" class="st2" x1="1714.6" y1="206.2" x2="1738.7" y2="206.9"/>
				<line id="XMLID_153_" class="st2" x1="1743.3" y1="206.2" x2="1753.3" y2="203.3"/>
				<line id="XMLID_152_" class="st2" x1="1741.5" y1="257.6" x2="1754.5" y2="261"/>
				<line id="XMLID_151_" class="st2" x1="1715.8" y1="256.1" x2="1736.1" y2="256.8"/>
				<line id="XMLID_150_" class="st2" x1="1698.9" y1="259.9" x2="1708.8" y2="256.9"/>
			</g>
			<g id="star_4_">
				<path id="XMLID_149_" class="st1" d="M1694.2,199.4l1.9-3.1l-3.5,1.1c-1.7-2-3.2-3.7-3.2-3.7l-0.2,4.8l-4.3,1.4l4.2,1.2l0.1,5.2
					l3.1-4.3c0,0,5,1.3,4.8,1C1697.1,202.9,1695.7,201.3,1694.2,199.4z"/>
				<polygon id="XMLID_148_" class="st1" points="1740.2,256 1744.4,256.8 1741.5,253.8 1743.7,250.1 1739.5,251.8 1735.7,247.9 
					1736.7,252.8 1732.6,254.5 1737.3,255.4 1738.1,259.6 				"/>
				<polygon id="XMLID_147_" class="st1" points="1758.3,263.5 1760.8,263.8 1759,262 1760,259.7 1757.9,260.8 1756.2,259.2 
					1756.7,261.5 1754,263 1756.7,263.6 1757.2,265.9 				"/>
				<polygon id="XMLID_146_" class="st1" points="1707.8,273.7 1708.9,271 1706.4,272.4 1703.2,269.2 1704.4,273.4 1701.5,274.8 
					1704.8,275 1705.7,278.3 1707.1,275.2 1709.4,275.3 				"/>
			</g>
		</g>
	</g>
	<g id="g">
		<circle id="XMLID_204_" cx="765.7" cy="421.2" r="59.8"/>
		<circle id="XMLID_203_" class="st0" cx="765.7" cy="421.2" r="64.9"/>
		<g id="XMLID_173_">
			<g id="line_5_">
				<line id="XMLID_202_" class="st2" x1="744.2" y1="425.7" x2="735.3" y2="433.4"/>
				<line id="XMLID_201_" class="st2" x1="800.4" y1="445.5" x2="788.1" y2="455.7"/>
				<line id="XMLID_200_" class="st2" x1="775.5" y1="445.5" x2="781.8" y2="454.8"/>
				<line id="XMLID_199_" class="st2" x1="754.4" y1="425.4" x2="762.7" y2="434.7"/>
				<line id="XMLID_198_" class="st2" x1="761.7" y1="441" x2="756.6" y2="448.5"/>
				<line id="XMLID_197_" class="st2" x1="744.6" y1="451.3" x2="752.1" y2="451.6"/>
				<line id="XMLID_196_" class="st2" x1="735.3" y1="438.5" x2="740.2" y2="449.5"/>
				<line id="XMLID_195_" class="st2" x1="740.7" y1="407.1" x2="747.8" y2="419.5"/>
				<line id="XMLID_194_" class="st2" x1="740" y1="400.8" x2="744.3" y2="392.4"/>
				<line id="XMLID_193_" class="st2" x1="749.4" y1="387.2" x2="763.2" y2="384"/>
				<line id="XMLID_192_" class="st2" x1="768.3" y1="385.8" x2="776.7" y2="395.2"/>
				<line id="XMLID_191_" class="st2" x1="778.4" y1="401.1" x2="778" y2="422.9"/>
				<line id="XMLID_190_" class="st2" x1="777" y1="428.4" x2="775.3" y2="441.3"/>
			</g>
			<g id="circle_5_">
				<circle id="XMLID_189_" class="st1" cx="749.3" cy="423.7" r="3.4"/>
				<circle id="XMLID_188_" class="st1" cx="784.6" cy="456.8" r="1.8"/>
				<circle id="XMLID_187_" class="st1" cx="754.9" cy="450.8" r="1.7"/>
				<circle id="XMLID_186_" class="st1" cx="742.2" cy="450.6" r="1.1"/>
				<circle id="XMLID_185_" class="st1" cx="739.7" cy="403.8" r="1.7"/>
				<circle id="XMLID_184_" class="st1" cx="766.1" cy="384.4" r="1.3"/>
				<circle id="XMLID_183_" class="st1" cx="777.9" cy="398" r="2.1"/>
				<circle id="XMLID_182_" class="st1" cx="775.1" cy="443.3" r="1.1"/>
				<circle id="XMLID_181_" class="st1" cx="799.4" cy="392.6" r="3.2"/>
				<circle id="XMLID_180_" class="st1" cx="804.6" cy="399.1" r="1.6"/>
			</g>
			<g id="star_5_">
				<polygon id="XMLID_179_" class="st1" points="804.9,443 810,443.9 806.3,439.8 808.2,435.6 803.9,437.5 800.5,433.6 
					801.5,439.7 796.9,441.5 801.9,442.5 802.7,447.8 				"/>
				<polygon id="XMLID_178_" class="st1" points="765.1,434.9 762.9,436.6 760.2,434.7 761.7,437.5 759.4,439.3 762.4,439.1 
					763.4,441.6 764.4,439 766.3,438.9 764.6,437.7 				"/>
				<polygon id="XMLID_177_" class="st1" points="736.9,435.5 737.1,433.6 735.8,435 733.3,433.8 734.8,436.1 733.6,437.5 
					735.5,437.1 736.6,438.8 736.8,436.9 738.8,436.4 				"/>
				<polygon id="XMLID_176_" class="st1" points="749.2,390.7 751.2,388.2 748,388.4 745.8,385.3 745.4,389 742.3,389.6 745.4,391 
					745.3,394.8 747.3,392.4 750.5,393.3 				"/>
				<polygon id="XMLID_175_" class="st1" points="779.5,425.1 779.9,423.1 777.9,424.4 776,423.1 776.8,425.4 775.6,427.1 
					777.4,426.7 778.8,428.8 779.1,426.6 781,426.1 				"/>
				<polygon id="XMLID_174_" class="st1" points="724.6,417.6 725.9,415.8 723.7,416.5 722.6,415.1 722.7,416.9 721.3,417.3 
					722.7,417.8 722.9,420.2 724.1,418.3 725.7,419 				"/>
			</g>
		</g>
	</g>
	<g id="i">
		<circle id="XMLID_235_" cx="1235.4" cy="421.2" r="59.8"/>
		<circle id="XMLID_234_" class="st0" cx="1235.4" cy="421.2" r="64.9"/>
		<g id="XMLID_206_">
			<g id="star_6_">
				<polygon id="XMLID_233_" class="st1" points="1201.7,392.9 1202.3,391.3 1200.5,391.9 1199.4,391.1 1199.4,392.6 1198,393.4 
					1199.7,393.9 1200.2,395.5 1201.2,394.3 1202.8,394.6 				"/>
				<polygon id="XMLID_232_" class="st1" points="1224.3,428.1 1227.4,423.1 1222.2,425 1219.1,420.4 1219.5,425.9 1214.3,427.9 
					1219.8,429.4 1220.2,434.6 1222.9,430.3 1226.3,431.2 				"/>
				<polygon id="XMLID_231_" class="st1" points="1227.2,391.9 1230.4,392.4 1228.3,390 1229.4,388.2 1227.3,388.9 1225.1,386.5 
					1225.4,389.7 1222,391 1225.6,391.6 1225.8,394.2 				"/>
				<polygon id="XMLID_230_" class="st1" points="1274.7,431.8 1278.5,432.4 1276.3,429.5 1278,426.9 1275.1,427.9 1272.1,424 
					1272.4,428.9 1267.7,430.7 1272.4,431.4 1272.6,435 				"/>
				<polygon id="XMLID_229_" class="st1" points="1198.9,444.5 1200.2,441.8 1197.5,443 1195.1,440.4 1195.6,443.8 1193.2,444.9 
					1195.8,445.3 1196.4,449.6 1198.3,445.7 1200.2,446 				"/>
			</g>
			<g id="XMLID_219_">
				<line id="XMLID_228_" class="st2" x1="1198.2" y1="429.8" x2="1218.1" y2="430.8"/>
				<line id="XMLID_227_" class="st2" x1="1213.2" y1="409.1" x2="1218" y2="424.5"/>
				<line id="XMLID_226_" class="st2" x1="1213.6" y1="402.7" x2="1224.1" y2="392.9"/>
				<line id="XMLID_225_" class="st2" x1="1230.4" y1="389.9" x2="1240.8" y2="390.7"/>
				<line id="XMLID_224_" class="st2" x1="1246.8" y1="394.6" x2="1252" y2="404.2"/>
				<line id="XMLID_223_" class="st2" x1="1252.9" y1="409.5" x2="1251.5" y2="418.2"/>
				<line id="XMLID_222_" class="st2" x1="1253.7" y1="425.6" x2="1270.8" y2="428.1"/>
				<line id="XMLID_221_" class="st2" x1="1245" y1="443.5" x2="1268.9" y2="443.1"/>
				<line id="XMLID_220_" class="st2" x1="1202.8" y1="444.5" x2="1239.1" y2="443.8"/>
			</g>
			<g id="circle_6_">
				<circle id="XMLID_218_" class="st1" cx="1268.6" cy="399.8" r="2"/>
				<circle id="XMLID_217_" class="st1" cx="1273" cy="406.2" r="1"/>
				<circle id="XMLID_216_" class="st1" cx="1249.2" cy="373.6" r="1"/>
				<path id="XMLID_215_" class="st1" d="M1247.3,465.4c-1.2-0.3-2.4,0.6-2.6,1.8c-0.3,1.2,0.6,2.4,1.8,2.6c1.2,0.3,2.4-0.6,2.6-1.8
					C1249.4,466.8,1248.5,465.6,1247.3,465.4z"/>
				<circle id="XMLID_214_" class="st1" cx="1238.7" cy="461.9" r="1"/>
				<circle id="XMLID_213_" class="st1" cx="1194.6" cy="428.9" r="2.4"/>
				<circle id="XMLID_212_" class="st1" cx="1212.6" cy="406" r="1.5"/>
				<circle id="XMLID_211_" class="st1" cx="1244.4" cy="391.4" r="2"/>
				<circle id="XMLID_210_" class="st1" cx="1252.8" cy="406.8" r="1.3"/>
				<circle id="XMLID_209_" class="st1" cx="1249.6" cy="422.9" r="3.1"/>
				<circle id="XMLID_208_" class="st1" cx="1272.4" cy="443.2" r="2.2"/>
				<circle id="XMLID_207_" class="st1" cx="1241.9" cy="443.7" r="1.4"/>
			</g>
		</g>
	</g>
	<g id="b">
		<circle id="XMLID_269_" cx="999.2" cy="231.3" r="59.8"/>
		<circle id="XMLID_268_" class="st0" cx="999.2" cy="231.3" r="64.9"/>
		<g id="XMLID_237_">
			<g id="line_6_">
				<line id="XMLID_267_" class="st2" x1="1010.1" y1="228.9" x2="1023" y2="229.8"/>
				<line id="XMLID_266_" class="st2" x1="991.7" y1="228.5" x2="1003.4" y2="228.5"/>
				<line id="XMLID_265_" class="st2" x1="973.4" y1="229.4" x2="985.7" y2="228.7"/>
				<line id="XMLID_264_" class="st2" x1="1006.6" y1="232.5" x2="1009.7" y2="246.3"/>
				<line id="XMLID_263_" class="st2" x1="1012.6" y1="253.6" x2="1019.4" y2="261.7"/>
				<line id="XMLID_262_" class="st2" x1="988.3" y1="231.5" x2="987" y2="241.5"/>
				<line id="XMLID_261_" class="st2" x1="988.2" y1="225.5" x2="984.9" y2="213.9"/>
				<line id="XMLID_260_" class="st2" x1="1010.6" y1="211.8" x2="1007.9" y2="224.6"/>
				<line id="XMLID_259_" class="st2" x1="1012.2" y1="206.7" x2="1017.1" y2="200.1"/>
				<line id="XMLID_258_" class="st2" x1="974.9" y1="202.1" x2="980.1" y2="207.2"/>
				<line id="XMLID_257_" class="st2" x1="984.6" y1="247.3" x2="973.3" y2="262.5"/>
			</g>
			<g id="star_7_">
				<polygon id="XMLID_256_" class="st1" points="1034.4,227.9 1029.6,227.2 1028.7,222.3 1026.5,226.6 1022.2,225.8 1025.3,229.8 
					1022.5,234.3 1027.4,232.2 1031,235.9 1030.3,230.7 				"/>
				<polygon id="XMLID_255_" class="st1" points="970.1,231.3 973,231.7 971,229.6 971.9,226.6 969.2,227.9 967,225.9 967.8,228.7 
					964.8,230.2 967.8,231 968.6,234.2 				"/>
				<polygon id="XMLID_254_" class="st1" points="1022.5,265.1 1025.4,266 1023.5,263.5 1024.8,261.6 1022.7,262.4 1020.7,259.7 
					1020.6,263.1 1018.5,263.8 1020.6,264.5 1020.6,268.2 				"/>
				<polygon id="XMLID_253_" class="st1" points="1012.9,210.4 1014.6,210.4 1013.1,209.2 1013.8,207 1011.8,208.3 1009.3,206.4 
					1010.6,209.1 1008.7,210.2 1011.1,210.3 1012.2,212.7 				"/>
				<polygon id="XMLID_252_" class="st1" points="974.7,198.9 976.8,195.9 973.2,197 971.1,194.2 971.2,197.5 967.3,198.7 
					971.3,199.9 971.5,203.6 973.6,200.5 976.8,201.5 				"/>
				<polygon id="XMLID_251_" class="st1" points="1036.2,206.1 1038,206.2 1036.8,205.1 1037.8,203.2 1035.7,204.2 1034.2,202.9 
					1034.5,204.7 1032.3,205.8 1034.7,206 1035.1,208.1 				"/>
			</g>
			<g id="circle_7_">
				<circle id="XMLID_250_" class="st1" cx="1006.8" cy="228.3" r="2.1"/>
				<circle id="XMLID_249_" class="st1" cx="988.6" cy="228.4" r="1.3"/>
				<circle id="XMLID_248_" class="st1" cx="1010.8" cy="250" r="2.6"/>
				<circle id="XMLID_247_" class="st1" cx="1018.9" cy="198" r="1.6"/>
				<circle id="XMLID_246_" class="st1" cx="982.7" cy="210.2" r="2.5"/>
				<circle id="XMLID_245_" class="st1" cx="986" cy="244.5" r="1.7"/>
				<circle id="XMLID_244_" class="st1" cx="971.7" cy="264.7" r="1.7"/>
				<circle id="XMLID_243_" class="st1" cx="981.2" cy="267.5" r="0.9"/>
				<circle id="XMLID_242_" class="st1" cx="963.8" cy="245" r="1.6"/>
				<circle id="XMLID_241_" class="st1" cx="960" cy="256.4" r="0.6"/>
				<circle id="XMLID_240_" class="st1" cx="1042.4" cy="216.9" r="0.8"/>
				<circle id="XMLID_239_" class="st1" cx="1042.2" cy="253.2" r="2"/>
				<circle id="XMLID_238_" class="st1" cx="1038.9" cy="262.2" r="0.9"/>
			</g>
		</g>
	</g>
	<g id="k">
		<circle id="XMLID_295_" cx="1726.4" cy="421.2" r="59.8"/>
		<circle id="XMLID_294_" class="st0" cx="1726.4" cy="421.2" r="64.9"/>
		<g id="XMLID_271_">
			<g id="line_7_">
				<line id="XMLID_293_" class="st2" x1="1736.3" y1="406.2" x2="1749.6" y2="393"/>
				<line id="XMLID_292_" class="st2" x1="1722.4" y1="419.9" x2="1731.3" y2="411.1"/>
				<line id="XMLID_291_" class="st2" x1="1698.5" y1="443.9" x2="1713.6" y2="428.9"/>
				<line id="XMLID_290_" class="st2" x1="1721.6" y1="431.9" x2="1731.2" y2="441.8"/>
				<line id="XMLID_289_" class="st2" x1="1703.4" y1="413.3" x2="1713.4" y2="423.5"/>
				<line id="XMLID_288_" class="st2" x1="1753.7" y1="393.6" x2="1754.4" y2="412.5"/>
				<line id="XMLID_287_" class="st2" x1="1730.4" y1="387.4" x2="1748.8" y2="388.8"/>
			</g>
			<g id="star_8_">
				<polygon id="XMLID_286_" class="st1" points="1722.8,426.4 1725.5,423.1 1721.3,423.8 1717.2,416.9 1717.2,424.5 1710.9,425.5 
					1717.2,427.5 1717.2,433.4 1721,428.7 1724.9,430 				"/>
				<polygon id="XMLID_285_" class="st1" points="1698.1,447.8 1700.4,445.6 1696.8,445.9 1695.5,443.2 1694.7,446.3 1691.4,446.7 
					1694.4,448.2 1694.1,451.4 1696.4,448.9 1698.5,450.4 				"/>
				<polygon id="XMLID_284_" class="st1" points="1735.7,409.6 1738.2,407.4 1735,407.6 1733.8,405 1733.5,407.8 1730.6,408 
					1733.3,409.7 1733,412 1734.6,410.6 1736.8,412.2 				"/>
				<polygon id="XMLID_283_" class="st1" points="1728.6,387.4 1729.8,385.2 1727.7,385.8 1726.4,384.2 1725.9,386.3 1723.8,387.4 
					1726.1,388 1726.2,390.1 1727.5,388.5 1729.4,389.1 				"/>
				<path id="XMLID_282_" class="st1" d="M1760.3,442.2l-3.5,1.5c-1.4-1.5-2.7-3-2.7-3l0.6,3.9l-2.7,1.2c0,0,1.4,0.3,3,0.6l0.6,4.3
					l2-3.7c1.1,0.3,2,0.4,2.2,0.5c0.3,0.1-0.4-0.8-1.4-1.9L1760.3,442.2z"/>
			</g>
			<g id="circle_8_">
				<circle id="XMLID_281_" class="st1" cx="1701" cy="411.5" r="1.9"/>
				<circle id="XMLID_280_" class="st1" cx="1733.4" cy="444.1" r="1.4"/>
				<circle id="XMLID_279_" class="st1" cx="1752.7" cy="390" r="2.8"/>
				<circle id="XMLID_278_" class="st1" cx="1754.5" cy="415.8" r="1.7"/>
				<circle id="XMLID_277_" class="st1" cx="1689.1" cy="403.1" r="2.9"/>
				<circle id="XMLID_276_" class="st1" cx="1687.9" cy="415.8" r="1.1"/>
				<circle id="XMLID_275_" class="st1" cx="1764" cy="432.2" r="1"/>
				<circle id="XMLID_274_" class="st1" cx="1733.7" cy="456" r="2.4"/>
				<circle id="XMLID_273_" class="st1" cx="1725.1" cy="453.3" r="1.1"/>
				<circle id="XMLID_272_" class="st1" cx="1768.6" cy="408.9" r="0.8"/>
			</g>
		</g>
	</g>
	<g id="j">
		<circle id="XMLID_401_" cx="1482.8" cy="421.2" r="59.8"/>
		<circle id="XMLID_400_" class="st0" cx="1482.8" cy="421.2" r="64.9"/>
		<g id="XMLID_370_">
			<g id="star_9_">
				<polygon id="XMLID_399_" class="st1" points="1455.1,390.2 1458.5,389.9 1455.6,388.1 1456.3,385.3 1454.1,387.2 1451.7,385.6 
					1452.6,388.4 1450.2,390.5 1453.1,390.3 1454.2,393.6 				"/>
				<polygon id="XMLID_398_" class="st1" points="1517,456.7 1524.7,453.7 1517.3,451 1517.6,444.5 1514.3,449.9 1509.8,448.2 
					1512.3,453 1507.9,460.1 1514.8,457.5 1516.9,461.4 				"/>
				<polygon id="XMLID_397_" class="st1" points="1480.7,402.6 1483.4,401.3 1480.2,400.6 1479.5,397.7 1478.3,400.1 1475.6,399.4 
					1477.6,401.6 1476.2,404.7 1479.3,403.2 1481.5,405.5 				"/>
				<polygon id="XMLID_396_" class="st1" points="1472.1,392.4 1474,392.5 1472.7,391.1 1473.7,389.1 1471.8,390.2 1470.2,388.5 
					1470.6,391 1468.7,392.1 1470.8,392.3 1471.1,394.4 				"/>
				<polygon id="XMLID_395_" class="st1" points="1461.3,445.7 1463.3,442.9 1460,443.6 1458.1,440.4 1458,444 1454.5,444.8 
					1458,446.1 1457.9,450.5 1460.3,447 1462.6,447.8 				"/>
				<polygon id="XMLID_394_" class="st1" points="1450.5,452.3 1451.6,452.5 1450.9,451.8 1451.4,450.6 1450,451.1 1448.8,449.9 
					1449.1,451.4 1447.6,451.9 1449.3,452.1 1449.7,454.1 				"/>
			</g>
			<g id="circle_9_">
				<path id="XMLID_393_" class="st1" d="M1448.7,401.3c0,0.4-0.4,0.8-0.8,0.8s-0.8-0.4-0.8-0.8c0-0.4,0.4-0.8,0.8-0.8
					C1448.4,400.5,1448.7,400.9,1448.7,401.3z"/>
				<path id="XMLID_392_" class="st1" d="M1495.7,380.5c0,0.8-0.6,1.5-1.5,1.5s-1.5-0.6-1.5-1.5c0-0.8,0.6-1.5,1.5-1.5
					S1495.7,379.7,1495.7,380.5z"/>
				<circle id="XMLID_391_" class="st1" cx="1510.3" cy="418.3" r="2"/>
				<circle id="XMLID_390_" class="st1" cx="1505.5" cy="413.5" r="0.7"/>
				<circle id="XMLID_389_" class="st1" cx="1483.1" cy="462.9" r="1.1"/>
				<circle id="XMLID_388_" class="st1" cx="1505.7" cy="378.2" r="0.7"/>
				<circle id="XMLID_387_" class="st1" cx="1512.7" cy="391.6" r="1.4"/>
				<circle id="XMLID_386_" class="st1" cx="1450.7" cy="410.1" r="1.8"/>
				<circle id="XMLID_385_" class="st1" cx="1494.8" cy="448.6" r="1.8"/>
				<circle id="XMLID_384_" class="st1" cx="1496.3" cy="400.3" r="1.2"/>
				<circle id="XMLID_383_" class="st1" cx="1489" cy="392.5" r="0.8"/>
				<circle id="XMLID_382_" class="st1" cx="1477.9" cy="442.8" r="1.9"/>
				<circle id="XMLID_381_" class="st1" cx="1459.1" cy="454" r="0.7"/>
				<circle id="XMLID_380_" class="st1" cx="1461.6" cy="401" r="1.5"/>
			</g>
			<g id="line_8_">
				<line id="XMLID_379_" class="st2" x1="1497.7" y1="450.4" x2="1510.4" y2="453.5"/>
				<line id="XMLID_378_" class="st2" x1="1496.2" y1="403.2" x2="1495" y2="445.3"/>
				<line id="XMLID_377_" class="st2" x1="1490.8" y1="393.8" x2="1494.9" y2="397.4"/>
				<line id="XMLID_376_" class="st2" x1="1487.2" y1="394.1" x2="1481.3" y2="399.3"/>
				<line id="XMLID_375_" class="st2" x1="1478.8" y1="404.9" x2="1478.1" y2="439.5"/>
				<line id="XMLID_374_" class="st2" x1="1472.5" y1="393.2" x2="1477.1" y2="398.6"/>
				<line id="XMLID_373_" class="st2" x1="1460.2" y1="441.6" x2="1461.2" y2="403.8"/>
				<line id="XMLID_372_" class="st2" x1="1456.1" y1="391.6" x2="1459.8" y2="398.3"/>
				<line id="XMLID_371_" class="st2" x1="1463.6" y1="398.9" x2="1469.1" y2="393.5"/>
			</g>
		</g>
	</g>
	<g id="d">
		<circle id="XMLID_328_" cx="1482.8" cy="231.3" r="59.8"/>
		<circle id="XMLID_327_" class="st0" cx="1482.8" cy="231.3" r="64.9"/>
		<g id="XMLID_297_">
			<g id="circle_10_">
				<circle id="XMLID_326_" class="st1" cx="1472.2" cy="225.4" r="3.2"/>
				<circle id="XMLID_325_" class="st1" cx="1476.2" cy="278.7" r="2.5"/>
				<circle id="XMLID_324_" class="st1" cx="1465.1" cy="272.4" r="0.9"/>
				<path id="XMLID_323_" class="st1" d="M1520.3,235.5c-0.5-1-0.1-2.3,1-2.8c1-0.5,2.3-0.1,2.8,1c0.5,1,0.1,2.3-1,2.8
					C1522.1,236.9,1520.8,236.5,1520.3,235.5z"/>
				<circle id="XMLID_322_" class="st1" cx="1515.6" cy="222.8" r="1"/>
				<circle id="XMLID_321_" class="st1" cx="1458.9" cy="205.4" r="1.7"/>
				<circle id="XMLID_320_" class="st1" cx="1491" cy="225.2" r="1.3"/>
				<circle id="XMLID_319_" class="st1" cx="1513.5" cy="199.2" r="1.3"/>
				<circle id="XMLID_318_" class="st1" cx="1502.2" cy="257" r="1.7"/>
				<circle id="XMLID_317_" class="st1" cx="1472.9" cy="267.1" r="1.3"/>
				<circle id="XMLID_316_" class="st1" cx="1460.1" cy="252.5" r="2"/>
			</g>
			<g id="star_10_">
				<path id="XMLID_315_" class="st1" d="M1505.1,209.7l1.4-2.2l-2.5,0.8c-1.2-1.5-2.3-2.7-2.3-2.7l0.3,3.4l-3.5,1.1
					c0,0,1.7,0.5,3.7,1.1l0.3,2.9l1.5-2.4c1.9,0.5,3.6,1,3.5,0.7C1507.3,212.3,1506.2,211.1,1505.1,209.7z"/>
				<polygon id="XMLID_314_" class="st1" points="1449.2,224.7 1450.3,222.5 1448.2,223.3 1446.8,221.4 1446.8,223.7 1444.3,224.4 
					1446.8,225.1 1446.8,227 1448.4,225.5 1450.2,226.1 				"/>
				<polygon id="XMLID_313_" class="st1" points="1446.9,198 1448.9,195.4 1445.8,196.3 1443.6,193.1 1443.6,197 1441.2,197.6 
					1443.6,198.7 1443.6,202.2 1445.6,199.6 1449,201 				"/>
				<polygon id="XMLID_312_" class="st1" points="1506,241.4 1509.4,240 1505.6,239.5 1504.8,235.9 1503.1,239.3 1500.1,238.9 
					1502.3,240.9 1501,243.5 1503.8,242.3 1506.9,245.3 				"/>
				<polygon id="XMLID_311_" class="st1" points="1488.4,268.9 1490.3,267.9 1488,267.6 1487.4,265.2 1486.7,267.2 1484.4,267.1 
					1486.1,268.5 1485.3,270.5 1487.1,269.5 1488.6,270.7 				"/>
				<polygon id="XMLID_310_" class="st1" points="1463.1,236.2 1465.6,234.9 1463.3,234.3 1463.3,232 1461.4,233.5 1459.2,233 
					1460.4,235.2 1458.6,236.9 1461.5,236.3 1463.1,238.3 				"/>
			</g>
			<g id="line_9_">
				<line id="XMLID_309_" class="st2" x1="1449.8" y1="198.6" x2="1456.8" y2="203.1"/>
				<line id="XMLID_308_" class="st2" x1="1460.4" y1="207.6" x2="1469.9" y2="221.1"/>
				<line id="XMLID_307_" class="st2" x1="1500.3" y1="214.2" x2="1493" y2="223.3"/>
				<line id="XMLID_306_" class="st2" x1="1476.9" y1="225.6" x2="1488.4" y2="225.6"/>
				<line id="XMLID_305_" class="st2" x1="1505.3" y1="207" x2="1511.4" y2="200.7"/>
				<line id="XMLID_304_" class="st2" x1="1493.3" y1="226.6" x2="1502.4" y2="237.8"/>
				<line id="XMLID_303_" class="st2" x1="1503.8" y1="244.6" x2="1503.8" y2="254.4"/>
				<line id="XMLID_302_" class="st2" x1="1489.1" y1="266.9" x2="1500.3" y2="259.4"/>
				<line id="XMLID_301_" class="st2" x1="1475.2" y1="267.6" x2="1484.6" y2="268.4"/>
				<line id="XMLID_300_" class="st2" x1="1461.5" y1="255.3" x2="1470.8" y2="265.9"/>
				<line id="XMLID_299_" class="st2" x1="1461.3" y1="237.3" x2="1460.1" y2="249.5"/>
				<line id="XMLID_298_" class="st2" x1="1464.4" y1="233.7" x2="1469.4" y2="228.5"/>
			</g>
		</g>
	</g>
	<g id="h">
		<circle id="XMLID_368_" cx="1948.4" cy="421.2" r="59.8"/>
		<circle id="XMLID_367_" class="st0" cx="1948.4" cy="421.2" r="64.9"/>
		<g id="XMLID_330_">
			<g id="star_11_">
				<polygon id="XMLID_366_" class="st1" points="1982.2,406.5 1984,403.8 1980.9,404.8 1979.1,402.7 1979.3,405.3 1977.2,406 
					1979.3,406.8 1979.6,410.3 1981.4,407.6 1983.8,408.5 				"/>
				<polygon id="XMLID_365_" class="st1" points="1983.6,446 1984.7,440.4 1980.2,443.9 1974.5,440.9 1976.7,446.5 1972.7,451.4 
					1978.7,450.8 1981.2,456.8 1982.3,450.5 1988.5,449.9 				"/>
				<polygon id="XMLID_364_" class="st1" points="1972.7,429.5 1973.1,427.1 1971.4,428.3 1969.4,426.6 1970,429.2 1967.7,430.5 
					1970.6,430.5 1971.1,433.4 1971.8,431 1974,431 				"/>
				<polygon id="XMLID_363_" class="st1" points="1963.1,388.5 1963.6,387 1962,387.6 1961.1,387 1961.1,388.2 1959.9,388.9 
					1961.4,389.4 1961.8,390.8 1962.7,389.7 1964.1,390 				"/>
				<polygon id="XMLID_362_" class="st1" points="1940.8,396.7 1943,394.2 1939.8,395.2 1937.6,391.9 1937.3,395.9 1934.6,396.7 
					1937.2,397.5 1936.9,401.1 1939.4,398.2 1942.5,399.2 				"/>
				<polygon id="XMLID_361_" class="st1" points="1922.2,439.2 1924.6,439.6 1923.2,437.5 1924.5,435.6 1922,436.4 1920.2,434.9 
					1920.3,437.5 1917.9,438.7 1920.5,439.1 1921.1,441.1 				"/>
			</g>
			<g id="line_10_">
				<line id="XMLID_360_" class="st2" x1="1966.2" y1="439.8" x2="1974.7" y2="446.7"/>
				<line id="XMLID_359_" class="st2" x1="1953.8" y1="429.8" x2="1961.1" y2="435.8"/>
				<line id="XMLID_358_" class="st2" x1="1954.2" y1="445.1" x2="1961.3" y2="440"/>
				<line id="XMLID_357_" class="st2" x1="1966.3" y1="435.9" x2="1969.5" y2="431.9"/>
				<line id="XMLID_356_" class="st2" x1="1971.6" y1="395.4" x2="1971.6" y2="426.8"/>
				<line id="XMLID_355_" class="st2" x1="1964.6" y1="388.8" x2="1968.9" y2="391.4"/>
				<line id="XMLID_354_" class="st2" x1="1960.4" y1="390.2" x2="1957.2" y2="393.1"/>
				<line id="XMLID_353_" class="st2" x1="1953.7" y1="397.1" x2="1952.3" y2="426"/>
				<line id="XMLID_352_" class="st2" x1="1948" y1="388.8" x2="1952.3" y2="392.8"/>
				<line id="XMLID_351_" class="st2" x1="1944.4" y1="389.7" x2="1940.2" y2="394"/>
				<line id="XMLID_350_" class="st2" x1="1939.1" y1="399.8" x2="1939.1" y2="433.8"/>
				<line id="XMLID_349_" class="st2" x1="1914.8" y1="390.7" x2="1918" y2="388.7"/>
				<line id="XMLID_348_" class="st2" x1="1921.2" y1="389.9" x2="1923.3" y2="393.3"/>
				<line id="XMLID_347_" class="st2" x1="1923.6" y1="399.3" x2="1922.2" y2="434.7"/>
				<line id="XMLID_346_" class="st2" x1="1926.6" y1="394.1" x2="1932.7" y2="390"/>
				<line id="XMLID_345_" class="st2" x1="1934.6" y1="391" x2="1936.5" y2="395"/>
			</g>
			<g id="circle_11_">
				<circle id="XMLID_344_" class="st1" cx="1910.7" cy="443.9" r="2.4"/>
				<circle id="XMLID_343_" class="st1" cx="1920.3" cy="450.7" r="1"/>
				<circle id="XMLID_342_" class="st1" cx="1963.6" cy="437.8" r="2"/>
				<circle id="XMLID_341_" class="st1" cx="1951.9" cy="446.7" r="1.5"/>
				<circle id="XMLID_340_" class="st1" cx="1952.1" cy="428" r="1"/>
				<circle id="XMLID_339_" class="st1" cx="1971" cy="392.9" r="1.3"/>
				<circle id="XMLID_338_" class="st1" cx="1954.5" cy="394.3" r="1.7"/>
				<circle id="XMLID_337_" class="st1" cx="1945.8" cy="388.2" r="1.1"/>
				<circle id="XMLID_336_" class="st1" cx="1939.3" cy="437.3" r="2.2"/>
				<circle id="XMLID_335_" class="st1" cx="1920.1" cy="388.2" r="1"/>
				<circle id="XMLID_334_" class="st1" cx="1923.8" cy="396.1" r="2"/>
				<circle id="XMLID_333_" class="st1" cx="1934.2" cy="389.3" r="0.7"/>
				<circle id="XMLID_332_" class="st1" cx="1986.6" cy="394.9" r="1.2"/>
				<circle id="XMLID_331_" class="st1" cx="1911.9" cy="393" r="2.4"/>
			</g>
		</g>
	</g>
</g>
<g id="tags">
	<g id="a-tag" class="st3">
		<path class="st1" d="M688.6,298.5l9.6,27.7c1.3,0.5,2.3,1,2.8,1.7l-0.5,4h-11.2l-0.5-4c0.4-0.5,1.2-1,2.3-1.4l-1.3-4h-9.6
			l-1.2,3.9c1.1,0.4,2,1,2.5,1.6l-0.5,4H670l-0.5-4c0.6-0.7,1.6-1.3,3.2-1.8l9.2-27.6H688.6z M684.6,305.2c0,2-0.4,4.2-1.2,6.8
			l-1.9,6h6.9l-1.8-5.9c-0.7-2.2-1.2-4.3-1.2-6.1l0-0.8H684.6z"/>
		<path class="st1" d="M724,307.8v28.5c0.9,0.4,1.6,0.9,2,1.4l-0.5,3.7h-11.1l-0.5-3.7c0.6-0.8,1.7-1.4,3.4-1.9v-5.4
			c-1.8,1.2-3.5,1.8-5.2,1.8c-3.6,0-6.1-0.9-7.7-2.8c-1.6-1.9-2.4-4.9-2.4-9.2c0-4.8,1.2-8.2,3.6-10.2c2.1-1.7,4.6-2.6,7.7-2.6
			c1.8,0,3.5,0.4,5.1,1.1c0.7-0.5,1.4-0.7,2-0.7H724z M709,320.1c0,2.6,0.3,4.4,1,5.5c0.6,1.1,1.7,1.7,3.2,1.7
			c1.5,0,2.9-0.6,4.2-1.8v-12.3c-1.3-0.5-2.7-0.8-4.2-0.8c-1.5,0-2.6,0.6-3.2,1.9C709.3,315.6,709,317.5,709,320.1z"/>
		<path class="st1" d="M745.4,329.8c-2.2,1.6-4.8,2.4-7.8,2.4c-3,0-5.1-0.6-6.3-1.9c-1.2-1.2-1.8-3.3-1.8-6.1v-11.1
			c-1.1-0.4-2-0.9-2.6-1.6l0.5-3.7c1.8-0.4,3.5-0.6,5-0.6c1.5,0,2.8,0,3.9,0.1v15.3c0,1.7,0.3,2.9,0.8,3.4c0.5,0.6,1.6,0.8,3.1,0.8
			c1.6,0,3-0.5,4.4-1.5v-12.2c-1.1-0.4-2-0.9-2.6-1.6l0.5-3.7c1.8-0.4,3.5-0.6,5-0.6s2.8,0,3.9,0.1v18.7c1.1,0.2,2,0.5,2.6,0.8v3.8
			c-1.9,1-4.3,1.5-7.2,1.5C745.9,331.6,745.5,330.8,745.4,329.8z"/>
		<path class="st1" d="M756.9,311.4c0-0.5,0-1,0-1.5c3-1.6,6.2-2.4,9.6-2.4c3.4,0,5.9,0.6,7.4,1.9c1.5,1.3,2.2,3.4,2.2,6.5v10.2
			c1.1,0.2,2,0.5,2.6,0.8v4.2c-1.6,0.8-4,1.2-7,1.2c-0.3-0.8-0.6-1.8-0.8-3c-1.4,2-3.9,3-7.5,3c-2.1,0-4-0.6-5.5-1.9
			c-1.5-1.2-2.3-2.9-2.3-5.1c0-2.1,0.7-3.8,2.1-5.1c1.4-1.2,3.5-1.8,6.4-1.8h5.2V316c0-2.5-1.3-3.7-4-3.7c-1,0-1.8,0.1-2.4,0.3
			c-0.1,1.3-0.3,2.4-0.6,3.1h-4.7C757.1,314.6,756.9,313.1,756.9,311.4z M765.5,327.3c1.6,0,2.9-0.5,3.9-1.4v-3.9H766
			c-2.3,0-3.5,0.9-3.5,2.6c0,0.8,0.2,1.5,0.7,2C763.8,327.1,764.6,327.3,765.5,327.3z"/>
		<path class="st1" d="M794.9,313.7c-2.4,0-4.1,0.5-5,1.4v11c2.6,0.5,4.4,1.2,5.3,2l-0.5,3.7H781l-0.5-3.7c0.4-0.6,1.3-1.2,2.6-1.6
			v-13.3c-1.1-0.4-2-0.9-2.6-1.6l0.5-3.7c1.8-0.4,3.3-0.6,4.8-0.6c1.4,0,2.6,0,3.5,0.1v3c0.7-0.9,1.7-1.6,2.8-2.1s2.2-0.8,3.1-0.8
			c0.9,0,1.6,0.1,1.9,0.2l-0.1,6.2C796.4,313.8,795.7,313.7,794.9,313.7z"/>
		<path class="st1" d="M816.8,329.8c-2.2,1.6-4.8,2.4-7.8,2.4c-3,0-5.1-0.6-6.3-1.9c-1.2-1.2-1.8-3.3-1.8-6.1v-11.1
			c-1.1-0.4-2-0.9-2.6-1.6l0.5-3.7c1.8-0.4,3.5-0.6,5-0.6c1.5,0,2.8,0,3.9,0.1v15.3c0,1.7,0.3,2.9,0.8,3.4c0.5,0.6,1.6,0.8,3.1,0.8
			c1.6,0,3-0.5,4.4-1.5v-12.2c-1.1-0.4-2-0.9-2.6-1.6l0.5-3.7c1.8-0.4,3.5-0.6,5-0.6s2.8,0,3.9,0.1v18.7c1.1,0.2,2,0.5,2.6,0.8v3.8
			c-1.9,1-4.3,1.5-7.2,1.5C817.3,331.6,816.9,330.8,816.8,329.8z"/>
		<path class="st1" d="M827.9,307.8c1.8-0.4,3.5-0.6,5-0.6s2.8,0,3.9,0.1v19.2c1.2,0.5,2.1,1,2.6,1.6l-0.5,3.7h-11l-0.5-3.7
			c0.4-0.6,1.3-1.2,2.6-1.6v-13.3c-1.1-0.4-2-0.9-2.6-1.6L827.9,307.8z M833.4,304.5c-2.7,0-4-1.2-4-3.6s1.3-3.6,4-3.6
			c2.7,0,4,1.2,4,3.6S836,304.5,833.4,304.5z"/>
		<path class="st1" d="M851,311.8c-2.1,0-3.2,0.6-3.2,1.9c0,1.2,1.1,2.1,3.3,2.6l3.8,1c3.9,1,5.9,3.3,5.9,6.8c0,2.4-0.8,4.4-2.5,5.9
			c-1.7,1.5-4.4,2.3-8,2.3c-3.7,0-6.5-0.5-8.6-1.5c0-0.4,0-0.7,0-1.1c0-1.8,0.4-3.3,1.1-4.8h4c0.4,0.8,0.7,1.6,0.8,2.4
			c0.6,0.2,1.6,0.3,2.7,0.3c2.8,0,4.2-0.8,4.2-2.4c0-0.5-0.2-0.9-0.6-1.3s-1.1-0.7-2.3-1l-3.8-1.1c-2-0.5-3.5-1.4-4.6-2.4
			c-1.1-1.1-1.6-2.7-1.6-4.8c0-2.1,0.8-3.8,2.5-5.2c1.7-1.3,4.1-2,7.3-2c3.2,0,5.8,0.5,8,1.4c0,0.3,0,0.6,0,1c0,1.7-0.4,3.2-1.1,4.6
			h-3.9c-0.4-0.7-0.7-1.5-0.8-2.3C852.7,311.9,851.9,311.8,851,311.8z"/>
	</g>
	<g id="b-tag" class="st3">
		<path class="st1" d="M946.9,320.3h-2.2v5.7c2.3,0.5,3.8,1.1,4.4,1.9l-0.5,4h-13l-0.5-4c0.4-0.5,1.3-1.1,2.6-1.6v-21.9
			c-1.3-0.5-2.2-1-2.6-1.6l0.5-4h12.7c4.4,0.1,7.8,0.9,10,2.4c2.2,1.6,3.3,4.3,3.3,8.3C961.6,316.7,956.7,320.3,946.9,320.3z
			 M947.6,303.9h-2.9v11.1h3.2c2.2,0,3.8-0.4,4.9-1.3c1.1-0.9,1.6-2.4,1.6-4.5c0-2.1-0.6-3.6-1.8-4.3
			C951.5,304.3,949.8,303.9,947.6,303.9z"/>
		<path class="st1" d="M964.5,307.8c1.8-0.4,3.5-0.6,5-0.6s2.8,0,3.9,0.1v19.2c1.2,0.5,2.1,1,2.6,1.6l-0.5,3.7h-11l-0.5-3.7
			c0.4-0.6,1.3-1.2,2.6-1.6v-13.3c-1.1-0.4-2-0.9-2.6-1.6L964.5,307.8z M970,304.5c-2.7,0-4-1.2-4-3.6s1.3-3.6,4-3.6
			c2.7,0,4,1.2,4,3.6S972.6,304.5,970,304.5z"/>
		<path class="st1" d="M987.6,311.8c-2.1,0-3.2,0.6-3.2,1.9c0,1.2,1.1,2.1,3.3,2.6l3.8,1c3.9,1,5.9,3.3,5.9,6.8
			c0,2.4-0.8,4.4-2.5,5.9c-1.7,1.5-4.4,2.3-8,2.3c-3.7,0-6.5-0.5-8.6-1.5c0-0.4,0-0.7,0-1.1c0-1.8,0.4-3.3,1.1-4.8h4
			c0.4,0.8,0.7,1.6,0.8,2.4c0.6,0.2,1.6,0.3,2.7,0.3c2.8,0,4.2-0.8,4.2-2.4c0-0.5-0.2-0.9-0.6-1.3s-1.1-0.7-2.3-1l-3.8-1.1
			c-2-0.5-3.5-1.4-4.6-2.4c-1.1-1.1-1.6-2.7-1.6-4.8c0-2.1,0.8-3.8,2.5-5.2c1.7-1.3,4.1-2,7.3-2c3.2,0,5.8,0.5,8,1.4
			c0,0.3,0,0.6,0,1c0,1.7-0.4,3.2-1.1,4.6h-3.9c-0.4-0.7-0.7-1.5-0.8-2.3C989.3,311.9,988.4,311.8,987.6,311.8z"/>
		<path class="st1" d="M1010.9,312.3c-2.9,0-4.4,2.5-4.4,7.6c0,2.6,0.4,4.3,1.2,5.4s2,1.5,3.5,1.5c2.4,0,4.6-0.2,6.4-0.7l1.4,3.7
			c-1,0.7-2.4,1.2-4.1,1.7c-1.7,0.5-3.4,0.7-5,0.7c-6.9,0-10.4-4-10.4-12c0-4.7,1.2-8,3.6-10.1c2.1-1.8,4.8-2.7,7.8-2.7
			c3.1,0,5.6,0.6,7.7,1.7c0,0.3,0,0.6,0,0.9c0,1.8-0.4,3.6-1.2,5.2h-4.2c-0.4-0.8-0.7-1.8-0.8-2.9
			C1012,312.4,1011.5,312.3,1010.9,312.3z"/>
		<path class="st1" d="M1032.7,332.2c-3.8,0-6.7-1-8.7-3.1c-1.9-2-2.9-5-2.9-8.9c0-2.4,0.3-4.4,1-6.1c0.7-1.7,1.6-3,2.7-4
			c2.2-1.8,4.8-2.7,7.8-2.7s5.3,0.8,6.8,2.3s2.4,4.2,2.4,8.2c0,2.3-1.1,3.5-3.4,3.5h-10.4c0.1,2,0.6,3.4,1.6,4.3
			c0.9,0.8,2.4,1.2,4.3,1.2c1.1,0,2.1-0.1,3.1-0.4c1-0.3,1.7-0.5,2.2-0.8l0.7-0.4l1.4,3.8c-0.2,0.2-0.5,0.5-0.8,0.8
			c-0.4,0.3-1.3,0.8-2.8,1.3S1034.6,332.2,1032.7,332.2z M1035.7,317.1c0.1-0.4,0.1-1,0.1-1.6c0-0.6-0.3-1.3-0.8-2
			c-0.5-0.7-1.4-1.1-2.7-1.1c-1.3,0-2.2,0.4-2.9,1.2c-0.7,0.8-1.1,2.1-1.3,3.9L1035.7,317.1z"/>
		<path class="st1" d="M1054,311.8c-2.1,0-3.2,0.6-3.2,1.9c0,1.2,1.1,2.1,3.3,2.6l3.8,1c3.9,1,5.9,3.3,5.9,6.8
			c0,2.4-0.8,4.4-2.5,5.9c-1.7,1.5-4.4,2.3-8,2.3c-3.7,0-6.5-0.5-8.6-1.5c0-0.4,0-0.7,0-1.1c0-1.8,0.4-3.3,1.1-4.8h4
			c0.4,0.8,0.7,1.6,0.8,2.4c0.6,0.2,1.6,0.3,2.7,0.3c2.8,0,4.2-0.8,4.2-2.4c0-0.5-0.2-0.9-0.6-1.3s-1.1-0.7-2.3-1l-3.8-1.1
			c-2-0.5-3.5-1.4-4.6-2.4c-1.1-1.1-1.6-2.7-1.6-4.8c0-2.1,0.8-3.8,2.5-5.2c1.7-1.3,4.1-2,7.3-2c3.2,0,5.8,0.5,8,1.4
			c0,0.3,0,0.6,0,1c0,1.7-0.4,3.2-1.1,4.6h-3.9c-0.4-0.7-0.7-1.5-0.8-2.3C1055.8,311.9,1054.9,311.8,1054,311.8z"/>
	</g>
	<g id="c-tag" class="st3">
		<path class="st1" d="M1200,298.5l9.6,27.7c1.3,0.5,2.3,1,2.8,1.7l-0.5,4h-11.2l-0.5-4c0.4-0.5,1.2-1,2.3-1.4l-1.3-4h-9.6l-1.2,3.9
			c1.1,0.4,2,1,2.5,1.6l-0.5,4h-10.9l-0.5-4c0.6-0.7,1.6-1.3,3.2-1.8l9.2-27.6H1200z M1196,305.2c0,2-0.4,4.2-1.2,6.8l-1.9,6h6.9
			l-1.8-5.9c-0.7-2.2-1.2-4.3-1.2-6.1l0-0.8H1196z"/>
		<path class="st1" d="M1227.9,313.7c-2.4,0-4.1,0.5-5,1.4v11c2.6,0.5,4.4,1.2,5.3,2l-0.5,3.7H1214l-0.5-3.7
			c0.4-0.6,1.3-1.2,2.6-1.6v-13.3c-1.1-0.4-2-0.9-2.6-1.6l0.5-3.7c1.8-0.4,3.3-0.6,4.8-0.6c1.4,0,2.6,0,3.5,0.1v3
			c0.7-0.9,1.7-1.6,2.8-2.1s2.2-0.8,3.1-0.8c0.9,0,1.6,0.1,1.9,0.2l-0.1,6.2C1229.4,313.8,1228.7,313.7,1227.9,313.7z"/>
		<path class="st1" d="M1232.7,307.8c1.8-0.4,3.5-0.6,5-0.6s2.8,0,3.9,0.1v19.2c1.2,0.5,2.1,1,2.6,1.6l-0.5,3.7h-11l-0.5-3.7
			c0.4-0.6,1.3-1.2,2.6-1.6v-13.3c-1.1-0.4-2-0.9-2.6-1.6L1232.7,307.8z M1238.2,304.5c-2.7,0-4-1.2-4-3.6s1.3-3.6,4-3.6
			c2.7,0,4,1.2,4,3.6S1240.8,304.5,1238.2,304.5z"/>
		<path class="st1" d="M1257.7,332.2c-3.8,0-6.7-1-8.7-3.1c-1.9-2-2.9-5-2.9-8.9c0-2.4,0.3-4.4,1-6.1c0.7-1.7,1.6-3,2.7-4
			c2.2-1.8,4.8-2.7,7.8-2.7s5.3,0.8,6.8,2.3s2.4,4.2,2.4,8.2c0,2.3-1.1,3.5-3.4,3.5h-10.4c0.1,2,0.6,3.4,1.6,4.3
			c0.9,0.8,2.4,1.2,4.3,1.2c1.1,0,2.1-0.1,3.1-0.4c1-0.3,1.7-0.5,2.2-0.8l0.7-0.4l1.4,3.8c-0.2,0.2-0.5,0.5-0.8,0.8
			c-0.4,0.3-1.3,0.8-2.8,1.3S1259.6,332.2,1257.7,332.2z M1260.7,317.1c0.1-0.4,0.1-1,0.1-1.6c0-0.6-0.3-1.3-0.8-2
			c-0.5-0.7-1.4-1.1-2.7-1.1c-1.3,0-2.2,0.4-2.9,1.2c-0.7,0.8-1.1,2.1-1.3,3.9L1260.7,317.1z"/>
		<path class="st1" d="M1278.9,311.8c-2.1,0-3.2,0.6-3.2,1.9c0,1.2,1.1,2.1,3.3,2.6l3.8,1c3.9,1,5.9,3.3,5.9,6.8
			c0,2.4-0.8,4.4-2.5,5.9c-1.7,1.5-4.4,2.3-8,2.3c-3.7,0-6.5-0.5-8.6-1.5c0-0.4,0-0.7,0-1.1c0-1.8,0.4-3.3,1.1-4.8h4
			c0.4,0.8,0.7,1.6,0.8,2.4c0.6,0.2,1.6,0.3,2.7,0.3c2.8,0,4.2-0.8,4.2-2.4c0-0.5-0.2-0.9-0.6-1.3s-1.1-0.7-2.3-1l-3.8-1.1
			c-2-0.5-3.5-1.4-4.6-2.4c-1.1-1.1-1.6-2.7-1.6-4.8c0-2.1,0.8-3.8,2.5-5.2c1.7-1.3,4.1-2,7.3-2c3.2,0,5.8,0.5,8,1.4
			c0,0.3,0,0.6,0,1c0,1.7-0.4,3.2-1.1,4.6h-3.9c-0.4-0.7-0.7-1.5-0.8-2.3C1280.7,311.9,1279.8,311.8,1278.9,311.8z"/>
	</g>
	<g id="d-tag" class="st3">
		<path class="st1" d="M1437.3,298.8v6.9l-3,0.4c-0.4-0.3-0.8-1-1.2-2h-5.8v22.3c1.3,0.5,2.2,1,2.6,1.6l-0.5,4h-11.2l-0.5-4
			c0.4-0.5,1.3-1.1,2.6-1.6V304h-5.8c-0.4,1-0.8,1.7-1.2,2l-3-0.4v-6.9H1437.3z"/>
		<path class="st1" d="M1436.5,311.4c0-0.5,0-1,0-1.5c3-1.6,6.2-2.4,9.6-2.4c3.4,0,5.9,0.6,7.4,1.9c1.5,1.3,2.2,3.4,2.2,6.5v10.2
			c1.1,0.2,2,0.5,2.6,0.8v4.2c-1.6,0.8-4,1.2-7,1.2c-0.3-0.8-0.6-1.8-0.8-3c-1.4,2-3.9,3-7.5,3c-2.1,0-4-0.6-5.5-1.9
			c-1.5-1.2-2.3-2.9-2.3-5.1c0-2.1,0.7-3.8,2.1-5.1c1.4-1.2,3.5-1.8,6.4-1.8h5.2V316c0-2.5-1.3-3.7-4-3.7c-1,0-1.8,0.1-2.4,0.3
			c-0.1,1.3-0.3,2.4-0.6,3.1h-4.7C1436.7,314.6,1436.5,313.1,1436.5,311.4z M1445.1,327.3c1.6,0,2.9-0.5,3.9-1.4v-3.9h-3.4
			c-2.3,0-3.5,0.9-3.5,2.6c0,0.8,0.2,1.5,0.7,2C1443.4,327.1,1444.1,327.3,1445.1,327.3z"/>
		<path class="st1" d="M1477.8,329.8c-2.2,1.6-4.8,2.4-7.8,2.4s-5.1-0.6-6.3-1.9c-1.2-1.2-1.8-3.3-1.8-6.1v-11.1
			c-1.1-0.4-2-0.9-2.6-1.6l0.5-3.7c1.8-0.4,3.5-0.6,5-0.6s2.8,0,3.9,0.1v15.3c0,1.7,0.3,2.9,0.8,3.4c0.5,0.6,1.6,0.8,3.1,0.8
			c1.6,0,3-0.5,4.4-1.5v-12.2c-1.1-0.4-2-0.9-2.6-1.6l0.5-3.7c1.8-0.4,3.5-0.6,5-0.6s2.8,0,3.9,0.1v18.7c1.1,0.2,2,0.5,2.6,0.8v3.8
			c-1.9,1-4.3,1.5-7.2,1.5C1478.3,331.6,1477.8,330.8,1477.8,329.8z"/>
		<path class="st1" d="M1502.7,313.7c-2.4,0-4.1,0.5-5,1.4v11c2.6,0.5,4.4,1.2,5.3,2l-0.5,3.7h-13.7l-0.5-3.7
			c0.4-0.6,1.3-1.2,2.6-1.6v-13.3c-1.1-0.4-2-0.9-2.6-1.6l0.5-3.7c1.8-0.4,3.3-0.6,4.8-0.6c1.4,0,2.6,0,3.5,0.1v3
			c0.7-0.9,1.7-1.6,2.8-2.1c1.2-0.6,2.2-0.8,3.1-0.8c0.9,0,1.6,0.1,1.9,0.2l-0.1,6.2C1504.2,313.8,1503.5,313.7,1502.7,313.7z"/>
		<path class="st1" d="M1524.6,329.8c-2.2,1.6-4.8,2.4-7.8,2.4s-5.1-0.6-6.3-1.9c-1.2-1.2-1.8-3.3-1.8-6.1v-11.1
			c-1.1-0.4-2-0.9-2.6-1.6l0.5-3.7c1.8-0.4,3.5-0.6,5-0.6s2.8,0,3.9,0.1v15.3c0,1.7,0.3,2.9,0.8,3.4c0.5,0.6,1.6,0.8,3.1,0.8
			c1.6,0,3-0.5,4.4-1.5v-12.2c-1.1-0.4-2-0.9-2.6-1.6l0.5-3.7c1.8-0.4,3.5-0.6,5-0.6s2.8,0,3.9,0.1v18.7c1.1,0.2,2,0.5,2.6,0.8v3.8
			c-1.9,1-4.3,1.5-7.2,1.5C1525.1,331.6,1524.7,330.8,1524.6,329.8z"/>
		<path class="st1" d="M1544.7,311.8c-2.1,0-3.2,0.6-3.2,1.9c0,1.2,1.1,2.1,3.3,2.6l3.8,1c3.9,1,5.9,3.3,5.9,6.8
			c0,2.4-0.8,4.4-2.5,5.9c-1.7,1.5-4.4,2.3-8,2.3s-6.5-0.5-8.6-1.5c0-0.4,0-0.7,0-1.1c0-1.8,0.4-3.3,1.1-4.8h4
			c0.4,0.8,0.7,1.6,0.8,2.4c0.6,0.2,1.6,0.3,2.7,0.3c2.8,0,4.2-0.8,4.2-2.4c0-0.5-0.2-0.9-0.6-1.3s-1.1-0.7-2.3-1l-3.8-1.1
			c-2-0.5-3.5-1.4-4.6-2.4c-1.1-1.1-1.6-2.7-1.6-4.8c0-2.1,0.8-3.8,2.5-5.2c1.7-1.3,4.1-2,7.3-2c3.2,0,5.8,0.5,8,1.4
			c0,0.3,0,0.6,0,1c0,1.7-0.4,3.2-1.1,4.6h-3.9c-0.4-0.7-0.7-1.5-0.8-2.3C1546.5,311.9,1545.6,311.8,1544.7,311.8z"/>
	</g>
	<g id="e-tag" class="st3">
		<path class="st1" d="M1673.1,303.8c-2.2,0-3.9,0.8-5.1,2.5c-1.2,1.7-1.8,4.6-1.8,8.7c0,7.9,2.2,11.9,6.5,11.9
			c1.7,0,3.3-0.3,4.6-0.8v-5.4c-1.5-0.5-2.5-1.1-3-1.8l0.5-3.8h11.2l0.5,3.8c-0.4,0.5-1.2,1-2.3,1.5v8.9c-1.5,1.1-3.2,1.9-5.1,2.4
			c-1.8,0.5-4.1,0.7-6.9,0.7c-4.6,0-7.9-1.3-10.1-3.9c-2.1-2.6-3.2-6.8-3.2-12.7s1.3-10.2,3.8-13c2.5-2.8,6-4.2,10.5-4.2
			c4.4,0,8.1,1,10.9,3c0,0.2,0,0.6,0,1.1c0,0.5-0.1,1.5-0.3,2.8c-0.2,1.3-0.5,2.4-1,3.2h-4.4c-0.5-0.9-0.8-2.2-1-4
			C1676.2,304,1674.7,303.8,1673.1,303.8z"/>
		<path class="st1" d="M1700.1,332.2c-3.8,0-6.7-1-8.7-3.1c-1.9-2-2.9-5-2.9-8.9c0-2.4,0.3-4.4,1-6.1c0.7-1.7,1.6-3,2.7-4
			c2.2-1.8,4.8-2.7,7.8-2.7c3,0,5.3,0.8,6.8,2.3s2.4,4.2,2.4,8.2c0,2.3-1.1,3.5-3.4,3.5h-10.4c0.1,2,0.6,3.4,1.6,4.3
			c0.9,0.8,2.4,1.2,4.3,1.2c1.1,0,2.1-0.1,3.1-0.4c1-0.3,1.7-0.5,2.2-0.8l0.7-0.4l1.4,3.8c-0.2,0.2-0.5,0.5-0.8,0.8
			c-0.4,0.3-1.3,0.8-2.8,1.3C1703.7,331.9,1702,332.2,1700.1,332.2z M1703.2,317.1c0.1-0.4,0.1-1,0.1-1.6c0-0.6-0.3-1.3-0.8-2
			c-0.5-0.7-1.4-1.1-2.7-1.1c-1.3,0-2.2,0.4-2.9,1.2s-1.1,2.1-1.3,3.9L1703.2,317.1z"/>
		<path class="st1" d="M1712.3,307.8c1.8-0.4,3.3-0.6,4.8-0.6s2.6,0,3.5,0.1v2.4c0.8-0.6,1.7-1.2,2.9-1.6c1.2-0.4,2.2-0.7,3.1-0.7
			c3.6,0,6.1,0.9,7.3,2.7c0.8-0.8,1.9-1.4,3.2-1.9c1.3-0.5,2.5-0.8,3.6-0.8c3.5,0,5.9,0.8,7.1,2.4c1.2,1.6,1.8,4.6,1.8,8.9v7.8
			c1.2,0.5,2.1,1,2.6,1.6l-0.5,3.7h-11l-0.5-3.7c0.4-0.6,1.3-1.2,2.6-1.6V317c0-1.8-0.2-2.9-0.7-3.5c-0.5-0.6-1.4-0.9-2.9-0.9
			s-2.8,0.5-4.1,1.6c0.2,1.1,0.2,2.6,0.2,4.5v7.8c1.2,0.5,2.1,1,2.6,1.6l-0.5,3.7h-11l-0.5-3.7c0.4-0.6,1.3-1.2,2.6-1.6V317
			c0-1.8-0.2-2.9-0.7-3.5c-0.5-0.6-1.4-0.9-2.8-0.9s-2.8,0.5-4,1.5v12.3c1.2,0.5,2.1,1,2.6,1.6l-0.5,3.7h-11l-0.5-3.7
			c0.4-0.6,1.3-1.2,2.6-1.6v-13.3c-1.1-0.4-2-0.9-2.6-1.6L1712.3,307.8z"/>
		<path class="st1" d="M1754.3,307.8c1.8-0.4,3.3-0.6,4.8-0.6c1.4,0,2.6,0,3.5,0.1v2.4c0.8-0.7,1.9-1.2,3.2-1.7
			c1.3-0.4,2.6-0.6,3.8-0.6c3.1,0,5.3,0.7,6.6,2.2c1.3,1.5,1.9,4,1.9,7.6v9.2c1.2,0.5,2.1,1,2.6,1.6l-0.5,3.7h-11l-0.5-3.7
			c0.4-0.6,1.3-1.2,2.6-1.6V317c0-1.7-0.3-2.9-0.8-3.5c-0.6-0.6-1.6-0.9-3-0.9c-1.4,0-2.9,0.5-4.3,1.5v12.3c1.2,0.5,2.1,1,2.6,1.6
			l-0.5,3.7h-11l-0.5-3.7c0.4-0.6,1.3-1.2,2.6-1.6v-13.3c-1.1-0.4-2-0.9-2.6-1.6L1754.3,307.8z"/>
		<path class="st1" d="M1783,307.8c1.8-0.4,3.5-0.6,5-0.6s2.8,0,3.9,0.1v19.2c1.2,0.5,2.1,1,2.6,1.6l-0.5,3.7h-11l-0.5-3.7
			c0.4-0.6,1.3-1.2,2.6-1.6v-13.3c-1.1-0.4-2-0.9-2.6-1.6L1783,307.8z M1788.4,304.5c-2.7,0-4-1.2-4-3.6s1.3-3.6,4-3.6s4,1.2,4,3.6
			S1791.1,304.5,1788.4,304.5z"/>
	</g>
	<g id="f-tag" class="st3">
		<path class="st1" d="M1895.9,304.4c-1-0.4-2.4-0.6-4.3-0.6s-3.5,0.8-4.7,2.5c-1.2,1.7-1.8,4.6-1.8,8.7s0.6,7.1,1.7,8.9
			c1.1,1.7,2.8,2.6,5.1,2.6c3.4,0,6.5-0.5,9.2-1.5l1.7,4.3c-3.4,2-7.4,3-12,3c-4.6,0-7.9-1.3-9.9-3.9c-2-2.6-3-6.8-3-12.7
			s1.3-10.2,3.8-13.1c2.5-2.8,6-4.2,10.6-4.2c3.6,0,7.1,1,10.4,3c0,0.2,0,0.6,0,1.1c0,0.5-0.1,1.5-0.3,2.8c-0.2,1.3-0.5,2.4-1,3.2
			h-4.6C1896.4,307.6,1896.1,306.2,1895.9,304.4z"/>
		<path class="st1" d="M1906,311.4c0-0.5,0-1,0-1.5c3-1.6,6.2-2.4,9.6-2.4c3.4,0,5.9,0.6,7.4,1.9c1.5,1.3,2.2,3.4,2.2,6.5v10.2
			c1.1,0.2,2,0.5,2.6,0.8v4.2c-1.6,0.8-4,1.2-7,1.2c-0.3-0.8-0.6-1.8-0.8-3c-1.4,2-3.9,3-7.5,3c-2.1,0-4-0.6-5.5-1.9
			c-1.5-1.2-2.3-2.9-2.3-5.1c0-2.1,0.7-3.8,2.1-5.1c1.4-1.2,3.5-1.8,6.4-1.8h5.2V316c0-2.5-1.3-3.7-4-3.7c-1,0-1.8,0.1-2.4,0.3
			c-0.1,1.3-0.3,2.4-0.6,3.1h-4.7C1906.3,314.6,1906,313.1,1906,311.4z M1914.7,327.3c1.6,0,2.9-0.5,3.9-1.4v-3.9h-3.4
			c-2.3,0-3.5,0.9-3.5,2.6c0,0.8,0.2,1.5,0.7,2C1913,327.1,1913.7,327.3,1914.7,327.3z"/>
		<path class="st1" d="M1930.1,307.8c1.8-0.4,3.3-0.6,4.8-0.6c1.4,0,2.6,0,3.5,0.1v2.4c0.8-0.7,1.9-1.2,3.2-1.7
			c1.3-0.4,2.6-0.6,3.8-0.6c3.1,0,5.3,0.7,6.6,2.2c1.3,1.5,1.9,4,1.9,7.6v9.2c1.2,0.5,2.1,1,2.6,1.6l-0.5,3.7h-11l-0.5-3.7
			c0.4-0.6,1.3-1.2,2.6-1.6V317c0-1.7-0.3-2.9-0.8-3.5c-0.6-0.6-1.6-0.9-3-0.9c-1.4,0-2.9,0.5-4.3,1.5v12.3c1.2,0.5,2.1,1,2.6,1.6
			l-0.5,3.7h-11l-0.5-3.7c0.4-0.6,1.3-1.2,2.6-1.6v-13.3c-1.1-0.4-2-0.9-2.6-1.6L1930.1,307.8z"/>
		<path class="st1" d="M1969.5,312.3c-2.9,0-4.4,2.5-4.4,7.6c0,2.6,0.4,4.3,1.2,5.4c0.8,1,2,1.5,3.5,1.5c2.4,0,4.6-0.2,6.4-0.7
			l1.4,3.7c-1,0.7-2.4,1.2-4.1,1.7c-1.7,0.5-3.4,0.7-5,0.7c-6.9,0-10.4-4-10.4-12c0-4.7,1.2-8,3.6-10.1c2.1-1.8,4.8-2.7,7.8-2.7
			c3.1,0,5.6,0.6,7.7,1.7c0,0.3,0,0.6,0,0.9c0,1.8-0.4,3.6-1.2,5.2h-4.2c-0.4-0.8-0.7-1.8-0.8-2.9
			C1970.7,312.4,1970.1,312.3,1969.5,312.3z"/>
		<path class="st1" d="M1991.3,332.2c-3.8,0-6.7-1-8.7-3.1c-1.9-2-2.9-5-2.9-8.9c0-2.4,0.3-4.4,1-6.1c0.7-1.7,1.6-3,2.7-4
			c2.2-1.8,4.8-2.7,7.8-2.7c3,0,5.3,0.8,6.8,2.3s2.4,4.2,2.4,8.2c0,2.3-1.1,3.5-3.4,3.5h-10.4c0.1,2,0.6,3.4,1.6,4.3
			c0.9,0.8,2.4,1.2,4.3,1.2c1.1,0,2.1-0.1,3.1-0.4c1-0.3,1.7-0.5,2.2-0.8l0.7-0.4l1.4,3.8c-0.2,0.2-0.5,0.5-0.8,0.8
			c-0.4,0.3-1.3,0.8-2.8,1.3C1994.9,331.9,1993.2,332.2,1991.3,332.2z M1994.4,317.1c0.1-0.4,0.1-1,0.1-1.6c0-0.6-0.3-1.3-0.8-2
			s-1.4-1.1-2.7-1.1c-1.3,0-2.2,0.4-2.9,1.2c-0.7,0.8-1.1,2.1-1.3,3.9L1994.4,317.1z"/>
		<path class="st1" d="M2017.4,313.7c-2.4,0-4.1,0.5-5,1.4v11c2.6,0.5,4.4,1.2,5.3,2l-0.5,3.7h-13.7l-0.5-3.7
			c0.4-0.6,1.3-1.2,2.6-1.6v-13.3c-1.1-0.4-2-0.9-2.6-1.6l0.5-3.7c1.8-0.4,3.3-0.6,4.8-0.6s2.6,0,3.5,0.1v3c0.7-0.9,1.7-1.6,2.8-2.1
			c1.2-0.6,2.2-0.8,3.1-0.8c0.9,0,1.6,0.1,1.9,0.2l-0.1,6.2C2018.9,313.8,2018.2,313.7,2017.4,313.7z"/>
	</g>
	<g id="l-tag" class="st3">
		<path class="st1" d="M920.4,498.5c-1-0.4-2.4-0.6-4.3-0.6c-1.9,0-3.5,0.8-4.7,2.5c-1.2,1.7-1.8,4.6-1.8,8.7s0.6,7.1,1.7,8.9
			c1.1,1.7,2.8,2.6,5.1,2.6c3.4,0,6.5-0.5,9.2-1.5l1.7,4.3c-3.4,2-7.4,3-12,3c-4.6,0-7.9-1.3-9.9-3.9c-2-2.6-3-6.8-3-12.7
			s1.3-10.2,3.8-13.1c2.5-2.8,6-4.2,10.6-4.2c3.6,0,7.1,1,10.4,3c0,0.2,0,0.6,0,1.1c0,0.5-0.1,1.5-0.3,2.8c-0.2,1.3-0.5,2.4-1,3.2
			h-4.6C920.9,501.8,920.6,500.4,920.4,498.5z"/>
		<path class="st1" d="M930.6,505.6c0-0.5,0-1,0-1.5c3-1.6,6.2-2.4,9.6-2.4c3.4,0,5.9,0.6,7.4,1.9c1.5,1.3,2.2,3.4,2.2,6.5v10.2
			c1.1,0.2,2,0.5,2.6,0.8v4.2c-1.6,0.8-4,1.2-7,1.2c-0.3-0.8-0.6-1.8-0.8-3c-1.4,2-3.9,3-7.5,3c-2.1,0-4-0.6-5.5-1.9
			c-1.5-1.2-2.3-2.9-2.3-5.1c0-2.1,0.7-3.8,2.1-5.1c1.4-1.2,3.5-1.8,6.4-1.8h5.2v-2.3c0-2.5-1.3-3.7-4-3.7c-1,0-1.8,0.1-2.4,0.3
			c-0.1,1.3-0.3,2.4-0.6,3.1h-4.7C930.9,508.8,930.6,507.3,930.6,505.6z M939.2,521.5c1.6,0,2.9-0.5,3.9-1.4v-3.9h-3.4
			c-2.3,0-3.5,0.9-3.5,2.6c0,0.8,0.2,1.5,0.7,2C937.5,521.2,938.3,521.5,939.2,521.5z"/>
		<path class="st1" d="M954.1,502c1.8-0.4,3.3-0.6,4.8-0.6c1.4,0,2.6,0,3.5,0.1v2.4c2.1-1.5,4.4-2.3,6.9-2.3c3.2,0,5.5,0.9,7,2.7
			c1.4,1.8,2.2,4.9,2.2,9.1c0,2.3-0.3,4.3-1,6c-0.7,1.7-1.6,3.1-2.7,4c-2.2,1.9-4.8,2.9-7.9,2.9c-1.3,0-2.6-0.1-3.7-0.4v4.1
			c1.9,0.5,3.1,1.1,3.6,1.8l-0.5,3.7h-12l-0.5-3.7c0.4-0.6,1.3-1.1,2.6-1.6v-22.9c-1.1-0.4-2-0.9-2.6-1.6L954.1,502z M966.3,521.5
			c1.6,0,2.9-0.7,3.8-2.1c0.9-1.4,1.4-3.4,1.4-5.9c0-2.5-0.3-4.2-0.8-5.2c-0.5-0.9-1.4-1.4-2.8-1.4c-2,0-3.7,0.5-4.9,1.4v12.8
			C964,521.4,965.1,521.5,966.3,521.5z"/>
		<path class="st1" d="M995.3,507.9c-2.4,0-4.1,0.5-5,1.4v11c2.6,0.5,4.4,1.2,5.3,2l-0.5,3.7h-13.7l-0.5-3.7
			c0.4-0.6,1.3-1.2,2.6-1.6v-13.3c-1.1-0.4-2-0.9-2.6-1.6l0.5-3.7c1.8-0.4,3.3-0.6,4.8-0.6c1.4,0,2.6,0,3.5,0.1v3
			c0.7-0.9,1.7-1.6,2.8-2.1s2.2-0.8,3.1-0.8c0.9,0,1.6,0.1,1.9,0.2l-0.1,6.2C996.8,508,996.1,507.9,995.3,507.9z"/>
		<path class="st1" d="M1000.1,502c1.8-0.4,3.5-0.6,5-0.6s2.8,0,3.9,0.1v19.2c1.2,0.5,2.1,1,2.6,1.6l-0.5,3.7h-11l-0.5-3.7
			c0.4-0.6,1.3-1.2,2.6-1.6v-13.3c-1.1-0.4-2-0.9-2.6-1.6L1000.1,502z M1005.5,498.7c-2.7,0-4-1.2-4-3.6s1.3-3.6,4-3.6
			c2.7,0,4,1.2,4,3.6S1008.2,498.7,1005.5,498.7z"/>
		<path class="st1" d="M1024.8,506.5c-2.9,0-4.4,2.5-4.4,7.6c0,2.6,0.4,4.3,1.2,5.4s2,1.5,3.5,1.5c2.4,0,4.6-0.2,6.4-0.7l1.4,3.7
			c-1,0.7-2.4,1.2-4.1,1.7c-1.7,0.5-3.4,0.7-5,0.7c-6.9,0-10.4-4-10.4-12c0-4.7,1.2-8,3.6-10.1c2.1-1.8,4.8-2.7,7.8-2.7
			c3.1,0,5.6,0.6,7.7,1.7c0,0.3,0,0.6,0,0.9c0,1.8-0.4,3.6-1.2,5.2h-4.2c-0.4-0.8-0.7-1.8-0.8-2.9
			C1026,506.5,1025.4,506.5,1024.8,506.5z"/>
		<path class="st1" d="M1046,526.4c-3.8,0-6.6-1-8.4-3c-1.8-2-2.7-5.1-2.7-9.1s1-7.2,3-9.4c2-2.2,5-3.2,8.8-3.2s6.6,1,8.5,2.9
			c1.8,1.9,2.8,4.9,2.8,9s-1,7.2-3.1,9.5S1049.8,526.4,1046,526.4z M1041.8,513.8c0,5.1,1.5,7.7,4.6,7.7c1.6,0,2.7-0.6,3.5-1.8
			c0.8-1.2,1.1-3.1,1.1-5.7c0-5-1.6-7.5-4.7-7.5c-1.5,0-2.7,0.6-3.4,1.7C1042.2,509.3,1041.8,511.2,1041.8,513.8z"/>
		<path class="st1" d="M1074.8,507.9c-2.4,0-4.1,0.5-5,1.4v11c2.6,0.5,4.4,1.2,5.3,2l-0.5,3.7h-13.7l-0.5-3.7
			c0.4-0.6,1.3-1.2,2.6-1.6v-13.3c-1.1-0.4-2-0.9-2.6-1.6l0.5-3.7c1.8-0.4,3.3-0.6,4.8-0.6c1.4,0,2.6,0,3.5,0.1v3
			c0.7-0.9,1.7-1.6,2.8-2.1s2.2-0.8,3.1-0.8c0.9,0,1.6,0.1,1.9,0.2l-0.1,6.2C1076.2,508,1075.5,507.9,1074.8,507.9z"/>
		<path class="st1" d="M1079.5,502c1.8-0.4,3.3-0.6,4.8-0.6c1.4,0,2.6,0,3.5,0.1v2.4c0.8-0.7,1.9-1.2,3.2-1.7
			c1.3-0.4,2.6-0.6,3.8-0.6c3.1,0,5.3,0.7,6.6,2.2s1.9,4,1.9,7.6v9.2c1.2,0.5,2.1,1,2.6,1.6l-0.5,3.7h-11l-0.5-3.7
			c0.4-0.6,1.3-1.2,2.6-1.6v-9.5c0-1.7-0.3-2.9-0.8-3.5c-0.6-0.6-1.6-0.9-3-0.9c-1.4,0-2.9,0.5-4.3,1.5v12.3c1.2,0.5,2.1,1,2.6,1.6
			l-0.5,3.7h-11l-0.5-3.7c0.4-0.6,1.3-1.2,2.6-1.6v-13.3c-1.1-0.4-2-0.9-2.6-1.6L1079.5,502z"/>
	</g>
	<g id="h-tag" class="st3">
		<path class="st1" d="M1903.2,526.2l-9.1-27.7c-1.4-0.5-2.3-1.1-2.7-1.6l0.5-4h11.2l0.5,4c-0.4,0.6-1.3,1.1-2.4,1.5l4.1,14.2
			c0.7,2.2,1.1,4.2,1.2,6.1l0,0.8h0.7c0-2,0.4-4.2,1.2-6.8l4.3-14.3c-1.2-0.4-2.1-0.9-2.5-1.6l0.5-4h10.9l0.5,4
			c-0.6,0.7-1.6,1.3-3.2,1.8l-9,27.6H1903.2z"/>
		<path class="st1" d="M1923.5,502c1.8-0.4,3.5-0.6,5-0.6s2.8,0,3.9,0.1v19.2c1.2,0.5,2.1,1,2.6,1.6l-0.5,3.7h-11l-0.5-3.7
			c0.4-0.6,1.3-1.2,2.6-1.6v-13.3c-1.1-0.4-2-0.9-2.6-1.6L1923.5,502z M1928.9,498.7c-2.7,0-4-1.2-4-3.6s1.3-3.6,4-3.6s4,1.2,4,3.6
			S1931.6,498.7,1928.9,498.7z"/>
		<path class="st1" d="M1951.3,507.9c-2.4,0-4.1,0.5-5,1.4v11c2.6,0.5,4.4,1.2,5.3,2l-0.5,3.7h-13.7l-0.5-3.7
			c0.4-0.6,1.3-1.2,2.6-1.6v-13.3c-1.1-0.4-2-0.9-2.6-1.6l0.5-3.7c1.8-0.4,3.3-0.6,4.8-0.6s2.6,0,3.5,0.1v3c0.7-0.9,1.7-1.6,2.8-2.1
			c1.2-0.6,2.2-0.8,3.1-0.8c0.9,0,1.6,0.1,1.9,0.2l-0.1,6.2C1952.8,508,1952.1,507.9,1951.3,507.9z"/>
		<path class="st1" d="M1966.6,531.1c2.8,0,4.3-1.7,4.3-5.1v-2.1c-1.6,1-3.5,1.4-5.9,1.4c-3,0-5.3-0.9-6.9-2.6
			c-1.6-1.8-2.4-4.7-2.4-8.8c0-8.2,3.7-12.2,11.2-12.2c1.9,0,3.7,0.4,5.4,1.2c0.3-0.6,0.8-0.9,1.4-0.9h3.9v23.6
			c0,3.5-0.9,6.1-2.6,7.8c-1.7,1.7-4.4,2.5-8.1,2.5c-1.9,0-3.9-0.2-6-0.7s-3.6-1-4.7-1.7c0-0.3,0-0.6,0-0.9c0-1.8,0.4-3.5,1.2-5.1
			h4.2c0.4,0.7,0.6,1.6,0.8,2.7C1963.7,530.8,1965.1,531.1,1966.6,531.1z M1963.2,518.6c0.7,1,1.8,1.4,3.4,1.4s3-0.4,4.3-1.3v-11.4
			c-1.3-0.5-2.7-0.8-4.2-0.8c-3,0-4.5,2.4-4.5,7.1C1962.2,516,1962.6,517.6,1963.2,518.6z"/>
		<path class="st1" d="M1992.3,526.4c-3.8,0-6.6-1-8.4-3c-1.8-2-2.7-5.1-2.7-9.1s1-7.2,3-9.4c2-2.2,5-3.2,8.8-3.2
			c3.8,0,6.6,1,8.5,2.9s2.8,4.9,2.8,9s-1,7.2-3.1,9.5C1999.1,525.3,1996.1,526.4,1992.3,526.4z M1988.1,513.8c0,5.1,1.5,7.7,4.6,7.7
			c1.6,0,2.7-0.6,3.5-1.8c0.8-1.2,1.1-3.1,1.1-5.7c0-5-1.6-7.5-4.7-7.5c-1.5,0-2.7,0.6-3.4,1.7
			C1988.5,509.3,1988.1,511.2,1988.1,513.8z"/>
	</g>
	<g id="g-tag" class="st3">
		<path class="st1" d="M753.3,526h-22l-0.5-4c0.4-0.5,1.3-1.1,2.6-1.6v-21.9c-1.3-0.5-2.2-1-2.6-1.6l0.5-4h11.2l0.5,4
			c-0.5,0.6-1.4,1.2-2.6,1.6v22.3h7.6c0.4-1.7,1-2.8,1.8-3.6l3.6,0.4V526z"/>
		<path class="st1" d="M766.2,526.4c-3.8,0-6.7-1-8.7-3.1c-1.9-2-2.9-5-2.9-8.9c0-2.4,0.3-4.4,1-6.1c0.7-1.7,1.6-3,2.7-4
			c2.2-1.8,4.8-2.7,7.8-2.7s5.3,0.8,6.8,2.3s2.4,4.2,2.4,8.2c0,2.3-1.1,3.5-3.4,3.5h-10.4c0.1,2,0.6,3.4,1.6,4.3
			c0.9,0.8,2.4,1.2,4.3,1.2c1.1,0,2.1-0.1,3.1-0.4c1-0.3,1.7-0.5,2.2-0.8l0.7-0.4l1.4,3.8c-0.2,0.2-0.5,0.5-0.8,0.8
			c-0.4,0.3-1.3,0.8-2.8,1.3S768.1,526.4,766.2,526.4z M769.2,511.3c0.1-0.4,0.1-1,0.1-1.6c0-0.6-0.3-1.3-0.8-2
			c-0.5-0.7-1.4-1.1-2.7-1.1c-1.3,0-2.2,0.4-2.9,1.2c-0.7,0.8-1.1,2.1-1.3,3.9L769.2,511.3z"/>
		<path class="st1" d="M788.9,526.4c-3.8,0-6.6-1-8.4-3c-1.8-2-2.7-5.1-2.7-9.1s1-7.2,3-9.4c2-2.2,5-3.2,8.8-3.2s6.6,1,8.5,2.9
			c1.8,1.9,2.8,4.9,2.8,9s-1,7.2-3.1,9.5S792.7,526.4,788.9,526.4z M784.7,513.8c0,5.1,1.5,7.7,4.6,7.7c1.6,0,2.7-0.6,3.5-1.8
			c0.8-1.2,1.1-3.1,1.1-5.7c0-5-1.6-7.5-4.7-7.5c-1.5,0-2.7,0.6-3.4,1.7C785.1,509.3,784.7,511.2,784.7,513.8z"/>
	</g>
	<g id="i-tag" class="st3">
		<path class="st1" d="M1205.8,526h-22l-0.5-4c0.4-0.5,1.3-1.1,2.6-1.6v-21.9c-1.3-0.5-2.2-1-2.6-1.6l0.5-4h11.2l0.5,4
			c-0.5,0.6-1.4,1.2-2.6,1.6v22.3h7.6c0.4-1.7,1-2.8,1.8-3.6l3.6,0.4V526z"/>
		<path class="st1" d="M1207.8,502c1.8-0.4,3.5-0.6,5-0.6s2.8,0,3.9,0.1v19.2c1.2,0.5,2.1,1,2.6,1.6l-0.5,3.7h-11l-0.5-3.7
			c0.4-0.6,1.3-1.2,2.6-1.6v-13.3c-1.1-0.4-2-0.9-2.6-1.6L1207.8,502z M1213.2,498.7c-2.7,0-4-1.2-4-3.6s1.3-3.6,4-3.6
			c2.7,0,4,1.2,4,3.6S1215.9,498.7,1213.2,498.7z"/>
		<path class="st1" d="M1220.2,491.9c1.8-0.4,3.5-0.6,5-0.6s2.8,0,3.9,0.1v12c0.7-0.5,1.6-0.9,2.7-1.3c1.1-0.4,2.2-0.6,3.2-0.6
			c3.5,0,5.9,0.9,7.3,2.7c1.4,1.8,2.1,4.8,2.1,9.2c0,2.4-0.3,4.5-1,6.2c-0.7,1.7-1.5,3.1-2.7,4c-2.1,1.8-4.6,2.7-7.5,2.7
			c-2.2,0-4.3-0.5-6.4-1.6c-0.6,0.8-1.3,1.2-2.1,1.2h-2.4v-28.8c-1.1-0.4-2-0.9-2.6-1.6L1220.2,491.9z M1232.9,521.5
			c3.1,0,4.6-2.6,4.6-7.7c0-2.7-0.3-4.6-0.8-5.5c-0.5-1-1.4-1.5-2.8-1.5c-2,0-3.6,0.5-4.9,1.6v12.3
			C1230.4,521.2,1231.7,521.5,1232.9,521.5z"/>
		<path class="st1" d="M1261.4,507.9c-2.4,0-4.1,0.5-5,1.4v11c2.6,0.5,4.4,1.2,5.3,2l-0.5,3.7h-13.7l-0.5-3.7
			c0.4-0.6,1.3-1.2,2.6-1.6v-13.3c-1.1-0.4-2-0.9-2.6-1.6l0.5-3.7c1.8-0.4,3.3-0.6,4.8-0.6c1.4,0,2.6,0,3.5,0.1v3
			c0.7-0.9,1.7-1.6,2.8-2.1s2.2-0.8,3.1-0.8c0.9,0,1.6,0.1,1.9,0.2l-0.1,6.2C1262.8,508,1262.1,507.9,1261.4,507.9z"/>
		<path class="st1" d="M1266.6,505.6c0-0.5,0-1,0-1.5c3-1.6,6.2-2.4,9.6-2.4c3.4,0,5.9,0.6,7.4,1.9c1.5,1.3,2.2,3.4,2.2,6.5v10.2
			c1.1,0.2,2,0.5,2.6,0.8v4.2c-1.6,0.8-4,1.2-7,1.2c-0.3-0.8-0.6-1.8-0.8-3c-1.4,2-3.9,3-7.5,3c-2.1,0-4-0.6-5.5-1.9
			c-1.5-1.2-2.3-2.9-2.3-5.1c0-2.1,0.7-3.8,2.1-5.1c1.4-1.2,3.5-1.8,6.4-1.8h5.2v-2.3c0-2.5-1.3-3.7-4-3.7c-1,0-1.8,0.1-2.4,0.3
			c-0.1,1.3-0.3,2.4-0.6,3.1h-4.7C1266.8,508.8,1266.6,507.3,1266.6,505.6z M1275.2,521.5c1.6,0,2.9-0.5,3.9-1.4v-3.9h-3.4
			c-2.3,0-3.5,0.9-3.5,2.6c0,0.8,0.2,1.5,0.7,2C1273.5,521.2,1274.2,521.5,1275.2,521.5z"/>
	</g>
	<g id="k-tag" class="st3">
		<path class="st1" d="M1626.3,498.1c-1.1-0.3-2.2-0.4-3.4-0.4c-1.2,0-2.1,0.3-2.9,0.9s-1.1,1.4-1.1,2.5s0.3,1.9,0.8,2.5
			c0.5,0.6,1.6,1.1,3.2,1.6l4.3,1.2c2.3,0.7,4.1,1.7,5.5,3.1c1.4,1.4,2,3.5,2,6.3c0,3.3-1.2,5.8-3.5,7.7c-2.4,1.9-5.3,2.8-8.8,2.8
			c-1.9,0-3.9-0.2-5.9-0.7c-2-0.5-3.7-1.2-5.1-2.1c0-0.2,0-0.6,0-1.1s0.1-1.5,0.3-2.8c0.2-1.3,0.5-2.4,1-3.2h4.6
			c0.5,1,0.8,2.3,0.9,4c1.1,0.5,2.4,0.7,3.9,0.7s2.7-0.4,3.7-1.1c1-0.7,1.4-1.7,1.4-3c0-0.6,0-1.1-0.1-1.5c-0.1-0.4-0.4-0.8-0.9-1.3
			c-0.5-0.5-1.2-0.8-2.1-1.1l-4.9-1.4c-5-1.4-7.5-4.6-7.5-9.6c0-2.9,1.1-5.2,3.2-7s4.9-2.6,8.3-2.6s6.7,0.8,10,2.3
			c0,0.2,0,0.6,0,1.1s-0.1,1.5-0.3,2.8c-0.2,1.3-0.5,2.4-1,3.2h-4.6C1626.7,501.1,1626.4,499.9,1626.3,498.1z"/>
		<path class="st1" d="M1638,505.6c0-0.5,0-1,0-1.5c3-1.6,6.2-2.4,9.6-2.4c3.4,0,5.9,0.6,7.4,1.9c1.5,1.3,2.2,3.4,2.2,6.5v10.2
			c1.1,0.2,2,0.5,2.6,0.8v4.2c-1.6,0.8-4,1.2-7,1.2c-0.3-0.8-0.6-1.8-0.8-3c-1.4,2-3.9,3-7.5,3c-2.1,0-4-0.6-5.5-1.9
			c-1.5-1.2-2.3-2.9-2.3-5.1c0-2.1,0.7-3.8,2.1-5.1c1.4-1.2,3.5-1.8,6.4-1.8h5.2v-2.3c0-2.5-1.3-3.7-4-3.7c-1,0-1.8,0.1-2.4,0.3
			c-0.1,1.3-0.3,2.4-0.6,3.1h-4.7C1638.2,508.8,1638,507.3,1638,505.6z M1646.6,521.5c1.6,0,2.9-0.5,3.9-1.4v-3.9h-3.4
			c-2.3,0-3.5,0.9-3.5,2.6c0,0.8,0.2,1.5,0.7,2C1644.9,521.2,1645.7,521.5,1646.6,521.5z"/>
		<path class="st1" d="M1672.6,531.1c2.8,0,4.3-1.7,4.3-5.1v-2.1c-1.6,1-3.5,1.4-5.9,1.4c-3,0-5.3-0.9-6.9-2.6
			c-1.6-1.8-2.4-4.7-2.4-8.8c0-8.2,3.7-12.2,11.2-12.2c1.9,0,3.7,0.4,5.4,1.2c0.3-0.6,0.8-0.9,1.4-0.9h3.9v23.6
			c0,3.5-0.9,6.1-2.6,7.8c-1.7,1.7-4.4,2.5-8.1,2.5c-1.9,0-3.9-0.2-6-0.7c-2-0.4-3.6-1-4.7-1.7c0-0.3,0-0.6,0-0.9
			c0-1.8,0.4-3.5,1.2-5.1h4.2c0.4,0.7,0.6,1.6,0.8,2.7C1669.7,530.8,1671.1,531.1,1672.6,531.1z M1669.2,518.6
			c0.7,1,1.8,1.4,3.4,1.4s3-0.4,4.3-1.3v-11.4c-1.3-0.5-2.7-0.8-4.2-0.8c-3,0-4.5,2.4-4.5,7.1C1668.3,516,1668.6,517.6,1669.2,518.6
			z"/>
		<path class="st1" d="M1687.8,502c1.8-0.4,3.5-0.6,5-0.6s2.8,0,3.9,0.1v19.2c1.2,0.5,2.1,1,2.6,1.6l-0.5,3.7h-11l-0.5-3.7
			c0.4-0.6,1.3-1.2,2.6-1.6v-13.3c-1.1-0.4-2-0.9-2.6-1.6L1687.8,502z M1693.3,498.7c-2.7,0-4-1.2-4-3.6s1.3-3.6,4-3.6s4,1.2,4,3.6
			S1696,498.7,1693.3,498.7z"/>
		<path class="st1" d="M1710,496v6h6.9v4h-6.9v12.1c0,1,0.1,1.8,0.4,2.2s1,0.7,2.1,0.7s2.3-0.2,3.5-0.7l1.4,3.7
			c-2.5,1.2-5,1.9-7.6,1.9s-4.3-0.6-5.2-1.7c-0.9-1.1-1.4-2.7-1.4-4.8V506h-2.2l-0.5-2.9c0.5-0.6,1.6-1.2,3.2-1.8
			c0.4-2.6,1.3-4.4,2.7-5.3H1710z"/>
		<path class="st1" d="M1727.9,496v6h6.9v4h-6.9v12.1c0,1,0.1,1.8,0.4,2.2s1,0.7,2.1,0.7s2.3-0.2,3.5-0.7l1.4,3.7
			c-2.5,1.2-5,1.9-7.6,1.9s-4.3-0.6-5.2-1.7c-0.9-1.1-1.4-2.7-1.4-4.8V506h-2.2l-0.5-2.9c0.5-0.6,1.6-1.2,3.2-1.8
			c0.4-2.6,1.3-4.4,2.7-5.3H1727.9z"/>
		<path class="st1" d="M1738,505.6c0-0.5,0-1,0-1.5c3-1.6,6.2-2.4,9.6-2.4s5.9,0.6,7.4,1.9c1.5,1.3,2.2,3.4,2.2,6.5v10.2
			c1.1,0.2,2,0.5,2.6,0.8v4.2c-1.6,0.8-4,1.2-7,1.2c-0.3-0.8-0.6-1.8-0.8-3c-1.4,2-3.9,3-7.5,3c-2.1,0-4-0.6-5.5-1.9
			c-1.5-1.2-2.3-2.9-2.3-5.1c0-2.1,0.7-3.8,2.1-5.1s3.5-1.8,6.4-1.8h5.2v-2.3c0-2.5-1.3-3.7-4-3.7c-1,0-1.8,0.1-2.4,0.3
			c-0.1,1.3-0.3,2.4-0.6,3.1h-4.7C1738.2,508.8,1738,507.3,1738,505.6z M1746.6,521.5c1.6,0,2.9-0.5,3.9-1.4v-3.9h-3.4
			c-2.3,0-3.5,0.9-3.5,2.6c0,0.8,0.2,1.5,0.7,2C1744.9,521.2,1745.6,521.5,1746.6,521.5z"/>
		<path class="st1" d="M1776,507.9c-2.4,0-4.1,0.5-5,1.4v11c2.6,0.5,4.4,1.2,5.3,2l-0.5,3.7h-13.7l-0.5-3.7c0.4-0.6,1.3-1.2,2.6-1.6
			v-13.3c-1.1-0.4-2-0.9-2.6-1.6l0.5-3.7c1.8-0.4,3.3-0.6,4.8-0.6s2.6,0,3.5,0.1v3c0.7-0.9,1.7-1.6,2.8-2.1c1.2-0.6,2.2-0.8,3.1-0.8
			c0.9,0,1.6,0.1,1.9,0.2l-0.1,6.2C1777.4,508,1776.7,507.9,1776,507.9z"/>
		<path class="st1" d="M1780.8,502c1.8-0.4,3.5-0.6,5-0.6s2.8,0,3.9,0.1v19.2c1.2,0.5,2.1,1,2.6,1.6l-0.5,3.7h-11l-0.5-3.7
			c0.4-0.6,1.3-1.2,2.6-1.6v-13.3c-1.1-0.4-2-0.9-2.6-1.6L1780.8,502z M1786.2,498.7c-2.7,0-4-1.2-4-3.6s1.3-3.6,4-3.6s4,1.2,4,3.6
			S1788.9,498.7,1786.2,498.7z"/>
		<path class="st1" d="M1811.9,524c-2.2,1.6-4.8,2.4-7.8,2.4c-3,0-5.1-0.6-6.3-1.9s-1.8-3.3-1.8-6.1v-11.1c-1.1-0.4-2-0.9-2.6-1.6
			l0.5-3.7c1.8-0.4,3.5-0.6,5-0.6c1.5,0,2.8,0,3.9,0.1v15.3c0,1.7,0.3,2.9,0.8,3.4c0.5,0.6,1.6,0.8,3.1,0.8c1.6,0,3-0.5,4.4-1.5
			v-12.2c-1.1-0.4-2-0.9-2.6-1.6l0.5-3.7c1.8-0.4,3.5-0.6,5-0.6s2.8,0,3.9,0.1v18.7c1.1,0.2,2,0.5,2.6,0.8v3.8
			c-1.9,1-4.3,1.5-7.2,1.5C1812.4,525.8,1812,525,1811.9,524z"/>
		<path class="st1" d="M1832,505.9c-2.1,0-3.2,0.6-3.2,1.9c0,1.2,1.1,2.1,3.3,2.6l3.8,1c3.9,1,5.9,3.3,5.9,6.8
			c0,2.4-0.8,4.4-2.5,5.9c-1.7,1.5-4.4,2.3-8,2.3s-6.5-0.5-8.6-1.5c0-0.4,0-0.7,0-1.1c0-1.8,0.4-3.3,1.1-4.8h4
			c0.4,0.8,0.7,1.6,0.8,2.4c0.6,0.2,1.6,0.3,2.7,0.3c2.8,0,4.2-0.8,4.2-2.4c0-0.5-0.2-0.9-0.6-1.3s-1.1-0.7-2.3-1l-3.8-1.1
			c-2-0.5-3.5-1.4-4.6-2.4c-1.1-1.1-1.6-2.7-1.6-4.8c0-2.1,0.8-3.8,2.5-5.2c1.7-1.3,4.1-2,7.3-2c3.2,0,5.8,0.5,8,1.4
			c0,0.3,0,0.6,0,1c0,1.7-0.4,3.2-1.1,4.6h-3.9c-0.4-0.7-0.7-1.5-0.8-2.3C1833.8,506,1832.9,505.9,1832,505.9z"/>
	</g>
	<g id="j-tag" class="st3">
		<path class="st1" d="M1420.4,498.1c-1.1-0.3-2.2-0.4-3.4-0.4c-1.2,0-2.1,0.3-2.9,0.9s-1.1,1.4-1.1,2.5s0.3,1.9,0.8,2.5
			c0.5,0.6,1.6,1.1,3.2,1.6l4.3,1.2c2.3,0.7,4.1,1.7,5.5,3.1c1.4,1.4,2,3.5,2,6.3c0,3.3-1.2,5.8-3.5,7.7c-2.4,1.9-5.3,2.8-8.8,2.8
			c-1.9,0-3.9-0.2-5.9-0.7c-2-0.5-3.7-1.2-5.1-2.1c0-0.2,0-0.6,0-1.1s0.1-1.5,0.3-2.8c0.2-1.3,0.5-2.4,1-3.2h4.6
			c0.5,1,0.8,2.3,0.9,4c1.1,0.5,2.4,0.7,3.9,0.7s2.7-0.4,3.7-1.1c1-0.7,1.4-1.7,1.4-3c0-0.6,0-1.1-0.1-1.5c-0.1-0.4-0.4-0.8-0.9-1.3
			c-0.5-0.5-1.2-0.8-2.1-1.1l-4.9-1.4c-5-1.4-7.5-4.6-7.5-9.6c0-2.9,1.1-5.2,3.2-7s4.9-2.6,8.3-2.6s6.7,0.8,10,2.3
			c0,0.2,0,0.6,0,1.1s-0.1,1.5-0.3,2.8c-0.2,1.3-0.5,2.4-1,3.2h-4.6C1420.8,501.1,1420.5,499.9,1420.4,498.1z"/>
		<path class="st1" d="M1442.4,506.5c-2.9,0-4.4,2.5-4.4,7.6c0,2.6,0.4,4.3,1.2,5.4c0.8,1,2,1.5,3.5,1.5c2.4,0,4.6-0.2,6.4-0.7
			l1.4,3.7c-1,0.7-2.4,1.2-4.1,1.7c-1.7,0.5-3.4,0.7-5,0.7c-6.9,0-10.4-4-10.4-12c0-4.7,1.2-8,3.6-10.1c2.1-1.8,4.8-2.7,7.8-2.7
			s5.6,0.6,7.7,1.7c0,0.3,0,0.6,0,0.9c0,1.8-0.4,3.6-1.2,5.2h-4.2c-0.4-0.8-0.7-1.8-0.8-2.9C1443.6,506.5,1443,506.5,1442.4,506.5z"
			/>
		<path class="st1" d="M1463.6,526.4c-3.8,0-6.6-1-8.4-3c-1.8-2-2.7-5.1-2.7-9.1s1-7.2,3-9.4c2-2.2,5-3.2,8.8-3.2
			c3.8,0,6.6,1,8.5,2.9s2.8,4.9,2.8,9s-1,7.2-3.1,9.5C1470.4,525.3,1467.4,526.4,1463.6,526.4z M1459.4,513.8c0,5.1,1.5,7.7,4.6,7.7
			c1.6,0,2.7-0.6,3.5-1.8c0.8-1.2,1.1-3.1,1.1-5.7c0-5-1.6-7.5-4.7-7.5c-1.5,0-2.7,0.6-3.4,1.7
			C1459.8,509.3,1459.4,511.2,1459.4,513.8z"/>
		<path class="st1" d="M1492.4,507.9c-2.4,0-4.1,0.5-5,1.4v11c2.6,0.5,4.4,1.2,5.3,2l-0.5,3.7h-13.7l-0.5-3.7
			c0.4-0.6,1.3-1.2,2.6-1.6v-13.3c-1.1-0.4-2-0.9-2.6-1.6l0.5-3.7c1.8-0.4,3.3-0.6,4.8-0.6s2.6,0,3.5,0.1v3c0.7-0.9,1.7-1.6,2.8-2.1
			c1.2-0.6,2.2-0.8,3.1-0.8c0.9,0,1.6,0.1,1.9,0.2l-0.1,6.2C1493.8,508,1493.1,507.9,1492.4,507.9z"/>
		<path class="st1" d="M1496.6,502c1.8-0.4,3.3-0.6,4.8-0.6c1.4,0,2.6,0,3.5,0.1v2.4c2.1-1.5,4.4-2.3,6.9-2.3c3.2,0,5.5,0.9,7,2.7
			c1.4,1.8,2.2,4.9,2.2,9.1c0,2.3-0.3,4.3-1,6c-0.7,1.7-1.6,3.1-2.7,4c-2.2,1.9-4.8,2.9-7.9,2.9c-1.3,0-2.6-0.1-3.7-0.4v4.1
			c1.9,0.5,3.1,1.1,3.6,1.8l-0.5,3.7h-12l-0.5-3.7c0.4-0.6,1.3-1.1,2.6-1.6v-22.9c-1.1-0.4-2-0.9-2.6-1.6L1496.6,502z M1508.7,521.5
			c1.6,0,2.9-0.7,3.8-2.1c0.9-1.4,1.4-3.4,1.4-5.9c0-2.5-0.3-4.2-0.8-5.2c-0.5-0.9-1.4-1.4-2.8-1.4c-2,0-3.7,0.5-4.9,1.4v12.8
			C1506.4,521.4,1507.5,521.5,1508.7,521.5z"/>
		<path class="st1" d="M1523.9,502c1.8-0.4,3.5-0.6,5-0.6s2.8,0,3.9,0.1v19.2c1.2,0.5,2.1,1,2.6,1.6l-0.5,3.7h-11l-0.5-3.7
			c0.4-0.6,1.3-1.2,2.6-1.6v-13.3c-1.1-0.4-2-0.9-2.6-1.6L1523.9,502z M1529.3,498.7c-2.7,0-4-1.2-4-3.6s1.3-3.6,4-3.6
			c2.7,0,4,1.2,4,3.6S1532,498.7,1529.3,498.7z"/>
		<path class="st1" d="M1548.4,526.4c-3.8,0-6.6-1-8.4-3c-1.8-2-2.7-5.1-2.7-9.1s1-7.2,3-9.4c2-2.2,5-3.2,8.8-3.2
			c3.8,0,6.6,1,8.5,2.9c1.8,1.9,2.8,4.9,2.8,9s-1,7.2-3.1,9.5C1555.1,525.3,1552.2,526.4,1548.4,526.4z M1544.2,513.8
			c0,5.1,1.5,7.7,4.6,7.7c1.6,0,2.7-0.6,3.5-1.8s1.1-3.1,1.1-5.7c0-5-1.6-7.5-4.7-7.5c-1.5,0-2.7,0.6-3.4,1.7
			C1544.5,509.3,1544.2,511.2,1544.2,513.8z"/>
	</g>
</g>
</svg>
