<?xml version="1.0" encoding="utf-8"?>
<!-- Generator: Adobe Illustrator 19.0.0, SVG Export Plug-In . SVG Version: 6.00 Build 0)  -->
<svg version="1.1" id="Layer_1" xmlns="http://www.w3.org/2000/svg" xmlns:xlink="http://www.w3.org/1999/xlink" x="0px" y="0px"
	 viewBox="-699.7 228 206 206" style="enable-background:new -699.7 228 206 206;" xml:space="preserve">
<style type="text/css">
	.st0{fill:#1F140F;stroke:#FFFFFF;stroke-width:2;stroke-miterlimit:10;}
	.st1{fill:#EE2724;}
	.st2{fill:none;stroke:#FFFFFF;stroke-width:1.5;stroke-linecap:round;stroke-linejoin:round;stroke-miterlimit:10;}
</style>
<g>
	<circle cx="-596.7" cy="331" r="94"/>
	<circle class="st0" cx="-596.7" cy="331" r="102"/>
	<g>
		<g id="star">
			<polygon class="st1" points="-624.9,341.9 -623.8,335.3 -628.5,338.6 -633.9,334.1 -632.2,341 -638.6,344.5 -630.8,344.5 
				-629.4,352.8 -627.3,345.9 -621.2,346.2 			"/>
			<polygon class="st1" points="-531.5,323.5 -526.1,315.4 -535.3,317.2 -540.2,307.9 -542,319.2 -552.1,321.5 -542.8,325 
				-542.2,337.4 -534.7,328.5 -526.3,331.1 			"/>
			<polygon class="st1" points="-648.7,279.4 -645.6,280.7 -647.8,277.9 -646.2,275.1 -649.4,276 -651,274 -650.7,276.3 
				-654.1,277.2 -650.4,278.7 -650.4,281.8 			"/>
			<polygon class="st1" points="-618.8,367.3 -615.5,366.8 -618.5,365.3 -617.8,361.5 -620.5,364.4 -624.2,362.5 -622,366 -624,368 
				-621,367.6 -619.3,370.1 			"/>
			<polygon class="st1" points="-557.4,298.7 -553.8,299.5 -556.1,296.4 -554.2,293 -557.7,294.3 -561.3,289.5 -560.8,295.4 
				-565.1,296.9 -560.6,298 -560.1,303.4 			"/>
			<polygon class="st1" points="-653.8,316.6 -649,317.5 -652.2,314 -650.1,310.4 -654.2,311.9 -657.9,307.8 -657.3,312.9 
				-662.9,314.9 -657,316 -656.4,321 			"/>
		</g>
		<g id="line">
			<line class="st2" x1="-555.8" y1="348" x2="-546.8" y2="367.8"/>
			<line class="st2" x1="-561.8" y1="348.2" x2="-583.5" y2="362.1"/>
			<line class="st2" x1="-625.7" y1="348.8" x2="-621.4" y2="361.7"/>
			<line class="st2" x1="-616.2" y1="362.5" x2="-597.2" y2="348"/>
			<line class="st2" x1="-592.2" y1="349.7" x2="-588.3" y2="361.2"/>
			<line class="st2" x1="-657.1" y1="363.2" x2="-632.5" y2="346.9"/>
			<line class="st2" x1="-556.1" y1="301.5" x2="-544.4" y2="316.5"/>
			<line class="st2" x1="-562.4" y1="299.1" x2="-579.9" y2="310.4"/>
			<line class="st2" x1="-592.2" y1="298.6" x2="-586.8" y2="308.8"/>
			<line class="st2" x1="-597.9" y1="297.3" x2="-615.3" y2="310.6"/>
			<line class="st2" x1="-627.7" y1="297.8" x2="-621.8" y2="309.9"/>
			<line class="st2" x1="-653.4" y1="309.3" x2="-634.2" y2="296.2"/>
		</g>
		<g id="circle">
			<circle class="st1" cx="-534.6" cy="386.3" r="4.9"/>
			<path class="st1" d="M-542.9,371.7c0,1.2-0.9,2.1-2.1,2.1s-2.1-0.9-2.1-2.1s0.9-2.1,2.1-2.1
				C-543.9,369.6-542.9,370.6-542.9,371.7z"/>
			<circle class="st1" cx="-639.6" cy="272.1" r="1.2"/>
			<circle class="st1" cx="-558.3" cy="343.6" r="3.3"/>
			<circle class="st1" cx="-586.6" cy="364.4" r="1.8"/>
			<circle class="st1" cx="-593.4" cy="345.7" r="2.7"/>
			<circle class="st1" cx="-663" cy="366.6" r="4.4"/>
			<circle class="st1" cx="-584.1" cy="312.9" r="2.7"/>
			<circle class="st1" cx="-594.4" cy="294.5" r="2.4"/>
			<circle class="st1" cx="-619" cy="312.8" r="1.7"/>
			<circle class="st1" cx="-629.7" cy="293.2" r="3.1"/>
			<circle class="st1" cx="-560.7" cy="381.7" r="1.1"/>
			<circle class="st1" cx="-575.9" cy="329.9" r="1.1"/>
			<circle class="st1" cx="-535.3" cy="284.5" r="1.7"/>
			<circle class="st1" cx="-647.2" cy="381.3" r="1.7"/>
		</g>
	</g>
</g>
</svg>
