<?xml version="1.0" encoding="utf-8"?>
<!-- Generator: Adobe Illustrator 19.0.0, SVG Export Plug-In . SVG Version: 6.00 Build 0)  -->
<svg version="1.1" id="Layer_1" xmlns="http://www.w3.org/2000/svg" xmlns:xlink="http://www.w3.org/1999/xlink" x="0px" y="0px"
	 viewBox="-236.7 -37.1 206 206" style="enable-background:new -236.7 -37.1 206 206;" xml:space="preserve">
<style type="text/css">
	.st0{fill:#1F140F;stroke:#FFFFFF;stroke-width:2;stroke-miterlimit:10;}
	.st1{fill:none;stroke:#FFFFFF;stroke-width:1.5;stroke-linecap:round;stroke-linejoin:round;stroke-miterlimit:10;}
	.st2{fill:#EE2724;}
</style>
<g>
	<circle cx="-133.7" cy="65.9" r="94"/>
	<circle class="st0" cx="-133.7" cy="65.9" r="102"/>
	<g>
		<g id="line">
			<line class="st1" x1="-190.8" y1="25.1" x2="-189" y2="39.7"/>
			<line class="st1" x1="-187.1" y1="14.6" x2="-166.4" y2="10.8"/>
			<line class="st1" x1="-158.7" y1="15.9" x2="-143.3" y2="38.6"/>
			<line class="st1" x1="-141.2" y1="50.6" x2="-132.3" y2="85.9"/>
			<line class="st1" x1="-71.2" y1="23.6" x2="-73.2" y2="39.7"/>
			<line class="st1" x1="-75.1" y1="14.6" x2="-95.8" y2="10.8"/>
			<line class="st1" x1="-103.5" y1="15.9" x2="-118.9" y2="38.6"/>
			<line class="st1" x1="-121" y1="50.6" x2="-129.9" y2="85.9"/>
			<line class="st1" x1="-130.8" y1="96" x2="-130.8" y2="125.7"/>
		</g>
		<g id="circle">
			<circle class="st2" cx="-191.8" cy="19.3" r="3.7"/>
			<circle class="st2" cx="-161.1" cy="12.2" r="2.4"/>
			<circle class="st2" cx="-131.1" cy="90.8" r="3.1"/>
			<circle class="st2" cx="-120.1" cy="44.7" r="3.7"/>
			<circle class="st2" cx="-73.4" cy="46.8" r="4.6"/>
			<circle class="st2" cx="-166.1" cy="103.2" r="3.7"/>
			<circle class="st2" cx="-173.6" cy="115.1" r="1.9"/>
			<circle class="st2" cx="-178.4" cy="89.1" r="1.9"/>
		</g>
		<g id="star">
			<polygon class="st2" points="-183.4,54 -178.4,49.5 -185.1,48.1 -188.9,41.4 -191.4,49.1 -199.2,50.5 -192.8,54.9 -195.3,63.1 
				-188.5,57.9 -180.3,63.6 			"/>
			<path class="st2" d="M-136.3,44.2l-3.8-0.6c-0.7-2.5-1.4-4.6-1.4-4.6l-1.6,4.2l-5.1-0.8c0,0,1.9,1.7,4.1,3.6l-1.4,3.6l3.3-1.9
				c2.2,1.8,4.1,3.4,4.1,3.1c0-0.3-0.6-2.4-1.2-4.7L-136.3,44.2z"/>
			<polygon class="st2" points="-127.1,134.8 -124.3,129.5 -130.8,130.6 -135.3,125.5 -134.8,132 -141.2,133.7 -134.3,136.9 
				-134.1,142.8 -130.4,138.6 -124.5,140.5 			"/>
			<polygon class="st2" points="-99.5,14.2 -94.5,16 -98.4,11.2 -97.1,7.6 -100.4,8.7 -103.5,5 -102.8,9.6 -107.4,11.2 -102.3,13.1 
				-101.4,19.6 			"/>
			<polygon class="st2" points="-69.9,19 -67.9,16.9 -70.9,17.3 -72.3,13.9 -72.9,17.5 -76.5,17.9 -73.2,19.3 -73.8,22.9 
				-71.4,20.6 -68.4,21.9 			"/>
			<polygon class="st2" points="-83.8,84 -82.2,80.8 -85.3,82 -87.3,79.3 -87.3,82.5 -90.8,83.4 -87.3,84.5 -87.3,87.3 -85,85.1 
				-82.4,85.9 			"/>
		</g>
	</g>
</g>
</svg>
