<?xml version="1.0" encoding="utf-8"?>
<!-- Generator: Adobe Illustrator 19.0.0, SVG Export Plug-In . SVG Version: 6.00 Build 0)  -->
<svg version="1.1" id="Layer_1" xmlns="http://www.w3.org/2000/svg" xmlns:xlink="http://www.w3.org/1999/xlink" x="0px" y="0px"
	 viewBox="-323.7 49.8 206 206.3" style="enable-background:new -323.7 49.8 206 206.3;" xml:space="preserve">
<style type="text/css">
	.st0{fill:#1F140F;stroke:#FFFFFF;stroke-width:2;stroke-miterlimit:10;}
	.st1{fill:#EE2724;}
	.st2{fill:none;stroke:#FFFFFF;stroke-width:1.5;stroke-linecap:round;stroke-linejoin:round;stroke-miterlimit:10;}
</style>
<g>
	<circle cx="-220.7" cy="153.1" r="94"/>
	<circle class="st0" cx="-220.7" cy="153.1" r="102"/>
	<g>
		<g id="star">
			<polygon class="st1" points="-270.3,89.7 -274.7,86.8 -273.5,91.5 -277.9,94 -273.1,94.5 -272.3,99.8 -270.2,94.8 -266.1,95.3 
				-268.9,91.6 -267.3,87.9 			"/>
			<polygon class="st1" points="-163.2,122.3 -157,115.5 -166,118.2 -172.1,109 -173,120.2 -180.3,122.4 -173.3,124.7 -174.1,134.4 
				-167.1,126.7 -158.5,129.4 			"/>
			<polygon class="st1" points="-272.9,130.8 -269.2,131.8 -271.5,129 -269.6,126.7 -272.7,127.5 -275.9,123.6 -275.6,128.2 
				-279.2,129.1 -275.5,130.1 -275.3,133.7 			"/>
			<polygon class="st1" points="-196.5,184.3 -191.6,185.4 -195.2,181.6 -192.2,175.3 -198.5,178 -202.6,173.7 -201.5,179.2 
				-207.7,181.9 -200.7,183.4 -199.3,190.3 			"/>
			<polygon class="st1" points="-253.2,186.6 -251.3,183.5 -254.6,184.8 -257.6,181 -257.1,185.8 -261.6,187.6 -256.9,188.2 
				-256.5,192.2 -254.3,188.5 -251.3,188.9 			"/>
			<polygon class="st1" points="-211.8,153.8 -209.4,154.3 -211,152.4 -209.8,150 -212.2,151 -214.8,148 -214.1,151.8 -216.8,153 
				-213.7,153.5 -213.2,156.5 			"/>
		</g>
		<g id="line">
			<line class="st2" x1="-250" y1="118.3" x2="-241.3" y2="127.8"/>
			<line class="st2" x1="-176.6" y1="117.7" x2="-217.5" y2="107.7"/>
			<line class="st2" x1="-249.2" y1="113.1" x2="-229.2" y2="108.1"/>
			<line class="st2" x1="-257.1" y1="116.6" x2="-271.5" y2="124.9"/>
			<line class="st2" x1="-277.2" y1="132.1" x2="-278.2" y2="142"/>
			<line class="st2" x1="-276.9" y1="149.5" x2="-266.2" y2="157.4"/>
			<line class="st2" x1="-256" y1="158.4" x2="-244.2" y2="152.7"/>
			<line class="st2" x1="-239.9" y1="137.5" x2="-240.2" y2="146.7"/>
			<line class="st2" x1="-192.4" y1="180.4" x2="-178.1" y2="171.4"/>
			<line class="st2" x1="-272.8" y1="177.4" x2="-259.3" y2="184.5"/>
			<line class="st2" x1="-250.4" y1="186.6" x2="-202.7" y2="185.2"/>
			<line class="st2" x1="-175.4" y1="151.3" x2="-174.9" y2="163"/>
			<line class="st2" x1="-192.5" y1="139" x2="-179.2" y2="145.7"/>
			<line class="st2" x1="-202.6" y1="140.6" x2="-211" y2="148.7"/>
			<line class="st2" x1="-210.6" y1="156.3" x2="-204.1" y2="177.4"/>
		</g>
		<g id="circle">
			<circle class="st1" cx="-175.7" cy="167.4" r="2.2"/>
			<circle class="st1" cx="-176.8" cy="148" r="1.7"/>
			<circle class="st1" cx="-198" cy="138.8" r="3.1"/>
			<circle class="st1" cx="-160.4" cy="198" r="3.2"/>
			<circle class="st1" cx="-153.1" cy="159.3" r="1.2"/>
			<circle class="st1" cx="-178.5" cy="189.5" r="1.4"/>
			<circle class="st1" cx="-223.6" cy="107.7" r="3.3"/>
			<circle class="st1" cx="-252.7" cy="115.7" r="1.9"/>
			<circle class="st1" cx="-279.1" cy="145.9" r="1.8"/>
			<circle class="st1" cx="-261.3" cy="159.1" r="3.2"/>
			<circle class="st1" cx="-241.3" cy="150.2" r="2"/>
			<circle class="st1" cx="-240.3" cy="132.7" r="3.1"/>
			<circle class="st1" cx="-277.9" cy="173.3" r="4.2"/>
			<circle class="st1" cx="-253.2" cy="89.3" r="1.3"/>
			<circle class="st1" cx="-268.7" cy="200.2" r="1.6"/>
			<circle class="st1" cx="-287.5" cy="118.9" r="0.8"/>
			<circle class="st1" cx="-234.7" cy="165.7" r="0.8"/>
			<path class="st1" d="M-205.4,210.6c0,1.5-1.2,2.7-2.7,2.7s-2.7-1.2-2.7-2.7s1.2-2.7,2.7-2.7
				C-206.6,207.9-205.4,209.1-205.4,210.6z"/>
		</g>
	</g>
</g>
</svg>
