<?xml version="1.0" encoding="utf-8"?>
<!-- Generator: Adobe Illustrator 19.0.0, SVG Export Plug-In . SVG Version: 6.00 Build 0)  -->
<svg version="1.1" id="Layer_1" xmlns="http://www.w3.org/2000/svg" xmlns:xlink="http://www.w3.org/1999/xlink" x="0px" y="0px"
	 viewBox="-308.7 95.8 206 206" style="enable-background:new -308.7 95.8 206 206;" xml:space="preserve">
<style type="text/css">
	.st0{fill:#1F140F;stroke:#FFFFFF;stroke-width:2;stroke-miterlimit:10;}
	.st1{fill:#EE2724;}
	.st2{fill:none;stroke:#FFFFFF;stroke-width:1.5;stroke-linecap:round;stroke-linejoin:round;stroke-miterlimit:10;}
</style>
<g>
	<circle cx="-205.7" cy="198.8" r="94"/>
	<circle class="st0" cx="-205.7" cy="198.8" r="102"/>
	<g>
		<g id="circle">
			<path class="st1" d="M-265.8,186.3c-0.7-1.5-0.1-3.3,1.5-4c1.5-0.7,3.3-0.1,4,1.5c0.7,1.5,0.1,3.3-1.5,4
				C-263.3,188.4-265.1,187.8-265.8,186.3z"/>
			<circle class="st1" cx="-173.1" cy="132" r="1.3"/>
			<circle class="st1" cx="-272.6" cy="167.9" r="1.4"/>
			<circle class="st1" cx="-185.8" cy="198.5" r="3.6"/>
			<circle class="st1" cx="-228.8" cy="157.7" r="2.6"/>
			<circle class="st1" cx="-182.6" cy="161.7" r="2"/>
			<circle class="st1" cx="-156.7" cy="152.5" r="4.7"/>
			<circle class="st1" cx="-139.1" cy="246.1" r="1.7"/>
			<circle class="st1" cx="-147.1" cy="258.6" r="0.9"/>
			<circle class="st1" cx="-228.2" cy="236.9" r="3.5"/>
			<circle class="st1" cx="-253.4" cy="245.2" r="2.4"/>
		</g>
		<g id="line">
			<line class="st2" x1="-249.9" y1="152.5" x2="-233" y2="156.9"/>
			<line class="st2" x1="-228.4" y1="162.5" x2="-228.4" y2="231.4"/>
			<line class="st2" x1="-183.7" y1="165.5" x2="-185.8" y2="193.1"/>
			<line class="st2" x1="-185.8" y1="204.5" x2="-184.8" y2="227.7"/>
			<line class="st2" x1="-224.3" y1="159.3" x2="-186.4" y2="160.4"/>
			<line class="st2" x1="-179.1" y1="159.3" x2="-163.4" y2="154.7"/>
			<line class="st2" x1="-182" y1="240.1" x2="-161.5" y2="245.5"/>
			<line class="st2" x1="-222.4" y1="237.7" x2="-190.5" y2="238.8"/>
			<line class="st2" x1="-249" y1="243.7" x2="-233.3" y2="239"/>
		</g>
		<g id="star">
			<path class="st1" d="M-256.3,148.6l3-4.8l-5.5,1.8c-2.6-3.1-5-5.8-5-5.8l-0.3,7.6l-6.7,2.2l6.6,1.9l0.1,8.2l4.9-6.8
				c0,0,7.8,2,7.6,1.6C-251.7,154.1-253.9,151.5-256.3,148.6z"/>
			<polygon class="st1" points="-183.9,237.5 -177.4,238.8 -181.9,234.1 -178.5,228.3 -185.1,230.9 -191.1,224.8 -189.5,232.6 
				-195.9,235.2 -188.6,236.6 -187.3,243.2 			"/>
			<polygon class="st1" points="-155.5,249.4 -151.5,249.9 -154.4,247 -152.9,243.4 -156.2,245.2 -158.8,242.6 -158,246.2 
				-162.2,248.6 -158.1,249.5 -157.2,253.1 			"/>
			<polygon class="st1" points="-235,265.4 -233.2,261.2 -237.2,263.3 -242.1,258.4 -240.3,264.9 -244.8,267.2 -239.6,267.5 
				-238.2,272.7 -236.1,267.8 -232.4,268 			"/>
		</g>
	</g>
</g>
</svg>
