<?xml version="1.0" encoding="utf-8"?>
<!-- Generator: Adobe Illustrator 19.0.0, SVG Export Plug-In . SVG Version: 6.00 Build 0)  -->
<svg version="1.1" id="Layer_1" xmlns="http://www.w3.org/2000/svg" xmlns:xlink="http://www.w3.org/1999/xlink" x="0px" y="0px"
	 viewBox="-173.4 63.2 206 206" style="enable-background:new -173.4 63.2 206 206;" xml:space="preserve">
<style type="text/css">
	.st0{fill:#1F140F;stroke:#FFFFFF;stroke-width:2;stroke-miterlimit:10;}
	.st1{fill:none;stroke:#FFFFFF;stroke-width:1.5;stroke-linecap:round;stroke-linejoin:round;stroke-miterlimit:10;}
	.st2{fill:#EE2724;}
</style>
<g>
	<circle cx="-70.4" cy="166.2" r="94"/>
	<circle class="st0" cx="-70.4" cy="166.2" r="102"/>
	<g>
		<g id="line">
			<line class="st1" x1="-104.2" y1="173.2" x2="-118.1" y2="185.3"/>
			<line class="st1" x1="-15.8" y1="204.3" x2="-35.1" y2="220.4"/>
			<line class="st1" x1="-54.9" y1="204.4" x2="-45" y2="219"/>
			<line class="st1" x1="-88.1" y1="172.7" x2="-75" y2="187.4"/>
			<line class="st1" x1="-76.7" y1="197.3" x2="-84.6" y2="209"/>
			<line class="st1" x1="-103.5" y1="213.4" x2="-91.7" y2="213.9"/>
			<line class="st1" x1="-118.2" y1="193.3" x2="-110.5" y2="210.7"/>
			<line class="st1" x1="-109.7" y1="144" x2="-98.5" y2="163.4"/>
			<line class="st1" x1="-110.8" y1="134.1" x2="-104" y2="120.8"/>
			<line class="st1" x1="-96" y1="112.7" x2="-74.2" y2="107.6"/>
			<line class="st1" x1="-66.2" y1="110.4" x2="-53" y2="125.2"/>
			<line class="st1" x1="-50.3" y1="134.5" x2="-51" y2="168.8"/>
			<line class="st1" x1="-52.5" y1="177.5" x2="-55.2" y2="197.7"/>
		</g>
		<g id="circle">
			<circle class="st2" cx="-96.2" cy="170.1" r="5.4"/>
			<circle class="st2" cx="-40.6" cy="222.1" r="2.8"/>
			<circle class="st2" cx="-87.4" cy="212.7" r="2.6"/>
			<circle class="st2" cx="-107.3" cy="212.3" r="1.8"/>
			<circle class="st2" cx="-111.3" cy="138.8" r="2.7"/>
			<circle class="st2" cx="-69.7" cy="108.3" r="2"/>
			<circle class="st2" cx="-51.1" cy="129.6" r="3.3"/>
			<circle class="st2" cx="-55.6" cy="200.9" r="1.7"/>
			<circle class="st2" cx="-17.3" cy="121.1" r="5.1"/>
			<circle class="st2" cx="-9.1" cy="131.3" r="2.5"/>
		</g>
		<g id="star">
			<polygon class="st2" points="-8.7,200.4 -0.6,201.9 -6.5,195.4 -3.5,188.8 -10.2,191.7 -15.6,185.6 -14.1,195.2 -21.2,198.1 
				-13.4,199.6 -12.1,208 			"/>
			<polygon class="st2" points="-71.3,187.7 -74.7,190.3 -79,187.3 -76.7,191.8 -80.2,194.6 -75.5,194.3 -74,198.2 -72.4,194.1 
				-69.4,194 -72.1,192.1 			"/>
			<polygon class="st2" points="-115.6,188.7 -115.3,185.7 -117.3,187.9 -121.3,185.9 -118.9,189.6 -120.9,191.8 -117.8,191.2 
				-116.1,193.8 -115.8,190.8 -112.6,190.1 			"/>
			<polygon class="st2" points="-96.3,118.1 -93.1,114.3 -98.1,114.5 -101.7,109.7 -102.2,115.5 -107.2,116.5 -102.3,118.6 
				-102.5,124.6 -99.2,120.8 -94.2,122.2 			"/>
			<polygon class="st2" points="-48.6,172.2 -48,169.2 -51.1,171.1 -54.1,169.1 -52.8,172.7 -54.8,175.4 -52,174.8 -49.8,178.1 
				-49.2,174.7 -46.2,173.9 			"/>
			<polygon class="st2" points="-135,160.5 -133,157.6 -136.4,158.7 -138.2,156.5 -138,159.3 -140.2,160 -137.9,160.8 -137.7,164.5 
				-135.8,161.6 -133.2,162.6 			"/>
		</g>
	</g>
</g>
</svg>
