<?xml version="1.0" encoding="utf-8"?>
<!-- Generator: Adobe Illustrator 19.0.0, SVG Export Plug-In . SVG Version: 6.00 Build 0)  -->
<svg version="1.1" id="Layer_1" xmlns="http://www.w3.org/2000/svg" xmlns:xlink="http://www.w3.org/1999/xlink" x="0px" y="0px"
	 viewBox="-963.7 66.1 206 206" style="enable-background:new -963.7 66.1 206 206;" xml:space="preserve">
<style type="text/css">
	.st0{fill:#1F140F;stroke:#FFFFFF;stroke-width:2;stroke-miterlimit:10;}
	.st1{fill:none;stroke:#FFFFFF;stroke-width:1.5;stroke-linecap:round;stroke-linejoin:round;stroke-miterlimit:10;}
	.st2{fill:#EE2724;}
</style>
<g>
	<circle cx="-860.7" cy="169.1" r="94"/>
	<circle class="st0" cx="-860.7" cy="169.1" r="102"/>
	<g>
		<g id="line">
			<line class="st1" x1="-843.6" y1="165.3" x2="-823.3" y2="166.7"/>
			<line class="st1" x1="-872.5" y1="164.7" x2="-854.1" y2="164.7"/>
			<line class="st1" x1="-901.3" y1="166.1" x2="-882" y2="164.9"/>
			<line class="st1" x1="-849" y1="170.9" x2="-844.2" y2="192.6"/>
			<line class="st1" x1="-839.6" y1="204.1" x2="-828.9" y2="216.9"/>
			<line class="st1" x1="-877.8" y1="169.3" x2="-879.8" y2="185"/>
			<line class="st1" x1="-878" y1="159.9" x2="-883.2" y2="141.6"/>
			<line class="st1" x1="-842.8" y1="138.4" x2="-847" y2="158.5"/>
			<line class="st1" x1="-840.2" y1="130.3" x2="-832.6" y2="119.9"/>
			<line class="st1" x1="-898.9" y1="123.1" x2="-890.8" y2="131.1"/>
			<line class="st1" x1="-883.6" y1="194.2" x2="-901.5" y2="218.1"/>
		</g>
		<g id="star">
			<polygon class="st2" points="-805.3,163.6 -812.8,162.5 -814.3,154.9 -817.8,161.6 -824.5,160.4 -819.6,166.6 -824.1,173.7 
				-816.4,170.5 -810.6,176.2 -811.7,168.1 			"/>
			<polygon class="st2" points="-906.5,169.1 -901.9,169.7 -905,166.3 -903.7,161.6 -907.8,163.7 -911.3,160.5 -910.1,164.9 
				-914.8,167.3 -910,168.5 -908.8,173.6 			"/>
			<polygon class="st2" points="-824,222.2 -819.5,223.6 -822.4,219.7 -820.5,216.7 -823.8,217.9 -826.9,213.7 -827,219 
				-830.3,220.2 -827,221.3 -827.1,227 			"/>
			<polygon class="st2" points="-839.2,136.1 -836.4,136.1 -838.8,134.3 -837.8,130.8 -840.8,132.8 -844.8,129.8 -842.8,134.1 
				-845.7,135.9 -841.9,136 -840.2,139.7 			"/>
			<polygon class="st2" points="-899.2,118 -896,113.3 -901.6,115 -904.9,110.7 -904.7,115.9 -910.9,117.7 -904.6,119.6 
				-904.3,125.5 -901,120.6 -896,122.1 			"/>
			<polygon class="st2" points="-802.5,129.4 -799.7,129.6 -801.6,127.8 -799.9,124.8 -803.3,126.4 -805.7,124.3 -805.1,127.2 
				-808.6,128.9 -804.8,129.2 -804.2,132.5 			"/>
		</g>
		<g id="circle">
			<circle class="st2" cx="-848.8" cy="164.3" r="3.3"/>
			<circle class="st2" cx="-877.4" cy="164.5" r="2"/>
			<circle class="st2" cx="-842.5" cy="198.4" r="4.1"/>
			<circle class="st2" cx="-829.7" cy="116.7" r="2.5"/>
			<circle class="st2" cx="-886.6" cy="135.8" r="4"/>
			<circle class="st2" cx="-881.4" cy="189.8" r="2.6"/>
			<circle class="st2" cx="-903.9" cy="221.6" r="2.6"/>
			<circle class="st2" cx="-889" cy="226" r="1.4"/>
			<circle class="st2" cx="-916.4" cy="190.5" r="2.5"/>
			<circle class="st2" cx="-922.4" cy="208.5" r="1"/>
			<circle class="st2" cx="-792.7" cy="146.4" r="1.2"/>
			<circle class="st2" cx="-793.1" cy="203.4" r="3.1"/>
			<circle class="st2" cx="-798.2" cy="217.7" r="1.4"/>
		</g>
	</g>
</g>
</svg>
