<?xml version="1.0" encoding="utf-8"?>
<!-- Generator: Adobe Illustrator 19.0.0, SVG Export Plug-In . SVG Version: 6.00 Build 0)  -->
<svg version="1.1" id="Layer_1" xmlns="http://www.w3.org/2000/svg" xmlns:xlink="http://www.w3.org/1999/xlink" x="0px" y="0px"
	 viewBox="-323.4 50.4 206 206" style="enable-background:new -323.4 50.4 206 206;" xml:space="preserve">
<style type="text/css">
	.st0{fill:#1F140F;stroke:#FFFFFF;stroke-width:2;stroke-miterlimit:10;}
	.st1{fill:none;stroke:#FFFFFF;stroke-width:1.5;stroke-linecap:round;stroke-linejoin:round;stroke-miterlimit:10;}
	.st2{fill:#EE2724;}
</style>
<g>
	<circle cx="-220.4" cy="153.4" r="94"/>
	<circle class="st0" cx="-220.4" cy="153.4" r="102"/>
	<g>
		<g id="line">
			<line class="st1" x1="-204.8" y1="129.7" x2="-183.9" y2="109"/>
			<line class="st1" x1="-226.7" y1="151.3" x2="-212.6" y2="137.4"/>
			<line class="st1" x1="-264.3" y1="189" x2="-240.5" y2="165.4"/>
			<line class="st1" x1="-228" y1="170.2" x2="-212.8" y2="185.8"/>
			<line class="st1" x1="-256.5" y1="140.9" x2="-240.9" y2="157"/>
			<line class="st1" x1="-177.4" y1="110" x2="-176.3" y2="139.7"/>
			<line class="st1" x1="-214.1" y1="100.2" x2="-185.2" y2="102.4"/>
		</g>
		<g id="star">
			<polygon class="st2" points="-226,161.5 -221.8,156.4 -228.4,157.4 -234.9,146.5 -234.9,158.5 -244.8,160.1 -234.9,163.2 
				-234.9,172.5 -228.9,165.2 -222.7,167.1 			"/>
			<polygon class="st2" points="-264.9,195.2 -261.2,191.7 -266.9,192.2 -269,188 -270.2,192.8 -275.4,193.4 -270.7,195.8 
				-271.2,200.8 -267.5,196.9 -264.2,199.3 			"/>
			<polygon class="st2" points="-205.7,135.1 -201.9,131.7 -206.9,132 -208.7,127.9 -209.2,132.2 -213.8,132.5 -209.6,135.3 
				-210,138.9 -207.5,136.7 -204,139.1 			"/>
			<polygon class="st2" points="-217,100.2 -215.1,96.7 -218.4,97.6 -220.4,95.1 -221.1,98.4 -224.4,100.1 -220.9,101.1 
				-220.7,104.4 -218.6,101.9 -215.7,102.9 			"/>
			<path class="st2" d="M-167,186.4l-5.5,2.4c-2.2-2.4-4.2-4.7-4.2-4.7l0.9,6.1l-4.2,1.9c0,0,2.2,0.4,4.7,1l1,6.7l3.2-5.8
				c1.7,0.4,3.2,0.7,3.5,0.8c0.4,0.1-0.7-1.2-2.2-3L-167,186.4z"/>
		</g>
		<g id="circle">
			<circle class="st2" cx="-260.4" cy="138" r="3"/>
			<circle class="st2" cx="-209.3" cy="189.4" r="2.2"/>
			<circle class="st2" cx="-179" cy="104.2" r="4.4"/>
			<circle class="st2" cx="-176.2" cy="144.9" r="2.6"/>
			<circle class="st2" cx="-279.1" cy="124.9" r="4.5"/>
			<circle class="st2" cx="-280.9" cy="144.9" r="1.7"/>
			<circle class="st2" cx="-161.3" cy="170.7" r="1.6"/>
			<circle class="st2" cx="-208.9" cy="208.1" r="3.7"/>
			<circle class="st2" cx="-222.4" cy="203.8" r="1.7"/>
			<circle class="st2" cx="-154" cy="134" r="1.3"/>
		</g>
	</g>
</g>
</svg>
