<?xml version="1.0" encoding="utf-8"?>
<!-- Generator: Adobe Illustrator 19.0.0, SVG Export Plug-In . SVG Version: 6.00 Build 0)  -->
<svg version="1.1" id="Layer_1" xmlns="http://www.w3.org/2000/svg" xmlns:xlink="http://www.w3.org/1999/xlink" x="0px" y="0px"
	 viewBox="-225.7 49.4 206 206" style="enable-background:new -225.7 49.4 206 206;" xml:space="preserve">
<style type="text/css">
	.st0{fill:#1F140F;stroke:#FFFFFF;stroke-width:2;stroke-miterlimit:10;}
	.st1{fill:#EE2724;}
	.st2{fill:none;stroke:#FFFFFF;stroke-width:1.5;stroke-linecap:round;stroke-linejoin:round;stroke-miterlimit:10;}
</style>
<g>
	<circle cx="-122.7" cy="152.4" r="94"/>
	<circle class="st0" cx="-122.7" cy="152.4" r="102"/>
	<g>
		<g id="circle">
			<circle class="st1" cx="-139.3" cy="143" r="5.1"/>
			<circle class="st1" cx="-133" cy="226.9" r="4"/>
			<circle class="st1" cx="-150.5" cy="216.9" r="1.4"/>
			<path class="st1" d="M-63.6,158.9c-0.8-1.6-0.1-3.6,1.6-4.4c1.6-0.8,3.6-0.1,4.4,1.6c0.8,1.6,0.1,3.6-1.6,4.4
				C-60.9,161.2-62.9,160.5-63.6,158.9z"/>
			<circle class="st1" cx="-71.1" cy="138.9" r="1.5"/>
			<circle class="st1" cx="-160.2" cy="111.6" r="2.6"/>
			<circle class="st1" cx="-109.7" cy="142.7" r="2.1"/>
			<circle class="st1" cx="-74.4" cy="101.8" r="2.1"/>
			<circle class="st1" cx="-92.2" cy="192.8" r="2.6"/>
			<circle class="st1" cx="-138.3" cy="208.7" r="2.1"/>
			<circle class="st1" cx="-158.4" cy="185.6" r="3.2"/>
		</g>
		<g id="star">
			<path class="st1" d="M-87.6,118.4l2.2-3.5l-4,1.3c-1.9-2.3-3.6-4.2-3.6-4.2l0.4,5.3l-5.5,1.8c0,0,2.7,0.8,5.8,1.7l0.4,4.5
				l2.4-3.8c3,0.8,5.7,1.5,5.5,1.1C-84.2,122.4-85.8,120.5-87.6,118.4z"/>
			<polygon class="st1" points="-175.5,142 -173.7,138.5 -177.1,139.8 -179.3,136.8 -179.3,140.3 -183.2,141.4 -179.3,142.5 
				-179.3,145.6 -176.8,143.2 -173.9,144.1 			"/>
			<polygon class="st1" points="-179.1,99.9 -176,95.9 -180.9,97.3 -184.3,92.3 -184.3,98.3 -188.1,99.3 -184.3,101 -184.3,106.5 
				-181.1,102.4 -175.8,104.7 			"/>
			<polygon class="st1" points="-86.1,168.2 -80.9,166 -86.8,165.3 -88.1,159.6 -90.7,164.9 -95.4,164.3 -92,167.5 -94,171.5 
				-89.6,169.7 -84.8,174.3 			"/>
			<polygon class="st1" points="-113.9,211.4 -110.9,209.9 -114.5,209.4 -115.5,205.7 -116.6,208.8 -120.1,208.6 -117.5,210.8 
				-118.8,214 -115.9,212.4 -113.6,214.3 			"/>
			<polygon class="st1" points="-153.6,160 -149.7,158 -153.3,157.1 -153.3,153.4 -156.3,155.8 -159.8,155 -157.9,158.4 
				-160.8,161.2 -156.1,160.2 -153.7,163.4 			"/>
		</g>
		<g id="line">
			<line class="st2" x1="-174.6" y1="100.9" x2="-163.5" y2="107.9"/>
			<line class="st2" x1="-157.9" y1="115" x2="-143" y2="136.3"/>
			<line class="st2" x1="-95.1" y1="125.4" x2="-106.6" y2="139.7"/>
			<line class="st2" x1="-132" y1="143.4" x2="-113.9" y2="143.4"/>
			<line class="st2" x1="-87.3" y1="114.1" x2="-77.7" y2="104.2"/>
			<line class="st2" x1="-106.2" y1="145" x2="-91.8" y2="162.5"/>
			<line class="st2" x1="-89.7" y1="173.3" x2="-89.7" y2="188.6"/>
			<line class="st2" x1="-112.8" y1="208.3" x2="-95.2" y2="196.6"/>
			<line class="st2" x1="-134.6" y1="209.4" x2="-119.8" y2="210.7"/>
			<line class="st2" x1="-156.1" y1="190.1" x2="-141.6" y2="206.7"/>
			<line class="st2" x1="-156.5" y1="161.8" x2="-158.3" y2="180.9"/>
			<line class="st2" x1="-151.6" y1="156.1" x2="-143.8" y2="148"/>
		</g>
	</g>
</g>
</svg>
