<?xml version="1.0" encoding="utf-8"?>
<!-- Generator: Adobe Illustrator 19.0.0, SVG Export Plug-In . SVG Version: 6.00 Build 0)  -->
<svg version="1.1" id="Layer_1" xmlns="http://www.w3.org/2000/svg" xmlns:xlink="http://www.w3.org/1999/xlink" x="0px" y="0px"
	 viewBox="-410.4 219.1 132.4 132.4" style="enable-background:new -410.4 219.1 132.4 132.4;" xml:space="preserve">
<style type="text/css">
	.st0{fill:none;stroke:#C6C7C8;stroke-width:2;stroke-miterlimit:10;}
	.st1{fill:#73D1D9;}
	.st2{fill:#3EA92A;}
	.st3{fill:url(#SVGID_1_);}
</style>
<g>
	<g>
		<g>
			<g>
				<g>
					<path class="st0" d="M-345.3,227"/>
				</g>
				<g>
					<g>
						<g>
							<circle class="st1" cx="-344.2" cy="285.3" r="66.2"/>
						</g>
						<g>
							<g>
								<path class="st2" d="M-400.3,261.9c1,1-0.3,4.3,0.1,5.6c0.3,1.1,1.5,3.4,2.5,4.1c0.5,0.3,1.9,0.7,2.4,0.4
									c0.4-0.3,0.4-1.4,0.3-1.8c-0.3-1-2.6-2.1-3-3.1c-0.4-0.9-0.7-3.3,0-4.1c0.2-0.3,1.2-0.4,1.4-0.1c0.7,0.6-0.1,3,0.3,3.9
									c0.7,1.6,4.4,3.3,4.6,5c0.1,0.6-1.3,1.5-1.3,2.1c0,1.3,1.5,3.7,2.5,4.5c1.1,0.8,4,1.6,5.1,0.9c0.3-0.2,0-1,0.3-1.2
									c0.5-0.3,1.9,0.1,2.2,0.5c0.3,0.3-0.2,1.4,0.1,1.7c0.7,0.8,3.3-0.1,4.2,0.4c1.4,0.7,2.7,4.1,4.1,4.9
									c1.2,0.6,4.3-0.4,5.2,0.5c0.6,0.6,0.5,2.7,0.1,3.5c-0.5,1-2.9,1.7-3.4,2.6c-0.7,1.2-0.8,4.3-0.4,5.6c0.6,2,4.3,4.8,5.1,6.8
									c0.2,0.6-0.2,2,0.3,2.4c0.4,0.4,1.7-0.3,2.2-0.1c1.2,0.4,3.3,1.9,3.8,3c1.3,2.7-2.2,9.7-0.3,11.9c0.2,0.3,1.2-0.3,1.4,0
									c0.8,0.9-1.1,3.7-0.8,4.9c0.2,0.8,1.7,1.7,2,2.5c0.5,1.5-0.1,4.6,0,6.2c0.3,2.7,0.4,5.3,7.1,8.3c0.9,0.4,4.5,0.7,3.9-0.7
									c-0.4-0.8-2.4-1.6-2.6-2.5c-0.3-1,1.7-3.3,1-4.2c-0.3-0.4-1.5,0-2-0.3c-0.4-0.2-1.1-0.9-1-1.3c0-0.5,1.4-1,1.6-1.4
									c0.1-0.2,0.1-0.6,0-0.8c-0.3-0.4-1.4-0.4-1.7-0.8c-0.2-0.2-0.2-1,0-1.2c1.6-1.4,4.7,0.4,7.5-4.1c1-1.6,4.1-4.2,4.5-6
									c0.3-1.2-1.3-3.7-1-5c0.1-0.4,0.6-1,0.9-1.2c1-0.4,3.1,0.9,4.1,0.7c0.9-0.2,2.4-1.2,2.9-2c1.1-1.9,0-6.8,0.9-8.8
									c0.5-1.1,2.8-2.5,3.3-3.7c0.2-0.5,0.5-1.9,0-2.2c-1.1-0.7-0.6-0.5-4.1-3.1c-1.5-1.1-5.5-0.4-7.3-0.7c-1-0.1-3.1-0.6-3.7-1.4
									c-0.5-0.7,0.5-2.6,0.3-3.4c-0.2-0.8-1.1-2.2-1.8-2.6c-0.9-0.5-3.4,0.3-4.3-0.3c-1.1-0.6-1.8-3.6-2.9-4.2
									c-0.3-0.2-1.2-0.2-1.4,0c-0.2,0.1-0.1,0.8-0.3,0.9c-0.8,0.6-3.1,0.6-3.9,0.1c-1.9-1-1.1-3.1-8.5,0.8
									c-1.2,0.7-4.6,0.3-5.5-0.8c-1-1.1,0.8-4.6-0.1-5.8c-0.6-0.8-3.5,0-3.9-0.9c-0.5-0.9,1.7-2.8,1.3-3.7
									c-0.2-0.4-1.3-0.7-1.7-0.7c-1.4,0.2-3.3,2.9-4.7,3.3c-2.5,0.7-11.3-4.8,2.2-10.2c2.1-0.8,7.5-2,9-0.4
									c0.4,0.4-0.4,1.9-0.1,2.4c0.3,0.6,1.8,1.4,2.4,1c0.8-0.6-0.1-3.1,0.4-3.9c0.9-1.7,4.8-3.2,5.8-4.9c0.2-0.3,0.1-1.2,0.3-1.6
									c1.3-2.1,6.2-4.2,7.9-6c0.8-0.9,1.6-3.7,2.8-3.9c0.5-0.1,1.4,1.1,2,1c0.4-0.1,1.1-0.7,1-1c-0.1-0.5-1.6-0.6-1.8-1
									c-0.3-0.6,0.1-2.5,2.5-0.4c2.4,2.1,2.9-0.3,3.8-0.5c0.3-0.1,0.9,0.4,0.9,0.7c0,0.3-0.7,0.4-0.8,0.7c-0.2,0.4-0.3,1.4,0,1.7
									c0.6,0.9,3.1,1.8,4.1,1.3c0.5-0.3,0.9-1.7,0.7-2.2c-0.3-0.6-2-0.4-2.4-0.9c-0.1-0.2-0.1-0.7,0-0.9c0.3-0.4,1.5-0.4,1.7-0.8
									c0.3-0.4,0.2-1.6,0-2.1c-0.3-0.7-2-1.2-2.4-1.8c-0.5-0.8,0.4-3.3-0.4-3.8c-0.7-0.4-2.2,1.2-3,1.3c-0.3,0.1-1.1,0.1-1.3-0.1
									c-0.4-0.4,0.3-1.8,0-2.2c-0.7-1-3.4-1.9-4.6-1.7c-0.7,0.1-1.9,1-2.2,1.6c-0.6,1.1,0.8,4,0,5c-0.6,0.7-2.7,0-3.4,0.5
									c-0.7,0.5-1,2.6-1.7,3.1c-0.3,0.2-1.1,0.5-1.3,0.3c-0.7-0.6,0.7-3.1,0-3.8c-1.1-1.1-11.5-0.9-1.2-6.2c1.1-0.6,3.4-2.5,4.5-2
									c0.5,0.2,0.1,1.7,0.5,2c0.4,0.2,1.4-0.1,1.7-0.4c0.3-0.3-0.1-1.3,0.3-1.6c0.3-0.2,1.2,0.3,1.6,0.1c0.9-0.4,1.6-2.5,2.4-3
									c1-0.7,5-0.8,5-0.8s1,0.9,0.9,1.3c-0.2,1.2-4.1,1.8-3.8,3c0.3,1.5,4.4,2.1,5.8,1.4c0.4-0.2,0.4-1.4,0.8-1.7
									c0.6-0.5,2.5,0.2,3.1-0.3c0.4-0.4,0.8-1.6,0.5-2.1c-0.2-0.4-1.3-0.2-1.6-0.5c-0.3-0.4-0.1-2.2-0.1-2.2s-9.2-7.7-12.7-1
									c-0.3,0.6,0.2,2.2-0.3,2.6c-0.5,0.4-2.1,0.4-2.6,0c-0.4-0.4-0.3-1.6-0.1-2.1c0.3-0.6,2.4-1,2.2-1.7
									c-0.4-1.2-3.8-0.8-4.8-0.3c-0.5,0.3-1.4,1.5-1.2,2c0.1,0.3,1-0.1,1.2,0.1c0.3,0.3,0.6,1.5,0.3,1.8c-0.5,0.6-2.5-0.6-3-0.1
									c-0.2,0.2-0.1,0.9-0.3,1c-0.9,0.7-3.7,0.9-4.5,0.1c-0.3-0.4-0.3-1.7,0.1-2c0.6-0.5,2.4,0.4,3.1,0c0.6-0.3,1.7-1.4,1.6-2.1
									c0-0.4-0.8-0.9-1.2-0.9c-0.4,0-0.9,0.8-1.2,1c-0.6,0.6,0,0.6-2.9-1.7c-0.9-0.8-4.8-0.1-4.8-0.1l-2.5,2.5l2.1,0.1l-0.7,1.8
									c0,0,2.8-0.4,3.4,0.3c0.2,0.2,0,0.7-0.1,0.9c-0.7,0.7-3.9,0.8-3.9,0.8l-1.2-2l-2.9-0.8l-2-0.3
									c-10.2,6.4-18.5,15.5-23.9,26.4l0.3,0.5C-403.1,256.1-402.8,259.6-400.3,261.9z"/>
							</g>
							<g>
								<ellipse class="st2" cx="-353.9" cy="253" rx="1.2" ry="0.9"/>
							</g>
							<g>
								<path class="st2" d="M-349.9,251.5c-0.4,0.3-1.6-0.4-1.8,0c-0.2,0.3,0.2,1.3,0.5,1.6c0.3,0.2,1.1,0.4,1.4,0.3
									c0.3-0.2,0.2-1.2,0.5-1.3c0.3-0.1,1,0.7,1.3,0.5c0.5-0.3,0.4-1.8,0-2.2c-0.3-0.3-1.1-0.2-1.4,0
									C-349.7,250.5-349.6,251.3-349.9,251.5z"/>
							</g>
							<g>
								<path class="st2" d="M-305.8,239.7c0.4,0.5,0.4,1.9,0.9,2.2c0.6,0.4,2.2-1,2.8-0.5c0.6,0.4,0.6,2.4,0.1,2.9
									c-0.9,0.9-4-0.2-5.1,0.4c-1,0.6-1.6,3.2-2.6,3.7c-0.7,0.4-2.7-0.7-3.3-0.1c-0.6,0.5-0.8,2.4-0.4,3c0.2,0.2,0.9,0.1,1,0.3
									c0.3,0.4,0.4,1.6,0,2c-0.9,0.8-3.6-0.3-4.8-0.3c-0.7,0-2.2,0.3-2.1,2.1c0,1-0.1,3.1,0.5,3.8c0.4,0.5,1.9,0.8,2.6,0.8
									c1.2-0.1,3.3-1.2,4.2-2c1-0.8,1.9-3.7,3.1-4.2c0.7-0.3,2.4,0.8,3.1,0.5c0.6-0.2,1-2.2,1.7-2.1c0.5,0.1,0.2,1.6,0.5,2
									c0.8,1.1,4,1.5,4.5,2.8c0.3,0.6-1,2-0.7,2.6c0.1,0.1,0.4,0.2,0.5,0.1c0.8-0.3,2-2.6,2-2.6s-2.9-2.1-3.5-3.1
									c-0.3-0.4-0.8-1.6-0.5-2c0.4-0.6,2.1-0.4,2.8-0.1c0.9,0.3,2.4,1.6,2.8,2.5c0.3,0.7,0,2.2,0.4,2.9c0.4,0.8,1.8,2.6,2.6,2.2
									c1.1-0.5,0.3-2.9,2.5-4.2c0,0-0.1,2.2,0.1,2.9c0.2,0.6,1.1,1.8,1.7,2.1c1.2,0.5,5.3-0.3,5.3-0.3
									c-4.2-10.1-10.9-19-19.3-25.9l-0.7,1.4C-303,235.4-308.9,235.9-305.8,239.7z"/>
							</g>
							<g>
								<path class="st2" d="M-281.1,265.2c0,0-5.7,0.9-7.5,0.2c-0.8-0.3-1.7-1.8-2.5-2.1c-0.8-0.3-2.8-0.6-3.5,0
									c-0.3,0.3-0.1,1.4-0.4,1.7c-1.5,1.4-5.2,0.8-8.1-2c-0.6-0.6,0.6-2.9,0-3.5c-1.4-1.4-5.9-0.1-7.7,0.5c-0.5,0.2-1.2,1-1.7,1.2
									c-1.2,0.4-4-0.3-5.2,0.1c-0.8,0.3-2.4,1.2-2.8,2c-0.3,0.7,0.4,2.5,0,3.3c-1,2-6.4,3.2-7.2,5.2c-0.2,0.5,0,1.6,0.4,2
									c0.3,0.3,1.2,0,1.4,0.3c0.4,0.5,0.1,2.1-0.4,2.5c-0.2,0.2-1-0.1-1.2,0.1c-1,1.1-0.6,4.4-0.1,5.8c0.8,2.3,4.2,6.5,6.4,7.5
									c0.7,0.3,2.5,0.4,3-0.1c0.1-0.1,0-0.7,0.1-0.8c1-0.8,3.9,0.6,5,0c0.4-0.2,0.5-1.2,0.9-1.4c0.7-0.4,2.5-0.5,3.3-0.1
									c0.6,0.3,0.9,1.8,1.4,2.1c0.8,0.4,2.9-0.6,3.5,0c1.1,1.1,0,4.8,0.4,6.3c0.6,2,4,5.2,4.1,7.3c0.1,1.4-1.9,3.6-2.2,5
									c-0.1,0.6-0.3,1.8,0,2.4c0.3,0.7,1.9,1.2,2.2,1.8c0.5,1.2-0.5,3.9-0.1,5.1c0.3,0.8,1.9,1.9,2.2,2.8c0.4,1.3,0,5.4,0,5.4h5.7
									c8.6-11.2,13.7-25.1,13.7-40.3C-278,278.3-279.1,271.5-281.1,265.2z"/>
							</g>
						</g>
					</g>
					<g>
						<linearGradient id="SVGID_1_" gradientUnits="userSpaceOnUse" x1="-410.3912" y1="285.2651" x2="-344.1919" y2="285.2651">
							<stop  offset="0" style="stop-color:#1A171B;stop-opacity:0.5"/>
							<stop  offset="2.616996e-002" style="stop-color:#1A171B;stop-opacity:0.4869"/>
							<stop  offset="1" style="stop-color:#1A171B;stop-opacity:0"/>
						</linearGradient>
						<path class="st3" d="M-376.2,285.3c0,46.2,32,66.2,32,66.2c-36.6,0-66.2-29.6-66.2-66.2c0-36.6,29.6-66.2,66.2-66.2
							C-344.2,219.1-376.2,240.8-376.2,285.3z"/>
					</g>
				</g>
			</g>
		</g>
	</g>
</g>
</svg>
