<?xml version="1.0" encoding="utf-8"?>
<!-- Generator: Adobe Illustrator 19.0.0, SVG Export Plug-In . SVG Version: 6.00 Build 0)  -->
<svg version="1.1" id="Layer_1" xmlns="http://www.w3.org/2000/svg" xmlns:xlink="http://www.w3.org/1999/xlink" x="0px" y="0px"
	 viewBox="-410.4 219.1 132.4 132.4" style="enable-background:new -410.4 219.1 132.4 132.4;" xml:space="preserve">
<style type="text/css">
	.st0{fill:none;stroke:#C6C7C8;stroke-width:2;stroke-miterlimit:10;}
	.st1{fill:#F6F6F6;}
	.st2{fill:#CE6F3E;}
	.st3{fill:#F8E2B2;}
	.st4{fill:#792F10;}
	.st5{fill:#BD7E48;}
	.st6{fill:#ED5D21;}
	.st7{fill:url(#SVGID_1_);}
</style>
<g>
	<g>
		<g>
			<g>
				<g>
					<path class="st0" d="M-346.3,227.1"/>
					<path class="st1" d="M-280.4,203.8"/>
				</g>
				<g>
					<g>
						<g>
							<circle class="st2" cx="-344.2" cy="284.9" r="64.9"/>
						</g>
						<g>
							<g>
								<g>
									<path class="st3" d="M-378.5,340c4.4,2.8,9.1,5,14,6.6c0.5-13.3,43.6-19.5,82.8-43.9c0.7-2.6,1.3-5.2,1.7-7.9
										c-7.4,2.7-38.3,22.5-56.1,25.1C-353.5,322.5-366.4,329.6-378.5,340z"/>
								</g>
								<g>
									<path class="st4" d="M-366.9,275.6c12.2-14,12.4-2.3,18.4-6.5c3-2.1,21.9-2.2,30.1-7.1c13.6-8.1,2.4-18.8,18.2-24.6
										c-1.5-1.4-3-2.6-4.6-3.8c-12.5,4.8-69.7,27.7-76.2,42.1c0,0-10,16-26.9,20.8c0.4,2.1,0.8,4.1,1.4,6.1
										C-398.2,298.4-376.7,286.8-366.9,275.6z"/>
								</g>
								<g>
									<path class="st5" d="M-308.8,230.6c-5.1-3.3-10.7-5.9-16.5-7.6c-5.9,7.5-24,22.1-79,38c-1.5,3.8-2.7,7.7-3.5,11.7
										C-395.2,265.7-353.8,243.4-308.8,230.6z"/>
								</g>
								<g>
									<path class="st4" d="M-364.5,346.6c6.7,2.2,13.7,3.4,20.8,3.3c3.9-10,19-10.6,31.5-17.7c11.4-6.4,20-19.5,28.1-22.4
										c1-2.3,1.8-4.7,2.4-7.1c-8.5,3.1-25.3,20.9-32.1,23.7C-359,344.4-361.8,340.8-364.5,346.6z"/>
								</g>
								<g>
									<path class="st6" d="M-396.4,323.4c4.9,6.7,11,12.3,17.9,16.6c10.3-21.1,24-19.8,38.6-27.5c6.2-3.3,19.5-9.4,24.8-10.1
										c17.8-2.6,27.9-4.8,35.3-7.5c0.3-1.7,0.4-3.4,0.6-5.1c-7.4,1.1-11.7,4.3-18,4.8C-340.3,298-357.8,302.2-396.4,323.4z"/>
								</g>
								<path class="st3" d="M-318.8,260.3c-8.3,4.9-23.3,3.1-27,3.1c-5.9,0-8.9-1.9-21.1,12.1c-4.5,5.2-11.5,10.4-18.6,15
									c-8.3,5.4-16.6,9.8-21,12.1c0.7,2.5,1.6,5,2.6,7.5c0,0,0,0,0,0c6.8-6.9,13.1-7.2,17.9-8.1c10.3-1.8,11.8-5.6,38-17.5
									c14.4-6.6,17.7-8.1,31.6-14.5c21.8-10,20.3-16.1,27.7-18.7c-3.2-5.3-7.1-10-11.5-14.1C-315.9,243.1-305.2,252.2-318.8,260.3
									z"/>
								<g>
									<path class="st6" d="M-372.7,273.6c11.6-10.8,55.5-35.3,67.9-40.1c-1.3-1-2.7-2-4.1-2.9c-11.7,3.3-23.2,7.3-34,11.5
										c-12.4,4.8-23.9,9.9-33.8,14.6c-14.5,6.9-25.6,12.9-31.1,16c-1.5,7.7-1.6,15.8-0.2,23.7c9.9-2.8,19.3-7.7,23.8-12.8
										C-380.9,280.2-376.2,276.9-372.7,273.6z"/>
								</g>
								<path class="st3" d="M-325.3,223c-3.1-0.9-6.3-1.6-9.5-2.1c-11,6.9-20.7,3.6-30.1,7.2c-12.8,5-24.1,15.8-30.2,17
									c-3.8,4.9-6.9,10.2-9.2,15.9c24.8-7.2,25.4-15,37.4-21.1C-352.2,232.5-328.5,227.1-325.3,223z"/>
								<g>
									<path class="st5" d="M-400.9,316.3c0.5,0.9,1,1.8,1.6,2.7c12-17.2,30.5-13.1,65.7-23.5c14.8-4.3,39.1-16,54.2-16.6
										c-0.5-5.7-1.9-11.4-4-17C-335.8,297-357.9,285.5-400.9,316.3z"/>
								</g>
							</g>
						</g>
					</g>
					<g>
						<linearGradient id="SVGID_1_" gradientUnits="userSpaceOnUse" x1="-409.0504" y1="284.9398" x2="-344.1855" y2="284.9398">
							<stop  offset="0" style="stop-color:#1A171B;stop-opacity:0.5"/>
							<stop  offset="2.616996e-002" style="stop-color:#1A171B;stop-opacity:0.4869"/>
							<stop  offset="1" style="stop-color:#1A171B;stop-opacity:0"/>
						</linearGradient>
						<path class="st7" d="M-375.6,284.9c0,45.2,31.4,64.9,31.4,64.9c-35.8,0-64.9-29-64.9-64.9c0-35.8,29-64.9,64.9-64.9
							C-344.2,220.1-375.6,241.3-375.6,284.9z"/>
					</g>
				</g>
			</g>
		</g>
	</g>
</g>
</svg>
