<?xml version="1.0" encoding="utf-8"?>
<!-- Generator: Adobe Illustrator 19.0.0, SVG Export Plug-In . SVG Version: 6.00 Build 0)  -->
<svg version="1.1" id="Layer_1" xmlns="http://www.w3.org/2000/svg" xmlns:xlink="http://www.w3.org/1999/xlink" x="0px" y="0px"
	 viewBox="-410.4 219.1 132.4 132.4" style="enable-background:new -410.4 219.1 132.4 132.4;" xml:space="preserve">
<style type="text/css">
	.st0{fill:none;stroke:#C6C7C8;stroke-width:2;stroke-miterlimit:10;}
	.st1{fill:#E27F7F;}
	.st2{fill:#D84443;}
	.st3{fill:url(#SVGID_1_);}
</style>
<g>
	<g>
		<g>
			<g>
				<g>
					<path class="st0" d="M-347.3,226.8"/>
				</g>
				<g>
					<g>
						<g>
							<circle class="st1" cx="-344.1" cy="285.3" r="66.2"/>
						</g>
						<g>
							<g>
								<g>
									<path class="st2" d="M-348.2,269.1c0-11.2-20.1-20.3-45-20.3c-2.2,0-4.3,0.1-6.3,0.2c-6.8,10.4-10.8,22.9-10.8,36.3
										c0,0.9,0,1.8,0.1,2.6c5.3,1,11.1,1.5,17.1,1.5C-368.4,289.4-348.2,280.3-348.2,269.1z"/>
								</g>
								<g>
									<path class="st2" d="M-350.2,230.7c0,11.4,20.6,20.7,46,20.7c5.7,0,11.1-0.5,16.1-1.3c-11.4-18.1-31.3-30.3-54.1-31
										C-347.3,222.4-350.2,226.4-350.2,230.7z"/>
								</g>
								<g>
									<path class="st2" d="M-303.5,324.4c0-4.6-31.2-8.3-69.7-8.3c-10.4,0-20.3,0.3-29.2,0.8c3.2,5.8,7.2,11.1,11.8,15.6
										c5.5,0.2,11.3,0.3,17.3,0.3C-334.7,332.7-303.5,329-303.5,324.4z"/>
								</g>
								<g>
									<path class="st2" d="M-338.2,270.1c0,3.3,19.7,6,44,6c5.5,0,10.7-0.1,15.5-0.4c-0.6-3.9-1.5-7.7-2.7-11.4
										c-4.1-0.2-8.4-0.3-12.8-0.3C-318.5,264.1-338.2,266.8-338.2,270.1z"/>
								</g>
								<g>
									<path class="st2" d="M-301.9,293.4c-28.5,0-51.7,3.7-51.7,8.3c0,4.6,23.1,8.3,51.7,8.3c6.8,0,13.3-0.2,19.3-0.6
										c1.9-4.8,3.2-9.9,4-15.2C-285.6,293.7-293.5,293.4-301.9,293.4z"/>
								</g>
								<g>
									<path class="st2" d="M-362.9,228.1c0-1.9-1.3-3.7-3.6-5.2c-8.4,3-16.1,7.7-22.5,13.6c2.1,0.4,4.4,0.6,6.8,0.6
										C-371.5,237.1-362.9,233-362.9,228.1z"/>
								</g>
								<g>
									<path class="st2" d="M-350.2,346.7c0-3.3-6.4-6-14.3-6c-4.8,0-9,1-11.6,2.5c6.8,3.7,14.3,6.3,22.3,7.5
										C-351.6,349.7-350.2,348.3-350.2,346.7z"/>
								</g>
							</g>
							<ellipse class="st2" cx="-375.5" cy="302.5" rx="7.8" ry="2.7"/>
						</g>
					</g>
					<g>
						<linearGradient id="SVGID_1_" gradientUnits="userSpaceOnUse" x1="-410.3755" y1="285.2656" x2="-344.1763" y2="285.2656">
							<stop  offset="0" style="stop-color:#1A171B;stop-opacity:0.5"/>
							<stop  offset="2.616996e-002" style="stop-color:#1A171B;stop-opacity:0.4869"/>
							<stop  offset="1" style="stop-color:#1A171B;stop-opacity:0"/>
						</linearGradient>
						<path class="st3" d="M-376.2,285.3c0,46.2,32,66.2,32,66.2c-36.6,0-66.2-29.6-66.2-66.2c0-36.6,29.6-66.2,66.2-66.2
							C-344.2,219.1-376.2,240.8-376.2,285.3z"/>
					</g>
				</g>
			</g>
		</g>
	</g>
</g>
</svg>
