<?xml version="1.0" encoding="utf-8"?>
<!-- Generator: Adobe Illustrator 19.0.0, SVG Export Plug-In . SVG Version: 6.00 Build 0)  -->
<svg version="1.1" id="Layer_1" xmlns="http://www.w3.org/2000/svg" xmlns:xlink="http://www.w3.org/1999/xlink" x="0px" y="0px"
	 viewBox="-410.4 219.1 132.4 132.4" style="enable-background:new -410.4 219.1 132.4 132.4;" xml:space="preserve">
<style type="text/css">
	.st0{fill:none;stroke:#C6C7C8;stroke-width:2;stroke-miterlimit:10;}
	.st1{fill:#BA935C;}
	.st2{fill:#AB6A2A;}
	.st3{fill:url(#SVGID_1_);}
</style>
<g>
</g>
<g>
	<g>
		<g>
			<g>
				<g>
					<path class="st0" d="M-346.8,228"/>
				</g>
				<g>
					<g>
						<g>
							<circle class="st1" cx="-343.6" cy="284.8" r="64.6"/>
						</g>
						<g>
							<g>
								<ellipse class="st2" cx="-375" cy="244.9" rx="5.6" ry="7.1"/>
								<ellipse class="st2" cx="-334.1" cy="240.6" rx="7.9" ry="5.8"/>
								<ellipse class="st2" cx="-308.4" cy="251.3" rx="5.6" ry="4.3"/>
								
									<ellipse transform="matrix(0.9459 0.3246 -0.3246 0.9459 67.4924 126.8583)" class="st2" cx="-346.5" cy="265.8" rx="4.6" ry="4.1"/>
								<ellipse class="st2" cx="-334.1" cy="303.6" rx="8.4" ry="6.4"/>
								<ellipse class="st2" cx="-308.7" cy="278.7" rx="4.8" ry="4.3"/>
								<ellipse class="st2" cx="-301.8" cy="311" rx="4.6" ry="4.1"/>
								<ellipse class="st2" cx="-325.7" cy="334.9" rx="6.1" ry="3.6"/>
								<ellipse class="st2" cx="-357.5" cy="328.3" rx="3.8" ry="4.1"/>
								<ellipse class="st2" cx="-373.8" cy="303.1" rx="8.9" ry="5.8"/>
								<ellipse class="st2" cx="-390.3" cy="275.7" rx="4.6" ry="4.3"/>
								
									<ellipse transform="matrix(0.9792 0.2031 -0.2031 0.9792 57.4379 84.1058)" class="st2" cx="-381.1" cy="321.9" rx="4.1" ry="2.8"/>
							</g>
						</g>
					</g>
					<g>
						<linearGradient id="SVGID_1_" gradientUnits="userSpaceOnUse" x1="-408.1625" y1="284.81" x2="-343.5773" y2="284.81">
							<stop  offset="0" style="stop-color:#1A171B;stop-opacity:0.5"/>
							<stop  offset="2.616996e-002" style="stop-color:#1A171B;stop-opacity:0.4869"/>
							<stop  offset="1" style="stop-color:#1A171B;stop-opacity:0"/>
						</linearGradient>
						<path class="st3" d="M-374.8,284.8c0,45,31.2,64.6,31.2,64.6c-35.7,0-64.6-28.9-64.6-64.6c0-35.7,28.9-64.6,64.6-64.6
							C-343.6,220.2-374.8,241.4-374.8,284.8z"/>
					</g>
				</g>
			</g>
		</g>
	</g>
</g>
</svg>
