<?xml version="1.0" encoding="utf-8"?>
<!-- Generator: Adobe Illustrator 19.0.0, SVG Export Plug-In . SVG Version: 6.00 Build 0)  -->
<svg version="1.1" id="Layer_1" xmlns="http://www.w3.org/2000/svg" xmlns:xlink="http://www.w3.org/1999/xlink" x="0px" y="0px"
	 viewBox="-827 430.7 129 129" style="enable-background:new -827 430.7 129 129;" xml:space="preserve">
<style type="text/css">
	.st0{fill:#CECFD1;}
	.st1{fill:#DDDDDD;}
	.st2{fill:#7F7F7F;}
	.st3{fill:#9E9E9E;}
</style>
<g>
	<circle class="st0" cx="-762.5" cy="495.2" r="64.5"/>
	<g>
		<path class="st1" d="M-738.9,472.3c0,0-4.5,9.3,5.5,14.6c10.2,5.4,14-1.9,15.1-4"/>
		<path class="st1" d="M-750.6,447.1c0,0-2.1,9.7,8.9,11.8c11.2,2.2,13.2-5.5,13.7-7.8"/>
		<path class="st2" d="M-718.5,483.2c-2,3.8-8.3,4.5-13.9,1.5c-5.6-3-8.6-8.6-6.5-12.4c2-3.8,8.3-4.5,13.9-1.5
			C-719.3,473.8-716.4,479.4-718.5,483.2z"/>
		<path class="st3" d="M-719.3,483.7c-1.8,3.5-7.6,4-13,1.2c-5.3-2.8-8.1-7.9-6.3-11.4c1.9-3.5,7.7-4,13-1.2
			C-720.2,475.1-717.4,480.2-719.3,483.7z"/>
		
			<ellipse transform="matrix(0.4702 -0.8826 0.8826 0.4702 -809.5109 -388.3311)" class="st0" cx="-728.2" cy="480.1" rx="3" ry="4.6"/>
		<path class="st1" d="M-788.4,476.9c0,0,1.5,15.8,16.7,14.9c15.4-0.9,14.5-13.8,14.3-17.1"/>
		<path class="st2" d="M-757.4,475.2c0.3,6-6.4,11.2-15,11.6c-8.6,0.5-15.8-4-16.1-10c-0.3-6,6.4-11.2,15-11.7
			C-764.9,464.8-757.7,469.3-757.4,475.2z"/>
		<path class="st3" d="M-759.8,476.3c0.3,5.4-5.3,10.1-12.5,10.5s-13.3-3.7-13.5-9.1c-0.3-5.4,5.3-10.1,12.5-10.5
			C-766.1,466.9-760.1,470.9-759.8,476.3z"/>
		<path class="st0" d="M-764.5,478.1c0.1,2.3-2.5,4.3-6,4.5c-3.4,0.2-6.3-1.5-6.4-3.8c-0.1-2.3,2.6-4.3,6-4.5
			C-767.5,474.2-764.6,475.9-764.5,478.1z"/>
		<path class="st1" d="M-816.5,483.1c0,0,7.2,6.1,14-1.4c6-6.6-0.5-10.5-1.9-11.9"/>
		<path class="st2" d="M-804.1,469.9c2.7,2.6,2.1,7.6-1.3,11.2c-3.4,3.6-8.3,4.5-11,1.9c-2.7-2.6-2.1-7.6,1.3-11.2
			C-811.7,468.2-806.8,467.4-804.1,469.9z"/>
		<path class="st3" d="M-805.6,472.3c2.4,2.3,2,6.6-0.8,9.7c-2.9,3-7.1,3.6-9.5,1.3c-2.4-2.3-2-6.7,0.8-9.7
			C-812.2,470.6-808,470-805.6,472.3z"/>
		<path class="st1" d="M-805.9,506.5c0,0-0.4,1.4-1.5,2.3c0,0,0.2,5.7,7.3,7c7.3,1.4,9.2-4.2,9.2-4.2s-0.7-0.9-0.4-2.6"/>
		<path class="st2" d="M-789.8,509.5c-0.7,3.6-5.3,5.8-10.2,4.9c-4.9-0.9-8.2-4.6-7.5-8.3c0.7-3.6,5.3-5.8,10.2-4.9
			C-792.4,502.1-789.1,505.8-789.8,509.5z"/>
		<path class="st3" d="M-792.6,509.5c-0.7,3.3-4.5,5.3-8.6,4.5s-6.9-4.1-6.2-7.4c0.7-3.3,4.5-5.3,8.6-4.5
			C-794.7,502.9-791.9,506.2-792.6,509.5z"/>
		<path class="st1" d="M-759.7,538.6c0,0,0,1.9-0.9,3.4c0,0,3.1,6,13,4.5c10-1.5,9.8-8.4,9.8-8.4s-1.4-0.7-1.8-2.7"/>
		<path class="st2" d="M-737.1,534.9c0.8,4.4-4.2,8.8-11.2,9.8s-13.3-1.8-14.1-6.2c-0.8-4.4,4.2-8.8,11.2-9.8
			C-744.2,527.7-737.9,530.5-737.1,534.9z"/>
		<path class="st3" d="M-740.7,536.1c0.7,4-3.4,7.9-9.3,8.8c-5.9,0.8-11.2-1.7-12-5.7c-0.7-4,3.4-7.9,9.3-8.8
			C-746.8,529.6-741.5,532.2-740.7,536.1z"/>
		<path class="st2" d="M-778.4,443.9c0.7,2.2-1.2,4.7-4.2,5.7c-3,0.9-5.9-0.1-6.6-2.3c-0.7-2.2,1.2-4.7,4.1-5.7
			C-782,440.7-779.1,441.7-778.4,443.9z"/>
		<path class="st3" d="M-779.9,444.7c0.6,2-0.9,4.2-3.4,5s-5-0.2-5.6-2.2c-0.6-2,0.9-4.2,3.4-5C-783,441.8-780.5,442.7-779.9,444.7z
			"/>
		<path class="st2" d="M-740.3,506c0.7,2.7-1.3,5.8-4.4,6.9c-3.2,1.1-6.3-0.1-7-2.9c-0.7-2.7,1.3-5.8,4.4-6.9
			C-744.2,502.1-741,503.3-740.3,506z"/>
		<path class="st3" d="M-741.9,507.1c0.6,2.4-1,5.2-3.6,6.1c-2.7,0.9-5.3-0.3-6-2.7c-0.6-2.4,1-5.2,3.7-6.1
			C-745.2,503.4-742.6,504.6-741.9,507.1z"/>
		<path class="st2" d="M-712.1,510.1c0.7,2.7-1.3,5.8-4.4,6.9c-3.2,1.1-6.3-0.2-7-2.9c-0.7-2.7,1.3-5.8,4.4-6.9
			C-715.9,506.1-712.8,507.4-712.1,510.1z"/>
		<path class="st3" d="M-713.7,511.1c0.6,2.4-1,5.2-3.6,6.1c-2.7,0.9-5.3-0.3-6-2.7c-0.6-2.4,1-5.2,3.7-6.1
			C-717,507.5-714.3,508.7-713.7,511.1z"/>
		<path class="st2" d="M-728.2,452c-1.2,4.2-7.2,6.1-13.3,4.3c-6.1-1.8-10.1-6.6-8.9-10.8c1.2-4.2,7.2-6.1,13.3-4.3
			C-731,443-727,447.8-728.2,452z"/>
		<path class="st3" d="M-728.9,452.6c-1.1,3.8-6.7,5.5-12.4,3.8c-5.8-1.7-9.6-6.1-8.5-9.9s6.7-5.5,12.4-3.8
			C-731.6,444.4-727.8,448.8-728.9,452.6z"/>
		<path class="st0" d="M-746.7,510.3c0,0.5-0.5,0.9-1.2,0.9s-1.3-0.3-1.3-0.8s0.5-0.9,1.2-0.9C-747.3,509.5-746.8,509.8-746.7,510.3
			z"/>
		<path class="st2" d="M-780.1,533.5c0.7,2.7-1.3,5.8-4.4,6.9c-3.2,1.1-6.3-0.1-7-2.9c-0.7-2.7,1.3-5.8,4.4-6.9
			C-784,529.6-780.8,530.8-780.1,533.5z"/>
		<path class="st3" d="M-781.7,534.5c0.6,2.4-1,5.2-3.6,6.1c-2.7,0.9-5.3-0.3-6-2.7c-0.6-2.4,1-5.2,3.7-6.1
			C-785.1,530.9-782.4,532.1-781.7,534.5z"/>
		<path class="st0" d="M-786.5,537.8c0,0.5-0.5,0.9-1.2,0.9s-1.3-0.3-1.3-0.8s0.5-0.9,1.2-0.9S-786.6,537.3-786.5,537.8z"/>
		<path class="st2" d="M-769.5,517.7c0.4,1.3-0.6,2.9-2.2,3.4c-1.6,0.6-3.1-0.1-3.5-1.4s0.6-2.9,2.2-3.4
			C-771.4,515.7-769.8,516.4-769.5,517.7z"/>
		<path class="st3" d="M-770.3,518.2c0.3,1.2-0.5,2.6-1.8,3c-1.3,0.5-2.6-0.1-3-1.3c-0.3-1.2,0.5-2.6,1.8-3
			C-771.9,516.4-770.6,517-770.3,518.2z"/>
		<path class="st0" d="M-772.7,519.8c0,0.2-0.3,0.4-0.6,0.4c-0.3,0-0.6-0.1-0.6-0.4c0-0.2,0.3-0.4,0.6-0.4
			C-772.9,519.4-772.7,519.6-772.7,519.8z"/>
		<path class="st0" d="M-750.3,539.6c0.1,1-1.1,1.9-2.5,2c-1.4,0.1-2.6-0.7-2.7-1.7s1.1-1.9,2.5-2
			C-751.5,537.8-750.3,538.6-750.3,539.6z"/>
		<path class="st0" d="M-802.3,511.5c-0.8,0.6-2.2,0.1-3-1c-0.8-1.2-0.8-2.6,0-3.1c0.8-0.6,2.2-0.1,3,1S-801.5,510.9-802.3,511.5z"
			/>
		
			<ellipse transform="matrix(-5.357868e-002 -0.9986 0.9986 -5.357868e-002 -1272.5339 -175.869)" class="st0" cx="-719.6" cy="515.1" rx="1" ry="1.4"/>
		<path class="st0" d="M-810.7,482.5c0,0.5-0.6,1-1.3,1c-0.7,0-1.4-0.4-1.4-0.9s0.6-1,1.3-1C-811.4,481.6-810.8,482-810.7,482.5z"/>
		<path class="st0" d="M-738.8,453.9c0,0.5-0.6,1-1.3,1c-0.7,0-1.4-0.4-1.4-0.9s0.6-1,1.3-1C-739.5,452.9-738.8,453.3-738.8,453.9z"
			/>
		
			<ellipse transform="matrix(-5.275172e-002 -0.9986 0.9986 -5.275172e-002 -1271.6188 -312.0182)" class="st0" cx="-783.8" cy="447.1" rx="1" ry="1.4"/>
	</g>
</g>
</svg>
