<?xml version="1.0" encoding="utf-8"?>
<!-- Generator: Adobe Illustrator 19.0.0, SVG Export Plug-In . SVG Version: 6.00 Build 0)  -->
<svg version="1.1" id="Layer_1" xmlns="http://www.w3.org/2000/svg" xmlns:xlink="http://www.w3.org/1999/xlink" x="0px" y="0px"
	 viewBox="-410.4 219.1 132.4 132.4" style="enable-background:new -410.4 219.1 132.4 132.4;" xml:space="preserve">
<style type="text/css">
	.st0{fill:none;stroke:#C6C7C8;stroke-width:2;stroke-miterlimit:10;}
	.st1{fill:#6C8EC1;}
	.st2{fill:#2C4974;}
	.st3{fill:url(#SVGID_1_);}
</style>
<g>
	<g>
		<g>
			<g>
				<g>
					<path class="st0" d="M-345,226.5"/>
				</g>
				<g>
					<g>
						<g>
							<circle class="st1" cx="-344.2" cy="285.3" r="66.2"/>
						</g>
						<g>
							<ellipse class="st2" cx="-328.5" cy="241.8" rx="18" ry="11.7"/>
						</g>
						<g>
							<ellipse class="st2" cx="-339.9" cy="283.4" rx="12" ry="5"/>
						</g>
						<g>
							<ellipse class="st2" cx="-388.2" cy="275.1" rx="7" ry="11"/>
						</g>
						<g>
							<ellipse class="st2" cx="-370.5" cy="305.1" rx="10" ry="8"/>
						</g>
						<g>
							<circle class="st2" cx="-317.2" cy="322.1" r="8"/>
						</g>
						<g>
							<ellipse class="st2" cx="-302.9" cy="278.4" rx="7.7" ry="5.7"/>
						</g>
						<g>
							<ellipse class="st2" cx="-376.5" cy="244.8" rx="5.7" ry="3"/>
						</g>
						<g>
							<ellipse class="st2" cx="-352.9" cy="336.1" rx="3" ry="4"/>
						</g>
					</g>
					<g>
						<linearGradient id="SVGID_1_" gradientUnits="userSpaceOnUse" x1="-410.3755" y1="285.2654" x2="-344.1763" y2="285.2654">
							<stop  offset="0" style="stop-color:#1A171B;stop-opacity:0.5"/>
							<stop  offset="2.616996e-002" style="stop-color:#1A171B;stop-opacity:0.4869"/>
							<stop  offset="1" style="stop-color:#1A171B;stop-opacity:0"/>
						</linearGradient>
						<path class="st3" d="M-376.2,285.3c0,46.2,32,66.2,32,66.2c-36.6,0-66.2-29.6-66.2-66.2c0-36.6,29.6-66.2,66.2-66.2
							C-344.2,219.1-376.2,240.8-376.2,285.3z"/>
					</g>
				</g>
			</g>
		</g>
	</g>
</g>
</svg>
