<?xml version="1.0" encoding="utf-8"?>
<!-- Generator: Adobe Illustrator 19.0.0, SVG Export Plug-In . SVG Version: 6.00 Build 0)  -->
<svg version="1.1" id="Layer_1" xmlns="http://www.w3.org/2000/svg" xmlns:xlink="http://www.w3.org/1999/xlink" x="0px" y="0px"
	 viewBox="-410.4 219.1 132.4 132.4" style="enable-background:new -410.4 219.1 132.4 132.4;" xml:space="preserve">
<style type="text/css">
	.st0{fill:none;stroke:#C6C7C8;stroke-width:2;stroke-miterlimit:10;}
	.st1{fill:#959596;}
	.st2{fill:#696C70;}
	.st3{fill:url(#SVGID_1_);}
</style>
<g>
	<g>
		<g>
			<g>
				<g>
					<path class="st0" d="M-345,226.5"/>
				</g>
				<g>
					<g>
						<g>
							<circle class="st1" cx="-344.2" cy="285.3" r="66.2"/>
						</g>
						<g>
							<g>
								<g>
									<path class="st2" d="M-320.2,238c-2.6,3.1-8.7,12.5-12,14.8c-5,3.4-20.5,4-28.5,6c-6.5,1.6-17.2,9.6-11.3,12.8
										c12.4,6.5,74.9-11.3,78.8,2.3c2.4,8.6-31.6,7.1-32,16c-0.2,5.2,14.8,6.1,20,6c7.1-0.2,20.1-6.2,27.2-12.5
										c-0.7-22.9-13-42.9-31.2-54.2C-313.7,231.7-317.7,235.1-320.2,238z"/>
								</g>
								<g>
									<path class="st2" d="M-345.9,320.7c1.8-3.1-3.5-10.9-6.7-12.7c-7.3-4.1-27.3,7.7-33.3,2c-1.6-1.5-1.6-7.2,0-8.7
										c1.9-1.8,8,1.1,10.7,0.7c3.6-0.7,13.2-2.3,13.3-6c0.1-3.9-10.2-6.1-14-7.3c-7.1-2.3-25.6-4.1-34.5-4.9c0,0.5,0,0.9,0,1.4
										c0,13,3.8,25.1,10.2,35.3c7.6,2.9,20,3.3,26.3,3.5C-366.8,324.3-349.5,326.8-345.9,320.7z"/>
								</g>
								<path class="st2" d="M-287.3,319c-4.4-0.6-9.3-0.9-14.6-0.9c-17.3,0-31.3,3.6-31.3,8c0,4.4,14,8,31.3,8c0.8,0,1.6,0,2.4,0
									C-294.7,329.7-290.6,324.6-287.3,319z"/>
								<path class="st2" d="M-351.2,236.7c0-2.9-14-5.3-31.5-5.3c-4.2,3-8,6.5-11.4,10.4c3.3,0.2,6.9,0.3,10.6,0.3
									C-365.7,242.1-351.2,239.7-351.2,236.7z"/>
							</g>
						</g>
					</g>
					<g>
						<linearGradient id="SVGID_1_" gradientUnits="userSpaceOnUse" x1="-410.3755" y1="285.2654" x2="-344.1763" y2="285.2654">
							<stop  offset="0" style="stop-color:#1A171B;stop-opacity:0.5"/>
							<stop  offset="2.616996e-002" style="stop-color:#1A171B;stop-opacity:0.4869"/>
							<stop  offset="1" style="stop-color:#1A171B;stop-opacity:0"/>
						</linearGradient>
						<path class="st3" d="M-376.2,285.3c0,46.2,32,66.2,32,66.2c-36.6,0-66.2-29.6-66.2-66.2c0-36.6,29.6-66.2,66.2-66.2
							C-344.2,219.1-376.2,240.8-376.2,285.3z"/>
					</g>
				</g>
			</g>
		</g>
	</g>
</g>
</svg>
