<?xml version="1.0" encoding="utf-8"?>
<!-- Generator: Adobe Illustrator 19.0.0, SVG Export Plug-In . SVG Version: 6.00 Build 0)  -->
<svg version="1.1" id="Layer_1" xmlns="http://www.w3.org/2000/svg" xmlns:xlink="http://www.w3.org/1999/xlink" x="0px" y="0px"
	 viewBox="-347 250.4 229.3 132.4" style="enable-background:new -347 250.4 229.3 132.4;" xml:space="preserve">
<style type="text/css">
	.st0{fill:none;stroke:#C6C7C8;stroke-width:2;stroke-miterlimit:10;}
	.st1{fill:#E2D6B1;}
	.st2{fill:#D6C377;}
	.st3{fill:#E6BEB8;}
	.st4{fill:#EF9654;}
	.st5{fill:#F6CD87;}
	.st6{fill:#AEDEF4;}
	.st7{fill:#ABDCF0;}
	.st8{fill:#F09951;}
	.st9{fill:url(#SVGID_1_);}
	.st10{opacity:0.5;fill:#FFFFFF;}
	.st11{opacity:0.2;}
	.st12{fill:#FFFFFF;}
</style>
<g>
</g>
<g>
	<g>
		<g>
			<g>
				<g>
					<path class="st0" d="M-231.5,257.3"/>
				</g>
				<g>
					<g>
						<g>
							<circle class="st1" cx="-230.4" cy="316.6" r="66.2"/>
						</g>
						<g>
							<g>
								<path class="st2" d="M-164.4,321.4c0.1-1.6,0.2-3.2,0.2-4.8c0-2.5-0.1-4.9-0.4-7.4c-27.1,6.9-50.9,9.3-70.4,9.3
									c-12.7,0-23.7-1-32.6-2.3c-12.1-1.7-21.7-4.2-28.6-6.4c-0.2,2.2-0.3,4.5-0.3,6.8c0,1.8,0.1,3.6,0.2,5.3
									C-275.5,328.5-228.9,338-164.4,321.4z"/>
							</g>
							<g>
								<path class="st3" d="M-167.4,336.9c1.5-4.6,2.5-9.5,2.9-14.5c-27.2,7-51,9.3-70.6,9.3c-12.7,0-23.7-1-32.6-2.3
									c-12.1-1.7-21.7-4.2-28.7-6.4c0.5,5.1,1.6,10,3.1,14.7C-271.3,344-227.3,351.8-167.4,336.9z"/>
							</g>
							<g>
								<path class="st4" d="M-165.7,302.5c-0.7-3.1-1.5-6.1-2.6-9c-25.6,6.2-48.1,8.3-66.7,8.3c-12.7,0-23.7-1-32.6-2.3
									c-10.1-1.5-18.6-3.5-25.1-5.4c-1,2.9-1.9,5.8-2.5,8.8C-274,309.6-228.4,318.4-165.7,302.5z"/>
							</g>
							<g>
								<path class="st5" d="M-176.1,278.6c-1.1-1.6-2.3-3.1-3.5-4.6c-21,5.1-39.7,7-55.6,7c-12.6,0-23.4-1.1-32.2-2.6
									c-5.3-0.9-10.2-2-14.6-3.1c-1.2,1.5-2.3,3-3.4,4.6c5.2,1.5,11.3,3,18.1,4.1C-246.7,287.4-215.3,288.9-176.1,278.6z"/>
							</g>
							<g>
								<path class="st4" d="M-268.3,370.5c-0.2,0-0.5-0.1-0.7-0.1c10.9,7.8,24.2,12.4,38.6,12.4c15.8,0,30.4-5.6,41.8-14.9
									c-17.9,3.9-33.9,5.3-47.7,5.3C-248.8,373.2-259.5,372.1-268.3,370.5z"/>
							</g>
							<g>
								<path class="st6" d="M-185.7,267.7c-2.2-2-4.4-3.8-6.9-5.5c-15.8,3-30.2,4.2-42.7,4.2c-12.6,0-23.4-1.1-32.2-2.6
									c-0.8-0.1-1.5-0.3-2.3-0.4c-2.3,1.7-4.5,3.6-6.5,5.5c2.8,0.6,5.8,1.2,9,1.8C-248.4,273.9-220.4,275.4-185.7,267.7z"/>
							</g>
							<g>
								<path class="st2" d="M-193.7,261.5c-10.5-7-23.1-11.1-36.7-11.1c-14.3,0-27.5,4.5-38.3,12.2c0.4,0.1,0.9,0.2,1.3,0.2
									C-249.9,265.8-224.8,267.2-193.7,261.5z"/>
							</g>
							<g>
								<path class="st7" d="M-165,306.3c-63.8,16.3-109.9,7.1-130.9,0.5l-0.1,1c6.9,2.2,16.5,4.6,28.4,6.4
									c8.9,1.3,19.9,2.3,32.6,2.3c19.5,0,43.2-2.3,70.2-9.2L-165,306.3z"/>
							</g>
							<path class="st8" d="M-235,346.5c18.8,0,41.5-2.1,67.2-8.5c0.1-0.4,0.3-0.7,0.4-1.1c-59.9,14.8-103.9,7.1-125.7,0.7
								c0.1,0.4,0.3,0.8,0.4,1.2c6.6,1.9,15,3.9,25.1,5.4C-258.7,345.5-247.7,346.5-235,346.5z"/>
							<g>
								<path class="st6" d="M-268,355.7c-7.2-1.3-13.5-2.9-18.9-4.6c0.3,0.4,0.6,0.9,0.8,1.3c1.2,1.9,2.5,3.7,3.9,5.4
									c0.4,0.4,0.7,0.9,1.1,1.3c3.9,1,8.2,2,12.8,2.9c8.7,1.6,19.5,2.8,32,2.8c16.5,0,36.1-2.1,58.4-7.9c0.3-0.4,0.6-0.9,1-1.3
									c1.2-1.7,2.4-3.5,3.5-5.3c0.2-0.4,0.5-0.8,0.7-1.2C-214.3,361-247,359.5-268,355.7z"/>
							</g>
							<g>
								<path class="st2" d="M-268,369.5c-0.9-0.2-1.9-0.3-2.8-0.5c0.6,0.5,1.2,0.9,1.8,1.4c0.2,0,0.4,0.1,0.7,0.1
									c8.7,1.6,19.5,2.8,32,2.8c13.8,0,29.8-1.4,47.7-5.3c0.6-0.5,1.1-0.9,1.6-1.4C-221.8,374.4-249.5,372.8-268,369.5z"/>
							</g>
							<g>
								<path class="st3" d="M-170.4,288.4c-0.1-0.3-0.3-0.6-0.4-0.9c-0.4-0.7-0.7-1.5-1.1-2.2c-0.2-0.3-0.3-0.6-0.5-0.9
									c-40.9,11.3-73.6,9.8-94.8,6.2c-8.4-1.4-15.6-3.3-21.5-5.1c-0.2,0.3-0.3,0.6-0.5,0.9c-0.4,0.7-0.7,1.4-1.1,2.2
									c-0.1,0.3-0.3,0.6-0.4,0.9c-0.6,1.2-1.1,2.5-1.6,3.8c21.9,6.3,65.1,13.6,123.7-0.6C-169.2,291.2-169.8,289.8-170.4,288.4z"
									/>
							</g>
							<path class="st8" d="M-180.4,273.2c-0.4-0.5-0.8-1-1.3-1.4c-0.3-0.3-0.5-0.6-0.8-0.8c-36.3,8.5-65.4,7-84.9,3.7
								c-4.4-0.7-8.4-1.6-12.1-2.5c-0.3,0.3-0.5,0.6-0.7,0.8c-0.4,0.5-0.8,0.9-1.2,1.4c-0.2,0.3-0.5,0.6-0.7,0.9
								c4.4,1.1,9.2,2.2,14.6,3.1c8.8,1.5,19.7,2.6,32.2,2.6c15.9,0,34.6-1.8,55.6-7C-179.9,273.8-180.1,273.5-180.4,273.2z"/>
						</g>
					</g>
					<g>
						<linearGradient id="SVGID_1_" gradientUnits="userSpaceOnUse" x1="-296.6383" y1="316.56" x2="-230.4391" y2="316.56">
							<stop  offset="0" style="stop-color:#1A171B;stop-opacity:0.5"/>
							<stop  offset="2.616996e-002" style="stop-color:#1A171B;stop-opacity:0.4869"/>
							<stop  offset="1" style="stop-color:#1A171B;stop-opacity:0"/>
						</linearGradient>
						<path class="st9" d="M-262.5,316.6c0,46.2,32,66.2,32,66.2c-36.6,0-66.2-29.6-66.2-66.2c0-36.6,29.6-66.2,66.2-66.2
							C-230.4,250.4-262.5,272.1-262.5,316.6z"/>
					</g>
					<g>
						<path class="st10" d="M-165.1,305.6c0.2,1.2,0.4,2.3,0.5,3.5c25.2,18,39.1,35.9,34.2,47c-4.7,10.4-25.1,12.4-52.7,6.8
							c-18-3.6-39-10.5-60.7-20.2c-20.3-9.1-38.3-19.5-52.6-29.8c-24.3-17.6-37.7-35.2-32.8-46c5.2-11.5,29.5-12.7,61.4-4.9
							c1-0.7,1.9-1.3,2.9-1.9c-41.1-11-73.6-9.5-80.6,6c-7.2,16.1,14.3,44.9,52,70.1c12.5,8.3,26.7,16.3,42.2,23.2
							c16.9,7.6,33.5,13.2,49.1,17c42.2,10.3,76.2,7,83.2-8.7C-112.3,352.8-131.4,328.5-165.1,305.6z"/>
						<g class="st11">
							<path class="st12" d="M-164.2,314.2c0,0.8,0.1,1.6,0.1,2.4c0,0.8,0,1.7-0.1,2.5c7,6.2,10.5,11.6,8.9,15
								c-1.2,2.8-5.7,3.9-12.3,3.7c-14.2-0.6-38.7-7.7-65.2-19.5c-24.5-11-44.9-23.5-55.6-33.4c-6.3-5.8-9.3-10.7-7.8-14
								c1.7-3.8,9.4-4.6,20.9-2.7c1.1-1,2.3-2,3.5-3c-23.9-5.2-41.3-4.2-45.1,4.1c-3.4,7.7,5.1,20.7,21.6,34.6
								c13.5,11.3,32.2,23.1,54.2,33c23.4,10.5,46.2,16.8,64.2,19c19.5,2.4,33.4-0.1,36.7-7.3C-136.8,340.5-146.3,327.8-164.2,314.2
								z"/>
						</g>
					</g>
				</g>
			</g>
		</g>
	</g>
</g>
</svg>
