<?xml version="1.0" encoding="utf-8"?>
<!-- Generator: Adobe Illustrator 19.0.0, SVG Export Plug-In . SVG Version: 6.00 Build 0)  -->
<svg version="1.1" id="Layer_1" xmlns="http://www.w3.org/2000/svg" xmlns:xlink="http://www.w3.org/1999/xlink" x="0px" y="0px"
	 viewBox="-412 214.6 127.8 125.9" style="enable-background:new -412 214.6 127.8 125.9;" xml:space="preserve">
<style type="text/css">
	.st0{fill:#FDC400;}
	.st1{fill:#F7E68D;}
	.st2{fill:#FAE281;}
	.st3{fill:#FFEEA3;}
	.st4{fill:#CDB465;}
	.st5{fill:#ECD17C;}
</style>
<g>
	<g>
		<g>
			<polygon class="st0" points="-314.6,263.6 -331.9,246.3 -306.8,236.9 			"/>
			<polygon class="st0" points="-314.6,263.6 -331.9,246.3 -306.8,236.9 			"/>
			<polygon class="st0" points="-314.6,263.6 -331.9,246.3 -306.8,236.9 			"/>
			<polygon class="st0" points="-321.8,251.8 -354.2,243.1 -330.8,214.6 			"/>
			<polygon class="st0" points="-342.6,244.8 -366.2,251.1 -361.9,224.6 			"/>
			<polygon class="st0" points="-359.5,248.1 -376.8,265.4 -386.3,240.3 			"/>
			<polygon class="st0" points="-371.2,253.2 -380.7,288.8 -412,263.2 			"/>
			<polygon class="st0" points="-378.7,275.5 -372.3,299.1 -398.8,294.8 			"/>
			<polygon class="st0" points="-377.4,290.3 -356.1,311.7 -387.1,323.4 			"/>
			<polygon class="st0" points="-364.4,305.5 -340.8,311.8 -357.8,332.6 			"/>
			<polygon class="st0" points="-352.8,312.6 -320.1,303.8 -326.1,340.5 			"/>
			<polygon class="st0" points="-331.3,308.4 -314,291.2 -304.5,316.3 			"/>
			<polygon class="st0" points="-319.3,300 -311.6,271.2 -286.3,292 			"/>
			<polygon class="st0" points="-311,285 -319.4,253.7 -284.2,259.5 			"/>
		</g>
		<circle class="st1" cx="-345.2" cy="278" r="36.5"/>
		<g>
			<defs>
				<circle id="SVGID_1_" cx="-345.2" cy="278" r="36.5"/>
			</defs>
			<clipPath id="SVGID_2_">
				<use xlink:href="#SVGID_1_"  style="overflow:visible;"/>
			</clipPath>
		</g>
	</g>
	<g>
		<circle class="st2" cx="-345.2" cy="278.2" r="36.6"/>
		<path class="st3" d="M-332.3,265.6c0,0-0.8,1-1.8,1.4c0,0-0.9,4.3,4.6,7.2c5.6,2.9,8.3-0.8,8.3-0.8s-0.4-0.9,0.2-2.1"/>
		<path class="st3" d="M-338.7,251.8c0,0-0.4,1.2-1.3,1.9c0,0,0.4,4.3,6.4,5.5c6.1,1.2,7.6-3.1,7.6-3.1s-0.6-0.7-0.4-2"/>
		
			<ellipse transform="matrix(0.8826 0.4701 -0.4701 0.8826 87.9328 185.0879)" class="st4" cx="-326.7" cy="268.6" rx="6.3" ry="4.3"/>
		<ellipse transform="matrix(0.8827 0.47 -0.47 0.8827 88.1155 185.1675)" class="st5" cx="-326.8" cy="269.1" rx="6" ry="3.9"/>
		<ellipse transform="matrix(0.8827 0.47 -0.47 0.8827 88.5663 185.0865)" class="st3" cx="-326.4" cy="269.9" rx="2.5" ry="1.6"/>
		<path class="st3" d="M-359.4,268.2c0,0-0.2,1.7-1.1,3c0,0,1.9,5.7,10.2,5.2c8.4-0.5,9-6.8,9-6.8s-1.1-0.8-1.2-2.6"/>
		<path class="st4" d="M-342.4,267.2c0.2,3.3-3.5,6.1-8.2,6.4c-4.7,0.3-8.6-2.2-8.8-5.5c-0.2-3.3,3.5-6.1,8.2-6.4
			C-346.5,261.5-342.6,264-342.4,267.2z"/>
		<path class="st5" d="M-343.7,267.8c0.2,3-2.9,5.5-6.9,5.7c-3.9,0.2-7.3-2-7.4-5c-0.2-3,2.9-5.5,6.9-5.7
			C-347.2,262.7-343.9,264.9-343.7,267.8z"/>
		<path class="st3" d="M-346.3,268.8c0.1,1.2-1.4,2.3-3.3,2.4c-1.9,0.1-3.4-0.8-3.5-2.1c-0.1-1.2,1.4-2.3,3.3-2.4
			C-347.9,266.6-346.4,267.6-346.3,268.8z"/>
		<path class="st3" d="M-374.8,271.5c0,0,0.7,0.9,0.8,1.8c0,0,3.2,1.8,6.5-1.7c3.3-3.6,0.9-6.6,0.9-6.6s-0.8,0.1-1.6-0.7"/>
		<path class="st4" d="M-368,264.3c1.5,1.4,1.1,4.1-0.7,6.1c-1.9,2-4.6,2.5-6,1.1c-1.5-1.4-1.1-4.1,0.7-6.1
			C-372.2,263.4-369.5,262.9-368,264.3z"/>
		<path class="st5" d="M-368.8,265.6c1.3,1.3,1.1,3.6-0.4,5.3c-1.6,1.7-3.9,2-5.2,0.7c-1.3-1.3-1.1-3.6,0.4-5.3
			C-372.5,264.7-370.1,264.4-368.8,265.6z"/>
		<path class="st3" d="M-369.9,284.1c0,0-0.4,1-1.1,1.6c0,0,0.2,3.7,4.9,4.6c4.8,0.9,6.1-2.8,6.1-2.8s-0.5-0.6-0.3-1.7"/>
		<path class="st4" d="M-360.2,286c-0.4,2-2.9,3.2-5.6,2.7c-2.7-0.5-4.5-2.5-4.1-4.5c0.4-2,2.9-3.2,5.6-2.7
			C-361.6,282-359.8,284-360.2,286z"/>
		<path class="st5" d="M-361.7,286c-0.4,1.8-2.5,2.9-4.7,2.5c-2.2-0.4-3.8-2.2-3.4-4c0.4-1.8,2.5-2.9,4.7-2.5
			C-362.8,282.4-361.3,284.2-361.7,286z"/>
		<path class="st3" d="M-345.1,301.9c0,0,0,1.3-0.6,2.3c0,0,2.1,4.1,8.9,3.1c6.9-1,6.7-5.8,6.7-5.8s-1-0.5-1.2-1.8"/>
		<path class="st4" d="M-331.3,299.9c0.5,2.4-2.3,4.8-6.1,5.4c-3.8,0.5-7.3-1-7.7-3.4c-0.5-2.4,2.3-4.8,6.1-5.4
			C-335.2,296-331.7,297.5-331.3,299.9z"/>
		<path class="st5" d="M-333.3,300.6c0.4,2.2-1.9,4.3-5.1,4.8c-3.2,0.5-6.1-0.9-6.6-3.1c-0.4-2.2,1.9-4.3,5.1-4.8
			C-336.6,297-333.7,298.4-333.3,300.6z"/>
		<path class="st4" d="M-353.9,250.1c0.4,1.2-0.7,2.6-2.3,3.1c-1.6,0.5-3.2-0.1-3.6-1.3c-0.4-1.2,0.7-2.6,2.3-3.1
			C-355.9,248.3-354.3,248.9-353.9,250.1z"/>
		<path class="st5" d="M-354.7,250.5c0.3,1.1-0.5,2.3-1.9,2.7c-1.4,0.4-2.7-0.1-3.1-1.2c-0.3-1.1,0.5-2.3,1.9-2.7
			C-356.4,248.9-355.1,249.4-354.7,250.5z"/>
		<path class="st4" d="M-333.1,284.1c0.4,1.5-0.7,3.2-2.4,3.8c-1.7,0.6-3.5-0.1-3.8-1.6c-0.4-1.5,0.7-3.2,2.4-3.8
			C-335.2,281.9-333.4,282.6-333.1,284.1z"/>
		<path class="st5" d="M-333.9,284.7c0.4,1.3-0.5,2.8-2,3.4c-1.5,0.5-2.9-0.1-3.3-1.5c-0.4-1.3,0.5-2.8,2-3.4
			C-335.7,282.7-334.3,283.3-333.9,284.7z"/>
		<path class="st4" d="M-317.6,286.3c0.4,1.5-0.7,3.2-2.4,3.8c-1.7,0.6-3.5-0.1-3.8-1.6c-0.4-1.5,0.7-3.2,2.4-3.8
			C-319.7,284.2-318,284.9-317.6,286.3z"/>
		<path class="st5" d="M-318.5,286.9c0.4,1.3-0.5,2.8-2,3.4c-1.5,0.5-2.9-0.1-3.3-1.5c-0.4-1.3,0.5-2.8,2-3.4
			C-320.3,284.9-318.8,285.6-318.5,286.9z"/>
		
			<ellipse transform="matrix(0.9602 0.2792 -0.2792 0.9602 57.3338 102.8722)" class="st4" cx="-332.5" cy="252.7" rx="6.3" ry="4.3"/>
		
			<ellipse transform="matrix(0.9603 0.2791 -0.2791 0.9603 57.4472 102.8746)" class="st5" cx="-332.5" cy="253.2" rx="6" ry="3.9"/>
		
			<ellipse transform="matrix(0.9985 -5.403218e-002 5.403218e-002 0.9985 -15.9713 -17.8035)" class="st3" cx="-337.2" cy="286.5" rx="0.7" ry="0.5"/>
		<path class="st4" d="M-354.9,299.2c0.4,1.5-0.7,3.2-2.4,3.8c-1.7,0.6-3.5-0.1-3.8-1.6c-0.4-1.5,0.7-3.2,2.4-3.8
			C-357,297-355.3,297.7-354.9,299.2z"/>
		<path class="st5" d="M-355.7,299.7c0.4,1.3-0.5,2.8-2,3.4c-1.5,0.5-2.9-0.1-3.3-1.5c-0.4-1.3,0.5-2.8,2-3.4
			C-357.6,297.7-356.1,298.4-355.7,299.7z"/>
		
			<ellipse transform="matrix(0.9985 -5.406104e-002 5.406104e-002 0.9985 -16.8259 -18.9699)" class="st3" cx="-359.1" cy="301.5" rx="0.7" ry="0.5"/>
		<path class="st4" d="M-349,290.5c0.2,0.7-0.3,1.6-1.2,1.9c-0.9,0.3-1.7,0-1.9-0.8c-0.2-0.7,0.3-1.6,1.2-1.9
			C-350.1,289.4-349.2,289.8-349,290.5z"/>
		<path class="st5" d="M-349.5,290.8c0.2,0.7-0.3,1.4-1,1.7c-0.7,0.3-1.4-0.1-1.6-0.7c-0.2-0.7,0.3-1.4,1-1.7
			C-350.4,289.8-349.6,290.1-349.5,290.8z"/>
		
			<ellipse transform="matrix(0.9985 -5.429523e-002 5.429523e-002 0.9985 -16.3537 -18.6328)" class="st3" cx="-351.1" cy="291.7" rx="0.3" ry="0.2"/>
		
			<ellipse transform="matrix(0.9986 -5.362042e-002 5.362042e-002 0.9986 -16.7126 -17.7907)" class="st3" cx="-339.9" cy="302.6" rx="1.4" ry="1"/>
		<ellipse transform="matrix(0.5797 0.8148 -0.8148 0.5797 78.4134 419.9166)" class="st3" cx="-367.8" cy="286" rx="1.4" ry="1"/>
		
			<ellipse transform="matrix(0.9985 -5.401945e-002 5.401945e-002 0.9985 -16.0844 -16.9577)" class="st3" cx="-321.7" cy="289.1" rx="0.7" ry="0.5"/>
		
			<ellipse transform="matrix(0.9985 -5.427013e-002 5.427013e-002 0.9985 -15.2707 -19.8088)" class="st3" cx="-372.4" cy="271.3" rx="0.7" ry="0.5"/>
		
			<ellipse transform="matrix(0.9985 -5.399975e-002 5.399975e-002 0.9985 -14.2865 -17.6075)" class="st3" cx="-333" cy="255.6" rx="0.7" ry="0.5"/>
		
			<ellipse transform="matrix(0.9986 -5.356221e-002 5.356221e-002 0.9986 -13.9991 -18.7524)" class="st3" cx="-356.9" cy="251.8" rx="0.7" ry="0.5"/>
	</g>
</g>
</svg>
