<?xml version="1.0" encoding="utf-8"?>
<!-- Generator: Adobe Illustrator 19.0.0, SVG Export Plug-In . SVG Version: 6.00 Build 0)  -->
<svg version="1.1" id="Layer_1" xmlns="http://www.w3.org/2000/svg" xmlns:xlink="http://www.w3.org/1999/xlink" x="0px" y="0px"
	 viewBox="-410.4 219.1 132.4 132.4" style="enable-background:new -410.4 219.1 132.4 132.4;" xml:space="preserve">
<style type="text/css">
	.st0{fill:none;stroke:#C6C7C8;stroke-width:2;stroke-miterlimit:10;}
	.st1{fill:#91C2AD;}
	.st2{fill:#0CBCB7;}
	.st3{fill:url(#SVGID_1_);}
</style>
<g>
	<g>
		<g>
			<g>
				<g>
					<path class="st0" d="M-347.5,226.5"/>
				</g>
				<g>
					<g>
						<g>
							<circle class="st1" cx="-344.2" cy="285.3" r="66.2"/>
						</g>
						<g>
							<g>
								<path class="st2" d="M-390.9,332.1c2.6,2.6,5.4,4.9,8.3,7c17.6-3.3,44.6-5.6,75.7,0.8c4.8-3.3,9.1-7.2,12.9-11.5
									C-334.1,320.2-371.7,327.1-390.9,332.1z"/>
							</g>
							<g>
								<path class="st2" d="M-300.1,235.8c-27.6,4.8-66.2-1.1-83-4.1c-4.1,3-7.9,6.5-11.3,10.4c25.1,11,70.5,28,115.1,29.8
									C-282.2,257.7-289.7,245.1-300.1,235.8z"/>
							</g>
							<g>
								<path class="st2" d="M-410.1,278.5c-0.2,2.2-0.3,4.4-0.3,6.7c0,2.4,0.1,4.7,0.4,7c39.8-0.7,73.6,15.3,4.5,18
									c1.5,3.8,3.4,7.3,5.6,10.7l117.8-12.7c2.3-6.2,3.7-12.9,4-19.9C-313.1,292.8-373.1,284.6-410.1,278.5z"/>
							</g>
						</g>
						<g>
							<ellipse class="st2" cx="-375.2" cy="269.3" rx="12.7" ry="3.8"/>
						</g>
						<ellipse class="st2" cx="-326.7" cy="229.6" rx="3.8" ry="2.8"/>
						<ellipse class="st2" cx="-359" cy="341.4" rx="3.8" ry="1.7"/>
						<ellipse class="st2" cx="-296.7" cy="317.8" rx="2.2" ry="3.7"/>
					</g>
					<g>
						<linearGradient id="SVGID_1_" gradientUnits="userSpaceOnUse" x1="-410.375" y1="285.2654" x2="-344.1758" y2="285.2654">
							<stop  offset="0" style="stop-color:#1A171B;stop-opacity:0.5"/>
							<stop  offset="2.616996e-002" style="stop-color:#1A171B;stop-opacity:0.4869"/>
							<stop  offset="1" style="stop-color:#1A171B;stop-opacity:0"/>
						</linearGradient>
						<path class="st3" d="M-376.2,285.3c0,46.2,32,66.2,32,66.2c-36.6,0-66.2-29.6-66.2-66.2c0-36.6,29.6-66.2,66.2-66.2
							C-344.2,219.1-376.2,240.8-376.2,285.3z"/>
					</g>
				</g>
			</g>
		</g>
	</g>
</g>
</svg>
