<?xml version="1.0" encoding="utf-8"?>
<!-- Generator: Adobe Illustrator 19.0.0, SVG Export Plug-In . SVG Version: 6.00 Build 0)  -->
<svg version="1.1" id="Layer_1" xmlns="http://www.w3.org/2000/svg" xmlns:xlink="http://www.w3.org/1999/xlink" x="0px" y="0px"
	 viewBox="-410.4 219.1 132.4 132.4" style="enable-background:new -410.4 219.1 132.4 132.4;" xml:space="preserve">
<style type="text/css">
	.st0{fill:none;stroke:#C6C7C8;stroke-width:2;stroke-miterlimit:10;}
	.st1{fill:#CBBA97;}
	.st2{fill:#B89876;}
	.st3{fill:#DBC59E;}
	.st4{fill:#F8E2B2;}
	.st5{fill:#C4966E;}
	.st6{fill:url(#SVGID_1_);}
</style>
<g>
	<g>
		<g>
			<g>
				<g>
					<path class="st0" d="M-344,227"/>
				</g>
				<g>
					<g>
						<g>
							<circle class="st1" cx="-344.2" cy="285.3" r="66.2"/>
						</g>
						<g>
							<g>
								<path class="st2" d="M-290.1,247.1c-3.1-4.3-6.6-8.3-10.6-11.8c-5.6,5.1-25.6,12.2-95.3,8.6c-1.7,2.1-3.3,4.4-4.7,6.7
									c8,0.3,26.8,1.6,44.5,6.2C-338.7,261.5-305.6,252.1-290.1,247.1z"/>
							</g>
							<g>
								<path class="st2" d="M-326.4,303.2c-17,8.4-20.1,1.6-27.4,3.2c-3.7,0.8-4.4,3.5-14.2,4.9c-16,2.3-19.2,2.4-36.3,1.6
									c0.9,1.9,1.8,3.7,2.8,5.4c13.6,0.4,76.5,1.4,88.4-9.6c0,0,15.7-11.1,33.6-9c0.5-2.1,0.8-4.2,1.1-6.3
									C-287.9,294.1-312.8,296.5-326.4,303.2z"/>
							</g>
							<g>
								<path class="st3" d="M-398.8,322.6c3.5,5.1,7.7,9.7,12.5,13.7c8.5-4.7,31.3-11.4,89.4-4.7c2.9-3,5.6-6.2,7.9-9.7
									C-303.7,323.7-351.5,328.4-398.8,322.6z"/>
							</g>
							<g>
								<path class="st4" d="M-300.7,235.4c-5.4-4.7-11.6-8.6-18.3-11.3c-14.5,15-53.5,15.1-71.9,14.3c-1.8,1.8-3.5,3.7-5.1,5.7
									C-326.3,247.6-306.3,240.5-300.7,235.4z"/>
							</g>
							<path class="st4" d="M-279.8,269.8c-2-8.3-5.5-16-10.3-22.7c-15.5,5-48.6,14.4-66.1,9.9c-17.8-4.6-36.5-5.9-44.5-6.2
								c-0.9,1.5-1.7,3-2.5,4.6c7.4,1.8,19.3,6.9,25.4,8.9C-336.1,277.9-294.1,272.4-279.8,269.8z"/>
							<path class="st4" d="M-368,311.3c9.7-1.4,10.5-4.1,14.2-4.9c7.3-1.6,10.4,5.2,27.4-3.2c13.6-6.7,38.5-9.1,47.9-9.9
								c0.3-2.7,0.5-5.4,0.5-8.1c0,0,0,0,0,0c-9.1,3.8-26.8,4.4-26.8,4.4s-21.1-1.2-52.6,3.2c-24.2,3.3-44.3,2.7-52.3,2.3
								c0.9,6.3,2.8,12.2,5.3,17.8C-387.2,313.7-384,313.6-368,311.3z"/>
							<g>
								<path class="st5" d="M-313.2,308.7c-11.8,11.1-74.7,10-88.4,9.6c0.8,1.5,1.7,2.9,2.7,4.3c47.4,5.8,95.1,1.1,109.7-0.6
									c4.5-6.7,7.7-14.2,9.5-22.3C-297.5,297.6-313.2,308.7-313.2,308.7z"/>
							</g>
							<path class="st4" d="M-386.3,336.3c2.6,2.1,5.3,4,8.1,5.8c30.8-5.1,55.5-1.4,66.3,1c5.5-3.1,10.5-6.9,14.9-11.4
								C-355,324.9-377.8,331.6-386.3,336.3z"/>
							<path class="st5" d="M-278.4,278.3c-0.1-1.1-0.2-2.1-0.4-3.2c-13.7,1.7-80.1,8.5-128.6-9.6c-1.7,5.6-2.7,11.5-2.9,17.6
								C-395.1,284.7-331,290.3-278.4,278.3z"/>
						</g>
					</g>
					<g>
						<linearGradient id="SVGID_1_" gradientUnits="userSpaceOnUse" x1="-410.4122" y1="285.2544" x2="-344.2124" y2="285.2544">
							<stop  offset="0" style="stop-color:#1A171B;stop-opacity:0.5"/>
							<stop  offset="2.616996e-002" style="stop-color:#1A171B;stop-opacity:0.4869"/>
							<stop  offset="1" style="stop-color:#1A171B;stop-opacity:0"/>
						</linearGradient>
						<path class="st6" d="M-376.2,285.3c0,46.2,32,66.2,32,66.2c-36.6,0-66.2-29.6-66.2-66.2c0-36.6,29.6-66.2,66.2-66.2
							C-344.2,219.1-376.2,240.8-376.2,285.3z"/>
					</g>
				</g>
			</g>
		</g>
	</g>
</g>
</svg>
